<?xml version="1.0" encoding="utf-8"?>
<!-- Generator: Adobe Illustrator 15.0.0, SVG Export Plug-In . SVG Version: 6.00 Build 0)  -->
<!DOCTYPE svg PUBLIC "-//W3C//DTD SVG 1.1//EN" "http://www.w3.org/Graphics/SVG/1.1/DTD/svg11.dtd">
<svg version="1.1" id="Layer_2" xmlns="http://www.w3.org/2000/svg" xmlns:xlink="http://www.w3.org/1999/xlink" x="0px" y="0px"
	 width="600px" height="400.615px" viewBox="0 0 600 400.615" enable-background="new 0 0 600 400.615" xml:space="preserve">
<rect fill="#FF0000" width="600" height="400.615"/>
<g>
	<g>
		<path fill="#FFCC00" d="M87.385,41.352L99.36,78.038l38.592,0.054l-31.19,22.728l11.875,36.718l-31.252-22.641l-31.252,22.641
			l11.875-36.718l-31.19-22.728l38.592-0.054L87.385,41.352 M87.385,24.694l-4.914,15.054L71.657,72.874L36.81,72.922l-15.834,0.022
			l12.797,9.325l28.164,20.522l-10.722,33.154l-4.873,15.067l12.824-9.29l28.219-20.444l28.22,20.444l12.824,9.29l-4.873-15.067
			l-10.723-33.155l28.164-20.522l12.797-9.325l-15.834-0.022l-34.847-0.048L92.299,39.748L87.385,24.694L87.385,24.694z"/>
	</g>
</g>
<g>
	<polygon fill="#FFCC00" points="239.78,228.768 249.474,258.469 280.718,258.514 255.468,276.912 265.083,306.642 239.78,288.311 
		214.479,306.642 224.091,276.912 198.841,258.514 230.085,258.469 	"/>
</g>
<g>
	<polygon fill="#FFCC00" points="500.549,228.768 510.243,258.469 541.487,258.514 516.238,276.912 525.851,306.642 
		500.549,288.311 475.248,306.642 484.86,276.912 459.609,258.514 490.854,258.469 	"/>
</g>
<g>
	<polygon fill="#FFCC00" points="370.163,125.384 379.858,155.084 411.103,155.129 385.852,173.527 395.467,203.257 
		370.163,184.926 344.861,203.257 354.475,173.527 329.225,155.129 360.469,155.084 	"/>
</g>
</svg>
