<?xml version="1.0" encoding="UTF-8" standalone="no"?>
<!-- Creator: CorelDRAW 2018 (64-Bit Evaluation Version) -->

<svg
   xml:space="preserve"
   width="480"
   height="400"
   version="1.1"
   style="clip-rule:evenodd;fill-rule:evenodd;image-rendering:optimizeQuality;shape-rendering:geometricPrecision;text-rendering:geometricPrecision"
   viewBox="0 0 480 400"
   id="svg1088"
   sodipodi:docname="Ethiopian_Peoples'_Revolutionary_Party.svg"
   inkscape:version="1.1 (c68e22c387, 2021-05-23)"
   xmlns:inkscape="http://www.inkscape.org/namespaces/inkscape"
   xmlns:sodipodi="http://sodipodi.sourceforge.net/DTD/sodipodi-0.dtd"
   xmlns="http://www.w3.org/2000/svg"
   xmlns:svg="http://www.w3.org/2000/svg"><sodipodi:namedview
   id="namedview1090"
   pagecolor="#ffffff"
   bordercolor="#999999"
   borderopacity="1"
   inkscape:pageshadow="0"
   inkscape:pageopacity="0"
   inkscape:pagecheckerboard="0"
   showgrid="false"
   fit-margin-top="0"
   fit-margin-left="0"
   fit-margin-right="0"
   fit-margin-bottom="0"
   inkscape:zoom="1.1375"
   inkscape:cx="240"
   inkscape:cy="200"
   inkscape:window-width="1366"
   inkscape:window-height="705"
   inkscape:window-x="-8"
   inkscape:window-y="-8"
   inkscape:window-maximized="1"
   inkscape:current-layer="Layer_x0020_1"
   showguides="false" />
 <defs
   id="defs960"><style
     type="text/css"
     id="style958">
   <![CDATA[
    .str0 {stroke:#ED3237;stroke-width:4;stroke-linecap:round;stroke-miterlimit:2.61313}
    .str1 {stroke:#C4C4C4;stroke-width:5;stroke-linecap:round;stroke-miterlimit:2.61313}
    .fil2 {fill:none}
    .fil6 {fill:#E6E7E8}
    .fil5 {fill:#373435}
    .fil3 {fill:#FFF212}
    .fil4 {fill:#ED3237}
    .fil1 {fill:#E59A37}
    .fil7 {fill:#D2E28B}
    .fil0 {fill:#00A859}
   ]]>
  </style></defs>
 <g
   id="Layer_x0020_1"
   inkscape:label="Layer 1"
   inkscape:groupmode="layer"
   transform="translate(-19.39,-61.8)">
  <metadata
   id="CorelCorpID_0Corel-Layer" />
  <path
   class="fil0"
   d="m 188.2841,393.23237 c -14.98,1.07 -25.71,3.21 -30.87,3.04 -7.02,-0.22 0.22,-2.7 7.03,-4.05 6.81,-1.35 15.81,-4.96 15.81,-4.96 0,0 -16.03,2.7 -27.67,3.15 -11.64,0.46 -13.39,-0.45 -13.39,-0.45 0,0 2.19,-2.48 10.1,-3.15 7.9,-0.68 12.08,-1.36 12.08,-1.36 0,0 -24.05,-1.01 -29.54,-1.01 -5.49,0 -3.18,-1.91 6.04,-3.27 9.22,-1.35 12.95,0.23 14.05,-0.22 1.1,-0.45 -7.52,-0.4 -26.85,-4.68 -19.32,-4.28 -20.81,-6.14 -16.19,-6.14 4.61,0 19.21,0.11 19.21,0.11 0,0 -24.48,-4.62 -30.629997,-5.63 -16.76,-2.77 13.139997,-5.32 13.609997,-5.53 0,0 -23.609997,-1.01 -27.119997,-2.81 -3.51,-1.81 15.05,-3.02 16.799997,-3.84 1.75,-0.81 -21.299997,-1.24 -22.839997,-4.17 -1.54,-2.93 16.91,-2.47 16.91,-2.47 0,0 -18.45,-2.71 -24.38,-5.87 -5.93,-3.15 15.6,-2.25 15.6,-2.25 -3.18,-0.61 -36.42,-10.61 -29.65,-11.94 2.85,-0.57 27.89,2.81 27.89,2.81 0,0 -20.21,-5.86 -25.48,-9.35 -5.27,-3.49 -8.67,-9.24 -8.67,-9.24 0,0 4.83,0.9 8.23,2.93 3.41,2.03 13.51,3.94 13.51,3.94 0,0 -19.32,-9.47 -23.28,-13.97 -3.95,-4.51 -3.73,-5.64 -3.73,-5.64 8.57,0.8 18.15,6.77 27.01,9.69 -14.08,-6.89 -30.1,-12.64 -34.7,-28.96 1.73,0.61 17.6,12.6 22.29,15.21 -6.27,-8.23 -8.41,-9.15 -12.31,-14.59 -4.31,-6.02 -7.77,-12.69 -8.44,-19.78 -0.32,-3.42 5.73,11.2 13.73,14.09 0,0 -7.23,-14.74 -9.82,-18.69 -2.59,-3.94 -4.3,-11.11 -2.77,-9.53 1.54,1.58 13.03,12.89 13.03,12.89 0,0 -9.67,-12.06 -11.2,-17.92 -1.54,-5.86 -0.88,-7.32 -0.88,-7.32 0,0 3.62,4.84 5.93,8.34 2.3,3.49 7.24,6.76 7.24,6.76 0,0 -4.17,-7.44 -6.91,-13.3 -2.75,-5.86 -3.41,-11.49 -3.41,-11.49 0,0 3.41,1.69 4.95,6.31 1.53,4.62 8.12,9.01 8.12,9.01 0,0 -0.77,-6.76 -4.5,-12.85 -3.73,-6.08 -7.8,-13.29 -7.8,-13.29 0,0 0,-3.38 2.64,0.11 2.63,3.49 9.77,12.17 9.77,12.17 0,0 -7.03,-12.62 -8.01,-19.27 -0.99,-6.65 0.76,-7.89 0.76,-7.89 3.29,6.74 4.48,14.22 8.79,20.4 -2.37,-6.05 -4.27,-13.82 -4.72,-19.16 -0.4,-4.82 0.5,-7.53 1.33,-7.21 2.27,0.88 2.37,22.99 17.35,31.11 0,0 -9.06,-10.14 -12.35,-20.29 -3.3,-10.14 -1.48,-18.71 -0.17,-19.16 2.29,-0.78 5.16,24.83 14.28,27.95 0,0 -5.71,-8.79 -8.35,-18.03 -2.63,-9.24 -1.09,-18.48 0.22,-18.93 1.32,-0.45 0.66,4.73 3.96,14.65 3.29,9.92 7.24,11.72 7.24,11.72 0,0 -2.19,-3.16 -4.61,-12.62 -2.41,-9.47 -2.41,-21.87 -0.22,-22.77 2.2,-0.9 0,2.26 1.54,9.69 1.54,7.44 7.91,16.91 7.47,13.08 -0.44,-3.84 -4.18,-20.96 -3.52,-25.92 0.66,-4.96 3.96,-4.29 4.39,2.93 0.44,7.21 5.6,17.58 5.6,17.58 0,0 -1.98,-5.41 -1.1,-15.33 0.88,-9.92 3.52,-17.81 4.83,-17.81 1.32,0 -0.22,6.99 -0.22,13.53 0,6.53 2.86,7.66 2.86,7.66 0,0 -0.44,-9.24 0.22,-15.55 0.66,-6.31 5.49,-15.55 5.929997,-11.27 0.44,4.28 2.63,17.8 2.63,17.8 0,0 0,-3.6 0.44,-9.24 0.44,-5.63 3.52,-14.87 5.05,-14.87 1.54,0 0,1.58 0,6.98 0,5.41 2.86,8.12 2.86,8.12 l 0.44,-6.31 c 0.44,-6.31 7.24,-18.03 5.93,-11.72 -1.32,6.31 -1.32,13.75 -1.32,13.75 0,0 1.98,-6.54 5.05,-13.53 3.08,-6.98 11.2,-12.62 9.22,-7.66 -1.97,4.96 -5.49,14.87 -2.19,9.69 3.29,-5.18 7.47,-11.72 10.98,-13.97 3.51,-2.26 -3.07,8.11 -3.07,8.11 0,0 11.19,-11.95 14.27,-12.62 3.07,-0.68 -5.27,11.27 -5.27,11.27 0,0 7.52,-8.88 14.38,-14.41 6.85,-5.51 13.45,-7.46 12.19,-5.54 -3.47,5.33 -10.81,9.26 -15.6,14.58 4.63,-2.98 9.31,-5.87 12.47,-8.39 8.55,-6.83 14.39,-10.9 16.64,-10.76 1.14,0.07 -3.09,4.69 -8.17,9.11 11.2,-5.94 20.38,-8.97 20.14,-7.31 -0.21,1.47 -10.28,6.97 -19.64,10.8 4.92,-1.16 9.46,-1.67 10.08,-1.15 1.04,0.85 -13.17,7.66 -19.54,9.91 -6.37,2.26 -19.22,9.92 -19.22,9.92 0,0 9.22,-2.75 13.84,-3.04 6.62,-0.43 -9.27,7 -20.13,12.7 -4.36,2.29 -7.44,2.89 -8.64,4.77 0,0 13.83,-0.23 7.46,1.8 -6.37,2.03 -17.79,7.66 -17.79,7.66 0,0 12.96,-2.25 7.47,0.68 -5.49,2.93 -12.74,8.11 -12.74,8.11 0,0 7.25,-2.03 5.93,0 -1.31,2.03 -13.06,10.26 -13.06,10.26 0,0 3.29,-0.79 5.93,-0.79 2.63,0 2.74,1.69 -2.42,3.6 -5.16,1.92 -8.78,6.54 -8.78,6.54 0,0 7.9,-3.38 6.15,0.79 -1.76,4.17 -9.45,8.11 -9.45,8.11 0,0 7.69,-0.45 6.15,1.69 -1.54,2.14 -9.879997,9.69 -9.879997,9.69 0,0 6.799997,-2.48 5.269997,1.81 -1.54,4.28 -8.569997,14.53 -8.569997,14.53 0,0 4.389997,-4.51 7.249997,-6.2 2.85,-1.69 5.05,0.9 0.33,6.99 -4.719997,6.09 -8.569997,13.75 -8.569997,13.75 0,0 5.379997,-4.85 9.009997,-5.97 3.62,-1.13 0,4.28 -3.51,8 -3.519997,3.72 -5.819997,9.8 -5.819997,9.8 0,0 1.64,-1.69 4.39,-4.17 2.739997,-2.48 8.029997,-5.67 4.069997,-0.71 -3.949997,4.96 -7.039997,16.15 -7.039997,16.15 0.89,0.51 8.409997,-10.99 7.579997,-6.31 -0.78,4.38 -9.989997,18.16 -6.369997,20.29 1.37,-4.01 8.879997,-16.35 6.809997,-8.68 -2.09,7.72 -6.669997,10.84 -1.76,20.17 0,0 -0.55,-3.94 1.32,-7.43 1.86,-3.5 3.95,-1.02 3.95,-1.02 0,0 -1.32,2.14 -1.1,8.57 0.22,6.42 4.39,12.62 3.85,10.25 -0.55,-2.36 1.42,-8.9 2.3,-10.59 0.88,-1.69 1.65,4.96 2.09,11.72 0.44,6.76 5.05,11.61 5.05,11.61 l -0.77,-3.84 c -0.77,-3.83 1.87,-8.79 2.85,-7.88 0.99,0.9 0.11,2.02 1.43,6.76 1.32,4.73 4.61,12.39 4.61,12.39 0,0 5.27,-12.28 5.16,-5.07 -0.11,7.22 6.04,15.55 6.04,15.55 0,0 2.42,-8.56 4.72,-2.36 2.31,6.2 5.71,16.11 5.71,16.11 0,0 1.87,-11.04 4.83,-3.04 2.97,8 7.58,10.93 7.58,10.93 0,0 -0.44,-4.51 1.97,-2.93 2.42,1.58 8.35,10.37 8.35,10.37 0,0 -1.1,-3.16 1.1,-3.16 2.19,0 1.97,1.13 4.61,4.96 2.64,3.83 7.47,7.67 7.47,7.67 0,0 -1.1,-6.76 1.53,-4.96 2.64,1.8 8.35,11.72 8.35,11.72 0,0 -0.66,-7.44 2.41,-3.61 3.08,3.84 8.13,9.7 8.13,9.7 0,0 1.76,-4.29 4.39,-1.36 2.64,2.93 7.91,7.89 10.76,9.92 7.85,2.2 24.39,8.55 46.57,15.5 47.32,14.8 110.96,34.63 104.98,38.93 -8.78,6.31 -27.89,-0.45 -33.16,-3.16 -18.62,-9.55 -99.24,-38.01 -122.19,-43.69 -11.23,-2.78 -22.21,-3.27 -28.8,-3.07 z"
   id="path963"
   style="fill:#078930;fill-opacity:1"
   sodipodi:nodetypes="ccscccccscscscccccscccccscccccccccccccccccccccccccccccccccccccccccccsccssscssccsscscccccccccccccccccccccccscscccsccccsccccscccccccccccccccsscccccccccccccsscccccccccccc" />
  <g
   id="_942194832"
   style="fill:#c0bab2;fill-opacity:1;stroke:#101010;stroke-width:1.1;stroke-miterlimit:4;stroke-dasharray:none;stroke-opacity:1"
   transform="translate(21.462391,14.762368)">
   
   <g
   id="g1041"
   style="fill:#c0bab2;fill-opacity:1;stroke:#101010;stroke-width:1.1;stroke-miterlimit:4;stroke-dasharray:none;stroke-opacity:1">
    <g
   id="g1037"
   style="fill:#c0bab2;fill-opacity:1;stroke:#101010;stroke-width:1.8;stroke-miterlimit:4;stroke-dasharray:none;stroke-opacity:1">
     
     
     
     
     
     
     
     
     
     
     
     
     
     
     
     
     
     
     
     
     
     
     
     
     
     
     
     
     
     
     
     
     
     
     
    </g>
    <g
   id="g27851"
   style="fill:#ece5db;fill-opacity:1;stroke:#101010;stroke-width:2.5;stroke-miterlimit:4;stroke-dasharray:none;stroke-opacity:1"><path
     class="fil1"
     d="m 308.98,361.96 c -1.66,1.95 -2.93,3.44 -2.93,3.44 0,0 -1.76,-4.29 -4.39,-1.36 -2.64,2.93 -7.91,7.89 -10.76,9.92 -7.85,2.2 -24.39,8.55 -46.57,15.5 -47.32,14.8 -110.96,34.63 -104.98,38.93 8.78,6.31 27.89,-0.45 33.16,-3.16 18.62,-9.55 99.24,-38.01 122.19,-43.69 4.68,-1.16 9.32,-1.92 13.62,-2.4 0.03,-5.21 0.22,-10.98 0.66,-17.18 z"
     id="path965"
     style="clip-rule:evenodd;fill:#ece5db;fill-opacity:1;fill-rule:evenodd;stroke:#101010;stroke-width:2.5;stroke-miterlimit:4;stroke-dasharray:none;stroke-opacity:1;image-rendering:optimizeQuality;shape-rendering:geometricPrecision;text-rendering:geometricPrecision" /><path
     class="fil1"
     d="m 311,355.24 c -11,8.02 -10.53,13.84 -10.65,16.63 -0.11,2.79 5.8,1.51 8.64,-1.05 2.84,-2.56 2.01,-15.58 2.01,-15.58 z"
     id="path967"
     style="clip-rule:evenodd;fill:#ece5db;fill-opacity:1;fill-rule:evenodd;stroke:#101010;stroke-width:2.5;stroke-miterlimit:4;stroke-dasharray:none;stroke-opacity:1;image-rendering:optimizeQuality;shape-rendering:geometricPrecision;text-rendering:geometricPrecision" /><path
     class="fil1"
     d="m 323.3,345.29 c -9.46,7.21 -8.75,17.1 -7.69,20.24 1.07,3.14 14.79,-3.37 7.69,-20.24 z"
     id="path969"
     style="clip-rule:evenodd;fill:#ece5db;fill-opacity:1;fill-rule:evenodd;stroke:#101010;stroke-width:2.5;stroke-miterlimit:4;stroke-dasharray:none;stroke-opacity:1;image-rendering:optimizeQuality;shape-rendering:geometricPrecision;text-rendering:geometricPrecision" /><path
     class="fil1"
     d="m 306.03,377.68 c 2.25,10.93 28.04,10.47 28.04,10.47 -7.34,-4.21 -17.35,-21.52 -28.04,-10.47 z"
     id="path971"
     style="clip-rule:evenodd;fill:#ece5db;fill-opacity:1;fill-rule:evenodd;stroke:#101010;stroke-width:2.5;stroke-miterlimit:4;stroke-dasharray:none;stroke-opacity:1;image-rendering:optimizeQuality;shape-rendering:geometricPrecision;text-rendering:geometricPrecision" /><path
     class="fil1"
     d="m 320.82,372.62 c 3.31,1.4 10.52,10.12 18.69,11.4 8.16,1.28 13.48,-2.85 13.48,-2.85 -9.67,-1.73 -14.17,-9.9 -20.95,-12.36 -3.52,-1.29 -8.53,-0.13 -11.22,3.81 z"
     id="path973"
     style="clip-rule:evenodd;fill:#ece5db;fill-opacity:1;fill-rule:evenodd;stroke:#101010;stroke-width:2.5;stroke-miterlimit:4;stroke-dasharray:none;stroke-opacity:1;image-rendering:optimizeQuality;shape-rendering:geometricPrecision;text-rendering:geometricPrecision" /><path
     class="fil1"
     d="m 331.76,359.53 c -10.21,-12.86 6.87,-21.6 7.8,-29.88 5.76,8.07 5.55,27.58 -7.8,29.88 z"
     id="path975"
     style="clip-rule:evenodd;fill:#ece5db;fill-opacity:1;fill-rule:evenodd;stroke:#101010;stroke-width:2.5;stroke-miterlimit:4;stroke-dasharray:none;stroke-opacity:1;image-rendering:optimizeQuality;shape-rendering:geometricPrecision;text-rendering:geometricPrecision" /><path
     class="fil1"
     d="m 337.55,366.51 c 3.52,1.05 9.41,10.43 23.58,8.08 3.61,-0.6 10.72,-5.4 10.72,-5.4 -7.6,-0.06 -11.6,-1.5 -16.02,-3.63 -7.22,-3.48 -12.51,-7.04 -18.28,0.95 z"
     id="path977"
     style="clip-rule:evenodd;fill:#ece5db;fill-opacity:1;fill-rule:evenodd;stroke:#101010;stroke-width:2.5;stroke-miterlimit:4;stroke-dasharray:none;stroke-opacity:1;image-rendering:optimizeQuality;shape-rendering:geometricPrecision;text-rendering:geometricPrecision" /><path
     class="fil1"
     d="m 348.84,358.48 c 2.84,-0.58 11.83,5.35 20.46,4.89 8.64,-0.47 24.96,-9.07 24.96,-9.07 -14.74,-6.36 -34.63,-11.01 -45.42,4.18 z"
     id="path979"
     style="clip-rule:evenodd;fill:#ece5db;fill-opacity:1;fill-rule:evenodd;stroke:#101010;stroke-width:2.5;stroke-miterlimit:4;stroke-dasharray:none;stroke-opacity:1;image-rendering:optimizeQuality;shape-rendering:geometricPrecision;text-rendering:geometricPrecision" /><path
     class="fil1"
     d="m 355.58,319.05 c -5.39,10.56 -12.97,16.54 -7.22,29.78 0,0 17.86,-1.98 7.22,-29.78 z"
     id="path981"
     style="clip-rule:evenodd;fill:#ece5db;fill-opacity:1;fill-rule:evenodd;stroke:#101010;stroke-width:2.5;stroke-miterlimit:4;stroke-dasharray:none;stroke-opacity:1;image-rendering:optimizeQuality;shape-rendering:geometricPrecision;text-rendering:geometricPrecision" /><path
     class="fil1"
     d="m 372.49,342.78 c 14.16,11 34.43,-4.15 49.09,-9.54 -16.02,-4.55 -39.81,-7.29 -49.09,9.54 z"
     id="path983"
     style="clip-rule:evenodd;fill:#ece5db;fill-opacity:1;fill-rule:evenodd;stroke:#101010;stroke-width:2.5;stroke-miterlimit:4;stroke-dasharray:none;stroke-opacity:1;image-rendering:optimizeQuality;shape-rendering:geometricPrecision;text-rendering:geometricPrecision" /><path
     class="fil1"
     d="m 363.98,339.75 c 10.8,-3.29 12.77,-25.66 11,-37.91 -6.99,3.89 -12.67,13.62 -13.5,21.26 -0.51,4.5 1.09,10.13 2.5,16.65 z"
     id="path985"
     style="clip-rule:evenodd;fill:#ece5db;fill-opacity:1;fill-rule:evenodd;stroke:#101010;stroke-width:2.5;stroke-miterlimit:4;stroke-dasharray:none;stroke-opacity:1;image-rendering:optimizeQuality;shape-rendering:geometricPrecision;text-rendering:geometricPrecision" /><path
     class="fil1"
     d="m 394.37,324.51 c 17.11,6.4 34.55,-8.66 47.19,-17.21 0,0 -4.11,0.16 -6.34,-0.02 -14.72,-1.2 -35.51,-1.54 -40.85,17.23 z"
     id="path987"
     style="clip-rule:evenodd;fill:#ece5db;fill-opacity:1;fill-rule:evenodd;stroke:#101010;stroke-width:2.5;stroke-miterlimit:4;stroke-dasharray:none;stroke-opacity:1;image-rendering:optimizeQuality;shape-rendering:geometricPrecision;text-rendering:geometricPrecision" /><path
     class="fil1"
     d="m 381.24,328.58 c 18.13,-9.22 7.34,-27.2 9.11,-42.56 0,0 -10.02,6.95 -11.46,23.26 -0.47,5.35 0.48,11.92 2.35,19.3 z"
     id="path989"
     style="clip-rule:evenodd;fill:#ece5db;fill-opacity:1;fill-rule:evenodd;stroke:#101010;stroke-width:2.5;stroke-miterlimit:4;stroke-dasharray:none;stroke-opacity:1;image-rendering:optimizeQuality;shape-rendering:geometricPrecision;text-rendering:geometricPrecision" /><path
     class="fil1"
     d="m 397.15,308.52 c 15.71,-10.88 4.82,-22.98 3.9,-39.43 0,0 -15.45,14.75 -3.9,39.43 z"
     id="path991"
     style="clip-rule:evenodd;fill:#ece5db;fill-opacity:1;fill-rule:evenodd;stroke:#101010;stroke-width:2.5;stroke-miterlimit:4;stroke-dasharray:none;stroke-opacity:1;image-rendering:optimizeQuality;shape-rendering:geometricPrecision;text-rendering:geometricPrecision" /><path
     class="fil1"
     d="m 407.32,303.75 c 19.52,2.44 32.41,-9.54 37.38,-16.63 4.97,-7.1 7.33,-15.82 7.33,-15.82 -11.62,22.11 -38.41,3.86 -44.71,32.45 z"
     id="path993"
     style="clip-rule:evenodd;fill:#ece5db;fill-opacity:1;fill-rule:evenodd;stroke:#101010;stroke-width:2.5;stroke-miterlimit:4;stroke-dasharray:none;stroke-opacity:1;image-rendering:optimizeQuality;shape-rendering:geometricPrecision;text-rendering:geometricPrecision" /><path
     class="fil1"
     d="m 404.13,250.6 c -1.89,5.98 -1.41,12.59 -0.12,18.44 2.02,9.16 6.03,16.45 6.03,16.45 7.36,-3.13 8.7,-10.11 5.87,-17.06 -2.78,-6.82 -9.97,-11.17 -11.78,-17.83 z"
     id="path995"
     style="clip-rule:evenodd;fill:#ece5db;fill-opacity:1;fill-rule:evenodd;stroke:#101010;stroke-width:2.5;stroke-miterlimit:4;stroke-dasharray:none;stroke-opacity:1;image-rendering:optimizeQuality;shape-rendering:geometricPrecision;text-rendering:geometricPrecision" /><path
     class="fil1"
     d="m 420.03,282.86 c 19.66,-0.65 30.45,-14.5 34.2,-22.28 3.75,-7.78 4.67,-16.77 4.67,-16.77 -7.88,23.65 -37.29,9.84 -38.87,39.05 z"
     id="path997"
     style="clip-rule:evenodd;fill:#ece5db;fill-opacity:1;fill-rule:evenodd;stroke:#101010;stroke-width:2.5;stroke-miterlimit:4;stroke-dasharray:none;stroke-opacity:1;image-rendering:optimizeQuality;shape-rendering:geometricPrecision;text-rendering:geometricPrecision" /><path
     class="fil1"
     d="m 411.09,233.72 c -2.41,6.79 -2,15.32 0.75,21.8 2.91,6.84 8.25,11.46 8.25,11.46 12.21,-8.69 -0.11,-19.8 -5.69,-27.48 -1.31,-1.8 -2.46,-3.72 -3.31,-5.78 z"
     id="path1007"
     style="clip-rule:evenodd;fill:#ece5db;fill-opacity:1;fill-rule:evenodd;stroke:#101010;stroke-width:2.5;stroke-miterlimit:4;stroke-dasharray:none;stroke-opacity:1;image-rendering:optimizeQuality;shape-rendering:geometricPrecision;text-rendering:geometricPrecision" /><path
     class="fil1"
     d="m 458.05,222.9 c 0.09,8.39 -1.49,14.75 -3.72,19.57 -4.42,9.6 -14.2,15.33 -24.43,16.02 -1.17,-15.86 4.82,-16.52 16.68,-22.75 7.34,-3.86 11.47,-12.84 11.47,-12.84 z"
     id="path1009"
     style="clip-rule:evenodd;fill:#ece5db;fill-opacity:1;fill-rule:evenodd;stroke:#101010;stroke-width:2.5;stroke-miterlimit:4;stroke-dasharray:none;stroke-opacity:1;image-rendering:optimizeQuality;shape-rendering:geometricPrecision;text-rendering:geometricPrecision" /><path
     class="fil1"
     d="m 451.85,202.61 c 1.74,7.55 1.58,13.46 0.56,18.05 -2.05,9.16 -9.63,15.45 -18.6,17.24 -4.17,-14.14 1.03,-15.43 10.36,-22.41 5.78,-4.32 7.68,-12.88 7.68,-12.88 z"
     id="path1011"
     style="clip-rule:evenodd;fill:#ece5db;fill-opacity:1;fill-rule:evenodd;stroke:#101010;stroke-width:2.5;stroke-miterlimit:4;stroke-dasharray:none;stroke-opacity:1;image-rendering:optimizeQuality;shape-rendering:geometricPrecision;text-rendering:geometricPrecision" /><path
     class="fil1"
     d="m 413.99,214.11 c -1.75,6.99 -0.53,15.44 2.84,21.64 3.55,6.53 9.31,10.64 9.31,10.64 11.32,-9.79 -2.01,-19.7 -8.3,-26.82 -1.48,-1.67 -2.82,-3.48 -3.85,-5.46 z"
     id="path1013"
     style="clip-rule:evenodd;fill:#ece5db;fill-opacity:1;fill-rule:evenodd;stroke:#101010;stroke-width:2.5;stroke-miterlimit:4;stroke-dasharray:none;stroke-opacity:1;image-rendering:optimizeQuality;shape-rendering:geometricPrecision;text-rendering:geometricPrecision" /><path
     class="fil1"
     d="m 443.06,182.91 c 2.57,6.78 3.34,12.27 3.21,16.65 -0.27,8.72 -5.49,15.45 -12.53,18.19 -5.56,-12.6 -1.51,-14.41 5.03,-21.99 4.05,-4.69 4.29,-12.85 4.29,-12.85 z"
     id="path1015"
     style="clip-rule:evenodd;fill:#ece5db;fill-opacity:1;fill-rule:evenodd;stroke:#101010;stroke-width:2.5;stroke-miterlimit:4;stroke-dasharray:none;stroke-opacity:1;image-rendering:optimizeQuality;shape-rendering:geometricPrecision;text-rendering:geometricPrecision" /><path
     class="fil1"
     d="m 411.81,195 c -0.37,6.71 1.92,14.2 5.61,19.24 3.89,5.31 9.21,8 9.21,8 7.74,-11.04 -4.64,-17.63 -10.85,-22.97 -1.46,-1.25 -2.83,-2.65 -3.97,-4.27 z"
     id="path1017"
     style="clip-rule:evenodd;fill:#ece5db;fill-opacity:1;fill-rule:evenodd;stroke:#101010;stroke-width:2.5;stroke-miterlimit:4;stroke-dasharray:none;stroke-opacity:1;image-rendering:optimizeQuality;shape-rendering:geometricPrecision;text-rendering:geometricPrecision" /><path
     class="fil1"
     d="m 434.4,163.96 c 3.43,5.17 4.99,9.63 5.53,13.34 1.06,7.41 -2.83,14.19 -9.03,17.99 -7.13,-9.44 -3.6,-11.82 1.4,-19.6 3.1,-4.81 2.1,-11.73 2.1,-11.73 z"
     id="path1019"
     style="clip-rule:evenodd;fill:#ece5db;fill-opacity:1;fill-rule:evenodd;stroke:#101010;stroke-width:2.5;stroke-miterlimit:4;stroke-dasharray:none;stroke-opacity:1;image-rendering:optimizeQuality;shape-rendering:geometricPrecision;text-rendering:geometricPrecision" /><path
     class="fil1"
     d="m 408.29,180.65 c 0.67,5.7 3.98,11.68 8.25,15.4 4.51,3.91 9.98,5.41 9.98,5.41 5.69,-10.42 -7.08,-14.18 -13.81,-17.79 -1.57,-0.84 -3.08,-1.83 -4.42,-3.02 z"
     id="path1021"
     style="clip-rule:evenodd;fill:#ece5db;fill-opacity:1;fill-rule:evenodd;stroke:#101010;stroke-width:2.5;stroke-miterlimit:4;stroke-dasharray:none;stroke-opacity:1;image-rendering:optimizeQuality;shape-rendering:geometricPrecision;text-rendering:geometricPrecision" /><path
     class="fil1"
     d="m 421.02,150.24 c 4.15,4.08 6.58,7.81 7.96,11.02 2.76,6.42 1.26,13.01 -2.92,17.29 -8.3,-7.31 -5.98,-9.95 -3.81,-17.59 1.35,-4.72 -1.23,-10.72 -1.23,-10.72 z"
     id="path1023"
     style="clip-rule:evenodd;fill:#ece5db;fill-opacity:1;fill-rule:evenodd;stroke:#101010;stroke-width:2.5;stroke-miterlimit:4;stroke-dasharray:none;stroke-opacity:1;image-rendering:optimizeQuality;shape-rendering:geometricPrecision;text-rendering:geometricPrecision" /><path
     class="fil1"
     d="m 402.23,166.88 c 1.62,5.1 5.51,10.21 9.78,13.19 4.5,3.15 9.36,4.02 9.36,4.02 2.84,-9.9 -8.57,-12.19 -14.87,-14.86 -1.48,-0.63 -2.93,-1.38 -4.27,-2.35 z"
     id="path1025"
     style="clip-rule:evenodd;fill:#ece5db;fill-opacity:1;fill-rule:evenodd;stroke:#101010;stroke-width:2.5;stroke-miterlimit:4;stroke-dasharray:none;stroke-opacity:1;image-rendering:optimizeQuality;shape-rendering:geometricPrecision;text-rendering:geometricPrecision" /><path
     class="fil1"
     d="m 392.88,152.88 c 2.51,4.93 7.27,9.69 12.03,12.29 5.02,2.74 9.98,3.2 9.98,3.2 1.02,-10.12 -10.66,-11.41 -17.37,-13.52 -1.58,-0.5 -3.15,-1.13 -4.64,-1.97 z"
     id="path1027"
     style="clip-rule:evenodd;fill:#ece5db;fill-opacity:1;fill-rule:evenodd;stroke:#101010;stroke-width:2.5;stroke-miterlimit:4;stroke-dasharray:none;stroke-opacity:1;image-rendering:optimizeQuality;shape-rendering:geometricPrecision;text-rendering:geometricPrecision" /><path
     class="fil1"
     d="m 407.49,137.79 c 4.49,3.4 8.33,8.87 9.98,13.89 1.74,5.29 1.15,10.04 1.15,10.04 -10.5,-1.17 -9.36,-12.41 -10.1,-19.16 -0.18,-1.58 -0.48,-3.19 -1.03,-4.77 z"
     id="path1029"
     style="clip-rule:evenodd;fill:#ece5db;fill-opacity:1;fill-rule:evenodd;stroke:#101010;stroke-width:2.5;stroke-miterlimit:4;stroke-dasharray:none;stroke-opacity:1;image-rendering:optimizeQuality;shape-rendering:geometricPrecision;text-rendering:geometricPrecision" /><path
     class="fil1"
     d="m 381.85,138.57 c 2.51,4.93 7.27,9.69 12.03,12.29 5.02,2.75 11.42,2.85 11.42,2.85 -5.72,-9.65 -12.11,-11.06 -18.81,-13.17 -1.58,-0.5 -3.15,-1.13 -4.64,-1.97 z"
     id="path1031"
     style="clip-rule:evenodd;fill:#ece5db;fill-opacity:1;fill-rule:evenodd;stroke:#101010;stroke-width:2.5;stroke-miterlimit:4;stroke-dasharray:none;stroke-opacity:1;image-rendering:optimizeQuality;shape-rendering:geometricPrecision;text-rendering:geometricPrecision" /><path
     class="fil1"
     d="m 389.19,126.29 c 5.17,1.71 10.3,5.19 13.25,8.77 3.1,3.78 3.29,13.73 3.29,13.73 -10.1,-7.06 -10.6,-15.46 -16.54,-22.5 z"
     id="path1033"
     style="clip-rule:evenodd;fill:#ece5db;fill-opacity:1;fill-rule:evenodd;stroke:#101010;stroke-width:2.5;stroke-miterlimit:4;stroke-dasharray:none;stroke-opacity:1;image-rendering:optimizeQuality;shape-rendering:geometricPrecision;text-rendering:geometricPrecision" /><path
     class="fil1"
     d="m 391.01,137.57 c -14.43,0.7 -18.81,-14.65 -18.81,-14.65 0,0 18.1,0.93 18.81,14.65 z"
     id="path1035"
     style="clip-rule:evenodd;fill:#ece5db;fill-opacity:1;fill-rule:evenodd;stroke:#101010;stroke-width:2.5;stroke-miterlimit:4;stroke-dasharray:none;stroke-opacity:1;image-rendering:optimizeQuality;shape-rendering:geometricPrecision;text-rendering:geometricPrecision" /><path
     class="fil1"
     d="m 373.8,130.97 c -8.75,-7.91 -21.9,-16.54 -31.48,-21.92 -8.02,-4.51 -13.35,-6.46 -13.35,-6.46 l -1.85,0.06 c -2.76,0.1 -1.11,0.29 0.69,1.09 14.11,6.28 27.18,15.42 39.54,24.66 1.25,0.93 3.73,2.8 3.73,2.8 z m -1.6,-12.05 C 363.45,111.5 350.29,103.6 340.72,98.76 332.7,94.7 327.37,93.05 327.37,93.05 l -1.79,0.16 c -2.51,0.22 -0.38,0.68 1.52,1.4 12.4,4.76 22.76,11.16 33.78,18.59 1.82,1.23 4.69,3.4 6.63,4.74 1.16,0.8 1.97,1.36 1.97,1.36 z m 15.43,5.02 c -8.75,-7.91 -21.9,-16.54 -31.48,-21.92 -5.23,-2.94 -9.32,-4.79 -11.53,-5.72 -2.12,-0.9 -1.74,-0.74 -4.04,-0.66 -1.86,0.06 -0.6,0.35 0.84,0.97 9.42,4.09 17.69,9.18 26.28,15.05 5.9,4.03 17.21,12.52 17.21,12.52 z m -18.39,-1.53 c -8.75,-7.42 -21.9,-15.32 -31.48,-20.16 -8.02,-4.06 -13.35,-5.71 -13.35,-5.71 l -2.2,0.2 c -2.09,0.18 0.36,0.76 1.8,1.31 8.21,3.13 14.67,6.72 22.23,11.3 6.02,3.65 11.87,7.59 17.56,11.55 0.91,0.63 2.72,1.89 2.72,1.89 z"
     id="path1039"
     style="fill:#ece5db;fill-opacity:1;stroke:#101010;stroke-width:1.1;stroke-miterlimit:4;stroke-dasharray:none;stroke-opacity:1" /></g>
   </g>
  </g>
  <g
   id="_940888992"
   style="fill:#da121a;fill-opacity:1"
   transform="translate(17.784095,14.762368)">
   <path
   id="line1044"
   style="fill:#da121a;fill-opacity:1;stroke:#da121a;stroke-width:4;stroke-linecap:round;stroke-miterlimit:2.61313"
   class="fil2 str0"
   d="M 231.64999,150.45 164.36,327.89001" />
   <path
   id="line1046"
   style="fill:#da121a;fill-opacity:1;stroke:#da121a;stroke-width:4;stroke-linecap:round;stroke-miterlimit:2.61313"
   class="fil2 str0"
   d="M 204.17999,126.11 110.39,175.33" />
   <path
   id="line1048"
   style="fill:#da121a;fill-opacity:1;stroke:#da121a;stroke-width:4;stroke-linecap:round;stroke-miterlimit:2.61313"
   class="fil2 str0"
   d="M 220.60001,144.64999 120.51,289.67001" />
   <path
   id="line1050"
   style="fill:#da121a;fill-opacity:1;stroke:#da121a;stroke-width:4;stroke-linecap:round;stroke-miterlimit:2.61313"
   class="fil2 str0"
   d="M 211.25999,136.38 101.96,233.21001" />
   <path
   id="line1052"
   style="fill:#da121a;fill-opacity:1;stroke:#da121a;stroke-width:4;stroke-linecap:round;stroke-miterlimit:2.61313"
   class="fil2 str0"
   d="m 199.56,113.89 -29.30001,6.87" />
   <path
   id="line1054"
   style="fill:#da121a;fill-opacity:1;stroke:#da121a;stroke-width:4;stroke-linecap:round;stroke-miterlimit:2.61313"
   class="fil2 str0"
   d="m 268.35001,150.45 67.29,177.44001" />
   <path
   id="line1056"
   style="fill:#da121a;fill-opacity:1;stroke:#da121a;stroke-width:4;stroke-linecap:round;stroke-miterlimit:2.61313"
   class="fil2 str0"
   d="m 295.82001,126.11 93.78998,49.22" />
   <path
   id="line1058"
   style="fill:#da121a;fill-opacity:1;stroke:#da121a;stroke-width:4;stroke-linecap:round;stroke-miterlimit:2.61313"
   class="fil2 str0"
   d="m 279.39999,144.64999 100.09,145.02002" />
   <path
   id="line1060"
   style="fill:#da121a;fill-opacity:1;stroke:#da121a;stroke-width:4;stroke-linecap:round;stroke-miterlimit:2.61313"
   class="fil2 str0"
   d="m 288.73999,136.38 109.30002,96.83001" />
   <path
   id="line1062"
   style="fill:#da121a;fill-opacity:1;stroke:#da121a;stroke-width:4;stroke-linecap:round;stroke-miterlimit:2.61313"
   class="fil2 str0"
   d="m 300.42999,113.89 29.31,6.87" />
  </g>
  <path
   class="fil0"
   d="m 207.7841,299.81237 c 40.00682,0 80.00341,0 120,0 l -6.13206,15 c -35.91196,0 -71.82392,0 -107.73588,0 z"
   id="path1065"
   style="fill:#078930;fill-opacity:1;stroke-width:1.00843" />
  <path
   class="fil3"
   d="m 227.7841,314.81237 h 80 l -10,12.5 h -60 z"
   id="path1067"
   style="fill:#fcdd09;fill-opacity:1;stroke-width:0.974727"
   sodipodi:nodetypes="ccccc" />
  <path
   class="fil4"
   d="m 237.7841,327.31237 c 19.99656,0 40.00344,0 60,0 l -3.06291,10 c -17.95462,0 -35.91956,0 -53.87418,0 z"
   id="path1069"
   style="fill:#da121a;fill-opacity:1;stroke-width:0.964323" />
  <path
   id="polygon1071"
   style="fill:#101010"
   class="fil5"
   d="m 245.0141,341.8 h 22.77 22.77 l -11.39,80.77237 h -11.38 -11.38 z"
   sodipodi:nodetypes="ccccccc" />
  <path
   class="fil6"
   d="m 290.75359,244.61237 c -8.87,15.11 -14.51,20.19 -17.5,29.9 -3.37,10.96 1.69,20.24 1.69,20.24 10.96,-20.09 13.95,-14.7 18.26,-41.7 -1.48,0.63 -3.08,1.05 -4.77,1.22 0,0 1.18,-3.76 2.32,-9.66 z"
   id="path1073"
   style="fill:#f1f2f3;fill-opacity:1" />
  <path
   class="fil4"
   d="m 273.25359,274.51237 c 2.99,-9.71 8.63,-14.79 17.5,-29.9 2.05,-10.65 3.95,-28.28 -1.47,-43.47 -8.44,-23.61 -21.93,-24.45 -21.93,-24.45 8.32,15.25 -2.2,59.43 -19.4,66.62 -0.91,0.38 -2.09,-3.77 -3.24,-7.43 -6.98,13.08 -7.72,27.67 -2.66,42.84 -9.84,-8.41 -13.04,-24.79 -9.98,-38.7 -13.45,18.69 -0.67,44.23 18.76,59.79 l 29.25,-3.7e-4 c 10.88,-13.82 29.23,-20.98963 28.97,-48.13963 -0.1,-11.14 -4.59,-18.48 -4.59,-18.48 1.02,8.17 -3.71,16.68 -11.26,19.86 -4.31,27 -7.3,21.61 -18.26,41.7 0,0 -5.06,-9.28 -1.69,-20.24 z"
   id="path1075"
   style="fill:#da121a;fill-opacity:1"
   sodipodi:nodetypes="ccccccccccccccc" />
  <path
   id="polygon1077"
   style="fill:#da121a"
   class="fil4"
   d="m 244.1141,149.39237 9.11,-27.84 -23.73,-17.17 29.29,0.06 9,-27.880002 9,27.880002 29.29,-0.06 -23.73,17.17 9.11,27.84 -23.67,-17.26 z" />
  <path
   id="line1079"
   style="fill:none;stroke:#ece5db;stroke-width:5;stroke-linecap:round;stroke-miterlimit:2.61313"
   class="fil2 str1"
   d="m 250.44411,348.72235 8.44001,69.14999" />
  <path
   id="line1081"
   style="fill:none;stroke:#ece5db;stroke-width:5;stroke-linecap:round;stroke-miterlimit:2.61313"
   class="fil2 str1"
   d="m 257.47266,350.62598 5.62164,45.97369" />
  <path
   id="line1083"
   style="fill:none;stroke:#ece5db;stroke-width:5;stroke-linecap:round;stroke-miterlimit:2.61313"
   class="fil2 str1"
   d="m 264.99225,351.9491 5.15774,43.97308" />
  <path
   class="fil7"
   d="m 225.1941,392.87237 c -48.07,-20.74 -84.91,-43.59 -109.35,-70.48 -37.419997,-41.17 -44.369997,-90.38 -7.02,-144.86 2.42,-3.54 5.93,-7.89 7.96,-11.94 0.04,-0.08 -128.289997,133.6 108.41,227.28 z"
   id="path1085" />
 </g>
</svg>
