<?xml version="1.0" encoding="UTF-8" standalone="no"?>
<!-- Generator: Adobe Illustrator 16.0.0, SVG Export Plug-In . SVG Version: 6.00 Build 0)  -->

<svg
   xmlns:dc="http://purl.org/dc/elements/1.1/"
   xmlns:cc="http://creativecommons.org/ns#"
   xmlns:rdf="http://www.w3.org/1999/02/22-rdf-syntax-ns#"
   xmlns:svg="http://www.w3.org/2000/svg"
   xmlns="http://www.w3.org/2000/svg"
   xmlns:sodipodi="http://sodipodi.sourceforge.net/DTD/sodipodi-0.dtd"
   xmlns:inkscape="http://www.inkscape.org/namespaces/inkscape"
   version="1.1"
   id="Capa_1"
   x="0px"
   y="0px"
   width="650"
   height="444"
   viewBox="0 0 650 443.99999"
   enable-background="new 0 0 766.461 500.975"
   xml:space="preserve"
   inkscape:version="0.91 r13725"
   sodipodi:docname="Bandera_FMLN_Oficial_2017.svg"><metadata
     id="metadata19"><rdf:RDF><cc:Work
         rdf:about=""><dc:format>image/svg+xml</dc:format><dc:type
           rdf:resource="http://purl.org/dc/dcmitype/StillImage" /><dc:title></dc:title></cc:Work></rdf:RDF></metadata><defs
     id="defs17" /><sodipodi:namedview
     pagecolor="#ffffff"
     bordercolor="#666666"
     borderopacity="1"
     objecttolerance="10"
     gridtolerance="10"
     guidetolerance="10"
     inkscape:pageopacity="0"
     inkscape:pageshadow="2"
     inkscape:window-width="1366"
     inkscape:window-height="715"
     id="namedview15"
     showgrid="false"
     fit-margin-top="0"
     fit-margin-left="0"
     fit-margin-right="0"
     fit-margin-bottom="0"
     inkscape:zoom="1.0627899"
     inkscape:cx="316.00272"
     inkscape:cy="174.70542"
     inkscape:window-x="-8"
     inkscape:window-y="-8"
     inkscape:window-maximized="1"
     inkscape:current-layer="Capa_1" /><g
     id="g4147"
     transform="matrix(0.84723561,0,0,0.88394445,-0.16012753,-0.31026451)"><rect
       id="rect3"
       height="502.29401"
       width="767.20099"
       y="0.35100001"
       x="0.189"
       style="clip-rule:evenodd;fill:#D3252F;fill-rule:evenodd" /><path
       id="path5"
       d="m 433.435,303.027 c 32.875,0 31.01,29.978 22.403,49.24 l -33.661,75.334 c -10.887,24.37 -20.391,45.663 -50.984,45.663 -22.34,0 -4.249,-29.363 3.021,-45.663 l 33.636,-75.415 c 3.057,-6.855 6.148,-13.319 -11.046,-13.319 -17.22,0 -38.054,13.692 -46.239,31.964 l -25.431,56.771 c -4.861,10.85 -20.047,45.604 -51.24,45.604 -21.421,0 -4.079,-29.325 3.193,-45.604 l 33.555,-75.123 c 2.775,-6.212 6.082,-13.555 -10.987,-13.555 -14.602,0 -36.303,13.566 -44.491,31.907 l -25.347,56.771 c -10.616,23.778 -26.531,45.662 -48.724,45.663 -23.015,-10e-4 -6.576,-29.437 0.768,-45.663 l 40.124,-88.678 c 9.347,-20.659 22.453,-36.229 45.467,-36.228 24.658,0 2.147,36.36 2.147,36.36 0,0 20.269,-36.029 68.19,-36.029 30.983,0 28.706,32.188 26.746,37.114 4.792,-11.796 34.379,-37.114 68.9,-37.114 z"
       inkscape:connector-curvature="0"
       style="fill:#ffffff" /><path
       id="path7"
       d="m 697.157,352.08 -33.639,75.521 c -8.888,19.953 -20.481,45.663 -51.202,45.663 -18.901,0 -4.284,-29.375 3.018,-45.663 l 33.636,-75.056 c 3.033,-6.771 6.013,-13.622 -13.274,-13.622 -14.601,0 -31.956,13.655 -40.083,31.907 l -25.276,56.771 c -10.848,24.362 -28.708,45.663 -50.901,45.663 -23.014,0 -4.241,-29.334 2.96,-45.663 l 39.107,-88.678 c 9.139,-20.722 23.31,-35.019 46.323,-35.019 24.655,0 2.051,35.019 2.051,35.019 0,0 23.364,-35.855 71.283,-35.856 30.982,10e-4 25.869,26.857 15.997,49.013 z"
       inkscape:connector-curvature="0"
       style="fill:#ffffff" /><path
       id="path9"
       d="m 496.159,426.97 c -9.099,20.446 -20.968,46.295 -51.528,46.295 -21.673,0 -4.346,-29.77 3.004,-46.295 l 91.096,-204.731 c 8.667,-19.478 22.838,-30.735 45.116,-30.735 19.256,0 8.318,19.786 3.417,30.796 l -91.105,204.67 z"
       inkscape:connector-curvature="0"
       style="fill:#ffffff" /><path
       id="path11"
       d="m 281.398,214.205 c 0,-0.016 10e-4,-0.032 10e-4,-0.048 0,-0.083 -0.015,-0.17 -0.017,-0.251 -0.007,-0.079 -0.008,-0.159 -0.016,-0.24 -0.353,-7.839 -8.9,-21.149 -37.403,-21.149 -0.501,0 -18.482,-2.095 -41.95,9.462 -23.468,11.561 -33.944,27.395 -40.512,35.187 -6.57,7.793 -14.105,18.649 -19.907,32.184 -5.802,13.536 -13.078,30.039 -13.078,30.039 l -12.139,-0.188 c -17.058,-0.263 -27.806,4.784 -32.25,15.147 -1.994,4.652 -1.558,8.468 1.304,11.438 2.86,2.974 8.088,4.517 15.683,4.634 l 14.007,0.219 -49.162,114.679 c -3.672,8.564 -4.075,15.133 -1.207,19.702 2.864,4.569 7.909,6.911 15.131,7.023 7.593,0.117 14.75,-2.034 21.471,-6.453 6.719,-4.42 11.917,-10.912 15.588,-19.477 l 49.162,-114.682 12.514,0.196 c 9.087,0.141 16.624,-0.699 22.605,-2.523 5.982,-1.822 10.492,-6.276 13.531,-13.361 4.26,-9.939 -3.318,-15.061 -22.741,-15.365 L 179.5,300.183 c 0,0 8.348,-19.194 11.046,-25.124 25.795,-56.698 63.804,-46.484 72.865,-45.359 1.035,0.227 2.105,0.356 3.208,0.356 8.189,0 14.829,-6.639 14.829,-14.829 0,-0.344 -0.028,-0.681 -0.05,-1.022 z"
       inkscape:connector-curvature="0"
       style="fill:#ffffff" /><polygon
       id="polygon13"
       points="300.303,135.189 295.908,184.762 240.767,161.949 70.038,235.385 178.166,136.054 72.16,91.798 240.767,91.798 308.376,32.761 303.686,91.798 401.913,91.798 "
       style="clip-rule:evenodd;fill:#ffffff;fill-rule:evenodd" /></g></svg>