<?xml version="1.0" encoding="utf-8"?>
<!DOCTYPE svg PUBLIC "-//W3C//DTD SVG 1.1//EN" "http://www.w3.org/Graphics/SVG/1.1/DTD/svg11.dtd">
<svg version="1.1" id="Flag of the KDP" xmlns="http://www.w3.org/2000/svg" xmlns:xlink="http://www.w3.org/1999/xlink" x="0px"
	 y="0px" width="750px" height="500px" viewBox="0 0 750 500" enable-background="new 0 0 750 500" xml:space="preserve">
<rect id="Yellow backdrop" fill="#FEF100" width="750" height="500"/>
<circle id="Red disc" fill="#EC1B23" cx="375" cy="250" r="150"/>
<g id="PDK">
	<rect x="267.946" y="157.407" fill="#FEF100" width="41.667" height="185.186"/>
	<rect x="374.427" y="157.407" fill="#FEF100" width="41.667" height="185.186"/>
	<polygon fill="#FEF100" points="425.251,248.2 425.251,157.407 482.054,157.407 	"/>
	<polygon fill="#FEF100" points="482.054,342.593 425.251,342.593 425.251,251.8 	"/>
	<path fill="#FEF100" d="M365.271,203.907c0,25.682-20.819,46.5-46.5,46.5c0-46.5,0-47.5,0-93
		C344.452,157.407,365.271,178.226,365.271,203.907z"/>
	<path fill="#FEF100" d="M318.771,296.093c0-25.682,20.819-46.5,46.5-46.5c0,46.5,0,47.5,0,93
		C339.589,342.593,318.771,321.774,318.771,296.093z"/>
</g>
</svg>
