<?xml version="1.0" encoding="UTF-8"?>
<svg width="313" height="313" version="1.1" viewBox="0 0 82.815 82.814" xmlns="http://www.w3.org/2000/svg" xmlns:cc="http://creativecommons.org/ns#" xmlns:dc="http://purl.org/dc/elements/1.1/" xmlns:rdf="http://www.w3.org/1999/02/22-rdf-syntax-ns#">
 <defs>
  <clipPath id="clipPath1112">
   <path d="m0 0h595.28v841.89h-595.28z"/>
  </clipPath>
  <clipPath id="clipPath1252">
   <path d="m0 0h595.28v841.89h-595.28z"/>
  </clipPath>
  <clipPath id="clipPath1272">
   <path d="m0 0h595.28v841.89h-595.28z"/>
  </clipPath>
 </defs>
 <metadata>
  <rdf:RDF>
   <cc:Work rdf:about="">
    <dc:format>image/svg+xml</dc:format>
    <dc:type rdf:resource="http://purl.org/dc/dcmitype/StillImage"/>
    <dc:title/>
   </cc:Work>
  </rdf:RDF>
 </metadata>
 <g transform="translate(213.16 14.077)">
  <g transform="matrix(.20499 0 0 -.20494 -232.77 127.05)">
   <g clip-path="url(#clipPath1112)">
    <g transform="translate(297.59 285.5)">
     <path d="m0 0c111 0 200.99 89.986 200.99 200.99s-89.986 200.99-200.99 200.99-200.99-89.986-200.99-200.99 89.986-200.99 200.99-200.99"/>
     <path d="m0 0c111 0 200.99 89.986 200.99 200.99s-89.986 200.99-200.99 200.99-200.99-89.986-200.99-200.99 89.986-200.99 200.99-200.99z" fill="none" stroke="#231f20" stroke-width="1.906"/>
    </g>
    <g transform="translate(297.55 687.48)">
     <path d="m0 0c-110.99-0.019-200.95-89.998-200.95-200.99 0-110.99 89.967-200.97 200.95-200.99z" fill="#186fa1"/>
     <path d="m0 0c-110.99-0.019-200.95-89.998-200.95-200.99 0-110.99 89.967-200.97 200.95-200.99z" fill="none" stroke="#231f20" stroke-width="1.906"/>
    </g>
    <g transform="translate(298.73 342.25)">
     <path d="m0 0c-0.07-1e-3 -0.14-2e-3 -0.209-2e-3v2e-3c-0.663 0-1.323 6e-3 -1.984 0.015v-0.017c-4.092 0.029-8.145 0.228-12.151 0.593l9e-3 0.094c-0.633 0.061-1.265 0.126-1.896 0.196l-0.01-0.105c-4.091 0.428-8.131 1.025-12.113 1.788l0.031 0.158c-0.624 0.122-1.247 0.248-1.868 0.378l-0.033-0.165c-4.022 0.827-7.984 1.822-11.877 2.977l0.058 0.192c-0.609 0.183-1.217 0.369-1.822 0.559l-0.06-0.197c-3.915 1.218-7.759 2.6-11.525 4.136l0.085 0.204c-0.588 0.241-1.175 0.485-1.759 0.733l-0.086-0.206c-3.77 1.597-7.459 3.351-11.059 5.252l0.106 0.197c-0.562 0.297-1.122 0.597-1.68 0.901l-0.105-0.197c-3.591 1.958-7.089 4.065-10.488 6.311l0.118 0.176c-0.531 0.349-1.059 0.703-1.585 1.059l-0.116-0.174c-3.378 2.298-6.655 4.735-9.821 7.303l0.12 0.146c-0.494 0.4-0.985 0.802-1.474 1.208l-0.117-0.143c-3.137 2.613-6.16 5.356-9.063 8.222l0.113 0.113c-0.453 0.445-0.903 0.893-1.351 1.345l-0.11-0.111c-2.865 2.904-5.609 5.927-8.222 9.063l0.1 0.082c-0.408 0.488-0.813 0.977-1.214 1.47l-0.097-0.08c-2.568 3.166-5.005 6.442-7.302 9.821l0.081 0.055c-0.358 0.524-0.713 1.051-1.065 1.58l-0.078-0.052c-2.246 3.398-4.353 6.897-6.31 10.488l0.061 0.033c-0.305 0.557-0.606 1.117-0.904 1.678l-0.059-0.032c-1.901 3.6-3.655 7.289-5.252 11.059l0.044 0.018c-0.248 0.584-0.493 1.171-0.733 1.759l-0.041-0.017c-1.537 3.765-2.918 7.609-4.137 11.525l0.028 8e-3c-0.189 0.606-0.374 1.214-0.556 1.823l-0.025-8e-3c-1.156 3.894-2.151 7.856-2.978 11.878l0.016 3e-3c-0.128 0.622-0.251 1.245-0.371 1.869l-0.016-3e-3c-0.763 3.983-1.36 8.023-1.787 12.114l0.01 1e-3c-0.067 0.631-0.129 1.263-0.187 1.896h-9e-3c-0.367 4.031-0.566 8.11-0.593 12.229h8e-3c-2e-3 0.318-6e-3 0.635-6e-3 0.953s4e-3 0.635 6e-3 0.952h-8e-3c0.027 4.12 0.226 8.199 0.593 12.23l9e-3 -1e-3c0.058 0.633 0.12 1.266 0.186 1.897l-9e-3 1e-3c0.427 4.09 1.024 8.131 1.787 12.113l0.015-3e-3c0.12 0.624 0.244 1.248 0.372 1.869l-0.016 3e-3c0.827 4.023 1.822 7.984 2.978 11.878l0.025-8e-3c0.181 0.609 0.366 1.217 0.555 1.823l-0.027 9e-3c1.219 3.915 2.6 7.759 4.137 11.524l0.04-0.017c0.241 0.588 0.485 1.175 0.734 1.759l-0.044 0.018c1.597 3.771 3.351 7.46 5.252 11.059l0.059-0.031c0.298 0.561 0.599 1.12 0.904 1.677l-0.062 0.033c1.958 3.591 4.065 7.09 6.311 10.489l0.077-0.052c0.352 0.529 0.707 1.056 1.066 1.58l-0.081 0.054c2.297 3.379 4.734 6.655 7.302 9.821l0.096-0.079c0.401 0.493 0.806 0.982 1.214 1.469l-0.099 0.082c2.613 3.136 5.356 6.16 8.222 9.063l0.11-0.11c0.447 0.451 0.897 0.899 1.35 1.345l-0.113 0.113c2.904 2.865 5.927 5.608 9.064 8.221l0.116-0.142c0.489 0.406 0.981 0.808 1.475 1.208l-0.12 0.145c3.166 2.568 6.442 5.006 9.821 7.303l0.116-0.173c0.525 0.357 1.053 0.71 1.584 1.06l-0.117 0.175c3.399 2.246 6.897 4.352 10.488 6.31l0.105-0.196c0.557 0.304 1.117 0.605 1.679 0.901l-0.105 0.197c3.6 1.901 7.289 3.654 11.059 5.251l0.085-0.205c0.585 0.248 1.171 0.493 1.759 0.733l-0.084 0.203c3.766 1.536 7.61 2.918 11.525 4.137l0.059-0.196c0.606 0.19 1.213 0.376 1.822 0.558l-0.057 0.191c3.893 1.155 7.855 2.15 11.877 2.977l0.033-0.163c0.621 0.13 1.243 0.256 1.868 0.378l-0.032 0.156c3.983 0.763 8.023 1.361 12.114 1.788l0.01-0.103c0.631 0.069 1.263 0.134 1.896 0.196l-9e-3 0.093c4.006 0.364 8.059 0.563 12.151 0.592l1.984 1e-3v39.187l-1.984-1e-3c-5.368-0.029-10.702-0.286-15.993-0.771l-1.897-0.183c-5.354-0.546-10.664-1.326-15.922-2.337l-1.87-0.368 0.377-1.896 3.262-16.399c-4.66-0.95-9.275-2.103-13.838-3.458l-1.824-0.553c-4.53-1.404-9.008-3.008-13.428-4.811l-6.391 15.43-0.747 1.803-1.76-0.732c-0.102-0.043-0.204-0.084-0.306-0.127-4.83-2.043-9.584-4.304-14.236-6.765l-1.681-0.899c-4.716-2.558-9.323-5.326-13.794-8.285l-1.585-1.06 1.101-1.646 9.26-13.86c-3.928-2.664-7.75-5.505-11.445-8.506l-1.473-1.21c-3.658-3.041-7.185-6.239-10.563-9.578l-11.778 11.778-1.407 1.408-1.348-1.348c-3.77-3.809-7.379-7.79-10.808-11.919l-1.209-1.473c-3.389-4.168-6.596-8.479-9.598-12.914l-1.059-1.584 1.646-1.1 13.86-9.261c-2.621-3.965-5.074-8.047-7.343-12.226l-0.9-1.68c-2.193-4.152-4.208-8.393-6.03-12.703-0.026-0.062-0.051-0.124-0.078-0.186l-15.428 6.391-1.804 0.747-0.731-1.76c-2.038-4.986-3.848-10.038-5.429-15.151l-0.643-2.137c-1.493-5.045-2.765-10.148-3.812-15.301l-0.368-1.869 1.892-0.377 16.401-3.262c-0.894-4.661-1.584-9.367-2.071-14.111l-0.229-2.438c-0.398-4.536-0.612-9.105-0.638-13.703h-18.647v-1.905c0.027-5.395 0.285-10.755 0.772-16.071l0.182-1.897c0.547-5.354 1.326-10.664 2.338-15.922l0.368-1.87 1.896 0.377 16.398 3.262c0.95-4.661 2.103-9.276 3.459-13.838l0.552-1.824c1.404-4.531 3.008-9.009 4.811-13.428l-15.429-6.391-1.889-0.533c0.012-0.03 0.024-0.061 0.037-0.092l0.78-1.882c0.043-0.102 0.085-0.204 0.128-0.306 2.043-4.831 4.303-9.584 6.764-14.236l0.899-1.681c2.558-4.717 5.326-9.323 8.286-13.795l1.059-1.584 1.647 1.1 13.86 9.261c2.663-3.928 5.505-7.75 8.506-11.445l1.209-1.473c3.041-3.658 6.24-7.185 9.578-10.563l-11.777-11.778-1.408-1.408 1.348-1.347c3.809-3.77 7.789-7.379 11.918-10.808l1.473-1.209c4.168-3.389 8.48-6.596 12.914-9.598l1.585-1.059 1.099 1.645 9.261 13.861c3.965-2.621 8.047-5.074 12.226-7.343l1.68-0.9c4.152-2.193 8.394-4.208 12.703-6.03 0.062-0.027 0.124-0.052 0.186-0.078l-6.39-15.428-0.748-1.804 1.76-0.731c4.986-2.038 10.039-3.848 15.151-5.429l1.824-0.552c5.148-1.533 10.355-2.835 15.614-3.903l1.87-0.369 0.672 3.377 2.967 14.917c4.661-0.894 9.366-1.584 14.111-2.071l1.897-0.183c4.687-0.427 9.411-0.655 14.165-0.684h1.984c1.337 8e-3 2.671 0.032 4.003 0.071-0.01 0.56-0.021 1.118-0.031 1.674-2e-3 0.077-4e-3 0.155-5e-3 0.233-1.319-0.039-2.641-0.064-3.967-0.072v16.728c1.431 9e-3 2.858 0.04 4.283 0.089 0.019 0.553 0.033 1.106 0.033 1.66v0.22c-1.365-0.039-2.733-0.06-4.107-0.061" fill="#fff"/>
    </g>
    <g transform="translate(498.58 486.5)">
     <path d="m0 0c0 111-89.986 200.99-200.99 200.99h-0.077v-401.98h0.077c111 0 200.99 89.986 200.99 200.99" fill="#fdf100"/>
     <path d="m0 0.10705c0 111-89.986 200.99-200.99 200.99h-0.077v-401.98h0.077c111 0 200.99 89.986 200.99 200.99z" fill="none" stroke="#231f20" stroke-width="2.108"/>
    </g>
    <g transform="translate(297.59 341.38)">
     <path d="m0 0c80.145 0 145.12 64.97 145.12 145.12 0 80.144-64.97 145.12-145.12 145.12s-145.12-64.971-145.12-145.12c0-80.145 64.97-145.12 145.12-145.12" fill="#00acee"/>
     <path d="m0 0c80.145 0 145.12 64.97 145.12 145.12 0 80.144-64.97 145.12-145.12 145.12s-145.12-64.971-145.12-145.12c0-80.145 64.97-145.12 145.12-145.12z" fill="none" stroke="#231f20" stroke-width="2.108"/>
    </g>
    <g transform="translate(365.81 614.6)">
     <path d="m0 0 20.107 3.22-6.923 21.416 21.298 0.782-8.114 23.855c-28.193 15.067-60.396 23.612-94.596 23.612h-0.077v-55.876c0.026 0 0.051 1e-3 0.077 1e-3 24.664 0 47.89-6.155 68.228-17.01m-68.305-273.22v-55.875c0.026 0 0.051-1e-3 0.077-1e-3 16.442 0 32.423 1.975 47.718 5.699 0.838 19.278 1.705 39.168 2.577 59.131-15.67-5.79-32.613-8.955-50.295-8.955-0.026 0-0.051 1e-3 -0.077 1e-3" fill="#fff"/>
     <path d="m0 0 20.107 3.22-6.923 21.416 21.298 0.782-8.114 23.855c-28.193 15.067-60.396 23.612-94.596 23.612h-0.077v-55.876c0.026 0 0.051 1e-3 0.077 1e-3 24.664 0 47.89-6.155 68.228-17.01zm-68.305-273.22v-55.875c0.026 0 0.051-1e-3 0.077-1e-3 16.442 0 32.423 1.975 47.718 5.699 0.838 19.278 1.705 39.168 2.577 59.131-15.67-5.79-32.613-8.955-50.295-8.955-0.026 0-0.051 1e-3 -0.077 1e-3z" fill="none" stroke="#231f20" stroke-width="1.906"/>
    </g>
    <g transform="translate(215.99 366.48)">
     <path d="m0 0-29.889-47.242c31.904-21.31 70.245-33.737 111.49-33.737 41.385 0 79.847 12.511 111.82 33.953l-31.033 46.471c-23.091-15.502-50.88-24.548-80.782-24.548-30.257 0-58.35 9.262-81.602 25.103" fill="#ed1c24"/>
     <path d="m0 0-29.889-47.242c31.904-21.31 70.245-33.737 111.49-33.737 41.385 0 79.847 12.511 111.82 33.953l-31.033 46.471c-23.091-15.502-50.88-24.548-80.782-24.548-30.257 0-58.35 9.262-81.602 25.103z" fill="none" stroke="#231f20" stroke-width="1.141"/>
    </g>
    <g transform="translate(297.59 429.61)">
     <path d="m0 0c31.414 0 56.88 25.466 56.88 56.88 0 31.415-25.466 56.881-56.88 56.881s-56.88-25.466-56.88-56.881c0-31.414 25.466-56.88 56.88-56.88" fill="#fff200"/>
    </g>
    <g transform="translate(400.11 383.79)">
     <path d="m0 0-85.231 85.231c-17.347 17.347-34.694 0-34.694 0l-85.175-85.176c26.258-26.241 62.523-42.469 102.58-42.469 40.027 0 76.268 16.206 102.52 42.414" fill="#40b93c"/>
     <path d="m0 0-85.231 85.231c-17.347 17.347-34.694 0-34.694 0l-85.175-85.176c26.258-26.241 62.523-42.469 102.58-42.469 40.027 0 76.268 16.206 102.52 42.414z" fill="none" stroke="#231f20" stroke-width="1.427"/>
    </g>
   </g>
  </g>
  <g transform="matrix(.20499 0 0 -.20494 -152.49 -9.128)">
   <path d="m0 0 15.952-43.992-42.445-5.516" fill="none" stroke="#231f20" stroke-width="1.906"/>
  </g>
  <g transform="matrix(.20499 0 0 -.20494 -140.08 1.1398)">
   <path d="m0 0-2.307-45.05-39.299 9.276" fill="none" stroke="#231f20" stroke-width="2.108"/>
  </g>
  <g transform="matrix(.20499 0 0 -.20494 -132.37 15.355)">
   <path d="m0 0-19.817-41.562-33.732 25.118" fill="none" stroke="#231f20" stroke-width="2.108"/>
  </g>
  <g transform="matrix(.20499 0 0 -.20494 -130.74 31.399)">
   <path d="m0 0-34.212-30.359-21.645 36.086" fill="none" stroke="#231f20" stroke-width="2.108"/>
  </g>
  <g transform="matrix(.20499 0 0 -.20494 -135.41 46.78)">
   <path d="m0 0-43.488-14.898-6.184 41.321" fill="none" stroke="#231f20" stroke-width="2.108"/>
  </g>
  <g transform="matrix(.20499 0 0 -.20494 -177.72 3.6044)">
   <path d="m0 0 10.437-41.861" fill="none" stroke="#fff200" stroke-linejoin="round" stroke-width="7.027"/>
  </g>
  <g transform="matrix(.20499 0 0 -.20494 -195.38 33.384)">
   <path d="m0 0 41.265 10.288" fill="none" stroke="#fff200" stroke-linejoin="round" stroke-width="7.027"/>
  </g>
  <g transform="matrix(.20499 0 0 -.20494 -156.45 23.681)">
   <path d="m0 0 41.244 10.283" fill="none" stroke="#fff200" stroke-linejoin="round" stroke-width="7.027"/>
  </g>
  <g transform="matrix(.20499 0 0 -.20494 -192.69 14.925)">
   <path d="m0 0 35.98-21.619" fill="none" stroke="#fff200" stroke-linejoin="round" stroke-width="7.027"/>
  </g>
  <g transform="matrix(.20499 0 0 -.20494 -168.12 3.1435)">
   <path d="m0 0-6.377-42.669" fill="none" stroke="#fff200" stroke-linejoin="round" stroke-width="7.027"/>
  </g>
  <g transform="matrix(.20499 0 0 -.20494 -159.08 6.3902)">
   <path d="m0 0-21.904-36.454" fill="none" stroke="#fff200" stroke-linejoin="round" stroke-width="7.027"/>
  </g>
  <g transform="matrix(.20499 0 0 -.20494 -186.41 7.703)">
   <path d="m0 0 25.679-34.703" fill="none" stroke="#fff200" stroke-linejoin="round" stroke-width="7.027"/>
  </g>
  <g transform="matrix(.20499 0 0 -.20494 -152.05 12.915)">
   <path d="m0 0-34.257-25.349" fill="none" stroke="#fff200" stroke-linejoin="round" stroke-width="7.027"/>
  </g>
  <g transform="matrix(.20499 0 0 -.20494 -147.6 31.109)">
   <path d="m0 0-42.394 6.336" fill="none" stroke="#fff200" stroke-linejoin="round" stroke-width="7.027"/>
  </g>
  <g transform="matrix(.20499 0 0 -.20494 -187.35 25.169)">
   <path d="m0 0-41.514 6.204" fill="none" stroke="#fff200" stroke-linejoin="round" stroke-width="7.027"/>
  </g>
  <g transform="matrix(.20499 0 0 -.20494 -232.77 127.05)">
   <g clip-path="url(#clipPath1252)">
    <g transform="translate(379.25 639.29)">
     <path d="m0 0c-24.329 13.029-52.131 20.417-81.658 20.417" fill="none" stroke="#231f20" stroke-width="2.108"/>
    </g>
    <g transform="translate(393.79 342.43)">
     <path d="m0 0c46.436 31.071 77.011 83.997 77.011 144.06 0 66.136-37.066 123.62-91.558 152.8" fill="none" stroke="#231f20" stroke-width="2.108"/>
    </g>
   </g>
  </g>
  <g transform="matrix(.20499 0 0 -.20494 -153.69 .37728)">
   <path d="m0 0-6.923 21.002 21.4 0.898" fill="none" stroke="#231f20" stroke-width="2.108"/>
  </g>
  <g transform="matrix(.20499 0 0 -.20494 -232.77 127.05)">
   <g clip-path="url(#clipPath1272)">
    <g transform="translate(384.65 621.14)">
     <path d="m0 0c-24.978 16.1-55.133 25.504-87.059 25.504" fill="none" stroke="#231f20" stroke-width="1.519"/>
    </g>
    <g transform="translate(399.13 643.32)">
     <path d="m0 0c-29.233 18.968-64.103 29.984-101.55 29.984" fill="none" stroke="#231f20" stroke-width="2.108"/>
    </g>
    <g transform="translate(296.58 328.71)">
     <path d="m0 0v42.718s-2.136 4.271-12.281 4.271c-10.146 0-13.35-10.038-34.975-8.543l-9.228-42.815c5.978 0.014 16.524 0.037 16.552 0.038 15.213 0.928 18.779 8.603 27.651 8.603 10.145 0 12.281-4.272 12.281-4.272" fill="#fff"/>
     <path d="m0 0v42.718s-2.136 4.271-12.281 4.271c-10.146 0-13.35-10.038-34.975-8.543l-9.228-42.815c5.978 0.014 16.524 0.037 16.552 0.038 15.213 0.928 18.779 8.603 27.651 8.603 10.145 0 12.281-4.272 12.281-4.272z" fill="none" stroke="#231f20" stroke-linecap="round" stroke-linejoin="round" stroke-width="1.906"/>
    </g>
    <g transform="translate(296.54 328.71)">
     <path d="m0 0v42.718s2.136 4.271 12.281 4.271c10.146 0 13.35-10.038 34.975-8.543l9.228-42.815c-5.978 0.014-16.524 0.037-16.552 0.038-15.213 0.928-18.779 8.603-27.651 8.603-10.145 0-12.281-4.272-12.281-4.272" fill="#fff"/>
     <path d="m0 0v42.718s2.136 4.271 12.281 4.271c10.146 0 13.35-10.038 34.975-8.543l9.228-42.815c-5.978 0.014-16.524 0.037-16.552 0.038-15.213 0.928-18.779 8.603-27.651 8.603-10.145 0-12.281-4.272-12.281-4.272z" fill="none" stroke="#231f20" stroke-linecap="round" stroke-linejoin="round" stroke-width="1.906"/>
    </g>
    <g transform="translate(240.14 324.53)">
     <path d="m0 0-0.158-0.191 1.174-6.044h51.475l3.928 10.456c-0.254 0.443-2.705 4.228-12.258 4.228-8.871 0-12.437-7.674-27.651-8.602-0.027-2e-3 -10.574-0.025-16.551-0.038z" fill="#fff"/>
     <path d="m0 0-0.158-0.191 1.174-6.044h51.475l3.928 10.456c-0.254 0.443-2.705 4.228-12.258 4.228-8.871 0-12.437-7.674-27.651-8.602-0.027-2e-3 -10.574-0.025-16.551-0.038z" fill="none" stroke="#231f20" stroke-linecap="round" stroke-linejoin="round" stroke-width="1.906"/>
    </g>
    <g transform="translate(352.98 324.53)">
     <path d="m0 0 0.158-0.191-1.174-6.044h-51.475l-3.928 10.456c0.254 0.443 2.705 4.228 12.258 4.228 8.871 0 12.437-7.674 27.651-8.602 0.027-2e-3 10.574-0.025 16.551-0.038z" fill="#fff"/>
     <path d="m0 0 0.158-0.191-1.174-6.044h-51.475l-3.928 10.456c0.254 0.443 2.705 4.228 12.258 4.228 8.871 0 12.437-7.674 27.651-8.602 0.027-2e-3 10.574-0.025 16.551-0.038z" fill="none" stroke="#231f20" stroke-linecap="round" stroke-linejoin="round" stroke-width="1.906"/>
    </g>
    <g transform="translate(278.2 302.48)">
     <path d="m0 0c-0.172 0.969-0.414 1.895-0.727 2.779-0.313 0.883-0.645 1.616-0.997 2.2-0.309 0.505-0.832 1.23-1.569 2.174l-1.595-3.937c0.831-1.081 1.436-1.945 1.813-2.592 0.378-0.648 0.725-1.43 1.042-2.348 0.386-1.089 0.646-2.028 0.779-2.817s0.199-1.917 0.199-3.383h0.798c0.343 2.152 0.514 3.799 0.514 4.939 0 1.021-0.086 2.016-0.257 2.985m15.183 6.162c-0.022 0.334-0.045 0.618-0.071 0.849h-0.54c-0.155-1.286-0.635-1.93-1.441-1.93-0.429 0-0.748 0.146-0.958 0.438-0.211 0.291-0.354 0.789-0.431 1.492h-0.618c0-0.815-0.178-1.452-0.534-1.91-0.356-0.459-0.847-0.689-1.473-0.689-0.6 0-1.14 0.2-1.621 0.599-0.48 0.398-0.977 1.065-1.492 2l-1.286-3.936c0.891-1.261 1.524-2.28 1.897-3.056s0.693-1.73 0.959-2.862c0.222-0.823 0.364-1.563 0.424-2.219s0.09-1.64 0.09-2.952h0.695c0.309 1.106 0.514 1.968 0.617 2.585 0.103 0.618 0.155 1.3 0.155 2.046 0 0.617-0.043 1.19-0.129 1.717-0.086 0.528-0.24 1.19-0.463 1.988 0.506 0.103 0.875 0.231 1.106 0.386 0.232 0.154 0.506 0.454 0.824 0.9 0.308-0.377 0.576-0.626 0.804-0.746 0.227-0.12 0.525-0.18 0.894-0.18 1.749 0 2.624 1.526 2.624 4.58 0 0.265-0.011 0.566-0.032 0.9m10.397-0.405c-0.026 0.338-0.039 0.765-0.039 1.28h-0.746c0-1.578-0.729-2.367-2.187-2.367-0.669 0-1.247 0.178-1.736 0.534-0.489 0.355-1.06 1.001-1.711 1.936l-1.235-3.705c0.9-1.261 1.55-2.249 1.949-2.965 0.398-0.717 0.801-1.613 1.209-2.689 0.407-1.077 0.632-1.683 0.675-1.82 0.18-0.549 0.315-1.135 0.406-1.756 0.09-0.622 0.135-1.362 0.135-2.219h0.72c0.146 0.96 0.246 1.723 0.302 2.289s0.084 1.098 0.084 1.596c0 0.771-0.054 1.47-0.161 2.096s-0.319 1.497-0.637 2.612c1.098 0.257 1.874 0.686 2.329 1.286 0.454 0.601 0.682 1.501 0.682 2.702 0 0.454-0.013 0.851-0.039 1.19m5.245-5.615c0.566-1.004 0.96-2.089 1.184-3.255 0.223-1.167 0.334-2.8 0.334-4.901h0.682c0.317 1.312 0.527 2.334 0.63 3.068 0.103 0.733 0.155 1.52 0.155 2.36 0 0.369-0.015 0.708-0.045 1.017-0.031 0.308-0.084 0.69-0.161 1.144 0.274-0.043 0.486-0.066 0.637-0.07 0.15-5e-3 0.306-7e-3 0.469-7e-3 1.149 0 2.101 0.444 2.856 1.332 0.755 0.887 1.196 2.094 1.325 3.621l-0.412 0.103c-0.429-0.498-0.842-0.832-1.241-1.003-0.399-0.172-0.954-0.258-1.666-0.258-0.395 0-0.716 0.022-0.965 0.065-0.249 0.042-0.583 0.141-1.003 0.295 0.3 0.781 0.686 1.334 1.158 1.66 0.403 0.283 0.939 0.424 1.608 0.424 0.291 0 0.587-0.034 0.887-0.102 0.3-0.069 0.575-0.138 0.824-0.206l0.321 0.463c-0.592 0.617-1.13 1.063-1.614 1.338-0.485 0.274-0.967 0.411-1.448 0.411-0.634 0-1.175-0.304-1.62-0.913-0.472-0.652-0.759-1.544-0.862-2.676-0.704 0.472-1.214 0.879-1.531 1.222-0.378 0.42-0.772 1.047-1.184 1.879l-1.543-3.834c1.089-1.424 1.831-2.483 2.225-3.177" fill="#fff"/>
    </g>
   </g>
  </g>
 </g>
</svg>
