<?xml version="1.0" encoding="UTF-8" standalone="no"?>
<!-- Created with Inkscape (http://www.inkscape.org/) -->
<svg
   xmlns:svg="http://www.w3.org/2000/svg"
   xmlns="http://www.w3.org/2000/svg"
   version="1.0"
   width="1000"
   height="562.17999"
   id="svg2">
  <defs
     id="defs4" />
  <g
     id="layer1">
    <path
       d="M -1.67e-05,0.0019463379 L 1000,0.0019463379 L 1000,562.17805 L -1.67e-05,562.17805 L -1.67e-05,0.0019463379 z "
       style="fill:#3a736b;fill-opacity:1;fill-rule:nonzero;stroke:none;stroke-width:2;stroke-linecap:butt;stroke-linejoin:miter;stroke-miterlimit:4;stroke-opacity:1"
       id="rect1307" />
    <path
       d="M 623.08857,397.12334 C 626.77935,401.85337 623.66236,403.3223 614.28385,410.64023 C 604.90534,417.95817 599.64025,423.42995 595.94947,418.69992 C 594.10408,416.3349 592.07985,413.37106 593.28897,408.57728 C 594.49809,403.7835 597.66368,401.36282 602.35294,397.70385 C 607.04219,394.04488 607.85736,392.55105 612.79864,392.54575 C 617.73993,392.54045 621.24317,394.75833 623.08857,397.12334 z "
       style="fill:#ffffff;fill-opacity:1;fill-rule:nonzero;stroke:#000000;stroke-width:1.10000074;stroke-linecap:butt;stroke-linejoin:miter;stroke-miterlimit:4;stroke-opacity:1"
       id="path3109" />
    <path
       d="M 563.31218,371.63621 L 582.92528,356.49819 L 612.60915,392.39228 L 592.99605,407.39779 L 563.31218,371.63621 z "
       style="fill:#ffffff;fill-opacity:1;fill-rule:nonzero;stroke:#000000;stroke-width:1.10000002;stroke-linecap:butt;stroke-linejoin:miter;stroke-miterlimit:4;stroke-opacity:1"
       id="rect3106" />
    <path
       d="M 586.99885,349.26727 C 590.68963,353.9973 584.61591,356.08996 575.2374,363.40789 C 565.85889,370.72583 559.09465,378.25894 555.40387,373.52891 C 553.55848,371.16389 550.21877,361.52582 551.42789,356.73204 C 552.63701,351.93826 557.59989,352.25379 562.28915,348.59482 C 566.9784,344.93585 566.82445,341.46773 571.76573,341.46243 C 576.70702,341.45713 585.15345,346.90226 586.99885,349.26727 z "
       style="fill:#ffffff;fill-opacity:1;fill-rule:nonzero;stroke:#000000;stroke-width:1.10000074;stroke-linecap:butt;stroke-linejoin:miter;stroke-miterlimit:4;stroke-opacity:1"
       id="path3103" />
    <path
       d="M -1.355e-05,2.8421709e-14 L 1000,2.8421709e-14 L 1000,281.08801 L -1.355e-05,281.08801 L -1.355e-05,2.8421709e-14 z "
       style="fill:#de2119;fill-opacity:1;fill-rule:nonzero;stroke:none;stroke-width:2;stroke-linecap:butt;stroke-linejoin:miter;stroke-miterlimit:4;stroke-opacity:1"
       id="rect1352" />
    <path
       d="M 372.9555,136.00078 L 428.23896,134.01746 L 571.58267,341.47315 C 571.58267,341.47315 551.37638,356.87346 551.37638,356.87346 L 372.9555,136.00078 z "
       style="fill:#ffffff;fill-opacity:1;fill-rule:nonzero;stroke:#000000;stroke-width:0.93900007;stroke-linecap:butt;stroke-linejoin:miter;stroke-miterlimit:4;stroke-opacity:1"
       id="rect1354" />
    <path
       d="M 355.60526,397.65308 C 351.91448,402.38311 355.03147,403.85204 364.40998,411.16997 C 373.78849,418.48791 379.05358,423.95969 382.74436,419.22966 C 384.58975,416.86464 386.61398,413.9008 385.40486,409.10702 C 384.19574,404.31324 381.03015,401.89256 376.34089,398.23359 C 371.65164,394.57462 370.83647,393.08079 365.89519,393.07549 C 360.9539,393.07019 357.45066,395.28807 355.60526,397.65308 z "
       style="fill:#ffffff;fill-opacity:1;fill-rule:nonzero;stroke:#000000;stroke-width:1.10000074;stroke-linecap:butt;stroke-linejoin:miter;stroke-miterlimit:4;stroke-opacity:1"
       id="path3113" />
    <path
       d="M 415.08448,372.27573 L 395.47139,357.13771 L 365.78751,393.0318 L 385.40061,408.0373 L 415.08448,372.27573 z "
       style="fill:#ffffff;fill-opacity:1;fill-rule:nonzero;stroke:#000000;stroke-width:1.10000002;stroke-linecap:butt;stroke-linejoin:miter;stroke-miterlimit:4;stroke-opacity:1"
       id="path3115" />
    <path
       d="M 391.86625,349.76697 C 388.17547,354.497 394.24919,356.58966 403.6277,363.90759 C 413.00621,371.22553 419.77045,378.75864 423.46123,374.02861 C 425.30662,371.66359 429.02112,362.02552 427.812,357.23174 C 426.60288,352.43796 422.29587,351.44174 417.60661,347.78277 C 412.91736,344.1238 409.88563,341.31155 404.94435,341.30625 C 400.00306,341.30095 393.71165,347.40196 391.86625,349.76697 z "
       style="fill:#ffffff;fill-opacity:1;fill-rule:nonzero;stroke:#000000;stroke-width:1.10000074;stroke-linecap:butt;stroke-linejoin:miter;stroke-miterlimit:4;stroke-opacity:1"
       id="path3117" />
    <path
       d="M 606.18868,136.00049 L 550.90521,134.01717 L 407.5615,341.47286 C 407.5615,341.47286 427.7678,356.87317 427.7678,356.87317 L 606.18868,136.00049 z "
       style="fill:#ffffff;fill-opacity:1;fill-rule:nonzero;stroke:#000000;stroke-width:0.93900007;stroke-linecap:butt;stroke-linejoin:miter;stroke-miterlimit:4;stroke-opacity:1"
       id="path3119" />
  </g>
</svg>
