<?xml version="1.0" encoding="UTF-8"?>
<svg width="810" height="450" version="1.1" xmlns="http://www.w3.org/2000/svg">
 <g stroke-linecap="round">
  <path d="m0 0h810v450h-810z" fill="#1a3b85" stroke-width=".93531"/>
  <path d="m270 0h540v150h-540z" fill="#da251d" stroke-width=".9824"/>
  <path d="m270 150h540v150h-540z" fill="#fff" stroke-width=".9859"/>
 </g>
 <path d="m33.75 0 75.604 168.01c-3.4902 1.5731-6.8098 3.4514-9.9238 5.6113l-99.43-143.62v60l90.807 90.807c-2.6257 2.6257-5.0077 5.4916-7.1348 8.5488l-83.672-58.105v35.625l77.588 33.406c-1.5352 3.5608-2.7402 7.2956-3.5957 11.162l-73.992-16.443v30h270v-30l-73.992 16.443c-0.85554-3.8666-2.0605-7.6013-3.5957-11.162l77.588-33.406v-35.625l-83.672 58.105c-2.127-3.0572-4.5091-5.9232-7.1348-8.5488l90.807-90.807v-60l-99.428 143.62c-3.1141-2.1601-6.4355-4.0382-9.9258-5.6113l75.604-168.01h-41.25l-43.895 164.61c-3.5258-0.93794-7.1743-1.5672-10.916-1.875l13.561-162.73h-37.5l13.561 162.73c-3.7418 0.30783-7.3902 0.93706-10.916 1.875l-43.895-164.61z" fill="#da251d"/>
 <g stroke-linecap="round">
  <path d="m170.76 49.608c-37.356 0-48.163-16.901-61.372-16.901-13.209 0-23.917 17.847-23.917 39.862 0 22.015 10.708 39.862 23.917 39.862 13.209 0 24.016-16.901 61.372-16.901 7.6084 0 13.776-10.28 13.776-22.96 0-12.681-6.1678-22.96-13.776-22.96z" color="#000000" fill="#ffc425" stroke-width="1.9134" style="-inkscape-stroke:none"/>
  <path d="m109.38 31.75c-7.0354 0-13.294 4.743-17.732 12.141-0.55482 0.92471-1.0833 1.892-1.582 2.8984-0.49872 1.0064-0.96741 2.0512-1.4062 3.1328-0.43884 1.0816-0.84749 2.1994-1.2227 3.3496-0.37516 1.1503-0.71768 2.3345-1.0254 3.5469-0.30771 1.2124-0.57995 2.4528-0.81641 3.7207-0.23646 1.2679-0.43623 2.562-0.59766 3.8789s-0.28458 2.6582-0.36719 4.0176c-0.08261 1.3594-0.125 2.7375-0.125 4.1328 0 1.3953 0.04239 2.7753 0.125 4.1348s0.20576 2.6986 0.36719 4.0156 0.3612 2.6109 0.59766 3.8789c0.23646 1.268 0.5087 2.5102 0.81641 3.7227 0.3077 1.2125 0.65022 2.3946 1.0254 3.5449 0.37516 1.1504 0.78382 2.2679 1.2227 3.3496 0.43884 1.0817 0.90753 2.1283 1.4062 3.1348 0.49872 1.0065 1.0272 1.9737 1.582 2.8984 4.4386 7.3976 10.697 12.139 17.732 12.139 7.0125 0 13.089-4.3504 22.037-8.541 2.3804-1.1148 4.987-2.2222 7.8496-3.2559a0.95668 0.95668 0 0 0 0.38868-0.13086c3.4159-1.2146 7.2064-2.3171 11.523-3.1699a0.95668 0.95668 0 0 0 0.29493-0.05664c5.5212-1.0706 11.856-1.7461 19.277-1.7461 4.235 0 7.959-2.8504 10.562-7.1895s4.1719-10.233 4.1719-16.729c0-6.4954-1.5684-12.389-4.1719-16.729s-6.3274-7.1875-10.562-7.1875c-7.416 0-13.747-0.67455-19.266-1.7441a0.95668 0.95668 0 0 0-0.25195-0.06836 0.95668 0.95668 0 0 0-0.0566 0.0078c-4.3162-0.85305-8.1061-1.9552-11.521-3.1699a0.95668 0.95668 0 0 0-0.26172-0.125 0.95668 0.95668 0 0 0-0.12696-0.0059c-2.8626-1.0338-5.4692-2.141-7.8496-3.2558-8.9482-4.1906-15.025-8.541-22.037-8.541zm0 1.9141c6.1736 0 11.874 4.1815 16.092 11.211s6.8672 16.841 6.8672 27.693c0 10.852-2.6495 20.666-6.8672 27.695-4.2177 7.0295-9.9181 11.209-16.092 11.209s-11.874-4.1795-16.092-11.209c-0.52721-0.87868-1.0297-1.8014-1.5059-2.7637s-0.92681-1.9649-1.3477-3.0039c-0.42084-1.039-0.81253-2.1136-1.1738-3.2227-0.3613-1.109-0.69076-2.2517-0.98828-3.4238-0.29752-1.1721-0.56347-2.375-0.79297-3.6035s-0.42284-2.4818-0.58008-3.7598-0.27668-2.5797-0.35742-3.9004c-0.08074-1.3207-0.12305-2.661-0.12305-4.0176 0-1.3565 0.04231-2.697 0.12305-4.0176 0.08074-1.3206 0.20018-2.6205 0.35742-3.8984 0.15724-1.2779 0.35058-2.5334 0.58008-3.7617s0.49545-2.4315 0.79297-3.6035c0.29752-1.172 0.62698-2.313 0.98828-3.4219 0.3613-1.1089 0.75298-2.1857 1.1738-3.2246s0.87151-2.0397 1.3477-3.002 0.97865-1.885 1.5059-2.7637c4.2177-7.0295 9.9182-11.211 16.092-11.211zm13.385 4.4688c2.3725 1.2 4.9328 2.5292 7.8398 3.8906 2.3978 1.1229 5.0314 2.2401 7.9277 3.2871 3.2452 5.5795 5.5258 12.831 6.3125 20.934a0.95668 0.95668 0 0 0 1.043 0.85938 0.95668 0.95668 0 0 0 0.86133-1.0449c-0.72643-7.4817-2.6817-14.287-5.5371-19.842 2.8792 0.93257 5.9996 1.7806 9.459 2.4707 3.371 4.0311 5.7032 10.275 6.6445 17.588a0.95668 0.95668 0 0 0 1.0703 0.82617 0.95668 0.95668 0 0 0 0.82618-1.0703c-0.85432-6.6362-2.794-12.501-5.7617-16.836 3.3788 0.56369 7.0378 0.9842 11.031 1.1992 2.9795 3.3473 4.8154 9.6766 5.625 15.92a0.95668 0.95668 0 0 0 1.0703 0.82422 0.95668 0.95668 0 0 0 0.82617-1.0703c-0.74243-5.7255-2.2124-11.584-5.002-15.566 1.222 0.03837 2.4678 0.0625 3.75 0.0625 3.3733 0 6.5393 2.2908 8.9219 6.2617 2.3826 3.9709 3.8984 9.557 3.8984 15.742 0 6.1852-1.5159 11.773-3.8984 15.744-2.3826 3.9709-5.5485 6.2598-8.9219 6.2598-1.2815 0-2.5266 0.02417-3.748 0.0625 2.7891-3.9827 4.2576-9.841 5-15.566a0.95668 0.95668 0 0 0-0.82617-1.0703 0.95668 0.95668 0 0 0-1.0703 0.82422c-0.80953 6.2432-2.6456 12.573-5.625 15.92-3.9934 0.21502-7.6524 0.63553-11.031 1.1992 2.9677-4.3353 4.9074-10.2 5.7617-16.836a0.95668 0.95668 0 0 0-0.82618-1.0703 0.95668 0.95668 0 0 0-1.0703 0.82617c-0.94138 7.3125-3.2735 13.557-6.6445 17.588-3.4593 0.69015-6.5798 1.5381-9.459 2.4707 2.8554-5.5547 4.8107-12.36 5.5371-19.842a0.95668 0.95668 0 0 0-0.86133-1.0449 0.95668 0.95668 0 0 0-1.043 0.85938c-0.78666 8.1022-3.0673 15.354-6.3125 20.934-2.8963 1.047-5.5299 2.1642-7.9277 3.2871-2.9055 1.3607-5.4645 2.6892-7.8359 3.8887 1.5852-1.658 3.0443-3.5882 4.3438-5.7539 4.4386-7.3976 7.1406-17.517 7.1406-28.68 0-11.163-2.702-21.28-7.1406-28.678-1.3005-2.1675-2.761-4.0987-4.3477-5.7578zm-13.385 2.8652a2.5512 3.8267 0 0 0-2.5312 3.375c-1.056 0.41783-2.0546 1.0748-2.9668 1.9355-1.6145 1.5233-3.0075 3.6568-4.1699 6.25-1.9604 4.3733-3.2604 10.071-3.6211 16.412a2.5512 3.8267 0 0 0-1.6992 3.5977 2.5512 3.8267 0 0 0 1.6992 3.5996c0.36082 6.3405 1.6608 12.037 3.6211 16.41 1.1625 2.5932 2.5555 4.7267 4.1699 6.25 0.91225 0.86075 1.9108 1.5177 2.9668 1.9355a2.5512 3.8267 0 0 0 2.5312 3.375 2.5512 3.8267 0 0 0 2.5312-3.375c1.0552-0.41785 2.0528-1.075 2.9648-1.9355 1.6145-1.5233 3.0075-3.6568 4.1699-6.25 1.9602-4.3729 3.2603-10.07 3.6211-16.41a2.5512 3.8267 0 0 0 1.7012-3.5996 2.5512 3.8267 0 0 0-1.7012-3.6074c-0.36144-6.3374-1.6616-12.031-3.6211-16.402-1.1625-2.5932-2.5555-4.7267-4.1699-6.25-0.91202-0.86053-1.9097-1.5177-2.9648-1.9355a2.5512 3.8267 0 0 0-2.5312-3.375zm-2.3301 5.3711a2.5512 3.8267 0 0 0 2.3301 2.2832 2.5512 3.8267 0 0 0 2.3301-2.2832c0.62453 0.31627 1.2422 0.75524 1.8535 1.332 1.3614 1.2845 2.6482 3.2132 3.7363 5.6406 1.8365 4.0967 3.0966 9.606 3.4492 15.758a2.5512 3.8267 0 0 0-1.4844 3.4688 2.5512 3.8267 0 0 0 1.4844 3.4688c-0.35263 6.1518-1.6128 11.661-3.4492 15.758-1.0882 2.4274-2.3749 4.3561-3.7363 5.6406-0.61005 0.5756-1.2264 1.0139-1.8496 1.3301a2.5512 3.8267 0 0 0-2.334-2.2793 2.5512 3.8267 0 0 0-2.3301 2.2812c-0.62517-0.31629-1.244-0.75504-1.8555-1.332-1.3614-1.2845-2.6482-3.2132-3.7363-5.6406-1.8365-4.0967-3.0951-9.606-3.4473-15.758a2.5512 3.8267 0 0 0 1.4824-3.4688 2.5512 3.8267 0 0 0-1.4824-3.4746c0.35267-6.1494 1.6114-11.657 3.4473-15.752 1.0882-2.4274 2.3749-4.3561 3.7363-5.6406 0.61151-0.57699 1.2303-1.0157 1.8555-1.332zm2.3301 12.486a0.95668 0.95668 0 0 0-0.95704 0.95703v9.2109a2.5512 3.8267 0 0 0-0.39062 0.30469l-2.959-3.7324a0.95668 0.95668 0 0 0-1.3437-0.1543 0.95668 0.95668 0 0 0-0.1543 1.3438l3.4414 4.3418a2.5512 3.8267 0 0 0-0.1875 1.4414 2.5512 3.8267 0 0 0 0.1875 1.4414l-3.4414 4.3418a0.95668 0.95668 0 0 0 0.1543 1.3438 0.95668 0.95668 0 0 0 1.3437-0.1543l2.959-3.7324a2.5512 3.8267 0 0 0 0.39062 0.30469v9.2109a0.95668 0.95668 0 0 0 0.95704 0.95703 0.95668 0.95668 0 0 0 0.95703-0.95703v-9.2109a2.5512 3.8267 0 0 0 0.39062-0.30273l2.957 3.7305a0.95668 0.95668 0 0 0 1.3438 0.1543 0.95668 0.95668 0 0 0 0.15625-1.3438l-3.4434-4.3438a2.5512 3.8267 0 0 0 0.18946-1.4395 2.5512 3.8267 0 0 0-0.1875-1.4414l3.4414-4.3418a0.95668 0.95668 0 0 0-0.15625-1.3438 0.95668 0.95668 0 0 0-1.3438 0.1543l-2.9531 3.7266a2.5512 3.8267 0 0 0-0.39453-0.30078v-9.209a0.95668 0.95668 0 0 0-0.95703-0.95703z" color="#000000" style="-inkscape-stroke:none"/>
 </g>
</svg>
