<?xml version="1.0" encoding="UTF-8" standalone="no"?>
<!-- Generator: Adobe Illustrator 16.0.0, SVG Export Plug-In . SVG Version: 6.00 Build 0)  -->

<svg
   version="1.1"
   x="0px"
   y="0px"
   width="361.15px"
   height="216.52px"
   viewBox="0 0 361.15 216.52"
   enable-background="new 0 0 361.15 216.52"
   xml:space="preserve"
   id="svg2"
   inkscape:version="1.1 (c68e22c387, 2021-05-23)"
   sodipodi:docname="MNLF_flag.svg"
   xmlns:inkscape="http://www.inkscape.org/namespaces/inkscape"
   xmlns:sodipodi="http://sodipodi.sourceforge.net/DTD/sodipodi-0.dtd"
   xmlns="http://www.w3.org/2000/svg"
   xmlns:svg="http://www.w3.org/2000/svg"
   xmlns:rdf="http://www.w3.org/1999/02/22-rdf-syntax-ns#"
   xmlns:cc="http://creativecommons.org/ns#"
   xmlns:dc="http://purl.org/dc/elements/1.1/"><metadata
   id="metadata94"><rdf:RDF><cc:Work
       rdf:about=""><dc:format>image/svg+xml</dc:format><dc:type
         rdf:resource="http://purl.org/dc/dcmitype/StillImage" /></cc:Work></rdf:RDF></metadata><defs
   id="defs92"><clipPath
   clipPathUnits="userSpaceOnUse"
   id="clipPath8973"><g
     inkscape:label="Clip"
     id="use8975"><path
       style="fill:#502d16;stroke:#000000;stroke-width:1px;stroke-linecap:butt;stroke-linejoin:miter;stroke-opacity:1"
       d="m 247.15385,566.39423 27.8048,1.54471 13.3875,5.66395 10.57338,12.76728 26.57872,-23.66598 -17.07085,-23.59986 -10.81298,-5.66394 -26.26009,-25.23029 -19.56635,22.14086 -5.66179,21.06638 -1.54686,4.67881 z"
       id="path9090" /><path
       style="fill:none;stroke:#000000;stroke-width:1px;stroke-linecap:butt;stroke-linejoin:miter;stroke-opacity:1"
       d="m 307.65774,578.72424 -1.09227,-1.63842 -24.39417,-23.66598 -19.84301,-5.27933 -16.2021,3.27683"
       id="path9092" /><path
       style="fill:none;stroke:#000000;stroke-width:1px;stroke-linecap:butt;stroke-linejoin:miter;stroke-opacity:1"
       d="m 318.12539,569.25785 -1.36535,-1.45637 -19.20585,-22.20961 -12.10606,-6.37162 -20.29813,-7.28183 -13.36202,-1.58746"
       id="path9094" /><path
       style="fill:#b3b3b3;stroke:#000000;stroke-width:1px;stroke-linecap:butt;stroke-linejoin:miter;stroke-opacity:1"
       d="m 298.91953,586.37017 46.58095,58.80435 26.775,-18.02163 -46.77723,-64.4487 -26.57872,23.66598"
       id="path9096" /><ellipse
       style="fill:#000000;stroke-width:3.95636"
       id="ellipse9098"
       cx="349.23352"
       cy="624.64746"
       rx="6.3075724"
       ry="5.9213943" /><path
       style="fill:#b3b3b3;stroke:#000000;stroke-width:1px;stroke-linecap:butt;stroke-linejoin:miter;stroke-opacity:1"
       d="m 345.50048,645.17452 -47.12708,32.21865 c 0,0 9.28213,6.15025 14.19958,5.09729 2.22415,-0.47625 2.69527,-5.22854 4.91525,-4.7332 2.15584,0.48103 0.30603,5.39387 2.36659,6.18956 5.1392,1.98451 9.85965,-10.00864 14.74573,-7.46388 1.52226,0.79282 -0.70739,4.15655 0.72818,5.09729 3.63244,2.38037 8.06188,-0.1611 10.88774,-3.45888 1.03342,-1.206 1.06976,-3.63762 2.21958,-4.73319 1.3209,-1.25858 3.92802,-1.35284 5.46138,-0.36409 1.74293,1.12389 0.58952,4.50003 2.18455,5.82547 1.61134,1.33899 6.18956,1.09227 6.18956,1.09227 l 0.54614,-12.92526 -4.3691,-18.2046 13.65345,-10.19458 8.55616,8.19207 16.93028,7.64593 c 0,0 2.93324,-5.06196 2.0025,-7.46388 -0.65079,-1.67946 -4.08982,-1.17168 -4.55115,-2.91274 -0.70217,-2.65001 1.08954,-7.07224 3.82297,-7.28184 1.73047,-0.13269 1.36571,4.33688 3.09478,4.18706 4.46103,-0.38653 6.17936,-7.5406 6.00752,-12.01504 -0.0679,-1.76787 -2.58538,-2.78796 -2.73069,-4.55115 -0.20362,-2.47069 0.30339,-6.41377 2.73069,-6.91774 2.01661,-0.4187 2.35098,4.78042 4.3691,4.3691 3.97491,-0.81013 4.57913,-7.23032 4.55115,-11.28685 -0.0141,-2.03981 -2.18707,-3.61149 -2.3666,-5.64343 -0.26821,-3.03559 -1.03475,-8.67164 2.00251,-8.92025 3.06603,-0.25096 0.36409,14.56368 4.55115,7.28184 9.82416,-17.08549 15.10982,-57.16245 15.10982,-57.16245 l -36.59125,54.6138 -27.31549,26.40109 z"
       id="path9100"
       sodipodi:nodetypes="ccsssssssssccccccsssssssssssscccc" /><path
       style="fill:none;stroke:#000000;stroke-width:1px;stroke-linecap:butt;stroke-linejoin:miter;stroke-opacity:1"
       d="m 360.56142,679.22254 0.25745,-12.42206 -4.89159,-19.50198 16.21948,-11.6497 9.33263,9.84754 16.73437,6.88683"
       id="path9102" /><ellipse
       style="fill:#000000;stroke-width:3.95636"
       id="ellipse9104"
       cx="318.59674"
       cy="583.25732"
       rx="6.3075724"
       ry="5.9213943" /><path
       style="fill:none;stroke:#000000;stroke-width:1px;stroke-linecap:butt;stroke-linejoin:miter;stroke-opacity:1"
       d="m 311.51683,601.9226 c 0.64363,-0.90108 26.64627,-21.11106 26.64627,-21.11106"
       id="path9106" /><path
       style="fill:none;stroke:#000000;stroke-width:1px;stroke-linecap:butt;stroke-linejoin:miter;stroke-opacity:1"
       d="m 319.75529,612.22068 c 0.77235,-0.51491 26.64627,-19.8238 26.64627,-19.8238"
       id="path9108" /><path
       style="fill:none;stroke:#000000;stroke-width:1px;stroke-linecap:butt;stroke-linejoin:miter;stroke-opacity:1"
       d="M 329.47885,624.13258 355.86767,604.4375"
       id="path9110" /></g></clipPath><clipPath
   clipPathUnits="userSpaceOnUse"
   id="clipPath8973-9"><g
     inkscape:label="Clip"
     id="use8975-9"><g
       id="g997"
       transform="matrix(0.33168065,-0.38788194,0.55621131,0.2604583,-348.3847,112.91951)"><path
         style="fill:#502d16;stroke:#000000;stroke-width:1px;stroke-linecap:butt;stroke-linejoin:miter;stroke-opacity:1"
         d="m 247.15385,566.39423 27.8048,1.54471 13.3875,5.66395 10.57338,12.76728 26.57872,-23.66598 -17.07085,-23.59986 -10.81298,-5.66394 -26.26009,-25.23029 -19.56635,22.14086 -5.66179,21.06638 -1.54686,4.67881 z"
         id="path975" /><path
         style="fill:none;stroke:#000000;stroke-width:1px;stroke-linecap:butt;stroke-linejoin:miter;stroke-opacity:1"
         d="m 307.65774,578.72424 -1.09227,-1.63842 -24.39417,-23.66598 -19.84301,-5.27933 -16.2021,3.27683"
         id="path977" /><path
         style="fill:none;stroke:#000000;stroke-width:1px;stroke-linecap:butt;stroke-linejoin:miter;stroke-opacity:1"
         d="m 318.12539,569.25785 -1.36535,-1.45637 -19.20585,-22.20961 -12.10606,-6.37162 -20.29813,-7.28183 -13.36202,-1.58746"
         id="path979" /><path
         style="fill:#b3b3b3;stroke:#000000;stroke-width:1px;stroke-linecap:butt;stroke-linejoin:miter;stroke-opacity:1"
         d="m 298.91953,586.37017 46.58095,58.80435 26.775,-18.02163 -46.77723,-64.4487 -26.57872,23.66598"
         id="path981" /><ellipse
         style="fill:#000000;stroke-width:3.95636"
         id="ellipse983"
         cx="349.23352"
         cy="624.64746"
         rx="6.3075724"
         ry="5.9213943" /><path
         style="fill:#b3b3b3;stroke:#000000;stroke-width:1px;stroke-linecap:butt;stroke-linejoin:miter;stroke-opacity:1"
         d="m 345.50048,645.17452 -47.12708,32.21865 c 0,0 9.28213,6.15025 14.19958,5.09729 2.22415,-0.47625 2.69527,-5.22854 4.91525,-4.7332 2.15584,0.48103 0.30603,5.39387 2.36659,6.18956 5.1392,1.98451 9.85965,-10.00864 14.74573,-7.46388 1.52226,0.79282 -0.70739,4.15655 0.72818,5.09729 3.63244,2.38037 8.06188,-0.1611 10.88774,-3.45888 1.03342,-1.206 1.06976,-3.63762 2.21958,-4.73319 1.3209,-1.25858 3.92802,-1.35284 5.46138,-0.36409 1.74293,1.12389 0.58952,4.50003 2.18455,5.82547 1.61134,1.33899 6.18956,1.09227 6.18956,1.09227 l 0.54614,-12.92526 -4.3691,-18.2046 13.65345,-10.19458 8.55616,8.19207 16.93028,7.64593 c 0,0 2.93324,-5.06196 2.0025,-7.46388 -0.65079,-1.67946 -4.08982,-1.17168 -4.55115,-2.91274 -0.70217,-2.65001 1.08954,-7.07224 3.82297,-7.28184 1.73047,-0.13269 1.36571,4.33688 3.09478,4.18706 4.46103,-0.38653 6.17936,-7.5406 6.00752,-12.01504 -0.0679,-1.76787 -2.58538,-2.78796 -2.73069,-4.55115 -0.20362,-2.47069 0.30339,-6.41377 2.73069,-6.91774 2.01661,-0.4187 2.35098,4.78042 4.3691,4.3691 3.97491,-0.81013 4.57913,-7.23032 4.55115,-11.28685 -0.0141,-2.03981 -2.18707,-3.61149 -2.3666,-5.64343 -0.26821,-3.03559 -1.03475,-8.67164 2.00251,-8.92025 3.06603,-0.25096 0.36409,14.56368 4.55115,7.28184 9.82416,-17.08549 32.9296,-50.77052 32.9296,-50.77052 l -54.41103,48.22187 -27.31549,26.40109 z"
         id="path985"
         sodipodi:nodetypes="ccsssssssssccccccsssssssssssscccc" /><path
         style="fill:none;stroke:#000000;stroke-width:1px;stroke-linecap:butt;stroke-linejoin:miter;stroke-opacity:1"
         d="m 360.56142,679.22254 0.25745,-12.42206 -4.89159,-19.50198 16.21948,-11.6497 9.33263,9.84754 16.73437,6.88683"
         id="path987" /><ellipse
         style="fill:#000000;stroke-width:3.95636"
         id="ellipse989"
         cx="318.59674"
         cy="583.25732"
         rx="6.3075724"
         ry="5.9213943" /><path
         style="fill:none;stroke:#000000;stroke-width:1px;stroke-linecap:butt;stroke-linejoin:miter;stroke-opacity:1"
         d="m 311.51683,601.9226 c 0.64363,-0.90108 26.64627,-21.11106 26.64627,-21.11106"
         id="path991" /><path
         style="fill:none;stroke:#000000;stroke-width:1px;stroke-linecap:butt;stroke-linejoin:miter;stroke-opacity:1"
         d="m 319.75529,612.22068 c 0.77235,-0.51491 26.64627,-19.8238 26.64627,-19.8238"
         id="path993" /><path
         style="fill:none;stroke:#000000;stroke-width:1px;stroke-linecap:butt;stroke-linejoin:miter;stroke-opacity:1"
         d="M 329.47885,624.13258 355.86767,604.4375"
         id="path995" /></g></g></clipPath>
	
	

	

		
		
		
		
		
		
		
		
		
		
		
		
		
		
		
		
		
		
	</defs><sodipodi:namedview
   pagecolor="#ffffff"
   bordercolor="#666666"
   borderopacity="1"
   objecttolerance="10"
   gridtolerance="10"
   guidetolerance="10"
   inkscape:pageopacity="0"
   inkscape:pageshadow="2"
   inkscape:window-width="1366"
   inkscape:window-height="705"
   id="namedview90"
   showgrid="false"
   inkscape:zoom="1.9605066"
   inkscape:cx="136.18929"
   inkscape:cy="112.47093"
   inkscape:window-x="-8"
   inkscape:window-y="-8"
   inkscape:window-maximized="1"
   inkscape:current-layer="svg2"
   inkscape:pagecheckerboard="0" />
<g
   id="Layer_7"
   style="fill:#db161b;fill-opacity:1"
   transform="scale(1,1.0094231)">
	<rect
   x="0"
   y="0"
   fill="#FF163D"
   width="361.14999"
   height="216.52"
   id="rect5"
   style="fill:#db161b;fill-opacity:1" />
</g>






<path
   style="fill:#fff200;fill-opacity:1;stroke:#1e2358;stroke-width:0.719801;stroke-miterlimit:6"
   inkscape:connector-curvature="0"
   id="path45"
   d="M 37.97717,118.3766"
   stroke-miterlimit="6" /><g
   transform="matrix(0.57683612,0,0,0.41484023,91.050484,104.98544)"
   id="text6688_1_"
   style="fill:#008000;fill-opacity:1">
			
				
		</g><g
   transform="matrix(0.57683612,0,0,0.41484023,89.777786,105.46403)"
   id="text6688-2_1_"
   style="fill:#008000;fill-opacity:1">
			
				
		</g>
<g
   id="g943"
   transform="translate(-5.0494577,-8.6562127)"><g
     transform="matrix(1.0332449,0,0,0.76331761,6.9226374,52.32613)"
     id="Layer_4"
     style="stroke:#fff200;stroke-opacity:0.851406">
	<polygon
   style="fill:#fbed06;stroke:#fff200;stroke-opacity:0.851406"
   id="polygon42"
   points="45.534,52.758 51.264,35.443 36.448,24.906 54.688,24.906 60.227,7.528 65.77,24.906 84.01,24.906 69.194,35.443 74.925,52.758 60.227,41.956 " />
</g><g
     id="g1059"><path
       style="fill:#fff200;fill-opacity:1;stroke:#fff200;stroke-width:1.14094;stroke-miterlimit:6;stroke-opacity:1"
       inkscape:connector-curvature="0"
       id="path47"
       d="m 69.255661,113.56371 c -17.925572,0 -32.445331,-11.21928 -32.445331,-25.071233 0,-5.087008 2.583783,-10.528594 5.94638,-14.476551 -11.458758,6.368887 -18.925984,16.768867 -18.925984,28.517524 0,19.39159 20.331893,35.10526 45.424935,35.10526 25.093043,0 45.424939,-15.71367 45.424939,-35.10526 0,-11.749368 -7.46815,-22.148637 -18.925987,-28.517524 3.363516,3.947957 5.946377,9.389543 5.946377,14.476551 0,13.852663 -14.519757,25.071233 -32.445329,25.071233 z"
       stroke-miterlimit="6" /><g
       transform="matrix(0.90119256,0.14107267,-0.18255032,0.6964307,-417.12799,22.077714)"
       id="g6098_2_"
       style="fill:#008000;fill-opacity:1">
			<g
   transform="rotate(-13.138826,582.68301,270.73394)"
   id="g6158_2_"
   style="fill:#008000;fill-opacity:1">
				<g
   transform="matrix(0.92478087,-0.02686382,0.02712594,0.93380438,47.187335,19.722255)"
   id="text5990_2_"
   style="fill:#008000;fill-opacity:1">
					<path
   style="fill:#008000;fill-opacity:1"
   d="m 599.216,35.337 c -1.923,0.072 -3.479,-0.539 -4.668,-1.839 -0.362,-0.395 -0.788,-1.075 -1.281,-2.036 -0.338,-0.673 -0.687,-1.023 -1.047,-1.047 -0.48,-0.036 -1.121,0.297 -1.922,1.003 -0.797,0.7 -1.349,1.385 -1.646,2.043 -0.518,1.29 -1.043,2.577 -1.57,3.862 -0.565,1.201 -1.24,1.798 -2.021,1.802 -0.961,-0.005 -1.819,-0.641 -2.58,-1.912 -0.79,-1.362 -1.188,-3.018 -1.187,-4.975 -0.002,-0.782 0.115,-1.835 0.341,-3.157 0.083,-0.492 0.201,-0.739 0.342,-0.737 0.159,-0.001 0.222,0.279 0.198,0.846 -0.01,0.456 -0.04,0.969 -0.089,1.531 -0.025,0.433 -0.036,0.787 -0.034,1.065 0,1.118 0.195,2.211 0.595,3.278 0.489,1.372 1.153,2.061 1.981,2.056 0.721,0.002 1.311,-0.422 1.766,-1.261 0.42,-1.01 0.836,-2.009 1.246,-3.009 0.612,-1.442 1.35,-2.621 2.218,-3.535 0.96,-1.021 1.878,-1.531 2.757,-1.533 0.446,0.002 0.911,0.398 1.408,1.192 0.769,1.261 1.2,1.948 1.296,2.054 1.034,1.189 2.332,1.784 3.893,1.784 z"
   inkscape:connector-curvature="0"
   id="path6001_2_" />
				</g>
				
					<path
   style="fill:#008000;fill-opacity:1"
   d="m 610.753,24.663 c 0.179,0.639 0.365,1.315 0.562,2.029 0.197,0.709 0.375,1.389 0.54,2.039 0.163,0.646 0.296,1.229 0.398,1.746 0.102,0.516 0.153,0.898 0.151,1.149 -0.002,0.093 -0.012,0.285 -0.034,0.572 -0.025,0.29 -0.067,0.618 -0.128,0.985 -0.064,0.368 -0.15,0.754 -0.258,1.161 -0.112,0.407 -0.244,0.777 -0.4,1.114 -0.156,0.336 -0.339,0.611 -0.552,0.83 -0.211,0.218 -0.458,0.328 -0.739,0.328 -0.512,10e-4 -1,-0.087 -1.453,-0.27 -0.45,-0.176 -0.866,-0.399 -1.241,-0.654 -0.374,-0.259 -0.71,-0.546 -1.009,-0.859 -0.295,-0.31 -0.554,-0.596 -0.772,-0.854 -0.218,-0.258 -0.47,-0.566 -0.752,-0.926 -0.2,0.423 -0.38,0.795 -0.539,1.114 -0.154,0.319 -0.347,0.667 -0.573,1.043 -0.226,0.378 -0.507,0.722 -0.842,1.043 -1.323,0.493 -0.872,0.181 -1.334,0.391 -0.602,-2.851 -0.477,-2.497 0.51,-2.793 0.478,-0.234 0.88,-0.504 1.207,-0.809 0.331,-0.306 0.579,-0.598 0.75,-0.879 0.175,-0.281 0.259,-0.461 0.259,-0.54 0,-0.156 -0.042,-0.582 -0.128,-1.277 -0.086,-0.696 -0.252,-1.746 -0.503,-3.152 0.233,-1.24 -0.008,0.037 0.237,-1.227 0.387,-0.954 -0.053,0.029 0.415,-0.952 0.4,-0.703 -0.015,-0.018 0.365,-0.717 0.148,0.696 0.276,1.348 0.386,1.956 0.127,0.705 0.25,1.418 0.374,2.144 0.128,0.729 0.351,1.419 0.68,2.077 0.236,0.453 0.522,0.874 0.867,1.264 0.346,0.391 0.716,0.727 1.116,1.007 0.396,0.283 0.798,0.506 1.206,0.669 0.408,0.163 0.791,0.246 1.147,0.245 0.39,0.001 0.617,-0.054 0.68,-0.164 0.062,-0.109 0.096,-0.226 0.095,-0.351 -0.296,-1.032 -0.656,-2.291 -1.079,-3.774 -0.517,-1.766 -0.539,-1.485 -0.748,-2.297 0.53,-1.371 -0.017,-0.037 0.546,-1.353 0.585,-1.085 0.015,0.06 0.593,-1.058 z"
   sodipodi:nodetypes="ccccccccccsccccccccccccccccccccccccccccccc"
   inkscape:connector-curvature="0"
   id="path5368-3_2_" />
			</g>
		</g><path
       style="fill:#008000;fill-opacity:1;stroke-width:0.808313"
       d="m 94.131703,127.17903 c -0.306192,-0.3901 -0.767779,-0.91095 -1.382922,-1.55615 -0.616062,-0.64663 -1.36821,-1.39273 -2.256443,-2.24329 -0.463426,-0.43985 -0.970988,-0.91948 -1.518088,-1.43891 -0.5471,-0.51944 -1.0942,-1.04384 -1.636702,-1.57677 -0.545261,-0.53364 -1.068455,-1.06374 -1.56866,-1.58956 -0.500206,-0.52796 -0.940645,-1.02465 -1.31396,-1.49008 -0.03954,-0.0533 -0.09839,-0.19541 -0.179302,-0.42634 -0.07908,-0.23235 -0.156314,-0.47538 -0.227115,-0.73615 -0.06896,-0.25723 -0.132407,-0.60684 -0.187577,-1.04597 0.347569,0.27997 0.722724,0.64805 1.119946,1.10494 0.981102,1.10921 1.924505,2.11751 2.825611,3.02635 0.896508,0.90669 1.714859,1.73237 2.450456,2.47208 0.315387,0.31763 0.65652,0.66368 1.019721,1.0417 0.36504,0.37519 0.723643,0.75961 1.074891,1.14829 0.352167,0.38799 0.681346,0.76672 0.993055,1.13124 0.311709,0.36666 0.574685,0.69708 0.788928,1.00262 0.09379,0.13146 0.190335,0.29489 0.29148,0.48959 0.100225,0.19327 0.192174,0.38797 0.27401,0.57486 0.08275,0.19256 0.134246,0.36239 0.153555,0.50805 0.02207,0.14567 -0.0037,0.23379 -0.07264,0.26577 -0.06804,0.0256 -0.152636,-0.0149 -0.251022,-0.13288 -0.09563,-0.11157 -0.183899,-0.22952 -0.266654,-0.34108 z"
       inkscape:connector-curvature="0"
       id="path5346-2_2_" /><path
       style="fill:#008000;fill-opacity:1;stroke-width:0.808313"
       d="m 99.118129,123.97719 c -0.207806,-0.43417 -0.537905,-1.01684 -0.991217,-1.75015 -0.454231,-0.7319 -1.018801,-1.58388 -1.69647,-2.55737 -0.352167,-0.50309 -0.738355,-1.05307 -1.157645,-1.64782 -0.41929,-0.59475 -0.834902,-1.19661 -1.244997,-1.80485 -0.410096,-0.60897 -0.799042,-1.21225 -1.16776,-1.80985 -0.369637,-0.59687 -0.684105,-1.15539 -0.939725,-1.67411 -0.02391,-0.059 -0.04597,-0.21033 -0.06712,-0.45477 -0.01839,-0.24443 -0.03034,-0.5038 -0.03218,-0.77523 -0.0018,-0.27145 0.02666,-0.63312 0.09011,-1.08576 0.282285,0.32757 0.561812,0.74752 0.845936,1.25985 0.700656,1.24634 1.388439,2.38896 2.060591,3.42213 0.672151,1.03318 1.283616,1.97184 1.831635,2.81316 0.23815,0.36169 0.491011,0.75534 0.761343,1.18453 0.268493,0.42849 0.531469,0.86122 0.785249,1.29964 0.252862,0.43843 0.490092,0.86264 0.708932,1.27122 0.21884,0.41 0.396302,0.78093 0.531468,1.11348 0.06161,0.14779 0.115857,0.32544 0.16551,0.53577 0.04965,0.20962 0.09011,0.4164 0.124132,0.61891 0.03126,0.20394 0.03862,0.383 0.01931,0.53436 -0.01563,0.15135 -0.06528,0.23803 -0.144361,0.26006 -0.07724,0.0206 -0.152636,-0.0341 -0.21884,-0.16201 -0.06712,-0.13003 -0.12781,-0.25723 -0.179302,-0.38513 z"
       inkscape:connector-curvature="0"
       id="path5346-2-7_2_" /><g
       transform="matrix(0.04634977,0.66456226,-0.74321426,0.04144472,245.60406,-111.29521)"
       id="g6098-7_2_"
       style="fill:#008000;fill-opacity:1">
			<g
   transform="rotate(-13.138826,582.68301,270.73394)"
   id="g6158-1_2_"
   style="fill:#008000;fill-opacity:1">
				<g
   transform="matrix(0.92478087,-0.02686382,0.02712594,0.93380438,47.187335,19.722255)"
   id="text5990-2_2_"
   style="fill:#008000;fill-opacity:1">
					
						<path
   style="fill:#008000;fill-opacity:1"
   d="m 272.797,246.085 c -1.922,0.072 -3.48,-0.543 -4.672,-1.84 -0.358,-0.395 -0.787,-1.075 -1.279,-2.037 -0.338,-0.672 -0.686,-1.02 -1.044,-1.045 -0.48,-0.036 -1.122,0.297 -1.919,1.001 -0.801,0.701 -1.349,1.383 -1.651,2.046 -0.518,1.286 -1.041,2.569 -1.568,3.858 -0.567,1.202 -1.239,1.804 -2.019,1.803 -0.961,0 -1.824,-0.637 -2.579,-1.912 -0.794,-1.358 -1.19,-3.018 -1.189,-4.977 -0.001,-0.782 0.113,-1.832 0.34,-3.155 0.083,-0.492 1.487,-7.284 1.633,-7.285 0.156,0.002 -1.067,6.827 -1.09,7.394 -0.011,0.456 -0.041,0.968 -0.092,1.531 -0.022,0.435 -0.036,0.789 -0.034,1.063 -0.002,1.119 0.196,2.214 0.594,3.284 0.493,1.37 1.154,2.055 1.984,2.055 0.719,-0.002 1.31,-0.42 1.765,-1.263 0.422,-1.01 0.838,-2.013 1.247,-3.011 0.612,-1.442 1.351,-2.618 2.217,-3.532 0.958,-1.022 1.88,-1.535 2.758,-1.532 0.442,-0.001 0.911,0.393 1.405,1.188 0.771,1.263 1.202,1.949 1.298,2.057 1.033,1.189 2.331,1.785 3.894,1.78 z"
   sodipodi:nodetypes="ccccsccccsccccscscccccccc"
   inkscape:connector-curvature="0"
   id="path6001-60_2_" />
				</g>
				
					<path
   style="fill:#008000;fill-opacity:1"
   d="m 314.603,230.228 c 0.179,0.639 0.367,1.32 0.561,2.029 0.198,0.712 0.376,1.39 0.541,2.039 0.163,0.648 0.296,1.23 0.399,1.744 0.101,0.518 0.15,0.9 0.152,1.15 0.001,0.097 -0.012,0.286 -0.035,0.576 -0.023,0.288 -0.066,0.615 -0.13,0.984 -0.06,0.367 -0.147,0.755 -0.256,1.161 -0.109,0.405 -0.243,0.777 -0.398,1.113 -0.156,0.335 -0.342,0.614 -0.549,0.832 -0.212,0.218 -0.46,0.328 -0.739,0.326 -0.517,0.001 -1.002,-0.088 -1.456,-0.268 -0.451,-0.18 -0.867,-0.398 -1.243,-0.656 -0.372,-0.257 -0.711,-0.543 -1.004,-0.855 -0.299,-0.313 -0.558,-0.598 -0.775,-0.857 -0.218,-0.256 -0.47,-0.567 -0.751,-0.924 -0.201,0.42 -0.381,0.791 -0.538,1.111 -0.156,0.321 -0.35,0.669 -0.575,1.045 -0.226,0.373 -0.507,0.723 -0.845,1.042 -1.323,0.489 -0.87,0.178 -1.33,0.389 -0.604,-2.85 -0.48,-2.496 0.511,-2.793 0.478,-0.232 0.879,-0.502 1.208,-0.807 0.327,-0.305 0.576,-0.6 0.748,-0.878 0.172,-0.282 0.258,-0.463 0.257,-0.542 0.001,-0.155 -0.041,-0.581 -0.128,-1.275 -0.087,-0.698 -0.253,-1.747 -0.503,-3.153 0.234,-1.24 -0.006,0.037 0.239,-1.227 0.383,-0.956 -0.054,0.028 0.415,-0.95 0.403,-0.707 -0.014,-0.019 0.363,-0.721 0.152,0.697 0.277,1.349 0.389,1.96 0.123,0.703 0.25,1.416 0.375,2.143 0.126,0.726 0.351,1.419 0.681,2.077 0.233,0.452 0.521,0.874 0.866,1.265 0.342,0.39 0.714,0.727 1.112,1.007 0.398,0.279 0.802,0.505 1.208,0.667 0.403,0.166 0.79,0.247 1.148,0.248 0.393,-10e-4 0.616,-0.054 0.68,-0.163 0.063,-0.11 0.094,-0.229 0.093,-0.352 -0.296,-1.032 -0.655,-2.289 -1.078,-3.772 -0.517,-1.769 -0.539,-1.486 -0.748,-2.3 0.528,-1.37 -0.02,-0.033 0.543,-1.352 0.581,-1.089 0.016,0.058 0.592,-1.063 z"
   sodipodi:nodetypes="ccccccccccsccccccccccccccccccccccccccccccc"
   inkscape:connector-curvature="0"
   id="path5368-3-4_2_" />
			</g>
		</g><g
       transform="matrix(0.63243035,0.22260936,-0.28806011,0.48873452,-153.97567,38.595118)"
       id="text6257_2_"
       style="fill:#008000;fill-opacity:1">
			<path
   style="fill:#008000;fill-opacity:1"
   d="m 335.039,19.037 c 0.071,-0.302 0.288,-0.271 0.649,0.09 0.96,0.986 1.684,2.305 2.164,3.957 0.482,1.655 0.65,3.305 0.507,4.964 -0.292,2.14 -1.15,4.124 -2.58,5.961 -1.431,1.835 -3.298,3.051 -5.609,3.648 -0.625,0.171 -1.213,0.162 -1.765,-0.032 -2.884,-0.974 -4.675,-1.676 -5.372,-2.108 -0.097,-0.064 -0.143,-0.136 -0.146,-0.239 0.002,-0.093 0.043,-0.18 0.128,-0.248 0.086,-0.07 0.188,-0.091 0.307,-0.056 1.683,0.516 3.137,0.698 4.363,0.542 1.226,-0.156 2.635,-0.743 4.219,-1.767 2.353,-1.531 4.059,-3.303 5.12,-5.317 0.098,-0.179 0.12,-0.371 0.07,-0.581 -0.361,-1.295 -1.319,-2.912 -2.883,-4.845 -0.071,-0.11 -0.096,-0.198 -0.07,-0.273 z"
   inkscape:connector-curvature="0"
   id="path6262_2_" />
		</g><g
       transform="matrix(-0.5794679,0.26429552,0.33695227,0.41278014,382.07467,-0.04053172)"
       id="text6323_2_"
       style="fill:#008000;fill-opacity:1">
			<path
   style="fill:#008000;fill-opacity:1"
   d="m 501.746,-38.494 c 0.217,-0.434 0.375,-0.649 0.473,-0.649 0.045,10e-4 0.07,0.072 0.068,0.217 0.003,0.683 -0.211,1.507 -0.646,2.47 -0.566,1.24 -2.024,3.426 -4.381,6.561 -1.009,1.335 -3.744,4.84 -8.204,10.512 0.71,0.803 1.118,1.473 1.228,2.001 0.164,0.817 0.252,1.514 0.253,2.091 -0.002,0.78 -0.153,1.472 -0.454,2.074 -0.166,0.348 -0.672,0.805 -1.514,1.371 -0.876,0.588 -1.537,0.883 -1.982,0.883 -0.987,-0.002 -1.478,-0.68 -1.479,-2.038 10e-4,-1.011 0.21,-2.103 0.631,-3.281 0.146,-0.385 0.619,-1.149 1.425,-2.289 -0.168,-0.157 -1.63,-1.371 -4.381,-3.644 -1.922,-1.598 -3.401,-2.945 -4.435,-4.038 -1.743,-1.839 -2.922,-3.229 -3.534,-4.165 -0.073,10e-4 -0.18,-0.04 -0.325,-0.125 -0.178,-0.087 -0.264,-0.176 -0.254,-0.271 0.025,-0.371 0.064,-1.069 0.11,-2.092 -0.011,-0.07 0.019,-0.108 0.092,-0.108 0.107,0 0.778,0.376 2.016,1.134 1.526,0.928 2.29,1.424 2.291,1.5 0,0.07 -0.098,0.112 -0.29,0.123 -0.24,0.016 -0.7,0.025 -1.387,0.036 0.89,0.926 2.667,2.592 5.337,4.995 1.465,1.189 3.436,2.879 5.914,5.066 1.753,-2.295 4.381,-5.744 7.878,-10.351 3.077,-4.073 4.926,-6.733 5.55,-7.983 z m -11.896,23.438 c -0.05,-0.661 -0.695,-1.599 -1.932,-2.811 -0.446,0.625 -0.885,1.247 -1.316,1.876 -0.49,0.753 -0.739,1.334 -0.736,1.73 -0.002,0.504 0.274,0.757 0.827,0.756 0.516,0.001 1.196,-0.246 2.038,-0.74 0.768,-0.458 1.141,-0.726 1.119,-0.811 z"
   inkscape:connector-curvature="0"
   id="path6335_2_" />
		</g><g
       transform="matrix(1.0992067,-0.15327252,0.13362141,0.91345105,-648.06083,206.55654)"
       id="text6275_2_"
       style="fill:#008000;fill-opacity:1">
			<path
   style="fill:#008000;fill-opacity:1"
   d="m 688.885,6.794 c 10e-4,-0.059 0.008,-0.169 0.019,-0.324 0.071,-1.598 -0.049,-3.66 -0.36,-6.185 -0.205,-1.442 -0.493,-4.05 -0.866,-7.824 l -0.054,-0.577 c -0.012,-0.242 -0.019,-0.481 -0.017,-0.723 0,-0.971 0.144,-1.908 0.432,-2.811 0.073,-0.157 0.139,-0.282 0.2,-0.378 0.18,-0.169 0.3,-0.168 0.359,-0.002 0.095,0.302 0.247,0.724 0.45,1.263 0.649,1.586 0.956,2.602 0.921,3.048 -0.121,0.216 -0.32,0.607 -0.596,1.173 0.228,1.743 0.54,4.494 0.937,8.255 0.133,1.696 0.181,2.777 0.144,3.248 -0.012,0.094 -0.03,0.232 -0.054,0.414 -0.288,3.414 -1.538,5.834 -3.748,7.265 -1.996,1.311 -4.67,1.965 -8.023,1.964 -0.589,0.014 -0.997,0.013 -1.226,0.001 -0.132,-0.108 -0.199,-0.221 -0.198,-0.341 -0.002,-0.229 0.252,-0.422 0.756,-0.577 5.529,-1.791 9.123,-3.714 10.782,-5.771 0.06,-0.12 0.108,-0.492 0.142,-1.118 z"
   sodipodi:nodetypes="cccccsccccccccccccsccc"
   inkscape:connector-curvature="0"
   id="path6280_2_" />
		</g><path
       style="fill:#008000;fill-opacity:1;stroke-width:0.808313"
       d="m 106.81891,107.87555 c -0.0451,-0.43842 -0.15908,-1.02252 -0.34389,-1.75157 -0.1839,-0.73118 -0.43493,-1.57748 -0.75583,-2.53959 -0.16735,-0.4967 -0.35217,-1.03958 -0.55446,-1.63007 -0.20137,-0.58693 -0.39446,-1.18239 -0.58204,-1.78567 -0.18757,-0.603276 -0.354,-1.202292 -0.50296,-1.797041 -0.1508,-0.595469 -0.25746,-1.153984 -0.31999,-1.677673 -0.003,-0.05826 0.034,-0.215304 0.10758,-0.473243 0.0726,-0.256517 0.16,-0.526536 0.26298,-0.812898 0.10206,-0.282809 0.27033,-0.668651 0.50848,-1.149711 0.16275,0.319049 0.28964,0.736867 0.38251,1.249192 0.24091,1.250613 0.50664,2.387528 0.79904,3.413607 0.2924,1.028196 0.55906,1.958337 0.79813,2.795397 0.10298,0.35884 0.21056,0.75108 0.3255,1.17884 0.11402,0.42493 0.21516,0.85625 0.30527,1.29468 0.0901,0.43771 0.17103,0.86476 0.23815,1.27334 0.0662,0.41214 0.10666,0.78733 0.11862,1.12485 0.006,0.1485 -0.007,0.33254 -0.0359,0.54785 -0.0294,0.21744 -0.068,0.43203 -0.11217,0.64094 -0.0441,0.21175 -0.10575,0.39721 -0.18114,0.55851 -0.0772,0.16201 -0.16092,0.25794 -0.25011,0.28636 -0.0883,0.0299 -0.14252,-0.0191 -0.16183,-0.14921 -0.0184,-0.13005 -0.0322,-0.25937 -0.0377,-0.38728 z"
       inkscape:connector-curvature="0"
       id="path5346-9_2_" /><path
       style="fill:#008000;fill-opacity:1;stroke-width:0.808313"
       d="m 103.65768,109.35426 c -0.0386,-0.43772 -0.14252,-1.02394 -0.30987,-1.75584 -0.16919,-0.73259 -0.40366,-1.58103 -0.70617,-2.54598 -0.15816,-0.50238 -0.3301,-1.04668 -0.52136,-1.63575 -0.19033,-0.59191 -0.37239,-1.18951 -0.5471,-1.7935 -0.17562,-0.60611 -0.33194,-1.20655 -0.46894,-1.803435 -0.13517,-0.596877 -0.23171,-1.15753 -0.28596,-1.681218 -0.002,-0.06114 0.0377,-0.218857 0.11493,-0.471819 0.08,-0.255811 0.17195,-0.525119 0.28045,-0.81006 0.1085,-0.284941 0.28596,-0.664388 0.53147,-1.142605 0.15447,0.32118 0.27309,0.736866 0.35952,1.250613 0.21516,1.253453 0.45975,2.393929 0.73008,3.424974 0.27033,1.02962 0.51952,1.96332 0.74295,2.80322 0.0956,0.36026 0.19586,0.75321 0.30068,1.18311 0.10482,0.42634 0.19861,0.85837 0.28228,1.29822 0.08,0.43984 0.15264,0.86335 0.21241,1.27548 0.0579,0.41284 0.0901,0.7859 0.0965,1.12626 0.003,0.14851 -0.0138,0.33113 -0.0469,0.54714 -0.0349,0.21744 -0.0772,0.42848 -0.12597,0.64023 -0.0478,0.21176 -0.11126,0.39651 -0.19218,0.55638 -0.0791,0.16059 -0.16458,0.25652 -0.25286,0.28352 -0.0901,0.0277 -0.14344,-0.022 -0.15999,-0.15064 -0.0193,-0.13146 -0.0267,-0.26149 -0.0285,-0.3894 z"
       inkscape:connector-curvature="0"
       id="path5346-9-4_2_" /><g
       transform="matrix(0.70089849,-0.26150592,0.33839289,0.54164586,-494.84566,316.53156)"
       id="text6337_2_"
       style="fill:#008000;fill-opacity:1">
			<path
   style="fill:#008000;fill-opacity:1"
   d="m 836.44,13.94 0.11,0.147 c 0,1.898 0.481,3.143 1.442,3.733 0.491,0.312 0.948,0.417 1.37,0.321 0.614,-0.143 1.154,-0.495 1.624,-1.064 0.469,-0.563 0.751,-1.184 0.848,-1.855 -0.121,-1.415 0.273,-2.632 1.19,-3.642 0.191,0.003 0.286,0.061 0.287,0.182 0.073,1.104 -0.097,2.068 -0.258,3.4 -0.748,2.491 0.058,-0.012 -0.809,2.501 -1.706,2.853 -0.003,-0.053 -1.708,2.843 -0.567,0.936 -1.239,1.603 -2.02,2 -0.817,0.241 -1.519,0.155 -2.108,-0.263 -0.591,-0.414 -1.058,-1.24 -1.407,-2.476 -0.122,0.155 -0.317,0.369 -0.586,0.638 -0.271,0.273 -0.679,0.664 -1.219,1.18 -1.549,0.904 -3.015,1.445 -4.398,1.622 -0.372,0.003 -0.593,-0.059 -0.665,-0.18 l 0.18,-0.231 c 0.913,-0.543 2.577,-1.747 4.992,-3.608 0.733,-0.577 1.324,-1.407 1.768,-2.486 0.348,-0.904 0.708,-1.81 1.081,-2.724 0.191,-0.046 0.287,-0.059 0.286,-0.038 z"
   sodipodi:nodetypes="cccccccccccccccccccccccc"
   inkscape:connector-curvature="0"
   id="path6344_2_" />
		</g><g
       transform="matrix(0.91919787,0.01808929,-0.02340783,0.71034498,-473.38101,98.455511)"
       id="text6370_2_"
       style="fill:#008000;fill-opacity:1">
			<g
   transform="matrix(0.82620091,-0.09627436,0.09079818,0.77920572,10.589106,96.009327)"
   id="g6381_2_"
   style="fill:#008000;fill-opacity:1">
				<path
   style="fill:#008000;fill-opacity:1"
   d="m 735.841,2.456 c -0.203,0.45 -0.401,0.91 -0.595,1.37 -0.181,0.383 -0.485,0.602 -0.917,0.665 -0.048,0.008 -0.211,0.002 -0.488,-0.023 -0.349,-0.035 -0.673,-0.054 -0.974,-0.05 -1.501,0 -3.142,0.33 -4.921,0.994 -1.334,0.492 -3.713,1.456 -7.14,2.903 -1.18,0.503 -2.344,0.756 -3.498,0.752 l 10e-4,-2.99 c 2.38,-0.001 5.256,-0.8 8.635,-2.397 -0.756,-0.064 -2.089,-0.284 -4.002,-0.667 -1.767,-0.359 -3.075,-0.55 -3.931,-0.557 -0.145,-0.004 -0.254,-0.114 -0.332,-0.324 -0.078,-0.221 -0.096,-0.398 -0.045,-0.529 0.193,-0.514 0.683,-1.194 1.479,-2.033 0.9,-0.973 1.859,-1.756 2.883,-2.342 1.659,-0.965 2.962,-1.524 3.91,-1.68 -0.324,-0.194 -0.486,-0.542 -0.485,-1.044 -0.001,-0.218 0.043,-0.396 0.128,-0.541 0.286,-0.542 0.581,-1.083 0.883,-1.622 0.312,-0.506 0.647,-0.758 1.009,-0.76 0.156,0.002 0.325,0.042 0.503,0.126 0.708,0.315 1.419,0.628 2.129,0.939 0.6,0.323 0.902,0.667 0.9,1.029 -10e-4,0.649 -0.305,1.436 -0.919,2.36 -0.505,0.761 -1.135,1.168 -1.893,1.23 -0.916,0.071 -2.12,0.383 -3.626,0.939 -1.669,0.619 -2.81,1.252 -3.424,1.887 1.516,0.243 3.828,0.595 6.943,1.048 2.727,0.388 5.275,0.575 7.641,0.581 0.376,-0.005 0.423,0.238 0.146,0.736 z"
   inkscape:connector-curvature="0"
   id="path6375_2_" />
				<path
   style="fill:#008000;fill-opacity:1"
   d="m 717.427,9.066 c -1.621,-0.144 -2.916,-0.563 -3.879,-1.257 -0.12,0.492 -0.244,0.816 -0.375,0.974 -0.169,0.217 -0.458,0.323 -0.867,0.323 -0.31,-0.004 -0.956,-0.176 -1.93,-0.522 -1.224,-0.434 -2.049,-0.906 -2.47,-1.428 -0.768,1.278 -1.555,1.915 -2.359,1.91 v -2.99 c 0.397,-0.002 0.995,-0.074 1.799,-0.213 0.565,-0.471 1.101,-1.19 1.604,-2.166 0.48,-0.922 0.813,-1.449 0.995,-1.568 0.323,-0.121 0.619,-0.183 0.883,-0.185 0.54,0.007 1.063,0.277 1.568,0.837 0.454,0.489 0.906,0.983 1.352,1.49 1.274,1.104 2.499,1.722 3.675,1.842 z m -4.943,-3.132 c -0.561,-1.554 -1.165,-2.342 -1.799,-2.363 -0.35,-0.01 -0.586,0.132 -0.703,0.424 -0.122,0.296 -0.237,0.582 -0.342,0.871 0.011,-10e-4 0.958,0.358 2.844,1.068 z"
   inkscape:connector-curvature="0"
   id="path6377_2_" />
				<path
   style="fill:#008000;fill-opacity:1"
   d="m 705.615,9.066 c -1.069,0.005 -2.089,-0.705 -3.05,-2.126 -0.429,-0.624 -0.99,-1.702 -1.676,-3.224 0.014,0.176 0.019,0.359 0.017,0.543 0.002,1.68 -0.469,3.074 -1.403,4.182 -1.116,1.309 -2.725,1.934 -4.817,1.886 -0.562,-0.008 -1.056,-0.264 -1.477,-0.753 -0.42,-0.489 -0.642,-1.057 -0.667,-1.693 -0.025,-0.774 0.222,-1.689 0.741,-2.76 0.095,-0.192 0.196,-0.299 0.307,-0.325 0.12,-0.026 0.179,0.063 0.181,0.251 -0.005,0.941 0.026,1.472 0.087,1.603 0.134,0.3 0.558,0.454 1.283,0.453 1.286,0.001 2.397,-0.297 3.336,-0.9 1.043,-0.66 1.568,-1.542 1.567,-2.632 -0.002,-0.386 -0.145,-1.169 -0.444,-2.354 -0.294,-1.185 -0.576,-2.102 -0.854,-2.75 -0.036,-0.636 -0.038,-1.141 -0.002,-1.515 0.047,-0.577 0.15,-0.867 0.308,-0.868 0.146,-10e-4 0.345,0.279 0.594,0.833 0.76,1.778 1.508,3.548 2.255,5.316 1.26,2.502 2.502,3.785 3.717,3.84 z"
   inkscape:connector-curvature="0"
   id="path6379_2_" />
			</g>
		</g><g
       transform="matrix(0.81790522,0.32466631,-0.42012344,0.63206725,-243.50216,-104.24715)"
       id="text6444_2_"
       style="fill:#008000;fill-opacity:1">
			<path
   style="fill:#008000;fill-opacity:1"
   d="m 435.714,131.191 c 0,2.56 -0.904,3.842 -2.704,3.842 -0.567,-0.003 -1.072,-0.205 -1.515,-0.613 -0.3,-0.375 -0.607,-0.739 -0.921,-1.1 -0.214,0.443 -0.533,0.962 -0.955,1.551 -0.541,0.755 -1.346,1.135 -2.415,1.135 -0.782,0.001 -1.425,-0.246 -1.93,-0.739 -0.564,-0.566 -0.812,-1.366 -0.74,-2.398 -1.358,1.033 -2.396,1.742 -3.12,2.127 -1.561,0.853 -3.099,1.28 -4.613,1.28 -0.002,-0.842 -10e-4,-1.682 -0.002,-2.523 1.756,-10e-4 3.205,-0.246 4.345,-0.741 0.71,-0.301 1.968,-1.063 3.769,-2.288 0.192,-0.134 0.323,-0.199 0.397,-0.198 0.109,-0.001 0.163,0.095 0.163,0.288 0,0.073 -0.008,0.167 -0.017,0.288 -0.013,0.121 -0.063,0.439 -0.145,0.955 0.528,1.059 1.273,1.587 2.234,1.587 1.312,0 2.309,-0.762 2.993,-2.289 0.255,-0.553 0.615,-1.051 1.083,-1.498 0.048,-0.023 0.096,-0.041 0.143,-0.052 0.073,-0.001 0.109,0.066 0.109,0.197 0,0.121 -0.14,0.644 -0.417,1.569 0.544,0.719 1.197,1.082 1.967,1.082 0.239,0 0.529,-0.06 0.867,-0.181 0.394,-0.143 0.594,-0.294 0.594,-0.452 10e-4,-0.133 -0.102,-0.334 -0.306,-0.604 -0.205,-0.27 -0.307,-0.484 -0.308,-0.638 -0.059,-0.83 0.067,-1.504 0.38,-2.02 0.036,-0.06 0.078,-0.091 0.124,-0.091 0.181,0.003 0.383,0.293 0.607,0.875 0.221,0.581 0.335,1.133 0.333,1.649 z"
   inkscape:connector-curvature="0"
   id="path6449_2_" />
		</g><g
       transform="matrix(0.8219122,0.13909366,-0.16309298,0.57553797,-369.70699,67.683828)"
       id="text6467_2_"
       style="fill:#008000;fill-opacity:1">
			<path
   style="fill:#008000;fill-opacity:1"
   d="m 495.03,-34.912 c -0.966,1.167 -2.553,2.465 -4.764,3.9 -2.162,0.785 -3.866,1.215 -5.114,1.293 -1.697,0.112 -3.139,-0.324 -4.323,-1.303 -0.484,-0.397 -1.724,-1.765 -3.723,-4.102 -0.154,-0.19 -0.178,-0.353 -0.069,-0.479 0.199,-0.242 0.426,-0.256 0.685,-0.041 1.188,0.981 2.022,1.583 2.504,1.809 1.95,0.925 3.973,1.402 6.066,1.431 2.154,0.034 4.111,-0.415 5.865,-1.353 0.357,-0.185 0.643,-0.684 0.856,-1.487 -0.72,0.434 -1.193,0.689 -1.426,0.763 -0.586,0.2 -1.107,0.113 -1.562,-0.262 -0.62,-0.513 -0.921,-1.204 -0.902,-2.079 0.023,-0.762 0.247,-1.344 0.678,-1.754 0.821,-0.786 1.732,-1.39 2.735,-1.808 1.1,-0.45 2.071,-0.573 2.907,-0.382 0.594,0.491 0.835,1.408 0.725,2.749 -0.124,1.301 -0.502,2.335 -1.138,3.105 z m -1.989,-2.179 c 0.162,-0.445 0.004,-0.863 -0.478,-1.263 -0.403,0.151 -0.63,0.255 -0.677,0.308 -0.195,0.276 -0.065,0.601 0.389,0.977 0.132,0.106 0.385,0.099 0.766,-0.022 z"
   inkscape:connector-curvature="0"
   id="path6472_2_" />
		</g><path
       style="fill:#008000;fill-opacity:1;stroke-width:0.808313"
       d="m 32.57973,114.79868 c 0.439519,-0.18332 1.018801,-0.45689 1.738766,-0.81858 0.719046,-0.3624 1.549351,-0.80153 2.487237,-1.3174 0.486413,-0.26789 1.017882,-0.56279 1.592566,-0.88183 0.574685,-0.31833 1.155807,-0.63596 1.747043,-0.95288 0.589396,-0.3162 1.177874,-0.62247 1.766351,-0.91736 0.585719,-0.29631 1.141095,-0.55425 1.663368,-0.78021 0.05793,-0.022 0.223438,-0.0625 0.490092,-0.11937 0.267573,-0.0561 0.548939,-0.11298 0.849614,-0.16486 0.300675,-0.0533 0.706173,-0.10871 1.218332,-0.16343 -0.306192,0.19968 -0.713529,0.41569 -1.22201,0.65231 -1.2404,0.58409 -2.364944,1.13763 -3.372711,1.66417 -1.009607,0.52512 -1.924505,1.00404 -2.745615,1.43394 -0.351247,0.18333 -0.738355,0.383 -1.157645,0.5976 -0.417451,0.21174 -0.844097,0.42349 -1.279019,0.63169 -0.434921,0.20821 -0.856051,0.40432 -1.264307,0.58907 -0.408256,0.18617 -0.78433,0.34392 -1.125463,0.47395 -0.151716,0.059 -0.337455,0.11867 -0.559053,0.18404 -0.221599,0.0639 -0.442278,0.12364 -0.662037,0.17836 -0.217921,0.0561 -0.412854,0.0938 -0.58388,0.11298 -0.171026,0.0213 -0.275849,0.0149 -0.314468,-0.0199 -0.03954,-0.0334 0.0037,-0.0803 0.134247,-0.13928 0.12781,-0.0561 0.258378,-0.11085 0.388947,-0.1613 z"
       inkscape:connector-curvature="0"
       id="path5346-2-7-6_2_" /><g
       transform="matrix(0.60959986,0.29374099,-0.44671307,0.48000149,-264.79906,21.512069)"
       id="text6275-0_2_"
       style="fill:#008000;fill-opacity:1">
			<path
   style="fill:#008000;fill-opacity:1"
   d="m 449.719,-69.851 c 0.012,-0.059 0.039,-0.163 0.083,-0.313 0.392,-1.537 0.688,-3.556 0.883,-6.06 0.085,-1.434 0.322,-4.017 0.708,-7.743 l 0.064,-0.566 c 0.036,-0.237 0.079,-0.469 0.126,-0.705 0.195,-0.943 0.527,-1.828 0.996,-2.648 0.104,-0.14 0.194,-0.253 0.273,-0.332 0.215,-0.131 0.333,-0.108 0.357,0.062 0.037,0.308 0.105,0.745 0.194,1.304 0.33,1.654 0.433,2.693 0.306,3.117 -0.165,0.189 -0.441,0.532 -0.829,1.03 -0.123,1.73 -0.367,4.455 -0.724,8.172 -0.207,1.669 -0.379,2.725 -0.509,3.177 -0.03,0.089 -0.076,0.22 -0.138,0.391 -0.972,3.258 -2.7,5.384 -5.185,6.38 -2.251,0.919 -5.042,1.08 -8.376,0.485 -0.586,-0.09 -0.995,-0.164 -1.218,-0.216 -0.112,-0.13 -0.153,-0.251 -0.129,-0.369 0.044,-0.219 0.334,-0.363 0.869,-0.425 5.857,-0.757 9.817,-1.986 11.881,-3.684 0.084,-0.105 0.206,-0.457 0.368,-1.057 z"
   sodipodi:nodetypes="cccccsccccccccccccsccc"
   inkscape:connector-curvature="0"
   id="path6280-3_2_" />
		</g></g><g
     id="g25105"
     transform="matrix(1.1400902,0,0,0.90214448,-0.03389485,47.089479)"
     style="fill:#008000;fill-opacity:1"><path
       style="fill:#008000;fill-opacity:1"
       d="m -37.327,-81.919 c 0.155,1.091 0.232,1.764 0.232,2.016 0,0.795 -0.244,1.305 -0.734,1.533 -0.097,0.061 -0.174,0.091 -0.219,0.091 -0.058,0 -0.11,-0.528 -0.141,-1.585 -0.053,-1.637 -0.497,-3.085 -1.339,-4.346 0.121,-0.264 0.32,-0.95 0.596,-2.054 0.252,0.493 0.478,0.971 0.683,1.44 0.497,1.129 0.799,2.099 0.922,2.905 z m 2.467,6.47 c -0.141,1.009 -0.431,1.729 -0.862,2.162 -0.303,0.303 -0.587,0.45 -0.865,0.45 -0.205,0 -0.47,-0.128 -0.793,-0.392 -0.191,0.225 -0.384,0.454 -0.578,0.683 -0.276,0.276 -0.592,0.416 -0.953,0.416 -0.734,0 -1.101,-0.674 -1.101,-2.021 0,-0.23 0.106,-0.628 0.311,-1.199 0.214,-0.569 0.391,-0.856 0.532,-0.856 0.065,0 0.117,0.054 0.168,0.161 0.058,0.167 0.052,0.387 -0.019,0.651 -0.072,0.321 -0.111,0.54 -0.111,0.646 0,0.493 0.264,0.693 0.792,0.596 0.422,-0.083 0.754,-0.514 0.993,-1.298 0.238,-0.783 0.392,-1.173 0.45,-1.173 0.206,0 0.309,0.175 0.309,0.525 0,0.085 -0.036,0.223 -0.1,0.423 -0.067,0.199 -0.08,0.37 -0.048,0.512 0.245,0.241 0.484,0.361 0.722,0.361 0.194,0 0.349,-0.24 0.47,-0.722 0.085,-0.407 0.174,-0.822 0.271,-1.244 0.026,-0.121 0.064,-0.18 0.129,-0.18 0.084,0 0.161,0.169 0.231,0.505 0.072,0.34 0.091,0.669 0.052,0.994 z"
       sodipodi:nodetypes="cccccccccccscccccscccccccccccccccc"
       inkscape:connector-curvature="0"
       id="path6693_1_"
       transform="matrix(0.62733954,0,0,0.62733954,84.631013,73.147304)" /><path
       style="fill:#008000;fill-opacity:1"
       d="m -28.954,-59.945 c 0.039,0.315 0.051,0.625 0.051,0.94 0,1.07 -0.193,1.959 -0.593,2.667 -0.431,0.771 -1.018,1.153 -1.745,1.153 -0.978,0 -1.829,-0.496 -2.565,-1.494 -0.489,-0.83 -0.978,-1.659 -1.456,-2.485 -0.134,0.945 -0.553,1.925 -1.261,2.937 -0.883,1.262 -1.87,1.894 -2.958,1.894 -1.061,0 -1.978,-0.509 -2.761,-1.518 -0.646,-0.84 -0.975,-1.613 -0.975,-2.325 -1.185,1.213 -2.267,1.82 -3.239,1.82 -0.555,0 -1.097,-0.181 -1.625,-0.542 -0.592,-0.393 -0.881,-0.869 -0.881,-1.424 0,-0.361 0.212,-0.862 0.643,-1.514 0.387,-0.586 0.734,-1.015 1.051,-1.28 1.03,-0.851 2.022,-1.47 2.969,-1.858 0.62,-0.237 1.057,-0.605 1.321,-1.097 0.085,-0.12 0.226,-0.986 0.431,-2.597 0.026,-0.216 0.079,-0.325 0.161,-0.325 0.11,0 0.235,0.146 0.391,0.431 0.147,0.29 0.228,1.331 0.241,3.121 -0.012,0.964 -0.019,1.929 -0.019,2.902 0.148,1.972 1.025,2.958 2.635,2.958 1.069,0 1.881,-0.393 2.434,-1.173 0.24,-0.335 0.547,-1.062 0.915,-2.181 -0.058,-0.54 -0.225,-1.761 -0.501,-3.662 -0.252,-1.705 -0.381,-2.612 -0.381,-2.719 0,-0.051 0.2,-0.753 0.601,-2.114 0.071,-0.25 0.141,-0.376 0.212,-0.376 0.135,0 0.329,0.77 0.581,2.31 0.393,2.341 0.733,4.096 1.004,5.264 0.496,2.089 1.367,3.298 2.614,3.622 0.375,0.093 0.665,0.146 0.872,0.146 0.502,0 0.753,-0.233 0.753,-0.687 0,-0.17 -0.035,-0.367 -0.111,-0.595 -0.071,-0.225 -0.573,-1.708 -1.515,-4.433 -0.848,-2.49 -1.274,-4.083 -1.274,-4.779 0,-0.155 0.051,-0.419 0.162,-0.792 0.153,-0.483 0.256,-0.854 0.302,-1.118 0.039,-0.204 0.097,-0.307 0.18,-0.307 0.455,10e-4 1.57,3.744 3.336,11.23 z m -14.296,-0.07 v -1.875 c -0.065,0.18 -0.464,0.451 -1.212,0.813 -0.739,0.361 -1.481,0.714 -2.216,1.062 -0.097,0.047 -0.141,0.103 -0.141,0.161 0,0.329 0.482,0.49 1.455,0.49 0.795,0 1.502,-0.22 2.114,-0.651 z"
       sodipodi:nodetypes="cccscccsccscsccccccccccccccccccccccccccccccsccsc"
       inkscape:connector-curvature="0"
       id="path6693-4_1_"
       transform="matrix(0.62733954,0,0,0.62733954,83.246887,73.871049)" /><path
       style="fill:#008000;fill-opacity:1"
       d="m 67.204,38.99 c -0.03,-0.389 -0.11,-0.909 -0.237,-1.559 -0.124,-0.649 -0.297,-1.402 -0.516,-2.256 -0.117,-0.443 -0.244,-0.929 -0.384,-1.451 -0.136,-0.522 -0.271,-1.053 -0.397,-1.588 -0.129,-0.537 -0.245,-1.069 -0.347,-1.599 -0.101,-0.529 -0.176,-1.026 -0.218,-1.492 -0.002,-0.053 0.02,-0.193 0.07,-0.421 0.05,-0.228 0.111,-0.467 0.181,-0.724 0.071,-0.252 0.189,-0.593 0.352,-1.022 0.111,0.284 0.196,0.655 0.261,1.112 0.166,1.11 0.35,2.123 0.548,3.037 0.204,0.912 0.388,1.74 0.552,2.485 0.068,0.321 0.144,0.668 0.223,1.048 0.075,0.377 0.146,0.762 0.209,1.151 0.063,0.39 0.118,0.769 0.163,1.134 0.046,0.365 0.075,0.698 0.084,0.999 0.003,0.134 -0.005,0.296 -0.026,0.488 -0.022,0.192 -0.045,0.384 -0.078,0.569 -0.029,0.189 -0.07,0.354 -0.122,0.498 -0.053,0.145 -0.11,0.229 -0.172,0.255 -0.061,0.025 -0.102,-0.02 -0.111,-0.135 -0.015,-0.114 -0.023,-0.229 -0.027,-0.344 z"
       inkscape:connector-curvature="0"
       id="path5346-9-5_1_" /></g></g><path
   style="fill:#b3b3b3;stroke:#000000;stroke-width:0.549667px;stroke-linecap:butt;stroke-linejoin:miter;stroke-opacity:1"
   d="m 125.06449,146.94717 2.28924,26.67136 c 0,0 6.49954,-1.99849 7.54489,-4.18013 0.47281,-0.98675 -2.0142,-2.40726 -1.00236,-3.13934 0.9826,-0.71092 3.10163,1.28618 4.22765,0.69417 2.80838,-1.47652 -2.29666,-6.43122 0.73938,-7.66363 0.94588,-0.38396 2.07729,1.35699 3.07669,1.04518 2.5288,-0.78897 2.58437,-3.16902 1.68739,-5.12405 -0.32803,-0.71496 -1.66847,-1.36239 -1.89646,-2.09374 -0.26192,-0.84016 0.55038,-1.87596 1.60892,-2.2132 1.20322,-0.38332 2.6985,0.94341 3.96476,0.66995 1.27922,-0.27626 2.66049,-2.11633 2.66049,-2.11633 l -7.00803,-3.57833 -11.57475,-3.04684 -1.14175,-7.95119 7.39443,-1.18509 9.8682,-4.5755 c 0,0 -1.84262,-2.45618 -3.4873,-2.72077 -1.14999,-0.185 -2.00822,1.2812 -3.12963,1.00666 -1.70686,-0.41785 -3.57228,-2.26463 -2.78224,-3.37947 0.50016,-0.70578 2.8652,0.59984 3.35537,-0.10986 1.26465,-1.83102 -2.14459,-4.36087 -4.69032,-5.45962 -1.00583,-0.43412 -2.40822,0.27667 -3.43712,-0.1262 -1.44176,-0.56453 -3.46678,-1.7882 -2.94201,-2.86097 0.43599,-0.89126 3.4387,0.3332 3.87929,-0.55673 0.8678,-1.7528 -2.50278,-3.65936 -4.76834,-4.70506 -1.13925,-0.52582 -2.73416,-0.0923 -3.9239,-0.55192 -1.77739,-0.68661 -5.16647,-1.85724 -4.29735,-3.10009 0.87736,-1.25462 8.22125,3.65201 5.55977,0.13131 -6.24466,-8.260672 -17.31703,-25.9964 -17.31703,-25.9964 l 8.77447,33.66484 5.62456,17.47157 z"
   id="path4714"
   sodipodi:nodetypes="ccsssssssssccccccsssssssssssscccc" /><path
   style="fill:none;stroke:#000000;stroke-width:0.549667px;stroke-linecap:butt;stroke-linejoin:miter;stroke-opacity:1"
   d="m 148.9978,149.9734 -6.82389,-3.33529 -12.46967,-3.1821 -1.10001,-9.3255 8.57277,-1.05509 9.381,-4.69722"
   id="path4975" /><g
   id="g1620"><g
     id="g1268"><path
       style="fill:#b3b3b3;stroke:#000000;stroke-width:0.941536px;stroke-linecap:butt;stroke-linejoin:miter;stroke-opacity:1"
       d="m 147.50318,129.13042 c 0,0 10.03107,1.5478 24.78329,0.33903 6.19325,-0.50746 10.76169,-6.37488 27.30675,1.87628 6.55095,3.26702 19.3308,-5.84963 26.58838,-5.94839 11.56262,-0.15736 12.48629,5.40064 19.12721,5.6084 8.70458,0.27232 14.80006,-4.21041 25.48146,-5.76968 10.61705,-1.54989 11.13007,11.91057 37.45894,3.56003 10.4888,-3.32668 37.57635,5.89242 37.57635,5.89242 -24.98263,-2.03567 -12.00561,8.29288 -35.72033,7.02392 -6.9742,-0.37318 -11.4855,11.42097 -30.49084,2.52549 -11.50153,-5.38332 -27.08909,7.18314 -33.83587,5.06366 -28.30702,-8.89255 -35.00045,5.43259 -53.22598,-2.70907 -6.4622,-2.88677 -13.97317,1.63881 -20.98733,2.0905 -7.18925,0.46296 -21.60013,0.63352 -21.60013,0.63352 l -7.00803,-3.5518 -11.57475,-3.02423 -1.14175,-7.89222 7.39443,-1.17629 9.8682,-4.54157"
       id="path14342"
       sodipodi:nodetypes="csssssscssssscccccc" /></g><path
     style="fill:none;stroke:#000000;stroke-width:0.945048px;stroke-linecap:butt;stroke-linejoin:miter;stroke-opacity:1"
     d="m 130.85821,139.92493 c 0,0 29.57027,0.64136 44.17344,-1.39925 4.73829,-0.66211 9.1726,-3.67353 13.9495,-3.49808 5.73907,0.21079 10.69848,5.33966 16.44051,5.42204 7.30641,0.10482 13.78333,-6.25582 21.09032,-6.29657 7.80184,-0.0436 14.78711,6.73868 22.58492,6.47148 7.83834,-0.26861 14.41032,-8.05762 22.25279,-8.04562 5.91704,0.009 10.87152,5.66435 16.77262,6.12166 5.0564,0.39185 14.61929,-3.45368 19.63469,-4.23574 3.57987,-0.55822 12.53536,0.38785 12.53536,0.38785"
     id="path22741"
     sodipodi:nodetypes="cssssssssc" /></g><g
   inkscape:groupmode="layer"
   id="layer1"
   inkscape:label="Layer 1"
   style="display:inline" /><g
   inkscape:groupmode="layer"
   id="layer2"
   inkscape:label="Layer 2"
   style="display:inline" /><path
   style="fill:#502d16;stroke:#000000;stroke-width:0.917486px;stroke-linecap:butt;stroke-linejoin:miter;stroke-opacity:1"
   d="m 123.9214,131.86775 -43.235661,1.35784 -15.815849,0.4747 -5.670906,2.71894 -19.144884,3.61437 4.903551,13.35621 8.282654,7.68309 1.758767,1.81856 5.540449,1.68361 8.486405,-10.38264 6.389721,-3.71755 8.929847,-0.77588 40.538136,-2.75183 -0.96223,-15.07942"
   id="path1547" /><path
   style="fill:none;stroke:#000000;stroke-width:1px;stroke-linecap:butt;stroke-linejoin:miter;stroke-opacity:1"
   d="m 93.775642,132.45809 1.262364,16.68125"
   id="path2411" /><path
   style="fill:none;stroke:#000000;stroke-width:1px;stroke-linecap:butt;stroke-linejoin:miter;stroke-opacity:1"
   d="m 96.841384,132.99911 1.172196,15.59921"
   id="path2413" /><g
   id="g2614"
   transform="matrix(1.0674381,0,0,1.0001601,-5.0927975,-0.02248961)"><path
     style="fill:none;stroke:#000000;stroke-width:1px;stroke-linecap:butt;stroke-linejoin:miter;stroke-opacity:1"
     d="m 100.2678,132.81877 1.1722,15.77955"
     id="path2528" /><path
     style="fill:none;stroke:#000000;stroke-width:1px;stroke-linecap:butt;stroke-linejoin:miter;stroke-opacity:1"
     d="m 102.79253,132.36793 1.1722,15.77955"
     id="path2530" /></g><path
   style="fill:none;stroke:#000000;stroke-width:1px;stroke-linecap:butt;stroke-linejoin:miter;stroke-opacity:1"
   d="m 108.85013,132.45809 c 0.27051,0.54102 1.1722,15.68939 1.1722,15.68939"
   id="path2841" /><path
   style="fill:none;stroke:#000000;stroke-width:1px;stroke-linecap:butt;stroke-linejoin:miter;stroke-opacity:1"
   d="m 111.64537,132.54826 1.17219,15.41888"
   id="path2843" /><path
   style="fill:none;stroke:#000000;stroke-width:1px;stroke-linecap:butt;stroke-linejoin:miter;stroke-opacity:1"
   d="m 116.4982,132.63843 1.35253,14.87787"
   id="path2845" /><path
   style="fill:none;stroke:#000000;stroke-width:1px;stroke-linecap:butt;stroke-linejoin:miter;stroke-opacity:1"
   d="m 119.56394,132.27776 1.1722,14.96803"
   id="path2847" /><path
   style="fill:none;stroke:#000000;stroke-width:1px;stroke-linecap:butt;stroke-linejoin:miter;stroke-opacity:1"
   d="m 52.838967,160.68096 c 0,0 8.385707,-8.74639 10.459591,-10.82027 2.073885,-2.07389 7.484018,-4.95929 7.484018,-4.95929 l 23.353741,-1.53287"
   id="path3042" /><path
   style="fill:none;stroke:#000000;stroke-width:1px;stroke-linecap:butt;stroke-linejoin:miter;stroke-opacity:1"
   d="m 44.957651,153.38981 15.358392,-10.6971 6.885976,-3.5705 26.523757,-1.14767"
   id="path3432" /></svg>
