<?xml version="1.0" encoding="UTF-8" standalone="no"?>
<svg
   xmlns:dc="http://purl.org/dc/elements/1.1/"
   xmlns:cc="http://creativecommons.org/ns#"
   xmlns:rdf="http://www.w3.org/1999/02/22-rdf-syntax-ns#"
   xmlns:svg="http://www.w3.org/2000/svg"
   xmlns="http://www.w3.org/2000/svg"
   xmlns:sodipodi="http://sodipodi.sourceforge.net/DTD/sodipodi-0.dtd"
   xmlns:inkscape="http://www.inkscape.org/namespaces/inkscape"
   width="1000"
   height="600"
   viewBox="0 0 264.58334 158.75"
   version="1.1"
   id="svg19"
   inkscape:version="1.0.2-2 (e86c870879, 2021-01-15)"
   sodipodi:docname="New Mon State Party Flag.svg">
  <defs
     id="defs13" />
  <sodipodi:namedview
     id="base"
     pagecolor="#ffffff"
     bordercolor="#666666"
     borderopacity="1.0"
     inkscape:pageopacity="0.0"
     inkscape:pageshadow="2"
     inkscape:zoom="1.4"
     inkscape:cx="199.96965"
     inkscape:cy="281.50546"
     inkscape:document-units="mm"
     inkscape:current-layer="layer1"
     inkscape:document-rotation="0"
     showgrid="false"
     units="px"
     inkscape:window-width="1920"
     inkscape:window-height="1017"
     inkscape:window-x="-8"
     inkscape:window-y="-8"
     inkscape:window-maximized="1" />
  <metadata
     id="metadata16">
    <rdf:RDF>
      <cc:Work
         rdf:about="">
        <dc:format>image/svg+xml</dc:format>
        <dc:type
           rdf:resource="http://purl.org/dc/dcmitype/StillImage" />
        <dc:title></dc:title>
      </cc:Work>
    </rdf:RDF>
  </metadata>
  <g
     inkscape:label="Layer 1"
     inkscape:groupmode="layer"
     id="layer1">
    <rect
       style="fill:#db241c;fill-opacity:1;fill-rule:evenodd;stroke-width:4.6046"
       id="rect21"
       width="264.58334"
       height="158.75"
       x="0"
       y="0" />
    <path
       id="path1"
       d="m 182.86039,63.806862 c -0.0508,0.05224 -0.7955,0.17544 -1.65462,0.273204 -0.85912,0.09776 -1.8756,0.249086 -2.25862,0.33615 -0.78614,0.17946 -3.04408,0.639484 -4.35386,0.887244 -0.47878,0.0904 -1.30174,0.245744 -1.82873,0.345524 -0.52632,0.09976 -2.64231,0.381682 -4.70206,0.627432 -10.94759,1.304416 -14.53206,2.50839 -20.72402,6.960682 -1.93051,1.388122 -3.99695,2.275366 -8.46264,3.630672 -5.64153,1.712884 -11.86765,6.082146 -14.16377,9.939816 -0.73256,1.230758 -0.6502,1.313792 1.30509,1.317808 2.31487,0.0048 2.9423,-0.341504 6.9031,-3.80745 1.93051,-1.688106 2.09389,-1.82404 2.75012,-2.28005 0.33481,-0.23304 0.64819,-0.470742 0.6964,-0.52766 1.08277,-1.291694 6.34731,-2.786282 9.81125,-2.786282 4.03646,0 7.0993,-0.671628 11.52279,-2.525132 0.8618,-0.361594 2.03698,-0.845726 2.61219,-1.076076 1.86087,-0.745284 5.51297,-1.759756 8.01064,-2.223802 3.95811,-0.73658 4.06057,-0.754662 6.96604,-1.23009 3.45658,-0.566496 3.52756,-0.59395 4.2581,-1.66467 1.2455,-1.82538 1.77114,-2.169564 6.5395,-4.275512 2.6008,-1.148398 3.0548,-1.40754 2.68584,-1.529412 -0.7011,-0.232356 -5.74466,-0.567166 -5.91274,-0.392396 m 1.57294,7.175632 c -3.61392,0.237038 -4.82794,0.381682 -8.01132,0.956214 -1.10152,0.19888 -2.41396,0.435252 -2.91686,0.52565 -0.50288,0.0904 -1.36534,0.246428 -1.91577,0.347534 -0.5511,0.1011 -1.39348,0.248426 -1.87225,0.327442 -0.99238,0.16406 -4.05119,0.802204 -4.96321,1.03523 -1.40687,0.359586 -3.58648,1.128978 -6.02322,2.12604 -5.04089,2.062424 -6.49865,2.43607 -11.13107,2.853244 -8.91195,0.801532 -9.70344,1.102192 -14.45773,5.49087 -4.45564,4.113466 -6.65333,4.937098 -10.08713,3.781336 -1.57762,-0.531008 -1.57628,-0.541722 0.15802,-2.116664 1.94122,-1.762436 1.95327,-1.739668 -0.82163,-1.61311 -2.63227,0.1192 -5.78148,0.534354 -7.83386,1.031882 -1.17116,0.284588 -1.17451,0.12722 -0.0228,-1.16045 0.56181,-0.627432 1.02117,-1.236784 1.02117,-1.353298 0,-0.611364 -6.09487,-0.854432 -9.82531,-0.393066 -2.81642,0.348872 -2.86999,0.26115 -0.76203,-1.243482 0.6194,-0.441948 1.06068,-0.869164 0.98032,-0.948848 -0.42253,-0.42253 -8.484079,-0.343514 -12.205819,0.1192 -1.219374,0.152 -1.20732,-0.14264 0.0442,-1.109558 0.526318,-0.406458 0.956882,-0.798184 0.956882,-0.870504 0,-0.240404 -15.140072,-0.14532 -16.10901,0.1011 -1.189242,0.302666 -2.489642,1.064692 -4.1215,2.414642 -1.497936,1.239464 -1.584988,1.256874 -3.627994,0.747294 -0.335478,-0.0837 -1.001748,-0.246428 -1.480524,-0.361594 -0.47878,-0.1145 -1.836096,-0.518954 -3.015964,-0.897958 -2.496336,-0.802202 -2.395222,-0.834344 -2.146124,0.68837 0.501544,3.066182 0.547076,3.13984 2.34835,3.775976 1.696814,0.599308 3.466614,0.8772 9.605676,1.50932 0.8618,0.0884 2.19434,0.237722 2.960382,0.331462 0.766714,0.09374 2.059748,0.249086 2.874004,0.345524 0.814256,0.09642 1.970018,0.255124 2.568654,0.353558 2.538526,0.415832 3.191404,0.52565 5.09379,0.856442 9.94919,1.732302 13.672287,2.961052 23.037567,7.604856 2.26465,1.12295 3.62129,1.930508 5.05026,3.005916 3.37153,2.538526 6.19933,4.529966 7.31826,5.155396 2.70593,1.51199 6.49597,2.70057 12.22456,3.83222 1.24549,0.24643 2.93024,0.60534 3.7445,0.79752 0.81426,0.19284 1.83275,0.42655 2.26398,0.51962 0.43124,0.0937 1.48923,0.32878 2.35103,0.52298 1.66668,0.37565 4.14695,0.80889 6.00849,1.05063 0.62274,0.0804 1.79792,0.23504 2.61218,0.34217 4.30364,0.56918 10.78487,0.97028 21.53493,1.33187 3.57442,0.12052 4.23466,0.0496 3.63,-0.38972 -1.52806,-1.10955 -4.2494,-3.51482 -4.21726,-3.72776 0.154,-1.02854 5.79354,-2.70928 10.53846,-3.14051 2.74276,-0.24911 2.75748,-0.25714 2.90614,-1.53745 0.1714,-1.47383 0.20022,-1.49391 3.39898,-2.34433 3.26104,-0.86649 4.16904,-1.0667 7.66244,-1.685428 0.62276,-0.10982 1.48522,-0.26584 1.91578,-0.346194 0.43124,-0.08036 1.37138,-0.236382 2.08988,-0.346192 0.71852,-0.10982 1.737,-0.271866 2.26396,-0.359586 0.527,-0.08772 2.05508,-0.323424 3.39632,-0.52431 3.29052,-0.49217 4.26684,-0.68636 4.26684,-0.850416 0,-0.531676 -7.63838,-2.52848 -12.017,-3.141182 -0.81424,-0.11384 -1.95662,-0.27923 -2.53918,-0.36762 -1.42362,-0.214944 -10.44538,-0.203554 -12.27948,0.0154 -0.80554,0.09576 -2.11264,0.261154 -2.9048,0.366952 -1.77448,0.236382 -1.9198,0.14798 -1.99078,-1.20933 l -0.0522,-0.987018 -0.69642,0.0122 c -0.38302,0.0066 -1.32382,0.14464 -2.08986,0.306018 -4.0184,0.845058 -10.01951,1.478518 -10.01014,1.055988 0.004,-0.208262 2.45616,-1.840112 3.65344,-2.431384 1.4149,-0.699082 3.12712,-1.243484 4.9304,-1.568246 2.04836,-0.368962 2.00684,-0.29932 1.19126,-2.010864 -0.78146,-1.640566 -0.75668,-1.759758 0.44328,-2.184968 2.11466,-0.747962 6.47186,-1.625162 8.07358,-1.625162 0.77008,0 1.03524,-0.275214 1.1598,-1.200626 l 0.0924,-0.692384 1.76376,-0.638818 c 3.51684,-1.274284 4.60364,-1.948588 7.92628,-4.91299 l 1.41558,-1.2629 h 1.15442 c 2.78494,0 9.07868,-1.138352 9.14432,-1.654626 0.0354,-0.28191 -2.42402,-1.42495 -4.11012,-1.911092 -2.75482,-0.792828 -13.40176,-1.049962 -21.5162,-0.518286 m -104.172543,9.76103 c 0.29731,0.208238 0.38302,0.415162 0.343512,0.826978 -0.13594,1.398834 -2.578702,1.442356 -2.578702,0.04552 0,-1.027866 1.292364,-1.532758 2.23519,-0.872512"
       stroke="none"
       fill="#fbc204"
       fill-rule="evenodd"
       sodipodi:nodetypes="csccccscsscccscsccsccccssccccccsccccscccccsccsccssccsccsccccccccccccccccsscsscccccccccsccscccscscccccsc"
       style="stroke-width:0.669618" />
    <path
       sodipodi:type="star"
       style="fill:#067ac1;fill-opacity:1;fill-rule:evenodd;stroke-width:3.32104"
       id="path1431"
       sodipodi:sides="5"
       sodipodi:cx="40.324089"
       sodipodi:cy="37.135868"
       sodipodi:r1="26.944565"
       sodipodi:r2="10.346714"
       sodipodi:arg1="-1.5707963"
       sodipodi:arg2="-0.9424778"
       inkscape:flatsided="false"
       inkscape:rounded="0"
       inkscape:randomized="0"
       d="m 40.32409,10.191303 6.081645,18.573898 19.544158,0.04434 -15.785494,11.523639 5.997307,18.6013 L 40.324089,47.482582 24.486471,58.934478 30.483779,40.333179 14.698285,28.809539 34.242443,28.765201 Z"
       inkscape:transform-center-y="-2.5729762" />
  </g>
</svg>
