<?xml version="1.0" encoding="UTF-8"?>
<!-- Created with Inkscape (http://www.inkscape.org/) -->
<svg id="flag_Nagaland" width="570" height="378" version="1.1" xmlns="http://www.w3.org/2000/svg">
 <rect id="blu" width="570" height="378" fill="#74c6f1"/>
 <path id="grn" d="m0 353.613v24.3871c170.371-143.187 364.73-239.516 570-310.935v-21.7742c-205.27 71.4194-399.699 165.135-570 308.323z" fill="#009440"/>
 <path id="ylw" d="m0 330.968v22.6452c170.371-143.187 364.73-236.903 570-308.323v-22.6452c-205.27 71.4368-399.699 165.135-570 308.323z" fill="#fff700"/>
 <path id="red" d="m570 22.6452c-205.27 71.4019-399.525 165.135-570 308.323v-22.6452c170.371-143.222 364.73-236.903 570-308.323z" fill="#da251c"/>
 <path id="star" d="m141.961 110-36.9615-4.01923-15 84.019-15-84.019-36.9615 4.01923 21.9615-30-21.9615-30 36.9615 4.01923 15-34.0192 15 34.0192 36.9615-4.01923-21.9615 30z" style="fill-rule:evenodd;fill:#ffffff"/>
</svg>
