<?xml version="1.0" encoding="UTF-8"?>
<svg width="400" height="250" version="1.1" viewBox="0 0 2 1.25" xmlns="http://www.w3.org/2000/svg"><text x="0.087454014" y="-0.49011052" fill="#000000" font-family="Montserrat" font-size=".96px" letter-spacing="0px" stroke-width=".005" word-spacing="0px" style="line-height:1.25" xml:space="preserve"><tspan x="0.087454014" y="0.39221931" stroke-width=".005"/></text><g fill-rule="evenodd"><rect width="2" height="1.25" fill="#e00" style=""/><circle cx="1" cy=".625" r=".375" fill="#fff"/><path d="m1 0.28802c-0.003127 6.733e-5 -0.006254 1.7821e-4 -0.009378 3.326e-4l0.003488 0.1842-0.048816 0.039781-0.003386-0.15755h-0.11488c-0.0197504 0.2037336-0.0939268 0.283204-0.1469786 0.3452214 0.1063784 0.07862393 0.179091 0.1367007 0.2747286 0.2539386l-0.004482-0.20861 0.051725 0.03992 0.00362 0.17651c0.1838209-0.003082 0.3312467-0.1529332 0.33133-0.33678 0-0.1861089-0.1508711-0.33698-0.33698-0.33698z" fill="#e00"/><circle cx="1.1649" cy=".71233" r=".031196" fill="#fff"/></g><path d="m0.96875 0.66175c0.020286 0.008906 0.068656 0.046575 0.068656 0.046575-0.00322 0.00569-0.018744 0.047557-0.018744 0.047557-0.098044-0.077742-0.22332-0.12627-0.22332-0.12627s0.17133-0.08715 0.21887-0.13667c0 0 9.349e-4 0.059521 4.401e-4 0.06249 0 0-0.02944 0.025482-0.061601 0.044036 0 0 0.18876 0.007174 0.25605-0.005443 0 0-0.013854-0.019297-0.11207-0.046015v-0.062986c0.11763 0.034449 0.23303 0.08953 0.21993 0.13842-0.010587 0.03126-0.087659 0.041443-0.3482 0.038303z" fill="#fff"/></svg>
