<svg height="258.19889" viewBox="0 0 1500 1000" width="387.298335" xmlns="http://www.w3.org/2000/svg"><g fill="#fed501"><path d="m0 0h1500v1000h-1500zm641.5 206.6c-29.55 19.96-58.23 41.34-84.9 65.05-21.7 19.29-42.02 40.32-59.07 63.89-21.04 28.92-36.83 61.74-45.63 96.43-5.68 21.94-8.09 44.52-10.17 67.03-.37 23.72-.01 47.56 3.88 71.02 3.88-1.76 7.38-4.2 11.06-6.33 16.04-9.65 32.18-19.15 48.17-28.9.83-9.6.02-19.21.55-28.81 2.12-42.83 16.39-84.83 39.94-120.59 19.25-29.12 44.75-54.09 74.25-72.74 32.13-19.88 68.76-33.29 106.56-36.21 45.05-5.01 91.44 3.38 132.1 23.38 29.73 14.39 56.26 35.18 77.95 60.03 33.55 38.68 54.81 88.08 58.84 139.2 1.41 11.3.01 22.73 1.02 34.06-.15 1.96 1.97 2.65 3.26 3.61 18.56 11.14 37.15 22.23 55.63 33.49 4.57-21.74 4.2-44.13 4.39-66.23-.96-13.09-2.63-26.13-4.73-39.08-8.04-49.3-29.73-95.92-60.36-135.21-18.49-23.88-39.83-45.47-62.82-65.02-24.33-20.67-49.85-39.95-76.43-57.64-34.56-23.25-70.4-44.54-106.92-64.54-36.49 19.7-72.02 41.17-106.57 64.11m81.65 113.02c-2.08-.45-4.01-1.49-6.14-1.64-2.44 2.35-3.65 5.65-6.03 8.05-2.5 2.39-6.44 2.53-8.75 5.17-5.04 5.63-10.2 11.14-15.07 16.92-2.16 2.52-4.29 5.29-7.44 6.63-4.83 2.14-10.2 2.46-15.28 3.73-1.95 2.86-4.26 5.88-3.79 9.58.36 4.41-2.25 9.03.13 13.18 3.02 5.34 4.15 11.56 3.54 17.65-.92 3.63-4.4 6.24-4.53 10.15-.28 3.7-.79 7.37-1.24 11.05-.73 6.61.81 13.29-.26 19.88-.88 2.06-2.56 3.66-3.73 5.56-2.17 3.18-2.85 7.05-4.56 10.45-1.38 2.24-3.81 3.49-5.98 4.84-18.58 10.48-37.11 21.04-55.67 31.56-6.54 3.57-12.81 7.64-19.6 10.73 3.47 13.61 7.69 27.02 11.25 40.6-.91 0-2.74-.01-3.65-.01.4 1.35.81 2.7 1.23 4.06 2.5-1.01 5.08-1.82 7.7-2.46.8 3.19 1.6 6.38 2.3 9.6-1.1 1.44-3.59 2.45-3.4 4.52 8.86 2.08 17.86 3.51 26.76 5.48 5.83 1.32 12.23 1.4 17.36 4.82 12.79 8.24 25.39 16.8 38.52 24.5 9.34 5.44 20.45 7.95 28.46 15.51 31.3 26.35 62.62 52.66 93.81 79.14 4.31 3.94 10.54 2.94 15.91 3.46 15.01 1.15 30.03 2.3 45 3.97 3.98.38 8.97 1.03 11.73-2.6 4.08-4.96 8.48-9.81 11.24-15.67 2.19-4.26 3.35-8.98 5.93-13.04 1.86-2.99 2.52-6.62 4.62-9.45 2.67-1.69 5.6-3.02 8.56-4.1 4.64-.29 9.3-.08 13.96-.1 4.92-.37 8.93 4.09 13.9 2.84 4.2-.79 8.4.4 12.07 2.42-1.89-2.61-2.69-5.65-2.68-8.83-1.43-2.05-4.19-2.03-6.36-2.59-.36-1.68-.57-3.38-1.15-4.98-1.89-1.23-5.41-1.36-5.46-4.21-.15-7.09.08-14.18-.08-21.27-4.32-.06-8.63-.05-12.94-.03.13-6.94-.32-13.91.2-20.83 1.25-5.24 3.64-10.16 5.97-15-1.86-3.04-3.66-6.13-4.92-9.46-2.05-1.28-3.09-3.45-3.9-5.62-1.08-.16-2.14-.31-3.19-.46-.08-1.79-.15-3.58-.2-5.36-1.24-1.48-2.57-2.88-3.61-4.49-.51-2.22-.16-4.8-2.38-6.15-3.4 1.34-8.2 2.67-10.92-.62-7.34-7.83-15.9-14.58-25.45-19.51-3.8-2.01-8.73.69-12.19-1.87-1.98-3.49-3.93-7.56-3.16-11.68 1.85-.04 3.71-.07 5.57-.09-.27-2.81-2.71-4.42-4.44-6.33-1.79-1.37-1.21-3.87-1.55-5.8-1.56.05-3.11.1-4.65.15-.79-1.44-1.57-2.88-2.35-4.31-1.27.12-2.53.26-3.77.39-.07-1.18-.13-2.36-.18-3.54-4.16-3.99-6.24-9.41-8.58-14.54-1.45.04-2.9.09-4.33.14-.01-1.55 0-3.1.03-4.64 1.65-1.55 2.44-3.59 2.63-5.81 1.79-1.43 3.34-3.14 4.05-5.37-2.31-1.01-4.39-2.45-5.33-4.87 5.86-.86 11.74.06 17.57.7l-1.06-1.25c-5.67-2.38-11.82-3.51-17.9-4.25 1.73-2.91 4.9-5.18 4.49-8.95 2.64.02 5.13.94 7.58 1.87-1-2.01-2.75-3.81-2.97-6.09 1.03-4.79 4.84-8.21 8.04-11.65-.16-3.27 1.29-6.49 4.41-7.85 2.16.1 4.3.52 6.46.86-.38-2.56-.43-5.18-1.07-7.68-1.59-2.58-4.17-4.69-4.66-7.81-.53-3.84-.27-7.85 1.08-11.49.54-2.95 6.19-1.05 4.56-4.91-3.55-.19-6.89 1.24-10.35 1.74-1.45.17-3.35.7-4.28-.81-2.21-2.64-4.04-5.58-6.34-8.14-2.59 1.14-5.69 2.14-8.4.81-3.6-3.43 1.43-8.77-1.61-12.37-1.74-2.06-1.99-4.75-2.05-7.34-1.8.02-3.59.03-5.37.01-1.48-2.98-3.89-5.41-5.24-8.43-.17-2.75 1.53-5.16 2.08-7.79-2.02-2.18-5.84-.86-7.85-3.09-.5-1.53-.46-3.17-.62-4.75.79-.83 1.59-1.66 2.4-2.48-.96-4.54-5.11-7.37-6.38-11.81-2.92 1.37-4.76 4.23-7.71 5.56-2.2 1.03-4 2.67-5.38 4.64-1.44.07-3.03.83-4.35.03-1.5-2.27-2.71-4.78-3.43-7.41-.65-2.69 2.06-4.32 3.47-6.15-1.93-1.3-3.95-2.44-6.05-3.42-2.92 2.75-6.03 7.53-10.7 5.79-3.17-1.1-6.64-.01-9.76-1.23-4.82-1.91-9.71-3.62-14.35-5.93-2.7-1.55-5.05 2.22-7.8 1.67m-230.06 226.52c-13.61 8.48-27.43 16.62-41.19 24.85 5.2 18.46 10.98 36.75 16.45 55.13 7.77-10.25 17.51-18.79 26.51-27.92 4.93 3.29 10.67 8.07 9.52 14.75-1.69 8.96-10.26 13.84-15.19 20.86 2.08 4.09 2.52 9.88 7.34 11.82 8.46 3.89 16.97 7.68 25.4 11.66 8.69 4.04 17.07 8.8 26.13 12.02 1.77-.95 3.75-1.67 5.17-3.13 2.78-2.79 2.82-7.79.17-10.66-2.5-2.21-5.71-3.37-8.77-4.56.54-.45 1.1-.89 1.68-1.3 3.65 2.15 8.33 4.63 12.44 2.1 5.42-2.77 5.21-11.62-.35-14.11-9.37-4.43-18.93-8.48-28.33-12.85-.93-.53-1.79-1.15-2.58-1.87 10.48 2.3 19.12 9.56 29.46 12.36 5.17-.54 10.2-6.65 7.43-11.71-1.04-2.34-3.66-3.1-5.76-4.14-5.85-2.49-11.5-5.44-17.49-7.56-4.04 2.35-9.75 2.77-13.2-.83-2.58-2.1-2.89-5.57-3.44-8.6-3.6.13-7.69.14-10.37-2.66-3.08-2.62-3.03-6.98-3.22-10.66-2.9-.32-6.3-.2-8.31-2.7-3.06-2.93-2.28-7.47-2.31-11.27-2.15-.55-4.46-.84-6.32-2.14-4.34-2.82-5.05-9.3-2.67-13.59 2.88-3.71 6.96-6.25 10.33-9.48-1.3-2.07-2.62-4.11-3.97-6.14-1.58.66-3.13 1.4-4.56 2.33m506.26 3.9c3.32 2.87 6.94 5.45 9.87 8.75 2.47 2.97 1.86 7.21.96 10.66-1.67 3.63-5.73 5.11-9.43 5.54-.25 3.82.79 8.46-2.44 11.34-2.13 2.49-5.49 2.97-8.51 3.55-.21 3.23.24 7.04-2.48 9.42-2.64 3.12-6.97 3.37-10.76 3.18-.64 3.23-1.17 6.92-4.02 9.03-3.52 3.17-8.82 2.55-12.68.36-6.43 2.34-12.55 5.44-18.82 8.16-2.52.98-5.02 2.93-5.07 5.88-.67 4.73 3.72 8.65 8.08 9.29 10.1-3.23 19.25-8.8 28.91-13.07-.12.36-.37 1.08-.49 1.44-9.17 5.12-19 8.95-28.5 13.41-2.98 1.07-5.64 3.64-5.6 6.99-1.1 5.49 5.1 10.57 10.25 8.57 9.38-3.61 18-8.96 27.38-12.54-.19 1.06-.77 1.8-1.75 2.21-7.11 3.66-14.48 6.79-21.68 10.27-3.23 1.38-6.85 3.54-6.92 7.52-.96 5.83 6.1 11.01 11.27 7.93 15.78-7.56 31.54-15.16 47.52-22.31 4.79-1.94 5.26-7.75 7.3-11.84-3.69-5.14-8.88-8.98-12.47-14.18-2.28-3.33-3.67-7.64-2.29-11.59 1.38-4.5 5.56-7.17 9.24-9.66 8.8 9.26 18.57 17.63 26.43 27.74 5.58-18.27 11-36.59 16.63-54.84-15.18-9.26-30.6-18.13-45.55-27.76-1.68 2.03-3.12 4.24-4.38 6.55m-491.99-.62c-3.52.41-5.86 3.35-8.49 5.4-2.96 2.55-6.82 4.99-7.26 9.25-1.07 5.94 6.33 11.29 11.58 8.13 4.88-3.36 9.5-7.29 13.08-12.03 1.53-5.25-3.09-11.73-8.91-10.75m481.82.78c-4.35 1.93-6.07 8.02-3.17 11.85 2.2 2.75 5.1 4.85 7.73 7.18 2.57 2.2 5.7 4.85 9.37 3.68 5.12-1.06 8.19-7.73 5.12-12.13-2.77-3.53-6.44-6.2-9.82-9.1-2.44-2.23-6.24-3.13-9.23-1.48m-469.93 11.03c-4.37 2.48-7.76 6.29-11.63 9.43-2.7 2.48-6.39 5.15-5.98 9.3.11 5.33 6.49 9.33 11.3 7.01 4.17-2.32 7.45-5.88 11.14-8.84 2.6-2.28 6.02-4.4 6.41-8.18 1.12-5.93-5.67-11.6-11.24-8.72m455.18.41c-4.51 2.63-5.49 9.8-1.3 13.2 4.91 4.07 9.38 8.79 14.9 12.08 6.07 3.31 13.82-4.5 10.65-10.6-3.17-4.77-8.24-7.77-12.28-11.72-3.06-3.05-7.86-5.71-11.97-2.96m-444.02 12.76c-4.55 2.58-8.11 6.51-12.2 9.71-2.75 2.2-5.79 5.09-5.32 8.98.2 5.18 6.25 9.3 11.04 6.98 4.54-2.65 8.19-6.52 12.31-9.74 2.59-2.07 5.57-4.7 5.42-8.34.61-5.59-6.31-10.42-11.25-7.59m433.76-.07c-3.89 1.7-6.24 6.71-4.22 10.64 2.25 4.03 6.37 6.41 9.67 9.48 2.88 2.34 5.51 5.61 9.41 6.16 4.84.73 9.61-3.8 9.06-8.67-.2-3.07-2.47-5.43-4.72-7.28-3.89-3.13-7.45-6.65-11.47-9.61-2.16-1.75-5.27-1.77-7.73-.72m-422.68 13.27c-4.42 2.78-7.83 6.82-11.92 10.02-2.95 2.2-3.7 6.56-2.08 9.79 1.38 2.9 4.53 4.36 7.57 4.82 4.62-1.04 7.86-4.79 11.38-7.68 2.91-2.63 6.93-5.14 6.93-9.56.47-5.96-6.73-10.55-11.88-7.39m410.76-.2c-4.78 2-6.34 9.25-2.43 12.81 3.55 3.48 7.35 6.71 11.23 9.83 3.14 2.81 8.43 2.3 11.19-.81 2.8-2.99 2.96-8.45-.4-11.09-3.84-3.18-7.26-6.85-11.24-9.86-2.33-1.9-5.69-2.22-8.35-.88m-397.55 10.84c-2.84 5.1-8.15 7.89-11.82 12.23 5.3 2.53 10.67 4.89 16.13 7.06 4.7-1.04 9.35-5.39 8.03-10.57-1.33-5.59-7.71-6.94-12.34-8.72m379.5 7.76c-2.48 5.72 3.85 12.56 9.73 10.74 4.89-1.73 9.47-4.22 14.23-6.26-3.66-4.38-9.19-6.99-11.87-12.25-4.44 1.64-10.1 2.93-12.09 7.77m-446.88 2.4c-4.77 5.55-10.48 10.22-15.03 15.96-2.9 3.75-2.52 9.02-.65 13.15 8.41 17.87 17.6 35.35 26.02 53.21 16.86-4.02 33.58-8.63 50.39-12.88.23-1.99.45-3.99.69-5.97-18.39-8.97-37.01-17.45-55.47-26.25-2.98-3.51-4.08-8.42-5.95-12.63 5.1-6.4 12.73-11.09 15.45-19.14 1.56-5.85-3.11-10.8-7.7-13.61-2.7 2.6-5.3 5.32-7.75 8.16m510.91 5.4c2.62 8.09 10.31 12.77 15.45 19.14-1.69 4.13-3.1 8.45-5.45 12.26-18.52 9.13-37.42 17.55-55.98 26.63.22 2.01.47 4.04.74 6.07 16.65 3.96 33.07 8.87 49.74 12.72 2.69-3.48 4.04-7.83 6.22-11.65 5.94-11.82 11.76-23.7 17.56-35.59 1.91-3.92 4.37-7.88 4.31-12.39.03-3.37-1.56-6.56-3.96-8.85-7.18-7.08-13.98-14.51-20.76-21.96-4.79 2.63-9.46 7.72-7.87 13.62m-438.81 65.82c-20.86 5.65-41.73 11.23-62.63 16.69 10.64 16.21 23.44 30.97 37.3 44.5 23.27 22.95 50.18 42.23 79.55 56.59 30.41 15.37 63.58 25 97.31 29.5 56.3 7.19 114.58-1.22 166.31-24.66 17-7.73 33.26-17.01 48.74-27.43 17.81-12.48 34.35-26.75 49.33-42.51 10.39-11.28 20.62-22.92 28.62-36.06-12.99-3.37-25.94-6.86-38.93-10.22-8.95-2.19-17.7-5.15-26.75-6.9-3.4 3.66-6.71 7.39-10.08 11.08-32.71 34.1-75.27 58.79-121.36 69.47-26.75 6.52-54.56 7.27-81.91 5.16-37.76-3.78-74.58-16.68-106.53-37.14-20.46-13.04-38.85-29.22-54.69-47.58-.99-1.53-2.87-.76-4.28-.49z"/><path d="m721.48 213.41c2.76-.1.61 2.96-1.15 2.5-2.83.33-.42-2.79 1.15-2.5z"/><path d="m811.34 218.59c.74-.77 3.11-1.25 3.28.24-.54 1.07-4.57 1.61-3.28-.24z"/><path d="m720.34 219.7c.27-1.32 1.05-1.64 2.34-.94-.29 1.31-1.07 1.63-2.34.94z"/><path d="m774.23 219.53c1.24-.81 3.07-1.16 4.47-.5-.44 1.29-4.17 1.9-4.47.5z"/><path d="m784.27 220.65c1.55-.92 3.7-.84 5.38-.26-.87 1.12-4.8 1.83-5.38.26z"/><path d="m810.77 222.5c1.18-.47 2.19-.24 3.04.7-.21 1.5-3.8.76-3.04-.7z"/><path d="m729.05 227c-.19-1.56.85-2.85 1.5-4.16 3.52 2.71 2.74 7.26 2.95 11.17.22 4.87.52 9.73.78 14.6.94-.08 2.82-.25 3.75-.34-1.16 3.17-4.89 2.77-7.55 2.55-.33-7.95-.97-15.88-1.43-23.82z"/><path d="m773.02 227.94c-.16-1.87.86-3.47 1.87-4.94.75 1.32 2.55 2.31 2.46 3.99-.22 6.68-.7 13.38-.16 20.06.19 2.55 3.23 2.58 5.16 2.85.08-4.19-.31-8.39.18-12.56.11-1.28 1.3-2.01 2.08-2.89.63.55 1.89 1.64 2.52 2.19 2.1-1.71 4.05-3.71 4.66-6.45.49 1.52.85 3.08 1.16 4.66 3.08 2.86 4.69 8.97-.16 10.95.64-2.04 2.48-4.39.85-6.46-1.34-2.8-6.05-2.5-6.86.51-.75 2.82-.89 5.88-.24 8.74 1.63 4.07 8.33-.44 8.91 4.07-8.27.31-16.33-1.99-24.57-2.1-2.26-.25-5.74-.25-6.37-2.99-.23-3.53-1.48-7.03-.68-10.55.62-2.34-3.4-3.67-4.16-1.27-1.72 3.73-.64 7.91-.28 11.81 1.82-.12 3.11.56 3.86 2.01-4.72.74-9.56.93-14.29.28-5.22-1.15-6.91-8.58-3.33-12.29 2.34-2.45 4.8-4.85 6.44-7.86-.36 2.5-.63 5.01-.79 7.53-1.72 1.03-4.44 1.54-4.79 3.88-.22 1.76-.37 3.89 1.03 5.24 1.96 1.93 4.93 1.53 7.43 1.96-.06-4.17-.22-8.33-.44-12.48-.11-1.11.9-1.84 1.45-2.68 3.55.04 8.51-3.17 10.69 1.25 1.12 3.99-.28 8.51 1.14 12.5.83 2.03 3.24 1.62 4.99 2.07.1-7.01.26-14.02.24-21.03z"/><path d="m701.16 225.28c1 .39 2.01.78 3.03 1.18-1.42 1.45-3.14 2.54-4.89 3.52-.04-.64-.1-1.94-.13-2.59.46.17 1.39.51 1.86.67.03-.69.1-2.08.13-2.78z"/><path d="m720.74 224.33c1.95.76 4.02 2.16 3.86 4.53.54 7.66 1.41 15.29 2.39 22.91-2.67-.07-5.33-.15-7.99-.18-3 1.6-6.43 1.74-9.73 1.99-.36 2.01-.62 4.04-.77 6.08-2.17-.01-4.32-.05-6.47-.11 1.28-1.31 3.54-2.38 2.91-4.57-.52-6.02-2.55-11.89-1.96-18 1.19.42 2.39.85 3.6 1.28.45 4.43 1.09 8.84 1.19 13.3 1.95.01 3.89.03 5.86.05-.25-5.59-1.75-11.09-1.27-16.71 5.27 2.42 3.72 8.94 5.34 13.44.55 2.13 3.25 1.74 4.9 2.34-.05-8.83-2.58-17.53-1.86-26.35z"/><path d="m749.24 226.78c-.44-3.1 4.4-1.04 2.72 1.21-1.21.46-2.12.06-2.72-1.21z"/><path d="m673.07 230.43c2.66-1.9 5.48-4.17 8.95-3.97-2.49 2.21-5.61 3.7-8.95 3.97z"/><path d="m841.78 226.74c.77.11 2.31.35 3.08.47-.23 2.34-.51 5-3.42 5.37.08-1.95.2-3.9.34-5.84z"/><path d="m807.54 228.48c1.54-1.61 3.35.98 3.09 2.54-.91 7.6-2.66 15.09-3.7 22.68.81-.13 2.44-.38 3.26-.5-.32 4.06-4.78 1.62-7.17 1.61.42-6.3 1.93-12.44 2.81-18.68.43-2.57.72-5.21 1.71-7.65z"/><path d="m849.49 234.78c3.03.1 6.25.28 8.79 2.18-2.93-.1-6.83.46-8.79-2.18z"/><path d="m647.87 235.93c-.33 2.26-2.09 3.75-3.86 4.99 1.08-1.81 2.37-3.49 3.86-4.99z"/><path d="m663.9 235.95c1.22.46 2.45.93 3.68 1.41 1.95 7.55 4.12 15.05 6.38 22.51.93-.49 1.63-2.11 2.86-1.57.99 3.41-3.69 3.7-5.86 4.71-1.78-4.93-3.11-10-4.58-15.02-1.1-3.95-2.83-7.85-2.48-12.04z"/><path d="m838.91 235.92c2.62-2.11 5.46 2.32 3.05 4.12-2.65 1.76-4.54-2.09-3.05-4.12z"/><path d="m815.22 246.17c2.05-4.42 8.85-3.94 9.6-9.23.02 2.26.08 4.51.22 6.77.84-.13 2.53-.39 3.37-.53.67.88 1.3 1.78 1.92 2.71-.62 3.72-2.21 7.31-2.01 11.14.54 2.03 3.15 1.86 4.74 2.57.88-4.2 1.71-8.43 3.08-12.51.18-1.3 1.68-1.54 2.58-2.2 2.42 6.02-1.98 11.91-2.03 18.02-3.12-.85-6.21-1.8-9.26-2.87-.71 1.69-.82 3.96-2.56 4.97-1.23.16-2.3-.45-3.21-1.16-1.17-1.32-3.06-.44-4.45-1.18.15-.82.39-1.63.71-2.41 1.33.49 2.59 1.3 4.06 1.37 1.54-1.12 1.33-3.26 1.81-4.9-2.46.8-5.47 2.21-7.78.31-3.18-2.67-2.62-7.59-.79-10.87m3.18 8.54c1.03 2.08 3.26.86 4.82.21-1.01-1.22-2.03-2.45-2.98-3.69 1.71-.04 3.29.6 4.75 1.44.09-2.68.99-7.43-2.88-7.73-3.96.84-5.32 6.5-3.71 9.77z"/><path d="m683.51 237.82c.8 1.6 1.66 3.18 2.52 4.77 1.02-.92 2.04-1.83 3.07-2.74 3.28 1.94 3.16 5.97 4.07 9.24.79 4.24 2.77 8.45 1.74 12.83-1.7.04-3.4.03-5.08-.02-.72.68-1.42 1.36-2.11 2.05-.87-.91-1.27-2.03-1.28-3.27 1.65-.17 3.31-.34 4.99-.5-.4-1.67-.77-3.34-1.12-5.01-1.86 1.52-3.65 4.3-6.42 3.71-4.74-.83-6.13-6.72-5.45-10.8 1.19-3.65 4.33-6.38 5.07-10.26m-.91 8.82c-1 2.8-.51 6.26 1.58 8.47 1.19 1.63 4.12.62 4.54-1.22-.3-2.14-3.51-.6-3.84-2.71 1.26-1.13 3-.71 4.54-.85-.75-1.97-.98-4.91-3.44-5.54-1.42-.87-2.67.85-3.38 1.85z"/><path d="m656.43 238.34c1.44.47 2.84 1.15 4.17 1.92 1.74 8.12 4.12 16.09 6.8 23.95-6.74 1.55-13.15 4.15-19.52 6.79-5.48 2.54-10.77 5.67-16.73 6.98.62 2.17 1.05 4.41.88 6.68-1.52.21-3.03.43-4.53.68-1.04.89-2.11 1.76-3.2 2.59-1.15-3.35 1.81-3.97 4.19-4.75-.59-1.46-1.16-2.91-1.72-4.37-1.91 2.05-3.5 5.4-6.79 5.09-3.5-.34-5.31-3.91-6.09-6.94-1.29-4.92 2.76-9.13 2.59-14.02 1.04 1.76 2.13 3.73 4.27 4.31.18-.81.54-2.43.72-3.25 1.13.43 2.26.84 3.37 1.37 2.14 3.27 2.68 7.48 5.44 10.4 5.03.14 9.19-3.15 13.65-4.99 2.2-.55 1.29-3.52-.6-3.69-1.35 1.74-2.21 4.36-4.73 4.65-3.51.8-6.68-2.35-6.98-5.69-.87-4.83 3.74-7.97 5.25-12.14.66 1.55 1.3 3.18 2.53 4.38.83-1.12 1.65-2.25 2.48-3.37 4.45 1.67 3.78 7.49 6.33 10.88.87 2.49 3.85 1.46 5.68.84-1.25-5.34-4.47-10.23-4.13-15.88 1.22.59 2.49 1.13 3.64 1.9 1.74 3.16 2.19 6.85 3.88 10.04.89 2.26 3.78.87 5.62 1.04-2.07-8.47-5.91-16.65-6.47-25.4m-19.24 21.79c-3.36 2.41-2.05 8.41 1.81 9.56 1.97.55 2.68-1.96 3.52-3.16-.8 0-2.41 0-3.22 0-.02-.55-.07-1.64-.09-2.19.92.01 2.77.01 3.69.01-.75-2.28-2.9-5.71-5.71-4.22m-17.72 9.29c-4.5 2.49-1.93 10.33 2.61 11.18 2.15-.11 2.24-2.4 2.66-4-1.15.32-2.3.64-3.43.97-.15-.65-.44-1.95-.59-2.59 1.03.09 3.08.28 4.1.37-.8-2.45-2.1-6.34-5.35-5.93z"/><path d="m622.66 240.7c1.2-.06 2.4-.1 3.61-.14.26 1.8.54 3.6.82 5.4-1.37.35-2.75.71-4.11 1.07-.8-2.05-.78-4.21-.32-6.33m1.33 4.75c3.15.85 2.45-3.3.79-4.49-1.31.78-3.52 4.42-.79 4.49z"/><path d="m646.56 243.01c.17-2.1 2.66-2.05 4.12-2.67.33 2.59-1.25 5.15-3.5 6.31-1.89-.46-.7-2.46-.62-3.64z"/><path d="m790.13 242.34c1.44-.87 2.37 1.71 1.49 2.66-1.43.9-2.51-1.74-1.49-2.66z"/><path d="m634.49 248.73c1.04-1.46 2.2-4.55 4.49-2.8 1.73.72.4 2.78.12 4.01-.77-.03-2.31-.09-3.09-.12-1.57 1.04-2.96 2.65-4.9 2.92-2.15-.49-.93-3.18-1.21-4.68 1.5.18 3.06 1.07 4.59.67z"/><path d="m867.41 246.27c.59.02 1.76.04 2.35.06.26 1.48.78 3.03.12 4.5-2.39 6.55-5.25 12.96-6.91 19.75 1.59.72 3.18 1.46 4.78 2.19 1.21-2.81 1.93-5.8 1.96-8.87 4.26-2.03 9.22-2.62 12.94-5.72-.73 3.89 1.13 7.59.66 11.46.66.23 1.97.67 2.62.89-.59 3.33-3.55 5.44-5.01 8.36 1.94 1.04 3.95 1.92 6.02 2.67 2.11-4.66 3.27-10.04 7.24-13.58.5 1.89 2.2 3.93.82 5.84-2.04 3.88-3.68 7.96-5.65 11.88-10.05-5.66-20.65-10.22-30.93-15.41 3.17-7.94 5.93-16.03 8.99-24.02m5.34 27.74c.54 1.94 2.81 1.91 4.34 2.62 1.54-1.54 2.89-3.26 4.01-5.13-.68-.15-2.02-.45-2.69-.59.79-.7 1.54-1.43 2.27-2.19.72-2.6-1.59-4.55-3.66-5.55-2.47 3.02-5.04 6.73-4.27 10.84z"/><path d="m878.08 246.21c1.66-.53 4.75-.14 5.52 1.49-1.66.45-4.86.15-5.52-1.49z"/><path d="m648.61 246.94c.98-1.06 2.74.63 2.02 1.75-.98 1-2.69-.67-2.02-1.75z"/><path d="m845.98 252.05c2.84-1.57 6.13-2.33 8.56-4.62-.18 1.73-.34 3.47-.48 5.2 1.3-.04 2.62-.07 3.95-.11.29.66.88 1.99 1.17 2.66-1.96 5.76-3.48 11.68-5.68 17.36-1.71 2.56-4.13.18-5.41-1.43 2.12-1.06 3.24-3.07 3.66-5.35-2.55.18-5.84 1.62-7.81-.75-3.6-3.74-1.54-9.99 2.04-12.96m1.95 12.72c.71-.29 2.13-.89 2.84-1.18.13-1.93-3.02-2.5-1.67-4.81 1.34.81 2.67 1.65 4.02 2.49 1.08-2.6 1.65-7.23-2.15-7.71-4.8.72-6.35 7.97-3.04 11.21z"/><path d="m604.92 258.05c2.24-2.43 4.8-4.65 7.94-5.8-1.94 2.64-4.51 5.43-7.94 5.8z"/><path d="m715.58 255.08c1.55.35 3.1.81 4.61 1.37-1.42 1.25-2.9 2.41-4.41 3.53-.05-1.22-.15-3.67-.2-4.9z"/><path d="m897.04 255.4c2.78.83 6.88.49 8.36 3.54-2.83-.9-6.71-.66-8.36-3.54z"/><path d="m897.43 260.41c1.44-1.32 3.48-.5 3.02 1.61-.17 3.25-5.01.49-3.02-1.61z"/><path d="m906.45 260.7c3.01.7 6.9 1.06 8.57 4.07-2.96-1.04-6.52-1.45-8.57-4.07z"/><path d="m895.46 264.48c1.24-1.64 4.16 1 2.67 2.52-1.08 2.68-4.67-.99-2.67-2.52z"/><path d="m844.8 269.96c.24-1.74 3.1-1.25 3.37.26-.25 1.68-3.2 1.29-3.37-.26z"/><path d="m599.76 270.7c1.97 2.29 4.69 3.62 7.19 5.21 1.8 2.1 2.99 4.67 3.55 7.38-1.72-.5-3.46-.96-5.06-1.74-.31-1.34-.52-2.7-.66-4.06-1.71-.21-3.86.47-3.86 2.53 1.01 3.2 2.38 6.79 5.37 8.63 2.06 1.14 3.33-1.46 4.88-2.32.69.33 2.07 1 2.76 1.34-4.95 3.19-9.81 6.53-14.91 9.48-4.41 2.4-9.83-2.43-9.2-7.06.41-3.39 1.19-6.71 1.64-10.09.96 1.75 1.93 3.49 2.93 5.23-1.97 2.51-3.52 6.56-.77 9.11 2.96 2.85 6.73-.18 9.28-2.07-2.45-4.4-6.77-8.28-6.68-13.64 4.67.36 4.14-4.81 3.54-7.93z"/><path d="m897.51 278.56c2.96-3.62 8.33-1.9 11.8-4.73-.56 1.72-1.02 3.46-1.41 5.22 1.36.14 2.71.28 4.09.43.12.89.35 2.69.47 3.59-3.51 5.1-5.34 11.28-9.42 15.96-2.31.35-3.5-1.8-4.69-3.32-1.42-.18-4.21-.92-2.44-2.86 1.91-.43 2.95 1.85 4.38 2.72 1.11-1.33 2.12-2.73 3.03-4.21-2.31-.34-5.14.12-6.85-1.81-3.09-3.06-1.54-8.12 1.04-10.99m1.13 8.46c.3 2.63 3.68 2.88 5.26 1.19-.69-.47-2.08-1.41-2.77-1.88.33-.77.69-1.53 1.08-2.27 1.63.49 1.8 2.41 2.56 3.7 1.65-2.18 3.42-5.43 1.38-7.94-4.21-2.45-7.89 3.46-7.51 7.2z"/><path d="m742.96 444.93c1.47-4.66 3.76-9.08 6.01-13.42 2.16 4.15 3.78 8.55 6.13 12.61.34 2.38-.02 4.8-1.1 6.95-.57 1.23-1.92 1.6-3.04 2.11-2.04-.13-4.08-.23-6.03-.77-.99-1.25-1.74-2.68-2.42-4.09.11-1.14.27-2.27.45-3.39z"/><path d="m524.92 640.02c6.8 2.46 13.04 6.2 19.67 9.06-.89.47-2.02 1.47-2.96.37-4.89-2.61-10.09-4.59-14.95-7.25-.93-.44-1.52-1.17-1.76-2.18z"/><path d="m942.35 707.09c1.26-1.35 2.53-2.69 3.82-4.02 4.81 4.1 9.59 8.27 13.77 13.03-1.22 1.39-2.52 2.71-3.89 3.94-4.5-4.4-9.17-8.6-13.7-12.95z"/><path d="m549.84 709.74c2.41-1.06 5.77.45 5.78 3.23-1.66 2.1-3.88 3.71-5.36 5.96.65 2.11 2.84 3.45 4.22 5.15 2.12-2.28 4.26-4.54 6.42-6.78 3.77 3.22 7.59 6.56 10.41 10.67-.42 3.03-3.34 4.92-5.24 7.08 1.15.59 2.32 1.22 3.49 1.84 1.78-2.36 4.05-5.42 7.42-4.87 4 1.71 6.79 5.3 10.2 7.9-2.61 3.46-5.24 6.91-8.23 10.05-4.41-2.45-7.93-6.1-11.97-9.06-2.7-2.15-5.83-3.94-7.76-6.88.72-2.17 2.98-3.52 4.44-5.22-.87-1.14-1.73-2.28-2.57-3.41-1.88 1.83-3.55 3.86-4.9 6.11-3.53-3.72-7.4-7.11-11.09-10.67-.81-.99-2.24-1.99-1.76-3.43 1.8-2.85 4.45-5.02 6.5-7.67m24.19 31.17c.78.93 1.7 1.88 2.94 2.19 1.41-.23 1.62-1.77 2.12-2.83-1.6-.3-5.25-2.42-5.06.64z"/><path d="m936.86 712.94c.78-2.26 4.39-4.78 6.25-2.12 3.64 3.64 7.39 7.2 10.69 11.16-1.37 2.62-3.96 4.42-5.85 6.68-.67-.11-2-.32-2.67-.42.01.68.04 2.04.05 2.71-7.09 5.73-13.22 12.6-20.86 17.62-4.68 3.32-9.25 6.78-13.92 10.11-1.73 1.31-4.06.86-6.06 1.17.01.69.02 2.05.02 2.74-2.64 1.81-5.34 3.66-8.53 4.32-4.49 5.39-11.7 6.89-17.41 10.57-.67 4.41-3.82 8.61-8.42 9.34-3.74.88-6.67-2.07-8.86-4.65 1.61.78 3.21 1.58 4.81 2.42 2.12-1.44 5.46-2.54 5.58-5.54-1.28-3.74-3.45-7.07-5.47-10.42 1.6-.93 3.24-1.76 4.94-2.49 2.03 2.33 3.56 5.02 5.13 7.67.56-.12 1.68-.35 2.23-.46 1.02-3.68-1.96-6.58-3.53-9.56 1.83-.95 3.79-1.59 5.82-1.97 1.19 2.37 2.41 4.73 3.62 7.1 1.25-.41 2.49-.83 3.77-1.22-1.23-3.02-2.98-5.78-4.66-8.55 1.74-.69 3.42-2.07 5.4-1.81 2.04 2.25 3.29 5.08 4.92 7.63 1.31-1.27 2.63-2.53 3.94-3.79-2.83-4.01-5.54-8.08-8.21-12.18 1.9-1.03 3.96-1.67 6.1-1.95 2.23 3.85 4.62 7.61 7.36 11.12 6.68-3.37 12.53-8.18 18.44-12.7 1.8-1.13-.93-3.74-2.24-2.29-4.71 2.77-8.92 6.29-13.32 9.51-1.23-1.67-2.22-3.47-3.01-5.36 5.05-3.47 10.03-7.08 15.18-10.42 3.85-1.54 7.03 1.78 9.87 3.85.88-.92 1.76-1.82 2.65-2.72-1.89-2.27-4.37-4.26-5.42-7.07 1.58-2.59 4.28-4.22 6.46-6.25 1.73-1.47 3.91-3.52 6.37-2.36 2.13 1.13 3.63 3.12 5.35 4.78 1.16-1.17 2.33-2.33 3.51-3.48-2.95-3.94-6.62-7.21-10.02-10.72m-2.54 17.52c-2.29.86.01 3.9 1.66 2.96 1.52-.58 1.87-2.22 2.33-3.58-1.45-.27-2.78-.06-3.99.62z"/><path d="m543.68 725.6c3.28-1.3 4.84 3.01 7.17 4.52-.48.36-1.43 1.07-1.91 1.42-1.99-1.7-4.51-3.29-5.26-5.94z"/><path d="m581.37 727.02c2.84.93 5.93 2.9 6.76 5.96-2.82.37-4.78-1.89-6.85-3.37.02-.65.06-1.94.09-2.59z"/><path d="m581.44 752.01c3.71-5.24 7.48-10.45 11.43-15.51 1.15 1.11 2.84 1.88 3.42 3.49-2.11 5.65-6.85 9.75-9.76 14.96-1.84-.72-3.54-1.74-5.09-2.94z"/><path d="m597.25 746.97c1.52.99 3.04 1.97 4.57 2.98-1.57 2.62-3.53 5.04-4.74 7.87 1.14 2.08 3.96 2.54 5.93 3.7.8-2.54 1.27-5.41 3.32-7.3 2.57-.31 4.85 1.19 6.98 2.42 3.16 2.04 6.78 3.42 9.46 6.14-.66 1.8-1.29 3.63-1.93 5.45-3.52-2.35-6.85-5.14-10.89-6.56-1.29-.14-3.48 1.26-2.49 2.7 5.1 2.98 10.16 6.14 15.68 8.36 2.48-4.21 4.23-8.86 6.9-12.92 1.89.52 3.37 1.83 4.81 3.11-2.39 5.53-5.47 10.71-8.14 16.1-10.5-4.1-19.97-10.28-29.67-15.91-.02-.92-.06-2.76-.08-3.68-2.43 1.62-4.63 4.58-7.89 3.97-2.25-.17-4.04-1.59-5.85-2.75 2.14-.33 4.8-.16 6.22-2.13 2.92-3.63 5.09-7.78 7.81-11.55z"/><path d="m922.29 753.96c1.63-.58 2.16-.05 1.61 1.6-1.65.57-2.19.04-1.61-1.6z"/><path d="m637.04 763.04c1.64.72 3.29 1.44 4.95 2.17-2.16 6.03-5.15 11.71-7.86 17.5-1.6-.83-4.84-1.17-4.05-3.71 1.46-5.65 4.59-10.67 6.96-15.96z"/><path d="m845.98 770.26c1.86-.39 3.72-.77 5.59-1.13 1.89 5.92 4.89 11.45 6.35 17.53-1.65.5-3.28 1.03-4.9 1.57-2.46-5.95-5.13-11.82-7.04-17.97z"/><path d="m831.22 772.05c1.94-.68 2.36 2.52.64 3.02-1.98.71-2.45-2.59-.64-3.02z"/><path d="m838.41 773.06c1.87.1 4.9-2.03 5.89.56 2.11 4.19 3.58 8.75 4.42 13.37-.07 5.94-7.18 7.57-11.91 6.59 1.58-2.17 5.59-1.49 5.74-4.92.37-5.44-3.29-10.28-4.14-15.6z"/><path d="m645.19 774.05c1.9.42 3.8.83 5.73 1.27-.81 3.03-1.75 6.03-2.79 9 2.22 1.05 4.56 1.8 6.96 2.36.54-2.91 1.28-5.77 2.17-8.58 4.82 1.3 9.83 2.46 14.21 4.93.53 3.22-1.61 6.25-1.34 9.53 1.13.04 2.27.09 3.42.16.7-2.87 1.28-5.75 1.8-8.64 5 .97 10.31 1.47 14.83 3.98 1.46 4.13-.92 8.5-1.32 12.68-8.79-1.62-17.67-3.28-25.91-6.87.48-2.35 1-4.69 1.55-7.01-.71-.4-2.14-1.21-2.86-1.61-1.97 1.95-2.22 4.75-2.41 7.36-6.07-1.89-12.06-4-17.95-6.35 1.01-4.16 2.53-8.16 3.91-12.21m34.92 17.93c-1.73 2.86 2.36 3.59 4.35 3.56.06-2.11-2.02-5.58-4.35-3.56z"/><path d="m830.19 776.02c1.03-.18 3.08-.54 4.11-.72 1.86 4.98 3.29 10.14 5.81 14.86-1.95-.43-4.38.07-5.88-1.47-2.71-3.63-4.01-8.17-4.04-12.67z"/><path d="m694.22 783.02c1.75.19 3.49.36 5.25.56-.54 5.45-2.2 10.75-2.15 16.26-2.3-1.14-5.01-2.91-4.97-5.79.26-3.73 1.26-7.36 1.87-11.03z"/><path d="m810.83 787.78c5.38-2.36 11.16-3.76 16.94-4.77.66 1.82 1.35 3.62 2.06 5.44-4.36.77-8.73 1.68-12.78 3.55.17 1.17.35 2.36.55 3.55 4.69-1.49 9.4-2.98 14.29-3.67-.15 1.21-.28 2.43-.41 3.66-6.11 2.14-12.31 4.03-18.56 5.66-1.84.7-3.47-.6-5.08-1.24-.6.66-1.19 1.32-1.78 1.99-4.86 1.03-9.74 1.92-14.66 2.59-.07-2.29-.13-4.57-.2-6.85-1.67-.15-3.33-.3-4.97-.45.35 2.67.77 5.34 1.26 8-6.2.33-12.25 1.92-18.46 2.08-1.37-4.19-1.56-8.61-1.81-12.97 1.91-.12 3.83-.24 5.76-.35.36 2.76.63 5.52.85 8.31 2.5.01 5.01.01 7.53.01-.71-3.29-1.08-6.64-1.3-9.99 5.04-.35 10.1-1.83 15.15-.86.68 2.68 1.12 5.42 1.43 8.18 1.36-.45 2.73-.89 4.11-1.31-1.04-4.81-1.93-9.65-3-14.44 1.88.04 4.37-1.36 5.91.23 1.71 4.22 1.97 8.84 3.05 13.24 2.1-.08 4.2-.22 6.31-.4-1.42-2.73-4.12-6.15-2.19-9.19z"/><path d="m703.67 784.43c1.93.3 3.82.84 5.65 1.57-.11 3.41-.8 6.75-1.58 10.06-.2 1.75-1.24 4.4.99 5.29.9-.07 2.68-.21 3.57-.28.02-2.92.04-5.84.03-8.75 1.77 0 3.56 0 5.36.02-.05 3.32-.02 6.65.03 9.98 1.52-.01 3.05-.02 4.58-.02.03-3.35.04-6.68.01-10.01 1.8.3 3.61.61 5.42.93-.06 3.06-.11 6.12-.21 9.19.94.04 2.81.13 3.75.17.43-3.14.75-6.29.99-9.44 1.69.27 3.39.55 5.09.81.71 4.34-.25 8.68-.66 13.01-4.05.09-8.08-.29-12.08-.8-5.37-.69-10.84-.48-16.15-1.6-.56-.86-1.11-1.7-1.66-2.53-4.05 3.43-10.4 3-13.82-1.1 2.47-.21 5.63.77 7.48-1.46 2.17-4.71 2.41-9.99 3.21-15.04z"/><path d="m740.39 788.31c1.42 0 2.86.01 4.31.03-.15 5.42.08 10.85.33 16.27-1.98-.9-4.63-1.91-4.86-4.43-.5-3.95-.04-7.93.22-11.87z"/><path d="m749.33 788.33c1.73.08 3.47.17 5.22.27.37 5.91.74 11.87-.3 17.75-2.13 1.57-4.62 2.42-7.26 2.56-1.9-.23-2.51 1.59-3.35 2.87-.84-.1-1.66-.19-2.47-.26 1.01-.84 2.3-1.42 3.06-2.54.04-1.71-2.08-1.89-3.18-2.65 2.61-.29 5.8-.25 7.48-2.66 1.23-5.01.66-10.24.8-15.34z"/><path d="m758.01 787.96c1.6.04 3.2.09 4.82.16.34 6.29.72 12.59 1.19 18.88-2.01-.01-4.01-.01-6.01.01-.02-6.35-.01-12.7 0-19.05z"/><path d="m645.86 794.07c-.46-3.01 2.73-2.44 4.51-1.57 1.36.57 4.23 1.34 2.56 3.34-1.37.81-2.21-1.02-3.27-1.54-1.27-.09-2.54-.17-3.8-.23z"/></g><path d="m641.5 206.6c34.55-22.94 70.08-44.41 106.57-64.11 36.52 20 72.36 41.29 106.92 64.54 26.58 17.69 52.1 36.97 76.43 57.64 22.99 19.55 44.33 41.14 62.82 65.02 30.63 39.29 52.32 85.91 60.36 135.21 2.1 12.95 3.77 25.99 4.73 39.08-.19 22.1.18 44.49-4.39 66.23-18.48-11.26-37.07-22.35-55.63-33.49-1.29-.96-3.41-1.65-3.26-3.61-1.01-11.33.39-22.76-1.02-34.06-4.03-51.12-25.29-100.52-58.84-139.2-21.69-24.85-48.22-45.64-77.95-60.03-40.66-20-87.05-28.39-132.1-23.38-37.8 2.92-74.43 16.33-106.56 36.21-29.5 18.65-55 43.62-74.25 72.74-23.55 35.76-37.82 77.76-39.94 120.59-.53 9.6.28 19.21-.55 28.81-15.99 9.75-32.13 19.25-48.17 28.9-3.68 2.13-7.18 4.57-11.06 6.33-3.89-23.46-4.25-47.3-3.88-71.02 2.08-22.51 4.49-45.09 10.17-67.03 8.8-34.69 24.59-67.51 45.63-96.43 17.05-23.57 37.37-44.6 59.07-63.89 26.67-23.71 55.35-45.09 84.9-65.05m79.98 6.81c-1.57-.29-3.98 2.83-1.15 2.5 1.76.46 3.91-2.6 1.15-2.5m89.86 5.18c-1.29 1.85 2.74 1.31 3.28.24-.17-1.49-2.54-1.01-3.28-.24m-91 1.11c1.27.69 2.05.37 2.34-.94-1.29-.7-2.07-.38-2.34.94m53.89-.17c.3 1.4 4.03.79 4.47-.5-1.4-.66-3.23-.31-4.47.5m10.04 1.12c.58 1.57 4.51.86 5.38-.26-1.68-.58-3.83-.66-5.38.26m26.5 1.85c-.76 1.46 2.83 2.2 3.04.7-.85-.94-1.86-1.17-3.04-.7m-81.72 4.5c.46 7.94 1.1 15.87 1.43 23.82 2.66.22 6.39.62 7.55-2.55-.93.09-2.81.26-3.75.34-.26-4.87-.56-9.73-.78-14.6-.21-3.91.57-8.46-2.95-11.17-.65 1.31-1.69 2.6-1.5 4.16m43.97.94c.02 7.01-.14 14.02-.24 21.03-1.75-.45-4.16-.04-4.99-2.07-1.42-3.99-.02-8.51-1.14-12.5-2.18-4.42-7.14-1.21-10.69-1.25-.55.84-1.56 1.57-1.45 2.68.22 4.15.38 8.31.44 12.48-2.5-.43-5.47-.03-7.43-1.96-1.4-1.35-1.25-3.48-1.03-5.24.35-2.34 3.07-2.85 4.79-3.88.16-2.52.43-5.03.79-7.53-1.64 3.01-4.1 5.41-6.44 7.86-3.58 3.71-1.89 11.14 3.33 12.29 4.73.65 9.57.46 14.29-.28-.75-1.45-2.04-2.13-3.86-2.01-.36-3.9-1.44-8.08.28-11.81.76-2.4 4.78-1.07 4.16 1.27-.8 3.52.45 7.02.68 10.55.63 2.74 4.11 2.74 6.37 2.99 8.24.11 16.3 2.41 24.57 2.1-.58-4.51-7.28 0-8.91-4.07-.65-2.86-.51-5.92.24-8.74.81-3.01 5.52-3.31 6.86-.51 1.63 2.07-.21 4.42-.85 6.46 4.85-1.98 3.24-8.09.16-10.95-.31-1.58-.67-3.14-1.16-4.66-.61 2.74-2.56 4.74-4.66 6.45-.63-.55-1.89-1.64-2.52-2.19-.78.88-1.97 1.61-2.08 2.89-.49 4.17-.1 8.37-.18 12.56-1.93-.27-4.97-.3-5.16-2.85-.54-6.68-.06-13.38.16-20.06.09-1.68-1.71-2.67-2.46-3.99-1.01 1.47-2.03 3.07-1.87 4.94m-71.86-2.66c-.03.7-.1 2.09-.13 2.78-.47-.16-1.4-.5-1.86-.67.03.65.09 1.95.13 2.59 1.75-.98 3.47-2.07 4.89-3.52-1.02-.4-2.03-.79-3.03-1.18m19.58-.95c-.72 8.82 1.81 17.52 1.86 26.35-1.65-.6-4.35-.21-4.9-2.34-1.62-4.5-.07-11.02-5.34-13.44-.48 5.62 1.02 11.12 1.27 16.71-1.97-.02-3.91-.04-5.86-.05-.1-4.46-.74-8.87-1.19-13.3-1.21-.43-2.41-.86-3.6-1.28-.59 6.11 1.44 11.98 1.96 18 .63 2.19-1.63 3.26-2.91 4.57 2.15.06 4.3.1 6.47.11.15-2.04.41-4.07.77-6.08 3.3-.25 6.73-.39 9.73-1.99 2.66.03 5.32.11 7.99.18-.98-7.62-1.85-15.25-2.39-22.91.16-2.37-1.91-3.77-3.86-4.53m28.5 2.45c.6 1.27 1.51 1.67 2.72 1.21 1.68-2.25-3.16-4.31-2.72-1.21m-76.17 3.65c3.34-.27 6.46-1.76 8.95-3.97-3.47-.2-6.29 2.07-8.95 3.97m168.71-3.69c-.14 1.94-.26 3.89-.34 5.84 2.91-.37 3.19-3.03 3.42-5.37-.77-.12-2.31-.36-3.08-.47m-34.24 1.74c-.99 2.44-1.28 5.08-1.71 7.65-.88 6.24-2.39 12.38-2.81 18.68 2.39.01 6.85 2.45 7.17-1.61-.82.12-2.45.37-3.26.5 1.04-7.59 2.79-15.08 3.7-22.68.26-1.56-1.55-4.15-3.09-2.54m41.95 6.3c1.96 2.64 5.86 2.08 8.79 2.18-2.54-1.9-5.76-2.08-8.79-2.18m-201.62 1.15c-1.49 1.5-2.78 3.18-3.86 4.99 1.77-1.24 3.53-2.73 3.86-4.99m16.03.02c-.35 4.19 1.38 8.09 2.48 12.04 1.47 5.02 2.8 10.09 4.58 15.02 2.17-1.01 6.85-1.3 5.86-4.71-1.23-.54-1.93 1.08-2.86 1.57-2.26-7.46-4.43-14.96-6.38-22.51-1.23-.48-2.46-.95-3.68-1.41m175.01-.03c-1.49 2.03.4 5.88 3.05 4.12 2.41-1.8-.43-6.23-3.05-4.12m-23.69 10.25c-1.83 3.28-2.39 8.2.79 10.87 2.31 1.9 5.32.49 7.78-.31-.48 1.64-.27 3.78-1.81 4.9-1.47-.07-2.73-.88-4.06-1.37-.32.78-.56 1.59-.71 2.41 1.39.74 3.28-.14 4.45 1.18.91.71 1.98 1.32 3.21 1.16 1.74-1.01 1.85-3.28 2.56-4.97 3.05 1.07 6.14 2.02 9.26 2.87.05-6.11 4.45-12 2.03-18.02-.9.66-2.4.9-2.58 2.2-1.37 4.08-2.2 8.31-3.08 12.51-1.59-.71-4.2-.54-4.74-2.57-.2-3.83 1.39-7.42 2.01-11.14-.62-.93-1.25-1.83-1.92-2.71-.84.14-2.53.4-3.37.53-.14-2.26-.2-4.51-.22-6.77-.75 5.29-7.55 4.81-9.6 9.23m-131.71-8.35c-.74 3.88-3.88 6.61-5.07 10.26-.68 4.08.71 9.97 5.45 10.8 2.77.59 4.56-2.19 6.42-3.71.35 1.67.72 3.34 1.12 5.01-1.68.16-3.34.33-4.99.5.01 1.24.41 2.36 1.28 3.27.69-.69 1.39-1.37 2.11-2.05 1.68.05 3.38.06 5.08.02 1.03-4.38-.95-8.59-1.74-12.83-.91-3.27-.79-7.3-4.07-9.24-1.03.91-2.05 1.82-3.07 2.74-.86-1.59-1.72-3.17-2.52-4.77m-27.08.52c.56 8.75 4.4 16.93 6.47 25.4-1.84-.17-4.73 1.22-5.62-1.04-1.69-3.19-2.14-6.88-3.88-10.04-1.15-.77-2.42-1.31-3.64-1.9-.34 5.65 2.88 10.54 4.13 15.88-1.83.62-4.81 1.65-5.68-.84-2.55-3.39-1.88-9.21-6.33-10.88-.83 1.12-1.65 2.25-2.48 3.37-1.23-1.2-1.87-2.83-2.53-4.38-1.51 4.17-6.12 7.31-5.25 12.14.3 3.34 3.47 6.49 6.98 5.69 2.52-.29 3.38-2.91 4.73-4.65 1.89.17 2.8 3.14.6 3.69-4.46 1.84-8.62 5.13-13.65 4.99-2.76-2.92-3.3-7.13-5.44-10.4-1.11-.53-2.24-.94-3.37-1.37-.18.82-.54 2.44-.72 3.25-2.14-.58-3.23-2.55-4.27-4.31.17 4.89-3.88 9.1-2.59 14.02.78 3.03 2.59 6.6 6.09 6.94 3.29.31 4.88-3.04 6.79-5.09.56 1.46 1.13 2.91 1.72 4.37-2.38.78-5.34 1.4-4.19 4.75 1.09-.83 2.16-1.7 3.2-2.59 1.5-.25 3.01-.47 4.53-.68.17-2.27-.26-4.51-.88-6.68 5.96-1.31 11.25-4.44 16.73-6.98 6.37-2.64 12.78-5.24 19.52-6.79-2.68-7.86-5.06-15.83-6.8-23.95-1.33-.77-2.73-1.45-4.17-1.92m-33.77 2.36c-.46 2.12-.48 4.28.32 6.33 1.36-.36 2.74-.72 4.11-1.07-.28-1.8-.56-3.6-.82-5.4-1.21.04-2.41.08-3.61.14m23.9 2.31c-.08 1.18-1.27 3.18.62 3.64 2.25-1.16 3.83-3.72 3.5-6.31-1.46.62-3.95.57-4.12 2.67m143.57-.67c-1.02.92.06 3.56 1.49 2.66.88-.95-.05-3.53-1.49-2.66m-155.64 6.39c-1.53.4-3.09-.49-4.59-.67.28 1.5-.94 4.19 1.21 4.68 1.94-.27 3.33-1.88 4.9-2.92.78.03 2.32.09 3.09.12.28-1.23 1.61-3.29-.12-4.01-2.29-1.75-3.45 1.34-4.49 2.8m232.92-2.46c-3.06 7.99-5.82 16.08-8.99 24.02 10.28 5.19 20.88 9.75 30.93 15.41 1.97-3.92 3.61-8 5.65-11.88 1.38-1.91-.32-3.95-.82-5.84-3.97 3.54-5.13 8.92-7.24 13.58-2.07-.75-4.08-1.63-6.02-2.67 1.46-2.92 4.42-5.03 5.01-8.36-.65-.22-1.96-.66-2.62-.89.47-3.87-1.39-7.57-.66-11.46-3.72 3.1-8.68 3.69-12.94 5.72-.03 3.07-.75 6.06-1.96 8.87-1.6-.73-3.19-1.47-4.78-2.19 1.66-6.79 4.52-13.2 6.91-19.75.66-1.47.14-3.02-.12-4.5-.59-.02-1.76-.04-2.35-.06m10.67-.06c.66 1.64 3.86 1.94 5.52 1.49-.77-1.63-3.86-2.02-5.52-1.49m-229.47.73c-.67 1.08 1.04 2.75 2.02 1.75.72-1.12-1.04-2.81-2.02-1.75m197.37 5.11c-3.58 2.97-5.64 9.22-2.04 12.96 1.97 2.37 5.26.93 7.81.75-.42 2.28-1.54 4.29-3.66 5.35 1.28 1.61 3.7 3.99 5.41 1.43 2.2-5.68 3.72-11.6 5.68-17.36-.29-.67-.88-2-1.17-2.66-1.33.04-2.65.07-3.95.11.14-1.73.3-3.47.48-5.2-2.43 2.29-5.72 3.05-8.56 4.62m-241.06 6c3.43-.37 6-3.16 7.94-5.8-3.14 1.15-5.7 3.37-7.94 5.8m110.66-2.97c.05 1.23.15 3.68.2 4.9 1.51-1.12 2.99-2.28 4.41-3.53-1.51-.56-3.06-1.02-4.61-1.37m181.46.32c1.65 2.88 5.53 2.64 8.36 3.54-1.48-3.05-5.58-2.71-8.36-3.54m.39 5.01c-1.99 2.1 2.85 4.86 3.02 1.61.46-2.11-1.58-2.93-3.02-1.61m9.02.29c2.05 2.62 5.61 3.03 8.57 4.07-1.67-3.01-5.56-3.37-8.57-4.07m-10.99 3.78c-2 1.53 1.59 5.2 2.67 2.52 1.49-1.52-1.43-4.16-2.67-2.52m-50.66 5.48c.17 1.55 3.12 1.94 3.37.26-.27-1.51-3.13-2-3.37-.26m-245.04.74c.6 3.12 1.13 8.29-3.54 7.93-.09 5.36 4.23 9.24 6.68 13.64-2.55 1.89-6.32 4.92-9.28 2.07-2.75-2.55-1.2-6.6.77-9.11-1-1.74-1.97-3.48-2.93-5.23-.45 3.38-1.23 6.7-1.64 10.09-.63 4.63 4.79 9.46 9.2 7.06 5.1-2.95 9.96-6.29 14.91-9.48-.69-.34-2.07-1.01-2.76-1.34-1.55.86-2.82 3.46-4.88 2.32-2.99-1.84-4.36-5.43-5.37-8.63 0-2.06 2.15-2.74 3.86-2.53.14 1.36.35 2.72.66 4.06 1.6.78 3.34 1.24 5.06 1.74-.56-2.71-1.75-5.28-3.55-7.38-2.5-1.59-5.22-2.92-7.19-5.21m297.75 7.86c-2.58 2.87-4.13 7.93-1.04 10.99 1.71 1.93 4.54 1.47 6.85 1.81-.91 1.48-1.92 2.88-3.03 4.21-1.43-.87-2.47-3.15-4.38-2.72-1.77 1.94 1.02 2.68 2.44 2.86 1.19 1.52 2.38 3.67 4.69 3.32 4.08-4.68 5.91-10.86 9.42-15.96-.12-.9-.35-2.7-.47-3.59-1.38-.15-2.73-.29-4.09-.43.39-1.76.85-3.5 1.41-5.22-3.47 2.83-8.84 1.11-11.8 4.73z" fill="#59a732"/><path d="m623.99 245.45c-2.73-.07-.52-3.71.79-4.49 1.66 1.19 2.36 5.34-.79 4.49z" fill="#59a732"/><path d="m682.6 246.64c.71-1 1.96-2.72 3.38-1.85 2.46.63 2.69 3.57 3.44 5.54-1.54.14-3.28-.28-4.54.85.33 2.11 3.54.57 3.84 2.71-.42 1.84-3.35 2.85-4.54 1.22-2.09-2.21-2.58-5.67-1.58-8.47z" fill="#59a732"/><path d="m818.4 254.71c-1.61-3.27-.25-8.93 3.71-9.77 3.87.3 2.97 5.05 2.88 7.73-1.46-.84-3.04-1.48-4.75-1.44.95 1.24 1.97 2.47 2.98 3.69-1.56.65-3.79 1.87-4.82-.21z" fill="#59a732"/><path d="m847.93 264.77c-3.31-3.24-1.76-10.49 3.04-11.21 3.8.48 3.23 5.11 2.15 7.71-1.35-.84-2.68-1.68-4.02-2.49-1.35 2.31 1.8 2.88 1.67 4.81-.71.29-2.13.89-2.84 1.18z" fill="#59a732"/><path d="m637.19 260.13c2.81-1.49 4.96 1.94 5.71 4.22-.92 0-2.77 0-3.69-.01.02.55.07 1.64.09 2.19h3.22c-.84 1.2-1.55 3.71-3.52 3.16-3.86-1.15-5.17-7.15-1.81-9.56z" fill="#59a732"/><path d="m872.75 274.01c-.77-4.11 1.8-7.82 4.27-10.84 2.07 1 4.38 2.95 3.66 5.55-.73.76-1.48 1.49-2.27 2.19.67.14 2.01.44 2.69.59-1.12 1.87-2.47 3.59-4.01 5.13-1.53-.71-3.8-.68-4.34-2.62z" fill="#59a732"/><path d="m619.47 269.42c3.25-.41 4.55 3.48 5.35 5.93-1.02-.09-3.07-.28-4.1-.37.15.64.44 1.94.59 2.59 1.13-.33 2.28-.65 3.43-.97-.42 1.6-.51 3.89-2.66 4-4.54-.85-7.11-8.69-2.61-11.18z" fill="#59a732"/><path d="m898.64 287.02c-.38-3.74 3.3-9.65 7.51-7.2 2.04 2.51.27 5.76-1.38 7.94-.76-1.29-.93-3.21-2.56-3.7-.39.74-.75 1.5-1.08 2.27.69.47 2.08 1.41 2.77 1.88-1.58 1.69-4.96 1.44-5.26-1.19z" fill="#59a732"/><path d="m723.15 319.62c2.75.55 5.1-3.22 7.8-1.67 4.64 2.31 9.53 4.02 14.35 5.93 3.12 1.22 6.59.13 9.76 1.23 4.67 1.74 7.78-3.04 10.7-5.79 2.1.98 4.12 2.12 6.05 3.42-1.41 1.83-4.12 3.46-3.47 6.15.72 2.63 1.93 5.14 3.43 7.41 1.32.8 2.91.04 4.35-.03 1.38-1.97 3.18-3.61 5.38-4.64 2.95-1.33 4.79-4.19 7.71-5.56 1.27 4.44 5.42 7.27 6.38 11.81-.81.82-1.61 1.65-2.4 2.48.16 1.58.12 3.22.62 4.75 2.01 2.23 5.83.91 7.85 3.09-.55 2.63-2.25 5.04-2.08 7.79 1.35 3.02 3.76 5.45 5.24 8.43 1.78.02 3.57.01 5.37-.01.06 2.59.31 5.28 2.05 7.34 3.04 3.6-1.99 8.94 1.61 12.37 2.71 1.33 5.81.33 8.4-.81 2.3 2.56 4.13 5.5 6.34 8.14.93 1.51 2.83.98 4.28.81 3.46-.5 6.8-1.93 10.35-1.74 1.63 3.86-4.02 1.96-4.56 4.91-1.35 3.64-1.61 7.65-1.08 11.49.49 3.12 3.07 5.23 4.66 7.81.64 2.5.69 5.12 1.07 7.68-2.16-.34-4.3-.76-6.46-.86-3.12 1.36-4.57 4.58-4.41 7.85-3.2 3.44-7.01 6.86-8.04 11.65.22 2.28 1.97 4.08 2.97 6.09-2.45-.93-4.94-1.85-7.58-1.87.41 3.77-2.76 6.04-4.49 8.95-16.98-.72-34.12 6.11-45.95 18.33-12.77 12.99-19.93 32.36-15.72 50.43.98 5.08 3.98 9.73 3.98 14.98-1.16 3.67-5.04 5.52-7.34 8.43-2.95-3-8.23-5.37-7.36-10.38 1.12-7.12 4.7-13.71 4.99-21.03.32-15.76-6.23-31.41-17.31-42.57-11.71-12.01-28.85-18.66-45.59-17.48-5.8.69-11.89 1.1-17.06 4.07 9.36-.84 18.96-.89 28.01 2.06 18.05 5.44 33.06 19.83 39.29 37.62 3 8.76 4.35 18.14 3.51 27.38-.24 4.43-.92 9.16.96 13.34 2.05 3.41 4.94 6.23 7.54 9.22.36-.1 1.07-.31 1.43-.41-3.52 6.26-5.24 13.76-3.59 20.86.83 3.41 1.52 7.32 4.43 9.63-2.93 5.6-5.16 11.93-4.39 18.34.6 4.26 2.01 8.4 4.11 12.17-3.83 5.1-8.12 10-10.74 15.87.93 3.29 4.43 4.57 7.04 6.26-2.73 1.4-4.95 3.56-6.96 5.85 3.83-2.44 7.85-4.7 12.4-5.42 4.16 1.58 8.05 3.77 11.94 5.93-2.02-2.84-4.72-5.06-7.55-7.03 2.52-1.17 6.31-2.33 6.44-5.66-1.82-6-6.96-10.15-9.99-15.5 5.98-9.17 5.63-21.24.31-30.6.15-.5.46-1.49.62-1.98 3.57-7.9 5.07-18.13-.2-25.61 2.74-4.66 7.8-7.62 9.79-12.76 1.91-5.71.4-11.73.26-17.56-.05-17.55 7.19-35.28 20.5-46.92 9.22-8.43 21.17-13.73 33.59-15.06.94 2.42 3.02 3.86 5.33 4.87-.71 2.23-2.26 3.94-4.05 5.37-.19 2.22-.98 4.26-2.63 5.81-.03 1.54-.04 3.09-.03 4.64 1.43-.05 2.88-.1 4.33-.14 2.34 5.13 4.42 10.55 8.58 14.54.05 1.18.11 2.36.18 3.54 1.24-.13 2.5-.27 3.77-.39.78 1.43 1.56 2.87 2.35 4.31 1.54-.05 3.09-.1 4.65-.15.34 1.93-.24 4.43 1.55 5.8 1.73 1.91 4.17 3.52 4.44 6.33-1.86.02-3.72.05-5.57.09-.77 4.12 1.18 8.19 3.16 11.68 3.46 2.56 8.39-.14 12.19 1.87 9.55 4.93 18.11 11.68 25.45 19.51 2.72 3.29 7.52 1.96 10.92.62 2.22 1.35 1.87 3.93 2.38 6.15 1.04 1.61 2.37 3.01 3.61 4.49.05 1.78.12 3.57.2 5.36 1.05.15 2.11.3 3.19.46.81 2.17 1.85 4.34 3.9 5.62 1.26 3.33 3.06 6.42 4.92 9.46-2.33 4.84-4.72 9.76-5.97 15-.52 6.92-.07 13.89-.2 20.83 4.31-.02 8.62-.03 12.94.03.16 7.09-.07 14.18.08 21.27.05 2.85 3.57 2.98 5.46 4.21.58 1.6.79 3.3 1.15 4.98 2.17.56 4.93.54 6.36 2.59-.01 3.18.79 6.22 2.68 8.83-3.67-2.02-7.87-3.21-12.07-2.42-4.97 1.25-8.98-3.21-13.9-2.84-4.66.02-9.32-.19-13.96.1-2.96 1.08-5.89 2.41-8.56 4.1-2.1 2.83-2.76 6.46-4.62 9.45-2.58 4.06-3.74 8.78-5.93 13.04-2.76 5.86-7.16 10.71-11.24 15.67-2.76 3.63-7.75 2.98-11.73 2.6-14.97-1.67-29.99-2.82-45-3.97-5.37-.52-11.6.48-15.91-3.46-31.19-26.48-62.51-52.79-93.81-79.14-8.01-7.56-19.12-10.07-28.46-15.51-13.13-7.7-25.73-16.26-38.52-24.5-5.13-3.42-11.53-3.5-17.36-4.82-8.9-1.97-17.9-3.4-26.76-5.48-.19-2.07 2.3-3.08 3.4-4.52-.7-3.22-1.5-6.41-2.3-9.6-2.62.64-5.2 1.45-7.7 2.46-.42-1.36-.83-2.71-1.23-4.06.91 0 2.74.01 3.65.01-3.56-13.58-7.78-26.99-11.25-40.6 6.79-3.09 13.06-7.16 19.6-10.73 18.56-10.52 37.09-21.08 55.67-31.56 2.17-1.35 4.6-2.6 5.98-4.84 1.71-3.4 2.39-7.27 4.56-10.45 1.17-1.9 2.85-3.5 3.73-5.56 1.07-6.59-.47-13.27.26-19.88.45-3.68.96-7.35 1.24-11.05.13-3.91 3.61-6.52 4.53-10.15.61-6.09-.52-12.31-3.54-17.65-2.38-4.15.23-8.77-.13-13.18-.47-3.7 1.84-6.72 3.79-9.58 5.08-1.27 10.45-1.59 15.28-3.73 3.15-1.34 5.28-4.11 7.44-6.63 4.87-5.78 10.03-11.29 15.07-16.92 2.31-2.64 6.25-2.78 8.75-5.17 2.38-2.4 3.59-5.7 6.03-8.05 2.13.15 4.06 1.19 6.14 1.64m20.99 81.38c0 5.48 1.29 10.9 2.44 16.24.64 2.16.67 4.94 2.96 6.09 2.78-6.43 3.71-13.41 4.51-20.3-.65-9.46-2.34-18.81-4.55-28.02-3.75 8.12-4.2 17.24-5.36 25.99m-37.26-6.97c.96 2.25 1.98 4.5 3.35 6.55 4.82 7.09 9.98 14.12 16.81 19.42 3.99 3.04 8.07 6.51 13.22 7.22-2.2-6.85-6.85-12.54-11.68-17.72-6.49-6.1-13.47-11.89-21.7-15.47m69.55 9.36c-7.74 6.48-15.22 14.05-18.64 23.77 8.61-1.7 15.04-8.37 20.91-14.43 4.92-5.62 9.79-11.6 12.37-18.69-5.47 2.11-9.83 6.13-14.64 9.35m-88.39 34.11c5.57 1.69 11.19 3.3 17.02 3.76 10.81 2.11 21.97.02 32.17-3.77-15.55-6.79-33.43-5.21-49.19.01m54.92 7.43c-.15.51-.45 1.52-.61 2.02-1.67 1.35-4.14 2.6-4.07 5.1-.07 7.34-.04 14.7-.01 22.05-.19 1.23.87 2.05 1.52 2.95 4.36 4.88 7.49 10.76 9.71 16.9.99-.1 1.99-.19 3.01-.27.47-5.8 5.18-9.8 7.06-15.04.43-8.54.04-17.12.19-25.67.48-2.85-2.4-4.29-4.04-6.06-.22-.94-.42-1.87-.62-2.79-2.35-4.06-3.97-8.46-6.13-12.61-2.25 4.34-4.54 8.76-6.01 13.42m18.09-7.4c9.68 4.19 20.46 5.31 30.89 4.19 6.17-1.06 12.27-2.5 18.33-4.11-15.75-5.39-33.68-7.09-49.22-.08z" fill="#59a732"/><path d="m740.38 453.03c-.06-1.83 1.25-3.24 2.13-4.71.68 1.41 1.43 2.84 2.42 4.09.85 1.47 1.58 2.96 2.01 4.64-2.33-1.03-5.19-1.64-6.56-4.02z" fill="#59a732"/><path d="m754 451.07c.58-.94 1.17-1.89 1.75-2.84.66 1.28 1.27 2.59 1.83 3.93-.4 3.26-4 3.92-6.61 4.6-.01-1.2-.02-2.39-.01-3.58 1.12-.51 2.47-.88 3.04-2.11z" fill="#59a732"/><path d="m493.09 546.14c1.43-.93 2.98-1.67 4.56-2.33 1.35 2.03 2.67 4.07 3.97 6.14-3.37 3.23-7.45 5.77-10.33 9.48-2.38 4.29-1.67 10.77 2.67 13.59 1.86 1.3 4.17 1.59 6.32 2.14.03 3.8-.75 8.34 2.31 11.27 2.01 2.5 5.41 2.38 8.31 2.7.19 3.68.14 8.04 3.22 10.66 2.68 2.8 6.77 2.79 10.37 2.66.55 3.03.86 6.5 3.44 8.6 3.45 3.6 9.16 3.18 13.2.83 5.99 2.12 11.64 5.07 17.49 7.56 2.1 1.04 4.72 1.8 5.76 4.14 2.77 5.06-2.26 11.17-7.43 11.71-10.34-2.8-18.98-10.06-29.46-12.36.79.72 1.65 1.34 2.58 1.87 9.4 4.37 18.96 8.42 28.33 12.85 5.56 2.49 5.77 11.34.35 14.11-4.11 2.53-8.79.05-12.44-2.1-.58.41-1.14.85-1.68 1.3 3.06 1.19 6.27 2.35 8.77 4.56 2.65 2.87 2.61 7.87-.17 10.66-1.42 1.46-3.4 2.18-5.17 3.13-9.06-3.22-17.44-7.98-26.13-12.02-8.43-3.98-16.94-7.77-25.4-11.66-4.82-1.94-5.26-7.73-7.34-11.82 4.93-7.02 13.5-11.9 15.19-20.86 1.15-6.68-4.59-11.46-9.52-14.75-9 9.13-18.74 17.67-26.51 27.92-5.47-18.38-11.25-36.67-16.45-55.13 13.76-8.23 27.58-16.37 41.19-24.85m31.83 93.88c.24 1.01.83 1.74 1.76 2.18 4.86 2.66 10.06 4.64 14.95 7.25.94 1.1 2.07.1 2.96-.37-6.63-2.86-12.87-6.6-19.67-9.06z" fill="#59a732"/><path d="m999.35 550.04c1.26-2.31 2.7-4.52 4.38-6.55 14.95 9.63 30.37 18.5 45.55 27.76-5.63 18.25-11.05 36.57-16.63 54.84-7.86-10.11-17.63-18.48-26.43-27.74-3.68 2.49-7.86 5.16-9.24 9.66-1.38 3.95.01 8.26 2.29 11.59 3.59 5.2 8.78 9.04 12.47 14.18-2.04 4.09-2.51 9.9-7.3 11.84-15.98 7.15-31.74 14.75-47.52 22.31-5.17 3.08-12.23-2.1-11.27-7.93.07-3.98 3.69-6.14 6.92-7.52 7.2-3.48 14.57-6.61 21.68-10.27.98-.41 1.56-1.15 1.75-2.21-9.38 3.58-18 8.93-27.38 12.54-5.15 2-11.35-3.08-10.25-8.57-.04-3.35 2.62-5.92 5.6-6.99 9.5-4.46 19.33-8.29 28.5-13.41.12-.36.37-1.08.49-1.44-9.66 4.27-18.81 9.84-28.91 13.07-4.36-.64-8.75-4.56-8.08-9.29.05-2.95 2.55-4.9 5.07-5.88 6.27-2.72 12.39-5.82 18.82-8.16 3.86 2.19 9.16 2.81 12.68-.36 2.85-2.11 3.38-5.8 4.02-9.03 3.79.19 8.12-.06 10.76-3.18 2.72-2.38 2.27-6.19 2.48-9.42 3.02-.58 6.38-1.06 8.51-3.55 3.23-2.88 2.19-7.52 2.44-11.34 3.7-.43 7.76-1.91 9.43-5.54.9-3.45 1.51-7.69-.96-10.66-2.93-3.3-6.55-5.88-9.87-8.75z" fill="#59a732"/><path d="m507.36 549.42c5.82-.98 10.44 5.5 8.91 10.75-3.58 4.74-8.2 8.67-13.08 12.03-5.25 3.16-12.65-2.19-11.58-8.13.44-4.26 4.3-6.7 7.26-9.25 2.63-2.05 4.97-4.99 8.49-5.4z" fill="#59a732"/><path d="m989.18 550.2c2.99-1.65 6.79-.75 9.23 1.48 3.38 2.9 7.05 5.57 9.82 9.1 3.07 4.4 0 11.07-5.12 12.13-3.67 1.17-6.8-1.48-9.37-3.68-2.63-2.33-5.53-4.43-7.73-7.18-2.9-3.83-1.18-9.92 3.17-11.85z" fill="#59a732"/><path d="m750.26 577.12c-.88-7.31-2.41-15.1.46-22.16 3.22 7.03 2.78 15.23-.46 22.16z" fill="#59a732"/><path d="m519.25 561.23c5.57-2.88 12.36 2.79 11.24 8.72-.39 3.78-3.81 5.9-6.41 8.18-3.69 2.96-6.97 6.52-11.14 8.84-4.81 2.32-11.19-1.68-11.3-7.01-.41-4.15 3.28-6.82 5.98-9.3 3.87-3.14 7.26-6.95 11.63-9.43z" fill="#59a732"/><path d="m974.43 561.64c4.11-2.75 8.91-.09 11.97 2.96 4.04 3.95 9.11 6.95 12.28 11.72 3.17 6.1-4.58 13.91-10.65 10.6-5.52-3.29-9.99-8.01-14.9-12.08-4.19-3.4-3.21-10.57 1.3-13.2z" fill="#59a732"/><path d="m530.41 574.4c4.94-2.83 11.86 2 11.25 7.59.15 3.64-2.83 6.27-5.42 8.34-4.12 3.22-7.77 7.09-12.31 9.74-4.79 2.32-10.84-1.8-11.04-6.98-.47-3.89 2.57-6.78 5.32-8.98 4.09-3.2 7.65-7.13 12.2-9.71z" fill="#59a732"/><path d="m964.17 574.33c2.46-1.05 5.57-1.03 7.73.72 4.02 2.96 7.58 6.48 11.47 9.61 2.25 1.85 4.52 4.21 4.72 7.28.55 4.87-4.22 9.4-9.06 8.67-3.9-.55-6.53-3.82-9.41-6.16-3.3-3.07-7.42-5.45-9.67-9.48-2.02-3.93.33-8.94 4.22-10.64z" fill="#59a732"/><path d="m750.33 582.15c3.21 7.92 2.5 16.79.1 24.83-2.98-7.91-3.48-16.96-.1-24.83z" fill="#59a732"/><path d="m541.49 587.6c5.15-3.16 12.35 1.43 11.88 7.39 0 4.42-4.02 6.93-6.93 9.56-3.52 2.89-6.76 6.64-11.38 7.68-3.04-.46-6.19-1.92-7.57-4.82-1.62-3.23-.87-7.59 2.08-9.79 4.09-3.2 7.5-7.24 11.92-10.02z" fill="#59a732"/><path d="m952.25 587.4c2.66-1.34 6.02-1.02 8.35.88 3.98 3.01 7.4 6.68 11.24 9.86 3.36 2.64 3.2 8.1.4 11.09-2.76 3.11-8.05 3.62-11.19.81-3.88-3.12-7.68-6.35-11.23-9.83-3.91-3.56-2.35-10.81 2.43-12.81z" fill="#59a732"/><path d="m554.7 598.24c4.63 1.78 11.01 3.13 12.34 8.72 1.32 5.18-3.33 9.53-8.03 10.57-5.46-2.17-10.83-4.53-16.13-7.06 3.67-4.34 8.98-7.13 11.82-12.23z" fill="#59a732"/><path d="m934.2 606c1.99-4.84 7.65-6.13 12.09-7.77 2.68 5.26 8.21 7.87 11.87 12.25-4.76 2.04-9.34 4.53-14.23 6.26-5.88 1.82-12.21-5.02-9.73-10.74z" fill="#59a732"/><path d="m487.32 608.4c2.45-2.84 5.05-5.56 7.75-8.16 4.59 2.81 9.26 7.76 7.7 13.61-2.72 8.05-10.35 12.74-15.45 19.14 1.87 4.21 2.97 9.12 5.95 12.63 18.46 8.8 37.08 17.28 55.47 26.25-.24 1.98-.46 3.98-.69 5.97-16.81 4.25-33.53 8.86-50.39 12.88-8.42-17.86-17.61-35.34-26.02-53.21-1.87-4.13-2.25-9.4.65-13.15 4.55-5.74 10.26-10.41 15.03-15.96z" fill="#59a732"/><path d="m998.23 613.8c-1.59-5.9 3.08-10.99 7.87-13.62 6.78 7.45 13.58 14.88 20.76 21.96 2.4 2.29 3.99 5.48 3.96 8.85.06 4.51-2.4 8.47-4.31 12.39-5.8 11.89-11.62 23.77-17.56 35.59-2.18 3.82-3.53 8.17-6.22 11.65-16.67-3.85-33.09-8.76-49.74-12.72-.27-2.03-.52-4.06-.74-6.07 18.56-9.08 37.46-17.5 55.98-26.63 2.35-3.81 3.76-8.13 5.45-12.26-5.14-6.37-12.83-11.05-15.45-19.14z" fill="#59a732"/><path d="m750.45 611.32c2.33 4.04 5.55 7.83 6.33 12.55-.47 3.34-4.05 4.63-6.74 5.77-2.08-1.85-5.87-3.26-5.46-6.6 1.02-4.33 4.25-7.64 5.87-11.72z" fill="#59a732"/><path d="m559.42 679.62c1.41-.27 3.29-1.04 4.28.49 15.84 18.36 34.23 34.54 54.69 47.58 31.95 20.46 68.77 33.36 106.53 37.14 27.35 2.11 55.16 1.36 81.91-5.16 46.09-10.68 88.65-35.37 121.36-69.47 3.37-3.69 6.68-7.42 10.08-11.08 9.05 1.75 17.8 4.71 26.75 6.9 12.99 3.36 25.94 6.85 38.93 10.22-8 13.14-18.23 24.78-28.62 36.06-14.98 15.76-31.52 30.03-49.33 42.51-15.48 10.42-31.74 19.7-48.74 27.43-51.73 23.44-110.01 31.85-166.31 24.66-33.73-4.5-66.9-14.13-97.31-29.5-29.37-14.36-56.28-33.64-79.55-56.59-13.86-13.53-26.66-28.29-37.3-44.5 20.9-5.46 41.77-11.04 62.63-16.69m382.93 27.47c4.53 4.35 9.2 8.55 13.7 12.95 1.37-1.23 2.67-2.55 3.89-3.94-4.18-4.76-8.96-8.93-13.77-13.03-1.29 1.33-2.56 2.67-3.82 4.02m-392.51 2.65c-2.05 2.65-4.7 4.82-6.5 7.67-.48 1.44.95 2.44 1.76 3.43 3.69 3.56 7.56 6.95 11.09 10.67 1.35-2.25 3.02-4.28 4.9-6.11.84 1.13 1.7 2.27 2.57 3.41-1.46 1.7-3.72 3.05-4.44 5.22 1.93 2.94 5.06 4.73 7.76 6.88 4.04 2.96 7.56 6.61 11.97 9.06 2.99-3.14 5.62-6.59 8.23-10.05-3.41-2.6-6.2-6.19-10.2-7.9-3.37-.55-5.64 2.51-7.42 4.87-1.17-.62-2.34-1.25-3.49-1.84 1.9-2.16 4.82-4.05 5.24-7.08-2.82-4.11-6.64-7.45-10.41-10.67-2.16 2.24-4.3 4.5-6.42 6.78-1.38-1.7-3.57-3.04-4.22-5.15 1.48-2.25 3.7-3.86 5.36-5.96-.01-2.78-3.37-4.29-5.78-3.23m387.02 3.2c3.4 3.51 7.07 6.78 10.02 10.72-1.18 1.15-2.35 2.31-3.51 3.48-1.72-1.66-3.22-3.65-5.35-4.78-2.46-1.16-4.64.89-6.37 2.36-2.18 2.03-4.88 3.66-6.46 6.25 1.05 2.81 3.53 4.8 5.42 7.07-.89.9-1.77 1.8-2.65 2.72-2.84-2.07-6.02-5.39-9.87-3.85-5.15 3.34-10.13 6.95-15.18 10.42.79 1.89 1.78 3.69 3.01 5.36 4.4-3.22 8.61-6.74 13.32-9.51 1.31-1.45 4.04 1.16 2.24 2.29-5.91 4.52-11.76 9.33-18.44 12.7-2.74-3.51-5.13-7.27-7.36-11.12-2.14.28-4.2.92-6.1 1.95 2.67 4.1 5.38 8.17 8.21 12.18-1.31 1.26-2.63 2.52-3.94 3.79-1.63-2.55-2.88-5.38-4.92-7.63-1.98-.26-3.66 1.12-5.4 1.81 1.68 2.77 3.43 5.53 4.66 8.55-1.28.39-2.52.81-3.77 1.22-1.21-2.37-2.43-4.73-3.62-7.1-2.03.38-3.99 1.02-5.82 1.97 1.57 2.98 4.55 5.88 3.53 9.56-.55.11-1.67.34-2.23.46-1.57-2.65-3.1-5.34-5.13-7.67-1.7.73-3.34 1.56-4.94 2.49 2.02 3.35 4.19 6.68 5.47 10.42-.12 3-3.46 4.1-5.58 5.54-1.6-.84-3.2-1.64-4.81-2.42 2.19 2.58 5.12 5.53 8.86 4.65 4.6-.73 7.75-4.93 8.42-9.34 5.71-3.68 12.92-5.18 17.41-10.57 3.19-.66 5.89-2.51 8.53-4.32 0-.69-.01-2.05-.02-2.74 2-.31 4.33.14 6.06-1.17 4.67-3.33 9.24-6.79 13.92-10.11 7.64-5.02 13.77-11.89 20.86-17.62-.01-.67-.04-2.03-.05-2.71.67.1 2 .31 2.67.42 1.89-2.26 4.48-4.06 5.85-6.68-3.3-3.96-7.05-7.52-10.69-11.16-1.86-2.66-5.47-.14-6.25 2.12m-393.18 12.66c.75 2.65 3.27 4.24 5.26 5.94.48-.35 1.43-1.06 1.91-1.42-2.33-1.51-3.89-5.82-7.17-4.52m37.69 1.42c-.03.65-.07 1.94-.09 2.59 2.07 1.48 4.03 3.74 6.85 3.37-.83-3.06-3.92-5.03-6.76-5.96m.07 24.99c1.55 1.2 3.25 2.22 5.09 2.94 2.91-5.21 7.65-9.31 9.76-14.96-.58-1.61-2.27-2.38-3.42-3.49-3.95 5.06-7.72 10.27-11.43 15.51m15.81-5.04c-2.72 3.77-4.89 7.92-7.81 11.55-1.42 1.97-4.08 1.8-6.22 2.13 1.81 1.16 3.6 2.58 5.85 2.75 3.26.61 5.46-2.35 7.89-3.97.02.92.06 2.76.08 3.68 9.7 5.63 19.17 11.81 29.67 15.91 2.67-5.39 5.75-10.57 8.14-16.1-1.44-1.28-2.92-2.59-4.81-3.11-2.67 4.06-4.42 8.71-6.9 12.92-5.52-2.22-10.58-5.38-15.68-8.36-.99-1.44 1.2-2.84 2.49-2.7 4.04 1.42 7.37 4.21 10.89 6.56.64-1.82 1.27-3.65 1.93-5.45-2.68-2.72-6.3-4.1-9.46-6.14-2.13-1.23-4.41-2.73-6.98-2.42-2.05 1.89-2.52 4.76-3.32 7.3-1.97-1.16-4.79-1.62-5.93-3.7 1.21-2.83 3.17-5.25 4.74-7.87-1.53-1.01-3.05-1.99-4.57-2.98m325.04 6.99c-.58 1.64-.04 2.17 1.61 1.6.55-1.65.02-2.18-1.61-1.6m-285.25 9.08c-2.37 5.29-5.5 10.31-6.96 15.96-.79 2.54 2.45 2.88 4.05 3.71 2.71-5.79 5.7-11.47 7.86-17.5-1.66-.73-3.31-1.45-4.95-2.17m208.94 7.22c1.91 6.15 4.58 12.02 7.04 17.97 1.62-.54 3.25-1.07 4.9-1.57-1.46-6.08-4.46-11.61-6.35-17.53-1.87.36-3.73.74-5.59 1.13m-14.76 1.79c-1.81.43-1.34 3.73.64 3.02 1.72-.5 1.3-3.7-.64-3.02m7.19 1.01c.85 5.32 4.51 10.16 4.14 15.6-.15 3.43-4.16 2.75-5.74 4.92 4.73.98 11.84-.65 11.91-6.59-.84-4.62-2.31-9.18-4.42-13.37-.99-2.59-4.02-.46-5.89-.56m-193.22.99c-1.38 4.05-2.9 8.05-3.91 12.21 5.89 2.35 11.88 4.46 17.95 6.35.19-2.61.44-5.41 2.41-7.36.72.4 2.15 1.21 2.86 1.61-.55 2.32-1.07 4.66-1.55 7.01 8.24 3.59 17.12 5.25 25.91 6.87.4-4.18 2.78-8.55 1.32-12.68-4.52-2.51-9.83-3.01-14.83-3.98-.52 2.89-1.1 5.77-1.8 8.64-1.15-.07-2.29-.12-3.42-.16-.27-3.28 1.87-6.31 1.34-9.53-4.38-2.47-9.39-3.63-14.21-4.93-.89 2.81-1.63 5.67-2.17 8.58-2.4-.56-4.74-1.31-6.96-2.36 1.04-2.97 1.98-5.97 2.79-9-1.93-.44-3.83-.85-5.73-1.27m185 1.97c.03 4.5 1.33 9.04 4.04 12.67 1.5 1.54 3.93 1.04 5.88 1.47-2.52-4.72-3.95-9.88-5.81-14.86-1.03.18-3.08.54-4.11.72m-135.97 7c-.61 3.67-1.61 7.3-1.87 11.03-.04 2.88 2.67 4.65 4.97 5.79-.05-5.51 1.61-10.81 2.15-16.26-1.76-.2-3.5-.37-5.25-.56m116.61 4.76c-1.93 3.04.77 6.46 2.19 9.19-2.11.18-4.21.32-6.31.4-1.08-4.4-1.34-9.02-3.05-13.24-1.54-1.59-4.03-.19-5.91-.23 1.07 4.79 1.96 9.63 3 14.44-1.38.42-2.75.86-4.11 1.31-.31-2.76-.75-5.5-1.43-8.18-5.05-.97-10.11.51-15.15.86.22 3.35.59 6.7 1.3 9.99-2.52 0-5.03 0-7.53-.01-.22-2.79-.49-5.55-.85-8.31-1.93.11-3.85.23-5.76.35.25 4.36.44 8.78 1.81 12.97 6.21-.16 12.26-1.75 18.46-2.08-.49-2.66-.91-5.33-1.26-8 1.64.15 3.3.3 4.97.45.07 2.28.13 4.56.2 6.85 4.92-.67 9.8-1.56 14.66-2.59.59-.67 1.18-1.33 1.78-1.99 1.61.64 3.24 1.94 5.08 1.24 6.25-1.63 12.45-3.52 18.56-5.66.13-1.23.26-2.45.41-3.66-4.89.69-9.6 2.18-14.29 3.67-.2-1.19-.38-2.38-.55-3.55 4.05-1.87 8.42-2.78 12.78-3.55-.71-1.82-1.4-3.62-2.06-5.44-5.78 1.01-11.56 2.41-16.94 4.77m-107.16-3.35c-.8 5.05-1.04 10.33-3.21 15.04-1.85 2.23-5.01 1.25-7.48 1.46 3.42 4.1 9.77 4.53 13.82 1.1.55.83 1.1 1.67 1.66 2.53 5.31 1.12 10.78.91 16.15 1.6 4 .51 8.03.89 12.08.8.41-4.33 1.37-8.67.66-13.01-1.7-.26-3.4-.54-5.09-.81-.24 3.15-.56 6.3-.99 9.44-.94-.04-2.81-.13-3.75-.17.1-3.07.15-6.13.21-9.19-1.81-.32-3.62-.63-5.42-.93.03 3.33.02 6.66-.01 10.01-1.53 0-3.06.01-4.58.02-.05-3.33-.08-6.66-.03-9.98-1.8-.02-3.59-.02-5.36-.02.01 2.91-.01 5.83-.03 8.75-.89.07-2.67.21-3.57.28-2.23-.89-1.19-3.54-.99-5.29.78-3.31 1.47-6.65 1.58-10.06-1.83-.73-3.72-1.27-5.65-1.57m36.72 3.88c-.26 3.94-.72 7.92-.22 11.87.23 2.52 2.88 3.53 4.86 4.43-.25-5.42-.48-10.85-.33-16.27-1.45-.02-2.89-.03-4.31-.03m8.94.02c-.14 5.1.43 10.33-.8 15.34-1.68 2.41-4.87 2.37-7.48 2.66 1.1.76 3.22.94 3.18 2.65-.76 1.12-2.05 1.7-3.06 2.54.81.07 1.63.16 2.47.26.84-1.28 1.45-3.1 3.35-2.87 2.64-.14 5.13-.99 7.26-2.56 1.04-5.88.67-11.84.3-17.75-1.75-.1-3.49-.19-5.22-.27m8.68-.37c-.01 6.35-.02 12.7 0 19.05 2-.02 4-.02 6.01-.01-.47-6.29-.85-12.59-1.19-18.88-1.62-.07-3.22-.12-4.82-.16m-112.15 6.11c1.26.06 2.53.14 3.8.23 1.06.52 1.9 2.35 3.27 1.54 1.67-2-1.2-2.77-2.56-3.34-1.78-.87-4.97-1.44-4.51 1.57z" fill="#59a732"/><path d="m934.32 730.46c1.21-.68 2.54-.89 3.99-.62-.46 1.36-.81 3-2.33 3.58-1.65.94-3.95-2.1-1.66-2.96z" fill="#59a732"/><path d="m574.03 740.91c-.19-3.06 3.46-.94 5.06-.64-.5 1.06-.71 2.6-2.12 2.83-1.24-.31-2.16-1.26-2.94-2.19z" fill="#59a732"/><path d="m680.11 791.98c2.33-2.02 4.41 1.45 4.35 3.56-1.99.03-6.08-.7-4.35-3.56z" fill="#59a732"/><path d="m744.14 401c1.16-8.75 1.61-17.87 5.36-25.99 2.21 9.21 3.9 18.56 4.55 28.02-.8 6.89-1.73 13.87-4.51 20.3-2.29-1.15-2.32-3.93-2.96-6.09-1.15-5.34-2.44-10.76-2.44-16.24z" fill="#279038"/><path d="m706.88 394.03c8.23 3.58 15.21 9.37 21.7 15.47 4.83 5.18 9.48 10.87 11.68 17.72-5.15-.71-9.23-4.18-13.22-7.22-6.83-5.3-11.99-12.33-16.81-19.42-1.37-2.05-2.39-4.3-3.35-6.55z" fill="#279038"/><path d="m776.43 403.39c4.81-3.22 9.17-7.24 14.64-9.35-2.58 7.09-7.45 13.07-12.37 18.69-5.87 6.06-12.3 12.73-20.91 14.43 3.42-9.72 10.9-17.29 18.64-23.77z" fill="#279038"/><path d="m688.04 437.5c15.76-5.22 33.64-6.8 49.19-.01-10.2 3.79-21.36 5.88-32.17 3.77-5.83-.46-11.45-2.07-17.02-3.76z" fill="#279038"/><path d="m761.05 437.53c15.54-7.01 33.47-5.31 49.22.08-6.06 1.61-12.16 3.05-18.33 4.11-10.43 1.12-21.21 0-30.89-4.19z" fill="#279038"/><path d="m755.1 444.12c.2.92.4 1.85.62 2.79 1.64 1.77 4.52 3.21 4.04 6.06-.15 8.55.24 17.13-.19 25.67-1.88 5.24-6.59 9.24-7.06 15.04-1.02.08-2.02.17-3.01.27-2.22-6.14-5.35-12.02-9.71-16.9-.65-.9-1.71-1.72-1.52-2.95-.03-7.35-.06-14.71.01-22.05-.07-2.5 2.4-3.75 4.07-5.1.16-.5.46-1.51.61-2.02-.18 1.12-.34 2.25-.45 3.39-.88 1.47-2.19 2.88-2.13 4.71 1.37 2.38 4.23 2.99 6.56 4.02-.43-1.68-1.16-3.17-2.01-4.64 1.95.54 3.99.64 6.03.77-.01 1.19 0 2.38.01 3.58 2.61-.68 6.21-1.34 6.61-4.6-.56-1.34-1.17-2.65-1.83-3.93-.58.95-1.17 1.9-1.75 2.84 1.08-2.15 1.44-4.57 1.1-6.95z" fill="#fefefe"/><path d="m769.35 472.55c11.83-12.22 28.97-19.05 45.95-18.33 6.08.74 12.23 1.87 17.9 4.25l1.06 1.25c-5.83-.64-11.71-1.56-17.57-.7-12.42 1.33-24.37 6.63-33.59 15.06-13.31 11.64-20.55 29.37-20.5 46.92.14 5.83 1.65 11.85-.26 17.56-1.99 5.14-7.05 8.1-9.79 12.76-.66 1.18-1.27 2.4-1.83 3.64-2.87 7.06-1.34 14.85-.46 22.16l-.74 1.58c-2.91-2.31-3.6-6.22-4.43-9.63-1.65-7.1.07-14.6 3.59-20.86.4-.46 1.19-1.37 1.59-1.82 2.3-2.91 6.18-4.76 7.34-8.43 0-5.25-3-9.9-3.98-14.98-4.21-18.07 2.95-37.44 15.72-50.43z" fill="#e22025"/><path d="m750.33 582.15c.74-1.77 1.61-3.48 2.42-5.22-.16.49-.47 1.48-.62 1.98 5.32 9.36 5.67 21.43-.31 30.6-.34-.64-1.04-1.9-1.39-2.53 2.4-8.04 3.11-16.91-.1-24.83z" fill="#e22025"/><path d="m738.5 625.08c2.62-5.87 6.91-10.77 10.74-15.87.3.53.91 1.58 1.21 2.11-1.62 4.08-4.85 7.39-5.87 11.72-.41 3.34 3.38 4.75 5.46 6.6-1.51.57-3.03 1.08-4.5 1.7-2.61-1.69-6.11-2.97-7.04-6.26z" fill="#e22025"/><path d="m750.98 631.77c1.45-.36 2.93-.69 4.39-1.1 2.83 1.97 5.53 4.19 7.55 7.03-3.89-2.16-7.78-4.35-11.94-5.93z" fill="#e22025"/><path d="m667.94 459c5.17-2.97 11.26-3.38 17.06-4.07 16.74-1.18 33.88 5.47 45.59 17.48 11.08 11.16 17.63 26.81 17.31 42.57-.29 7.32-3.87 13.91-4.99 21.03-.87 5.01 4.41 7.38 7.36 10.38-.4.45-1.19 1.36-1.59 1.82-.36.1-1.07.31-1.43.41-2.6-2.99-5.49-5.81-7.54-9.22-1.88-4.18-1.2-8.91-.96-13.34.84-9.24-.51-18.62-3.51-27.38-6.23-17.79-21.24-32.18-39.29-37.62-9.05-2.95-18.65-2.9-28.01-2.06z" fill="#202019"/><path d="m752.55 551.32c5.27 7.48 3.77 17.71.2 25.61-.81 1.74-1.68 3.45-2.42 5.22-3.38 7.87-2.88 16.92.1 24.83.35.63 1.05 1.89 1.39 2.53 3.03 5.35 8.17 9.5 9.99 15.5-.13 3.33-3.92 4.49-6.44 5.66-1.46.41-2.94.74-4.39 1.1-4.55.72-8.57 2.98-12.4 5.42 2.01-2.29 4.23-4.45 6.96-5.85 1.47-.62 2.99-1.13 4.5-1.7 2.69-1.14 6.27-2.43 6.74-5.77-.78-4.72-4-8.51-6.33-12.55-.3-.53-.91-1.58-1.21-2.11-2.1-3.77-3.51-7.91-4.11-12.17-.77-6.41 1.46-12.74 4.39-18.34l.74-1.58c3.24-6.93 3.68-15.13.46-22.16.56-1.24 1.17-2.46 1.83-3.64z" fill="#202019"/></svg>