<svg xmlns="http://www.w3.org/2000/svg" width="1350" height="900" viewBox="0 0 1350 900" version="1.1"><path d="M 665.999 236.561 C 657.324 247.551, 650.155 254.397, 633.843 267.269 C 622.050 276.575, 622.601 275.648, 625.200 281.800 C 627.805 287.965, 627.520 288.441, 618.165 293.550 C 536.490 338.158, 538.516 450.300, 621.750 491.905 C 629.071 495.564, 629.058 495.497, 624.422 506.040 C 622.454 510.516, 620.992 514.319, 621.172 514.491 C 621.353 514.663, 626.450 517.334, 632.500 520.426 C 638.550 523.518, 647.100 528.650, 651.500 531.830 L 659.500 537.613 659.781 550.475 C 660.137 566.770, 660.874 566.462, 644.444 556.876 C 566.743 511.540, 529.027 458.351, 528.594 393.500 C 528.416 367.005, 533.591 355.635, 559.087 326.500 C 574.388 309.014, 574.261 308.181, 557.537 316.376 C 506.146 341.558, 482.390 397.669, 497.474 458.242 C 505.643 491.048, 516.815 513.060, 543.028 548 C 566.898 579.818, 570.498 586.152, 573.722 602 C 574.561 606.125, 575.398 609.669, 575.582 609.875 C 575.863 610.190, 597.498 591.806, 599 589.976 C 600.217 588.493, 620.185 571.971, 621.814 571.100 C 623.990 569.935, 636.218 574.692, 645.390 580.272 L 651.281 583.856 647.518 585.428 C 645.449 586.293, 643.552 587, 643.302 587 C 638.498 587, 617.237 600.695, 609.491 608.778 C 594.735 624.178, 597.805 647.176, 614.433 645.797 C 628.085 644.665, 634.163 635.390, 630.487 621.299 C 628.717 614.511, 628.425 614.908, 639.251 609.405 C 645.720 606.117, 655.433 603, 659.210 603 C 663.194 603, 661.718 635.699, 657.517 640.511 C 639.135 661.567, 671.545 687.735, 691.737 668.139 C 700.204 659.922, 700.647 652.516, 693.311 641.824 C 689.533 636.316, 686.977 608.331, 689.865 604.079 C 691.236 602.060, 701.007 604.827, 712.019 610.353 C 721.531 615.126, 721.249 614.496, 718.931 625.763 C 715.372 643.062, 740.159 654.370, 747.990 639.019 C 756.337 622.657, 740.052 601.827, 707.752 587.552 C 698.076 583.275, 698.112 583.694, 707 578.831 C 727.064 567.852, 724.098 566.693, 763.602 600.950 L 774.500 610.401 775.309 605.950 C 778.542 588.161, 782.608 580.460, 802.951 553.589 C 810.899 543.090, 819.727 531.432, 822.568 527.682 C 834.239 512.278, 848.724 477.381, 854.062 451.809 C 866.630 391.602, 838.402 334.246, 785.794 313.097 C 775.046 308.777, 775.949 310.620, 795.658 333.252 C 814.299 354.656, 818.402 363.159, 819.907 383.500 C 824.905 451.070, 786.584 509.529, 706.930 555.846 C 688.128 566.779, 689.585 567.171, 689.174 551.072 L 688.847 538.305 700.174 530.736 C 706.403 526.573, 715.438 521.230, 720.250 518.861 C 730.462 513.835, 730.048 515.041, 725 505 C 722.800 500.624, 721 496.838, 721 496.585 C 721 496.333, 725.163 494.081, 730.250 491.582 C 799.302 457.658, 815.749 372.351, 763.815 317.487 C 752.008 305.013, 729.500 289, 723.774 289 C 721.522 289, 721.510 289.104, 724.607 281.747 C 727.213 275.554, 727.213 275.554, 724.988 274.076 C 709.671 263.906, 691.248 246.781, 681.054 233.236 C 674.367 224.352, 675.904 224.012, 665.999 236.561 M 629.093 314.017 C 564.519 349.610, 566.909 439.973, 633.260 471.588 C 638.116 473.902, 637.982 474.091, 643.290 457.500 C 656.971 414.741, 655.487 378.489, 637.530 316.750 C 635.582 310.050, 636.027 310.195, 629.093 314.017 M 712.099 317.250 C 710.964 320.688, 708.251 330.925, 706.070 340 C 694.315 388.906, 696.266 434.885, 711.658 471.725 C 713.386 475.859, 712.784 476.147, 729.117 463.379 C 785.642 419.190, 782.033 344.305, 721.917 313.958 C 714.257 310.091, 714.489 310.014, 712.099 317.250" stroke="none" fill="#0d355b" fill-rule="evenodd"/><path d="M 0 450.001 L 0 900.001 675.250 899.751 L 1350.500 899.500 1350.751 449.750 L 1351.002 0 675.501 0 L 0 0 0 450.001 M 0.496 450.500 C 0.496 698, 0.610 799.101, 0.750 675.168 C 0.890 551.236, 0.890 348.736, 0.750 225.168 C 0.610 101.601, 0.496 203, 0.496 450.500 M 665.999 236.561 C 657.324 247.551, 650.155 254.397, 633.843 267.269 C 622.050 276.575, 622.601 275.648, 625.200 281.800 C 627.805 287.965, 627.520 288.441, 618.165 293.550 C 536.490 338.158, 538.516 450.300, 621.750 491.905 C 629.071 495.564, 629.058 495.497, 624.422 506.040 C 622.454 510.516, 620.992 514.319, 621.172 514.491 C 621.353 514.663, 626.450 517.334, 632.500 520.426 C 638.550 523.518, 647.100 528.650, 651.500 531.830 L 659.500 537.613 659.781 550.475 C 660.137 566.770, 660.874 566.462, 644.444 556.876 C 566.743 511.540, 529.027 458.351, 528.594 393.500 C 528.416 367.005, 533.591 355.635, 559.087 326.500 C 574.388 309.014, 574.261 308.181, 557.537 316.376 C 506.146 341.558, 482.390 397.669, 497.474 458.242 C 505.643 491.048, 516.815 513.060, 543.028 548 C 566.898 579.818, 570.498 586.152, 573.722 602 C 574.561 606.125, 575.398 609.669, 575.582 609.875 C 575.863 610.190, 597.498 591.806, 599 589.976 C 600.217 588.493, 620.185 571.971, 621.814 571.100 C 623.990 569.935, 636.218 574.692, 645.390 580.272 L 651.281 583.856 647.518 585.428 C 645.449 586.293, 643.552 587, 643.302 587 C 638.498 587, 617.237 600.695, 609.491 608.778 C 594.735 624.178, 597.805 647.176, 614.433 645.797 C 628.085 644.665, 634.163 635.390, 630.487 621.299 C 628.717 614.511, 628.425 614.908, 639.251 609.405 C 645.720 606.117, 655.433 603, 659.210 603 C 663.194 603, 661.718 635.699, 657.517 640.511 C 639.135 661.567, 671.545 687.735, 691.737 668.139 C 700.204 659.922, 700.647 652.516, 693.311 641.824 C 689.533 636.316, 686.977 608.331, 689.865 604.079 C 691.236 602.060, 701.007 604.827, 712.019 610.353 C 721.531 615.126, 721.249 614.496, 718.931 625.763 C 715.372 643.062, 740.159 654.370, 747.990 639.019 C 756.337 622.657, 740.052 601.827, 707.752 587.552 C 698.076 583.275, 698.112 583.694, 707 578.831 C 727.064 567.852, 724.098 566.693, 763.602 600.950 L 774.500 610.401 775.309 605.950 C 778.542 588.161, 782.608 580.460, 802.951 553.589 C 810.899 543.090, 819.727 531.432, 822.568 527.682 C 834.239 512.278, 848.724 477.381, 854.062 451.809 C 866.630 391.602, 838.402 334.246, 785.794 313.097 C 775.046 308.777, 775.949 310.620, 795.658 333.252 C 814.299 354.656, 818.402 363.159, 819.907 383.500 C 824.905 451.070, 786.584 509.529, 706.930 555.846 C 688.128 566.779, 689.585 567.171, 689.174 551.072 L 688.847 538.305 700.174 530.736 C 706.403 526.573, 715.438 521.230, 720.250 518.861 C 730.462 513.835, 730.048 515.041, 725 505 C 722.800 500.624, 721 496.838, 721 496.585 C 721 496.333, 725.163 494.081, 730.250 491.582 C 799.302 457.658, 815.749 372.351, 763.815 317.487 C 752.008 305.013, 729.500 289, 723.774 289 C 721.522 289, 721.510 289.104, 724.607 281.747 C 727.213 275.554, 727.213 275.554, 724.988 274.076 C 709.671 263.906, 691.248 246.781, 681.054 233.236 C 674.367 224.352, 675.904 224.012, 665.999 236.561 M 629.093 314.017 C 564.519 349.610, 566.909 439.973, 633.260 471.588 C 638.116 473.902, 637.982 474.091, 643.290 457.500 C 656.971 414.741, 655.487 378.489, 637.530 316.750 C 635.582 310.050, 636.027 310.195, 629.093 314.017 M 712.099 317.250 C 710.964 320.688, 708.251 330.925, 706.070 340 C 694.315 388.906, 696.266 434.885, 711.658 471.725 C 713.386 475.859, 712.784 476.147, 729.117 463.379 C 785.642 419.190, 782.033 344.305, 721.917 313.958 C 714.257 310.091, 714.489 310.014, 712.099 317.250" stroke="none" fill="#f3c334" fill-rule="evenodd"/></svg>