<?xml version="1.0" encoding="UTF-8"?>
<svg id="svg10" width="1200" height="600" version="1.1" viewBox="0 0 1200 600" xmlns="http://www.w3.org/2000/svg" xmlns:cc="http://creativecommons.org/ns#" xmlns:dc="http://purl.org/dc/elements/1.1/" xmlns:rdf="http://www.w3.org/1999/02/22-rdf-syntax-ns#">
 <metadata id="metadata16">
  <rdf:RDF>
   <cc:Work rdf:about="">
    <dc:format>image/svg+xml</dc:format>
    <dc:type rdf:resource="http://purl.org/dc/dcmitype/StillImage"/>
   </cc:Work>
  </rdf:RDF>
 </metadata>
 <g id="g18">
  <g id="g22" transform="matrix(1 0 0 1.0062244 1.0432502 -.79383366)">
   <path id="path38" d="m-1.0432502 201.5004v196.81416h1199.99995v-198.76282h-1199.99995z" fill="#fdfdfd" stroke-width=".98544"/>
   <path id="path30" d="m-1.0432502 100.17034v-99.38141691h1199.99995v198.7628169h-1199.99995z" fill="#fc0000" stroke-width="1.00192"/>
   <path id="path28" d="m-1.0432502 497.69597v-99.38141h1199.99995v198.76282h-1199.99995z" fill="#008300" stroke-width="1.00702"/>
  </g>
  <path id="path1384" d="m342.47415 387.2603c-2.12851-0.6409-4.06386-2.28562-5.31825-4.51964-1.46141-2.6027-1.87498-5.02455-1.51012-8.84312 0.45242-4.73496 1.62569-8.19329 6.22373-18.34502 1.63168-3.60251 3.64819-8.3826 4.48112-10.62243 0.93106-2.50371 1.65641-4.02839 1.88298-3.9581 0.94609 0.29353-0.29832 5.03356-3.49803 13.32425-3.81741 9.89122-4.34849 11.68999-4.53714 15.36733-0.20041 3.90656 0.26868 5.74789 1.96846 7.72674 1.36553 1.58973 2.80872 2.22636 5.04701 2.22636 2.57336 0 3.74191-0.669 5.00578-2.86585 0.58002-1.00818 1.21531-1.88247 1.41174-1.94286 0.54556-0.16771 0.10148 2.81226-0.86514 5.80545-1.53637 4.75746-3.65005 6.75068-7.29433 6.87859-1.09764 0.0385-2.44665-0.0658-2.99781-0.2317zm295.69313-1.16332c-0.30629-0.44053 0.63557-1.0386 5.75512-3.65437 12.92503-6.60387 17.96137-9.48689 23.63945-13.53234 9.64417-6.87113 17.78202-14.78723 20.88521-20.31611l1.34808-2.40184-0.0407-4.14817c-0.0224-2.28149-0.48827-8.31312-1.03533-13.40361-0.54703-5.0905-1.79583-17.7135-2.7751-28.05112-1.97258-20.8237-4.05584-41.51869-4.77315-47.41634-0.32518-2.67335-0.77251-4.65085-1.46845-6.49124l-1.0008-2.64668 2.31192-4.98134c2.17104-4.67779 2.66438-5.51015 3.05837-5.15993 0.29115 0.25881 3.89472 8.92529 5.85478 14.08059 3.08326 8.1095 4.0995 11.98416 3.26363 12.44335-0.26111 0.14347-2.30939-1.80758-4.13318-3.93696-0.58156-0.679-0.70366-0.7275-0.70366-0.27956 0 0.29809 1.36041 13.86748 3.02316 30.15419s3.19626 32.23932 3.4078 35.45025c0.4581 6.95294 0.21118 17.80566-0.48875 21.48305-2.08887 10.97459-6.66618 19.21129-15.104 27.17909-3.47417 3.28066-5.70676 4.70417-10.73806 6.84664-5.22563 2.22524-10.96014 4.08169-20.14628 6.52206-9.9626 2.64663-9.88376 2.62905-10.14007 2.26039zm-30.54679-2.77119c-3.72401-0.63069-5.3509-2.83273-5.04301-6.82581 0.2557-3.3163 1.83058-6.10668 6.066-10.74779 1.1413-1.25062 1.73283-2.11979 1.52162-2.23582-1.34163-0.73707-6.54757-0.34681-10.20352 0.7649-0.95265 0.28968-1.85369 0.5267-2.00231 0.5267-0.56166 0-0.2307-0.9812 0.9-2.66819 2.42279-3.6148 3.86007-4.30899 8.92141-4.30899 3.41352 0 5.24429 0.39021 6.22615 1.32705 0.57346 0.54716 0.56051 0.63251-0.49441 3.25618-0.95306 2.37036-1.41041 3.04003-3.80403 5.56996-4.06846 4.30017-5.26497 7.04747-3.88481 8.9199 0.73856 1.00198 1.87281 1.34438 4.35986 1.31614 5.0611-0.0574 11.14375-2.49425 17.51999-7.01874 3.27912-2.32683 3.85872-2.10096 1.60052 0.62373-6.35087 7.66279-15.54654 12.54011-21.68346 11.50078zm205.35654-1.2536c0-0.55316-0.0737-0.51078 8.97033-5.15801 4.49318-2.30879 10.18774-5.38707 12.65458-6.84061 12.86429-7.58003 24.90603-18.29647 28.95697-25.76998l1.15772-2.13586-0.0425-4.12936c-0.0234-2.27114-0.34942-6.87122-0.72448-10.22239-0.37509-3.35116-1.61876-15.91009-2.76373-27.90872-4.6653-48.88993-5.21186-53.65106-6.56458-57.18382l-1.0025-2.61812 2.35241-5.04942c1.2938-2.77718 2.51002-5.09613 2.70272-5.15323 0.40082-0.11876 2.75207 5.24044 5.77395 13.16062 3.45377 9.05202 4.51493 12.90006 3.68338 13.3569-0.3115 0.17113-1.6327-1.02725-3.52961-3.20148-0.88216-1.01115-1.32677-1.34514-1.32687-0.99675-9e-5 0.28817 1.36375 13.91586 3.03079 30.28375 3.33998 32.79363 3.69841 37.13732 3.69437 44.77111-6e-3 11.86255-1.72304 19.30993-6.28532 27.265-2.81909 4.91555-5.6622 8.35696-10.37111 12.55355-3.39784 3.02814-4.46579 3.79152-7.04812 5.03798-5.50516 2.65724-13.28327 5.22418-25.73841 8.49419-3.84825 1.01033-7.12802 1.83696-7.2884 1.83696-0.16034 0-0.29157-0.17654-0.29157-0.39231zm-230.02495-0.63567c-11.53526-2.98197-19.02895-5.74624-24.50766-9.04037-2.74659-1.65142-7.21229-5.57399-9.06567-7.96309-3.24563-4.18377-5.45938-8.81441-7.2943-15.25798-0.59742-2.09793-1.14426-3.86599-1.21519-3.92905-0.0709-0.063-0.23008 0.3719-0.35364 0.96657-0.67877 3.26659-4.35854 7.80397-10.83399 13.35902-10.31421 8.84818-21.55352 15.5989-28.66093 17.21475-2.93237 0.66667-7.01795 0.72038-9.28451 0.12205-2.00534-0.52937-4.43418-2.39936-5.60082-4.31212-0.89235-1.46304-1.85695-4.3836-1.85695-5.62238 0-0.40813-0.091-0.74204-0.20216-0.74204-0.11119 0-1.97046 0.8991-4.13172 1.99801-5.27618 2.6827-7.51827 3.54986-10.56327 4.08545-5.63976 0.992-14.72441 1.83427-22.92673 2.12563-6.76739 0.2404-9.7082 0.0788-9.84056-0.54083-0.0716-0.33509 0.69489-0.68752 3.04048-1.398 14.98215-4.53812 31.49611-11.10436 41.37708-16.45226l4.60216-2.49084 1.53829-4.12935c1.81827-4.88089 2.72794-6.83479 3.18207-6.83479 0.49476 0 0.44309 0.26166-0.96806 4.90157-0.71489 2.3506-1.223 4.34209-1.12914 4.42553 0.27889 0.24791 10.05032-5.56184 15.56033-9.25162 5.55847-3.72224 11.8574-9.07532 11.8574-10.0769 0-0.19824-1.4317-2.99492-3.18155-6.21484-3.81252-7.01546-5.91179-11.85921-6.90557-15.9336-0.12961-0.53137-0.7926-1.50321-1.47331-2.15967l-1.23766-1.19356 1.27314-5.32747c0.70023-2.9301 1.27314-5.38632 1.27314-5.45826 0-0.39612 0.95599-0.0383 1.36257 0.50998 0.26134 0.35241 2.81044 3.3228 5.66467 6.60085 5.43165 6.23821 6.26667 7.35808 5.98059 8.02077-0.14251 0.33014-0.54878 0.27675-2.26576-0.29773-1.15066-0.38499-2.0921-0.57185-2.0921-0.41524s0.73808 1.72074 1.64018 3.47582c3.84272 7.47622 5.13521 12.40418 4.48763 17.11022-0.69069 5.01934-2.8587 10.24545-5.56861 13.42339-3.80577 4.46309-12.65903 10.969-24.02624 17.65593-1.54177 0.90697-2.80323 1.75758-2.80323 1.89025 0 0.5431 2.29383 2.44382 3.73879 3.09805 2.04955 0.92796 6.35411 1.12013 9.40088 0.41969 10.31973-2.37249 30.76213-16.69168 38.21729-26.76988l0.84295-1.13954-1.12548-3.98656c-2.98855-10.58569-5.79003-17.66034-11.84077-29.90178-1.54839-3.13261-2.80341-5.89018-2.78893-6.12792 0.0477-0.78293 2.38411-7.8202 2.693-8.11122 0.45878-0.43226 1.29709 0.69693 3.59414 4.84131 5.54668 10.00737 9.2721 20.44779 13.36281 37.44894 4.17327 17.34435 8.39132 24.93783 16.59864 29.88148 1.89176 1.13949 4.51377 2.40123 4.67084 2.24766 0.0512-0.05 0.25721-1.20125 0.45774-2.55815 0.66994-4.53329 2.58058-8.44282 5.21072-10.66214 2.63587-2.22418 7.32495-4.26193 16.59119-7.21014 2.54892-0.81099 4.68675-1.52106 4.75073-1.57792 0.0639-0.0569-4.40025-0.0398-9.92049 0.0379-10.49381 0.14768-33.75176-0.2455-34.12456-0.5769-0.29923-0.26599 0.8127-5.41852 1.55435-7.20262 0.81983-1.97217 2.64167-4.42242 4.89888-6.58867 5.506-5.28412 17.44811-12.99983 27.2807-17.62586 1.83082-0.86137 3.32877-1.63831 3.32877-1.72655 0-0.0883-0.57597-1.04846-1.27993-2.13384-1.74303-2.68741-2.35973-4.69434-2.16933-7.05969 0.26601-3.3049 2.51053-6.63261 5.20854-7.72214 4.54901-1.83702 14.0317 1.44949 20.18599 6.99605 3.38847 3.05386 3.31502 2.74585 1.84224 7.72551l-1.25369 4.23889-3.96905 0.7875c-2.18298 0.43313-5.66726 1.25868-7.74285 1.83456l-3.7738 1.04704v2.39776c0 2.90009-0.37224 2.98926-1.75093 0.41943-1.12127-2.09002-0.67643-2.10679-6.18293 0.233-8.097 3.44052-18.44384 9.45334-25.18211 14.634l-1.87999 1.4454 10.20958 0.15969c14.87355 0.23263 51.04313-0.38185 59.46631-1.01026 1.32965-0.0992 1.84375-0.0396 1.84795 0.21418 3e-3 0.19339-0.72507 2.15029-1.61838 4.34867l-1.62419 3.99706-5.50983 1.38244c-12.34912 3.09842-35.51937 10.55308-42.99301 13.83232-2.63182 1.15476-5.13748 2.48083-6.06378 3.20913l-1.57861 1.24116 0.98393 1.26391c1.89503 2.43426 4.28596 3.83844 10.91996 6.41326 2.55834 0.99296 4.78326 1.92247 4.94426 2.0656 0.31864 0.28323-0.0335 9.74311-0.36147 9.71001-0.10688-0.0108-1.41975-0.3364-2.91747-0.72358zm11.12154-73.8741c2.6052-0.78544 4.95023-1.49762 5.21117-1.5826 1.20711-0.39312-7.74094-4.35197-10.38487-4.59454-2.15939-0.19811-3.38224 0.0559-3.39326 0.70468-7e-3 0.40391 3.53377 6.89913 3.76142 6.90023 0.0379 1.8e-4 2.20034-0.64232 4.80554-1.42777zm206.41283 70.732c8e-3 -1.11865 0.96124-3.65184 1.74044-4.62533l0.81502-1.01824-0.70943-0.23328c-2.21791-0.72932-4.09242-2.99188-4.09242-4.9396 0-1.41681 2.57452-5.5337 4.53652-7.25436 1.61969-1.42043 3.93387-2.53522 5.26293-2.53522 2.2133 0 4.47001 2.03759 4.4126 3.98414-0.0368 1.24788-0.97659 3.90104-1.47966 4.17743-0.19459 0.1069-0.57599-0.11586-0.84763-0.49502-0.92074-1.28531-2.60806-2.51698-3.6968-2.69854-0.80948-0.13499-1.58388 0.0185-3.05562 0.6056-1.80627 0.72059-1.95434 0.84657-1.7685 1.5048 0.55622 1.97008 2.28702 3.08245 5.22013 3.35497 2.6035 0.24189 4.71964-0.37303 8.39558-2.43963 1.67394-0.94107 3.22372-1.71498 3.44397-1.71978 0.43667-0.01 0.51804 1.17231 0.19885 2.88824-0.18421 0.99037-0.50301 1.22696-6.00339 4.45565-3.19485 1.87536-7.10633 4.27195-8.69216 5.32577-3.35522 2.22961-3.68558 2.37883-3.68043 1.6624zm-412.39651-0.68083c-3.94744-0.59073-8.96974-2.7503-12.32901-5.30143-5.11825-3.88696-8.8256-9.99386-10.18375-16.77508-1.05264-5.2559-0.58113-13.63639 1.1768-20.9161 1.46753-6.07717 4.82654-13.67412 6.1477-13.90405 0.76907-0.13384 0.69549 0.36407-0.87686 5.93369-3.16254 11.20247-3.47478 16.93105-1.26275 23.16766 2.93669 8.2797 9.32529 13.94937 18.20658 16.15769 1.08607 0.27005 3.35548 0.39788 7.04811 0.397 6.48265-8.9e-4 10.17516-0.5729 17.46012-2.70164 11.39742-3.33044 22.4484-9.51161 28.50848-15.94571l1.26861-1.34691-0.46317-6.9468c-0.60536-9.07947-1.41494-19.23292-1.62788-20.41611l-0.16896-0.93885-1.3268 0.86736-1.3268 0.86735-0.0335 4.34325c-0.0389 5.04513-0.57324 7.48241-2.34072 10.67751-3.22277 5.82586-12.20165 14.05554-21.20904 19.43934-8.65218 5.17149-17.52743 7.368-23.04801 5.70409-6.61176-1.9928-11.04466-7.3249-13.04048-15.68575-0.87441-3.66305-0.80903-10.81509 0.137-14.98545 1.29886-5.72576 4.8641-14.61847 5.86078-14.61847 0.5787 0 0.17455 2.02769-1.11701 5.60434-3.17578 8.79446-3.98506 14.08274-2.91553 19.05175 2.05891 9.56563 11.74512 13.74849 23.55235 10.17077 7.38326-2.23722 16.15036-7.58167 23.55899-14.36162 3.12331-2.85828 7.83717-7.86649 7.83717-8.32654 0-0.0921-0.56237-1.24953-1.24972-2.57203l-1.24971-2.40453-2.45573 0.6932c-3.49962 0.9879-8.26618 1.62754-10.69419 1.4351-3.74999-0.2972-6.85651-2.03731-8.53701-4.78198-2.23139-3.6444-1.07689-10.32112 2.5806-14.92414 1.48192-1.86503 2.69554-2.80526 4.9224-3.81352 2.77065-1.25448 6.20234-0.36882 9.68889 2.50056 2.39331 1.96966 4.34314 4.20435 5.90257 6.76493 0.66105 1.08541 1.23919 2.01795 1.28476 2.0723 0.11641 0.13882 4.28177-1.70435 4.47291-1.97927 0.25371-0.36491-3.6829-45.52809-4.84606-55.59695-0.38365-3.32099-0.7175-4.79418-1.56301-6.89704l-1.07516-2.67401 2.35331-5.02498c1.29431-2.76373 2.43545-5.098 2.53586-5.18725 0.1004-0.0892 0.3081-0.0427 0.46154 0.10352 0.65935 0.62818 5.83095 13.45272 7.85896 19.48864 1.58276 4.71072 1.91601 6.23499 1.49026 6.81647-0.39759 0.54305-0.80383 0.2346-3.24821-2.46642-1.17857-1.30231-1.90538-1.90901-1.90519-1.59031 1.8e-4 0.2834 0.93623 10.95968 2.08013 23.72506 1.14388 12.76539 2.08082 23.52581 2.08207 23.91203 2e-3 0.6528 0.12068 0.60059 1.68422-0.74172 2.18309-1.87419 3.06792-2.38115 4.15599-2.38115 1.03725 0 1.07299 0.20142 0.42697 2.40618-0.92685 3.16316 0.38627 6.49065 3.23181 8.18945 1.4517 0.86667 4.41174 1.65002 6.23493 1.65002 1.78379 0 5.05099-1.00369 6.91382-2.12395 2.37366-1.42748 4.33201-3.25648 7.72927-7.21883 3.36525-3.92502 5.62288-5.5963 6.281-4.64973 0.0943 0.13564-0.25475 1.32105-0.7757 2.63424-1.16221 2.92971-1.17597 3.45649-0.13856 5.30705 1.93131 3.44514 8.12751 4.84922 12.59224 2.85345 2.20152-0.9841 2.25645-1.2491 0.73174-3.53048l-1.32332-1.98007 1.29275-4.26052c1.69446-5.58438 1.53216-5.23208 2.09637-4.5505 0.78626 0.94979 2.02789 4.86979 2.35633 7.4392 0.62173 4.86392-1.53894 11.44258-4.86371 14.80866-2.42438 2.45452-6.63444 3.22508-10.00366 1.83096-2.32748-0.96306-4.68504-3.20831-6.08443-5.7946-0.65346-1.20768-1.32335-2.12146-1.48866-2.03064-0.16531 0.0908-1.52398 1.62027-3.01927 3.3988-4.26921 5.07787-7.10552 6.93772-11.52884 7.55978-7.32991 1.03081-12.54714-2.16299-14.06454-8.6098-0.5117-2.17399-0.68942-2.50693-1.33819-2.50693-0.31674 0-0.41845 0.20686-0.31504 0.64076 0.42805 1.79603 0.90734 11.50986 0.90984 18.43969 3e-3 8.6341-0.50363 13.67422-1.84873 18.38775-0.97773 3.42621-2.19248 5.43345-5.31932 8.78959-7.67979 8.24296-22.19519 15.66125-36.01082 18.40381-5.26573 1.04531-12.93649 1.42159-16.89716 0.82886zm37.80124-63.39673c0.92506-0.0988 1.68194-0.28952 1.68194-0.42388 0-0.43655-2.36701-2.58688-3.62397-3.29222-2.45131-1.37555-5.8472-1.13564-7.41828 0.5241-1.13429 1.19829-1.03759 1.77762 0.38997 2.33618 2.42834 0.95012 5.41677 1.23523 8.97034 0.85582zm291.8732 63.02156c-3.91113-0.9717-8.4564-5.23861-10.98885-10.31591-2.27942-4.56998-3.54744-12.08095-3.26568-19.34391 0.25229-6.50288 1.45003-11.40978 2.547-10.43464 0.24483 0.21762 0.21958 1.76141-0.0877 5.36211-0.48936 5.73561-0.16889 10.63531 0.97214 14.86226 1.21297 4.49348 4.7064 9.22269 7.79437 10.55149 2.6112 1.12366 5.92926 0.65054 8.86289-1.26372 3.3112-2.16066 6.19542-6.39657 12.01146-17.6407 4.48113-8.6633 7.72301-13.67605 11.08366-17.13796 1.99404-2.0541 5.36708-4.62538 7.08826-5.40337 5.80858-2.62557 9.94717-0.70439 14.78932 6.86538 5.97101 9.33448 9.97757 12.46513 16.93644 13.23382 5.89239 0.65088 14.96341-1.06118 20.27038-3.82582l1.48978-0.7761-0.21199-3.03442c-0.36662-5.24764-1.36297-17.41327-3.21925-39.30806l-1.79573-21.18014-2.4829-2.59923c-10.48452-10.97584-18.11686-20.46083-21.82376-27.12113-1.05546-1.89638-2.49589-4.03056-3.201-4.74261l-1.28198-1.29465v-5.58077c0-3.08348 0.12798-5.58075 0.28599-5.58075 0.373 0 16.82264 14.04479 18.55958 15.84628 2.41789 2.50773 1.61838 2.95739-2.79176 1.57011-1.41574-0.44533-2.48122-0.66959-2.36778-0.49836 0.91683 1.38381 12.43246 14.2748 13.36903 14.96576 0.46278 0.34139 0.49596 0.22788 0.3385-1.15751-0.096-0.84483-0.47148-4.531-0.83433-8.19148-0.60915-6.14546-0.74371-6.85108-1.75582-9.20867-0.60287-1.40428-1.09611-2.71511-1.09611-2.91293 0-0.6367 4.63427-10.22098 4.95438-10.24634 0.95486-0.0756 9.78259 23.0756 9.78259 25.65537 0 1.51248-0.73005 1.16512-3.08495-1.4678-1.18806-1.32833-2.19924-2.38038-2.24704-2.3379-0.0478 0.0425 0.26453 3.85255 0.69405 8.4668 0.42952 4.61424 0.78378 8.64736 0.78724 8.96247 3e-3 0.32866 3.29861 4.03235 7.72743 8.68589 4.24665 4.4621 8.1267 8.56145 8.62234 9.10966 0.49565 0.5482 0.96287 0.93266 1.03826 0.85435 0.19763-0.20525-2.57231-31.69184-3.46169-39.35-0.36227-3.11941-0.67912-4.43272-1.59188-6.59864l-1.13955-2.70411 2.37797-5.06652c1.30788-2.78658 2.52518-5.11013 2.70513-5.16344 0.54992-0.16295 5.59727 12.03464 8.24749 19.93115 1.3828 4.12017 1.75232 6.27599 1.13397 6.61569-0.26373 0.14489-2.37518-1.87974-4.44618-4.26339l-0.73822-0.84969 0.1813 1.85109c0.0997 1.01809 0.75831 8.77131 1.46351 17.22936 0.70522 8.45805 1.48654 17.77126 1.73627 20.69601l0.45403 5.31774 5.32251 6.07358c8.2678 9.43448 11.8937 14.33683 15.39399 20.81317 3.66431 6.77987 5.27753 12.94679 5.27753 20.1746 0 2.33389-0.13013 4.24345-0.28916 4.24345s-0.59884-0.92911-0.97732-2.06468c-2.50625-7.51965-7.99481-17.00736-14.2092-24.56252-4.11869-5.0073-9.03989-10.36982-9.13872-9.95831-0.0584 0.2431 0.2093 3.96743 0.59487 8.27628 0.944 10.54895 0.80659 17.0045-0.46611 21.90162-1.26033 4.84946-2.36468 7.83153-2.9002 7.83153-0.54387 0-0.7145-1.08324-0.98687-6.26523-0.11114-2.11451-0.88428-11.95064-1.71811-21.85805-1.3953-16.5784-1.5674-18.06446-2.16056-18.65328-0.35446-0.35189-4.04328-4.17141-8.19736-8.48783-4.15409-4.31643-7.77599-8.01264-8.04872-8.21383-0.43893-0.32383-0.47731-0.20761-0.33459 1.01325 0.44887 3.83934 2.7313 30.63422 3.05276 35.83776 0.42779 6.92554 0.21173 14.66093-0.5018 17.96476-0.61619 2.85323-2.08553 6.76576-3.26314 8.68907-1.20987 1.976-3.55091 3.77014-6.65343 5.09909-8.45639 3.62229-19.45197 4.08959-25.42371 1.08049-2.9801-1.50167-6.48408-5.28544-10.55671-11.39973-5.83237-8.7563-9.80585-9.93-16.47439-4.86632-4.568 3.46864-7.35736 7.64796-12.51126 18.74572-4.5956 9.8956-6.81348 13.42962-10.10771 16.10593-2.92611 2.37726-6.03498 3.21215-9.11324 2.44736zm-75.35365-11.62707c-0.0845-0.36355-0.2412-2.39106-0.34823-4.50556-0.10704-2.11451-0.97569-13.26377-1.93034-24.77612-0.95465-11.51234-2.09938-25.48094-2.54383-31.04133-0.44446-5.56038-0.89024-10.7704-0.99061-11.57781-0.17685-1.42256-0.36662-1.65629-6.12718-7.54675-19.88357-20.33194-29.03966-31.06899-33.5972-39.39831-1.0971-2.00503-2.18131-3.53782-3.01213-4.25835l-1.29806-1.12573v-5.62105c0-3.09158 0.10813-5.67803 0.24028-5.74767 0.29437-0.15512 16.48634 13.59497 18.49772 15.70811 1.55728 1.63607 1.86112 2.61099 0.81373 2.61099-0.34733 0-1.78899-0.3755-3.20369-0.83446-1.41469-0.45895-2.57217-0.77314-2.57217-0.69821 0 1.07964 28.58447 31.55068 28.78689 30.68681 0.11933-0.50934-0.0858-3.04186-1.43711-17.74119-0.79452-8.64267-0.85998-9.03591-1.91221-11.48694-0.59924-1.39585-1.08953-2.74451-1.08953-2.99703 0-0.78709 4.55396-10.31381 4.92989-10.31316 0.93102 2e-3 9.80709 23.37574 9.80709 25.82588 0 1.46608-1.55738 0.42862-4.23404-2.82053-0.73752-0.89526-1.37159-1.6001-1.40905-1.56631-0.0374 0.0338 0.4611 6.53314 1.10791 14.44299l1.17599 14.38153 6.22806 6.55001c7.12491 7.49324 16.39844 17.76509 19.95405 22.10218 7.17268 8.74911 11.91097 17.17027 13.92164 24.74242 0.64861 2.44264 0.8268 4.01183 0.96995 8.54118 0.16163 5.11354 0.1343 5.51849-0.34837 5.16242-0.28805-0.21251-0.52371-0.56099-0.52371-0.77441 0-0.76604-2.33004-6.55831-3.86137-9.5991-3.95788-7.85909-10.05655-15.95049-20.86779-27.68626-5.38537-5.84594-14.12298-14.95884-14.24164-14.85337-0.10512 0.0934 1.21198 16.13306 2.79896 34.08562 1.21196 13.71001 1.17534 18.80758-0.17585 24.47459-0.9786 4.10435-2.40494 8.05174-2.96579 8.20778-0.21376 0.0595-0.45778-0.18932-0.54226-0.55286zm69.8285-9.68825c-0.11835-2.08339-0.85257-11.47711-1.63155-20.87495-0.77897-9.39784-2.21692-26.76246-3.19541-38.58808-1.88662-22.80102-3.47677-40.81381-3.99728-45.28047-0.21727-1.86462-0.66691-3.54029-1.44672-5.39169l-1.13148-2.68623 1.00269-2.15507c3.12225-6.71062 3.90257-8.2779 4.12145-8.2779 0.52268 0 6.68481 15.35028 8.67969 21.62169 0.51931 1.63263 0.94422 3.4588 0.94422 4.05816 0 1.74293-0.38768 1.54124-3.36657-1.75156l-2.18395-2.41413 0.20811 2.27174c0.11447 1.24945 1.29362 15.47142 2.62036 31.60437 1.32675 16.13295 2.84238 34.17019 3.36808 40.08277 1.29932 14.61335 1.24191 17.3785-0.50478 24.31858-1.13061 4.49216-2.11574 7.061-2.74764 7.16474-0.45515 0.0748-0.55229-0.41164-0.73922-3.70197zm-257.11438 1.81037c0-0.13183 2.74439-3.04729 6.09864-6.47881 6.56529-6.71651 8.82873-9.25621 10.63652-11.93477 1.62444-2.40689 1.6232-2.41675-0.36176-2.88047-4.60152-1.075-6.07617-3.04421-5.42913-7.24994 0.68736-4.46775 4.2908-8.23809 7.87345-8.23809 2.34828 0 3.6718 1.61629 4.30955 5.26285 0.82805 4.73456-1.7603 11.98605-6.55764 18.37188-3.59122 4.78031-16.56963 15.07819-16.56963 13.14735zm19.57846-28.0537c-0.39715-1.90974-1.11901-2.97759-2.17156-3.21242-0.91385-0.20389-3.60284 0.63738-3.84729 1.20365-0.22635 0.52434 0.81374 2.05673 1.87176 2.75772 1.00307 0.66458 3.8337 1.3796 4.21493 1.06469 0.14519-0.11993 0.11466-0.93607-0.0679-1.81364zm-86.31612 6.7211c-0.0763-0.11747-0.2372-2.00771-0.35759-4.20055-0.12038-2.19283-0.78729-10.74977-1.48203-19.01542-0.69475-8.26567-1.26317-15.29695-1.26317-15.62507 0-0.50126-0.14079-0.57003-0.88101-0.43042-7.66494 1.44572-12.67731 0.46451-16.53166-3.2362-5.70575-5.47833-6.70015-13.35915-3.58017-28.37338 0.44529-2.14278 0.8096-4.34351 0.8096-4.89049 0-0.99282-1e-3 -0.99361-0.67394-0.45237-2.53618 2.04026-4.13144 6.59169-7.80596 22.27126-1.94833 8.31375-3.72274 11.62065-7.0511 13.14094-1.9444 0.88813-4.56016 0.96338-6.23205 0.1793-1.97987-0.92851-4.1171-3.19314-5.61955-5.9545-2.44369-4.49127-3.40765-10.65135-2.74639-17.55048 0.62337-6.50382 2.38913-13.39475 3.43232-13.39475 0.42149 0 0.4748 0.23246 0.31019 1.35271-1.41253 9.61315-1.63463 16.17174-0.68714 20.29078 0.6207 2.6983 2.19075 5.72376 3.57601 6.89088 1.03958 0.87588 2.93945 1.65261 4.04227 1.65261 0.41167 0 1.39256-0.3631 2.17976-0.80687 2.50253-1.41077 3.94671-4.55714 6.23076-13.57467 2.92844-11.56161 4.42471-15.85634 7.09402-20.36196 3.31355-5.59304 6.70813-7.97802 8.18723-5.75223 1.25004 1.88109 1.07816 4.92586-0.9068 16.06342-1.32254 7.42079-1.62737 11.24258-1.12481 14.10247 1.06355 6.05227 4.32267 8.90126 10.71966 9.37069 2.00934 0.14746 5.80429-0.21606 6.23287-0.59704 0.16209-0.14409-1.79122-22.41412-2.87176-32.74146-0.59095-5.64807-0.75783-6.48939-1.74183-8.78149-0.59855-1.39424-1.08827-2.72712-1.08827-2.96195 0-0.80645 4.60384-10.35822 4.94397-10.25744 1.04947 0.31098 9.79301 23.27575 9.79301 25.7212 0 1.55286-0.85493 1.04098-3.7912-2.26997-0.81143-0.91498-1.5285-1.52178-1.5935-1.34847-0.12829 0.34213 2.08651 27.45904 2.37131 29.03316l0.17374 0.96023 0.98249-0.81784c1.58083-1.31591 3.68571-4.41121 4.64565-6.8316 0.84873-2.14 0.88996-2.48455 0.88205-7.37102-0.0119-7.36352-1.14707-13.31826-3.88893-20.40059l-1.17259-3.02883 1.70741-4.23313c0.93908-2.32823 1.81536-4.343 1.94728-4.47729 0.35822-0.36462 0.76143 0.46113 2.55071 5.22376 2.5049 6.66743 3.68353 11.18143 5.10619 19.55593 2.65124 15.6066 4.41312 19.17338 10.82896 21.92239 1.57441 0.6746 2.24786 0.78895 4.71977 0.80144 2.00274 0.0101 3.44814-0.15014 4.73278-0.52481 2.19698-0.64077 4.7181-2.47209 4.7181-3.42719 0-0.95176-0.92788-3.18651-3.43748-8.27907-3.88211-7.87768-6.18844-14.53633-7.15132-20.64676-0.24739-1.56995-0.76185-3.16035-1.46388-4.52544-0.59535-1.15762-1.08245-2.33218-1.08245-2.61011 0-0.58382 3.15038-8.84489 3.49893-9.17508 0.22486-0.213 1.04882 0.91401 7.12545 9.74624 2.57793 3.74696 3.35746 5.42526 2.51988 5.42526-0.17117 0-1.12619-0.32038-2.12226-0.71195-0.99606-0.39158-1.94-0.71197-2.09763-0.71197-0.41875 0-0.15836 0.79363 2.99015 9.11306 5.05862 13.36657 6.06168 18.06665 4.92453 23.07515-2.19037 9.64742-8.61103 14.41054-17.21444 12.77039-6.69229-1.27581-11.66268-6.27074-13.85502-13.92339-0.42531-1.48462-0.84913-2.50709-0.94181-2.27214-0.0927 0.23495-0.46696 1.40221-0.83174 2.59391-1.32278 4.32134-3.91292 8.91814-6.45196 11.45044l-1.53663 1.53255 0.96773 10.65125c1.16721 12.84687 1.13288 17.98064-0.15666 23.42336-1.47286 6.2164-2.79885 9.32568-3.51005 8.23061zm397.21927-0.11871c-0.0768-0.20881-0.20862-3.00679-0.293-6.21771-0.15727-5.9836-0.51096-7.96093-1.95432-10.92518-1.78414-3.66416-6.01223-7.67547-10.55475-10.01362l-1.56817-0.80719 0.21077-3.7021c0.11594-2.03616 0.27539-3.75953 0.35433-3.82971 0.079-0.0701 1.19436 0.45681 2.47869 1.17111 8.30268 4.61764 12.61831 11.39132 13.71862 21.53233 0.42981 3.96146 0.0342 9.01343-0.89908 11.48174-0.54784 1.44892-1.22404 2.04234-1.49309 1.31033zm-455.58402-9.06311c-0.29111-0.4187 2.31528-4.39493 3.94012-6.01093 1.7849-1.77517 4.23791-3.19219 10.14982-5.86326 4.70328-2.12498 26.16597-10.52547 27.68682-10.83661 0.76698-0.15691 0.76534-0.14854-0.29851 1.52148-0.58836 0.9236-1.58415 2.43027-2.21288 3.34816l-1.14315 1.66891-12.01383 4.61235c-13.43357 5.1574-19.37767 7.74971-22.85463 9.96722-3.0673 1.95623-3.01783 1.93201-3.25376 1.59268zm219.57933-14.239c-1.50289-0.7061-3.03447-2.27568-3.538-3.62577-0.23413-0.62778-0.43424-2.91381-0.48055-5.48985-0.0436-2.42778-0.17513-4.93792-0.2922-5.57812-0.23455-1.28258 0.1863-2.25366 1.64412-3.79374 1.64747-1.74042 2.4139 0.1775 1.60479 4.01581-0.9503 4.50812-0.56973 7.49912 1.13939 8.95468 0.73067 0.62227 1.28575 0.80134 2.75729 0.88953 1.62289 0.0973 2.02387 7e-3 3.36487-0.75907 2.01067-1.14833 2.79984-2.33399 2.80136-4.20884 1e-3 -1.64077-0.65657-4.68865-1.42909-6.62058-0.48055-1.20176-0.47089-1.33488 0.20135-2.77664 0.38836-0.83289 0.81338-1.51434 0.9445-1.51434 0.49349 0 1.49271 3.10623 2.01541 6.26522 0.71572 4.32555 1.265 5.75931 2.60795 6.80746 2.38131 1.85857 6.55362 1.33613 6.55362-0.82064 0-0.41782-0.64958-1.94608-1.44352-3.39611-2.12931-3.88896-2.29723-4.70224-1.47046-7.12186 0.61929-1.81239 1.12335-2.5664 1.49487-2.23614 0.0771 0.0685 0.29352 0.86228 0.48104 1.76396 0.18751 0.90168 0.83502 2.60318 1.43889 3.78111 2.22068 4.33168 2.47717 6.0212 1.32106 8.70206-1.28367 2.97669-4.16428 5.33539-6.51598 5.33539-1.40743 0-3.63668-1.13036-4.5522-2.30822-0.46493-0.59817-0.92674-1.09242-1.02626-1.09837-0.0995-6e-3 -0.41853 0.43209-0.70892 0.97339-0.29039 0.54131-1.06413 1.51173-1.71942 2.15649-2.23111 2.19526-4.83463 2.81165-7.19391 1.70319zm207.50092-13.34415c-0.15887-0.22849 0.35218-3.1384 0.59525-3.38949 0.1894-0.19563 30.74052-10.03852 31.15835-10.03852 0.39847 0 0.44503 0.24408 0.25799 1.35272-0.12548 0.74399-0.35061 1.55612-0.50028 1.80474-0.16141 0.26812-6.43708 2.45651-15.42619 5.37926-8.33472 2.70999-15.31969 4.98225-15.52211 5.04947-0.20243 0.0672-0.45578-4e-3 -0.56301-0.15818zm-218.68433-7.75729c-6.66956-0.64302-11.36912-5.02017-13.16772-12.26436-1.1809-4.75629-0.85647-10.43052 1.14783-20.07574 1.23086-5.92324 1.04423-6.75451-0.90165-4.01597-2.20673 3.10566-3.46147 6.81893-5.9903 17.72773-2.33449 10.07043-3.3218 12.67558-5.68793 15.00844-1.50473 1.48357-3.28263 2.20669-5.44515 2.21467-2.10613 8e-3 -3.56653-0.63121-5.62142-2.45963-1.79769-1.59954-4.03604-5.49332-4.80342-8.35587-1.66707-6.21864-1.36084-15.09959 0.78557-22.78262 0.78464-2.80859 1.478-4.17618 1.91871-3.78442 0.18838 0.16746 0.0422 2.07591-0.38977 5.08761-0.96453 6.72511-0.9675 14.15343-7e-3 17.32641 0.91244 3.01397 2.47706 5.48832 4.22062 6.67467 1.30498 0.88794 1.53892 0.94667 3.31559 0.83244 1.79908-0.11568 1.99096-0.20089 3.26157-1.44843 1.69334-1.66259 2.70566-3.95051 4.18238-9.4524 4.59317-17.11317 5.09339-18.56915 8.18512-23.82451 3.65305-6.20949 7.41443-8.13262 8.53066-4.36158 0.54803 1.85145 0.14675 6.03474-1.40614 14.6589-2.22708 12.36838-1.66825 17.78314 2.17775 21.10096 2.10766 1.81822 3.76329 2.34516 7.77944 2.47601 6.70271 0.21835 11.41683-1.62724 14.74445-5.77249 3.74292-4.6626 4.64597-9.33436 3.52419-18.23165-0.7103-5.63366-2.21629-11.47046-3.99395-15.47945-0.36245-0.81742-0.65716-1.70574-0.65489-1.97405 6e-3 -0.76264 3.36155-8.6996 3.72274-8.80661 0.4072-0.12066 3.6328 8.39416 5.07573 13.39874 0.60033 2.08212 1.61303 6.917 2.25047 10.74418 1.18681 7.1257 2.32595 12.32651 3.15034 14.38314 1.97902 4.93714 5.57324 7.99547 10.53474 8.96407 1.44254 0.28161 2.32303 0.28547 4.14373 0.0182 3.67144-0.53898 7.32458-2.46559 7.31636-3.85855-6e-3 -0.98616-0.7963-2.981-2.67893-6.7605-4.68184-9.39906-7.25625-16.69312-8.07357-22.87484-0.12426-0.93978-0.71041-2.69059-1.30254-3.8907-0.59213-1.2001-1.07661-2.40678-1.07661-2.68151 0-0.68058 3.31055-9.22765 3.57536-9.23076 0.20611-3e-3 2.24806 2.87408 7.36563 10.37596 2.15675 3.16158 3.01589 4.99984 2.33676 4.99984-0.0978 0-1.179-0.37874-2.40276-0.84165-1.64077-0.62066-2.22503-0.73896-2.22503-0.4505 0 0.21514 1.44388 4.21418 3.20862 8.88677 5.81394 15.39388 6.46016 19.49348 4.09998 26.00976-3.03307 8.37402-9.86736 11.89191-18.17554 9.35569-2.67366-0.81619-4.20547-1.73679-6.52204-3.9197-2.56026-2.41255-4.43004-5.63513-5.45706-9.40532-0.65437-2.40219-1.18163-3.30686-1.18163-2.02744 0 1.09192-2.25104 6.63281-3.72592 9.17124-2.58171 4.44342-6.53547 7.59753-11.05252 8.81714-2.57938 0.69644-6.19401 1.0317-8.61092 0.79869zm-69.3928-1.23726c-1.33479-0.51646-2.60102-1.73659-3.41881-3.29432-0.54084-1.0302-0.67386-1.84005-0.67824-4.12936-6e-3 -3.24996 0.37636-4.56623 3.19555-10.99411 0.96291-2.19544 2.01277-4.84201 2.33303-5.88125 0.32026-1.03923 0.76873-1.94476 0.99661-2.01228 0.64241-0.19035 0.137 2.64775-1.1828 6.64198-2.51811 7.6207-2.86147 10.05296-1.72877 12.24566 0.81375 1.57524 1.687 2.17844 3.40257 2.35033 1.23776 0.12401 1.59667 0.0405 2.28729-0.53205 0.88613-0.73468 2.13718-2.76689 2.47804-4.02535 0.37385-1.38028 0.9355-0.91989 0.69482 0.56957-0.84638 5.23791-2.83774 8.50168-5.60401 9.1848-1.42797 0.35264-1.55957 0.34677-2.77528-0.12362zm302.52026-2.36878c-0.0778-0.11748-0.24034-0.66213-0.36128-1.21033-0.78746-3.56987-3.0988-8.99982-5.05914-11.8853-1.00743-1.4829-1.01618-1.48786-1.66886-0.94431-0.64327 0.5357-0.69065 0.53602-2.41478 0.0163-2.00199-0.60348-3.84782-2.16151-3.84782-3.24785 0-0.38019 0.47228-1.50342 1.04955-2.49604 1.22673-2.10945 1.68777-2.26385 4.05587-1.35827 2.25415 0.86199 4.81714 3.39394 6.4103 6.33268 1.2289 2.26688 2.90088 6.8311 2.90088 7.91899 0 0.29573 0.12231 0.53771 0.27183 0.53771 0.14949 0 0.44211-1.12134 0.65029-2.49186 0.79524-5.23601 1.73159-9.69279 2.47757-11.79301 1.63981-4.6167 4.15198-5.18559 7.30886-1.65511 1.32227 1.47875 1.36407 1.76911 0.50968 3.54087-0.68585 1.42232-1.08111 1.45687-2.35474 0.20585-0.92472-0.90832-2.26774-1.30118-3.09791-0.90624-1.44557 0.6877-1.91814 2.32509-3.36993 11.67558-0.58935 3.79589-1.28654 6.42308-1.94608 7.33315-0.45573 0.62885-1.23518 0.84874-1.51429 0.42718zm-119.00943-3.67987c-3.12091-1.36724-4.47027-4.70111-4.118-10.1742 0.13498-2.09713 0.0789-3.44189-0.16889-4.05107-0.44182-1.08606 0.2025-2.86472 1.51868-4.19239 1.62565-1.63985 2.39319-0.1806 1.77263 3.3702-0.21926 1.25461-0.4778 3.12901-0.57455 4.1653-0.53444 5.72453 4.22371 8.39124 8.64487 4.84503 2.41578-1.93768 2.51883-2.86077 0.96357-8.62813-0.81889-3.0366-0.81899-3.03868-0.21602-4.34187 0.3318-0.7171 0.71948-1.30431 0.86154-1.30489 0.5624-3e-3 1.47594 2.57818 1.96559 5.5522 0.75139 4.56402 1.33392 6.18694 2.6177 7.29302 0.95633 0.82395 1.34193 0.95321 3.14852 1.05547 1.87711 0.10625 2.13196 0.0514 2.88886-0.62139 1.02874-0.91447 0.93186-1.37005-1.03748-4.87902-1.81703-3.23763-2.08066-5.1686-1.04014-7.61819 0.95736-2.25375 1.26267-2.17887 1.75821 0.4312 0.11198 0.58958 0.87016 2.44778 1.68493 4.12935 2.21848 4.57868 2.22256 6.7727 0.0186 10.01122-2.21045 3.24798-5.18453 4.26169-8.07913 2.75377-0.79907-0.41627-1.80362-1.21571-2.2323-1.77654l-0.77949-1.01968-0.6681 1.16411c-2.06554 3.59908-5.80457 5.20551-8.92952 3.8365zm194.94038-15.6557c-0.12113-0.10768-0.22025-2.33624-0.22025-4.95233 0-5.12344-0.49664-8.54757-1.63046-11.24133-1.54242-3.6646-5.66566-7.93318-10.15883-10.51694l-2.30695-1.32658 3e-3 -1.7661c4e-3 -2.9202 0.37765-5.61066 0.77971-5.61066 0.77206 0 5.22884 2.86885 7.14663 4.60031 5.25543 4.74483 7.8494 10.08701 8.72202 17.96271 0.67922 6.13023-0.79067 14.22294-2.33415 12.85092zm-185.8551-6.12882c-0.0778-0.20881-0.20719-3.00678-0.28747-6.2177-0.15006-6.00241-0.49468-7.91883-1.9687-10.94819-1.5651-3.21663-5.35279-6.93073-9.5385-9.35325l-2.56488-1.48445 0.22179-3.55344c0.122-1.95439 0.28827-3.61251 0.36948-3.6847 0.30951-0.27512 2.97982 1.11876 5.3478 2.79147 6.37044 4.50004 9.82735 10.77934 10.82898 19.67045 0.44272 3.92955 0.0438 8.93797-0.91359 11.46992-0.54809 1.44953-1.22257 2.04054-1.49491 1.30989zm-115.68656-0.2579c-0.15214-0.21883-0.2912-2.77064-0.30901-5.67069-0.0234-3.81965-0.18419-5.9007-0.58317-7.55108-0.65144-2.69462-2.56518-6.26152-4.462-8.31641-1.75622-1.90257-5.07116-4.44912-7.20595-5.53566l-1.68194-0.85605v-3.66447c0-2.18766 0.13191-3.73694 0.32732-3.84429 0.18002-0.0989 1.08106 0.23058 2.00231 0.73218 6.85465 3.73227 11.24414 9.14598 13.26373 16.35861 0.79754 2.84827 0.87845 3.62375 0.8914 8.54349 0.015 5.69367-0.39859 8.48154-1.42548 9.60882-0.44008 0.4831-0.592 0.51946-0.81721 0.19555zm-87.60657-0.25025c0-0.28941 1.3214-1.70709 8.6641-9.29534 2.56273-2.64842 5.09976-5.32792 5.63786-5.95444 1.08139-1.25908 3.6387-4.97598 3.6387-5.28863 0-0.10917-1.34714-0.96471-2.99365-1.90121-2.46755-1.40346-3.11502-1.92555-3.68424-2.97081-0.80081-1.47048-0.84183-2.12444-0.25593-4.07996 1.06455-3.5531 2.84243-5.77978 5.48983-6.87567 1.988-0.82293 3.03406-0.84144 4.13287-0.0732 1.27432 0.89104 2.09097 2.56102 2.49534 5.10275 0.30322 1.90596 0.27555 2.66664-0.17034 4.68395l-0.53236 2.40845 1.30452 1.08166 1.30451 1.08169-0.8559 2.13393c-0.47075 1.17366-0.97748 2.24909-1.12607 2.38985-0.15554 0.14736-0.75756-0.12448-1.41903-0.64076-0.63189-0.49317-1.21174-0.89668-1.28854-0.89668s-0.52479 0.72367-0.99551 1.60816c-2.24506 4.21853-7.11887 9.48508-12.57978 13.59347-4.58258 3.44761-6.76638 4.70396-6.76638 3.89271zm19.50948-28.37143c-0.40044-1.9264-1.19116-2.80484-2.62257-2.91356-1.1309-0.0859-3.11105 0.58434-3.11105 1.05301 0 0.56383 1.54315 1.89991 3.49965 3.03004 2.43556 1.40685 2.73676 1.24917 2.23397-1.16949zm-122.34793 7.26502c0-0.19295 0.67693-1.45311 1.5043-2.80036 3.96483-6.45614 5.22714-9.65398 5.21641-13.2148-0.0124-4.1347-1.66354-6.03753-5.04587-5.81525-2.16326 0.14217-3.22326 1.0018-4.81855 3.90766-1.35073 2.46041-1.7256 2.06583-0.87111-0.91691 0.98123-3.42512 3.20922-6.78608 5.09242-7.68199 3.13026-1.48917 6.13362-0.4218 7.91853 2.81421 0.65876 1.19434 0.75719 1.79167 0.76555 4.64557 9e-3 3.05864-0.07 3.47925-1.19431 6.36667-1.44077 3.70003-3.42451 7.19368-5.92498 10.43471-1.7517 2.27051-2.64239 3.03247-2.64239 2.26049zm44.05073-7.52546c-0.70966-0.22121-1.81041-0.92373-2.46686-1.5744-1.75244-1.73702-2.23238-3.54223-2.18675-8.22509 0.0207-2.13004-0.057-4.46028-0.17286-5.17832-0.22649-1.40396 0.12123-2.2324 1.5952-3.80057 0.63652-0.67719 0.87165-0.76986 1.24832-0.49198 0.7647 0.56415 0.87346 1.90352 0.36502 4.49529-0.6989 3.56263-0.65798 6.04264 0.12569 7.61747 1.7118 3.43995 6.4616 3.2262 9.29462-0.41829 0.67916-0.87369 0.73644-1.18298 0.57523-3.10618-0.0985-1.17473-0.54236-3.24792-0.98642-4.60711l-0.80738-2.47125 0.67533-1.44452c0.37143-0.79448 0.77713-1.44452 0.90157-1.44452 0.61412 0 1.40945 2.49123 2.0911 6.55 0.27621 1.64463 0.64756 3.47249 0.82522 4.0619 0.81733 2.71156 4.2904 4.30375 6.90867 3.16722 1.79314-0.77836 1.76987-1.51617-0.16341-5.18102-2.07267-3.92913-2.20809-4.64904-1.34802-7.16613 0.85958-2.51561 1.4126-2.59172 1.9275-0.26526 0.21135 0.95494 0.88218 2.70749 1.49073 3.89455 1.58761 3.0968 2.16255 5.04385 1.93162 6.54151-0.44288 2.87231-2.82576 6.01767-5.29421 6.9883-1.27082 0.4997-1.63651 0.53045-2.85696 0.24029-1.71839-0.40855-3.36083-1.48658-3.97092-2.60635l-0.4581-0.84081-1.2932 1.80314c-1.38459 1.93055-2.80542 3.0419-4.55457 3.56249-1.37004 0.40775-1.80764 0.39482-3.39616-0.10036z" fill="#000000" stroke-width=".302052"/>
 </g>
</svg>
