<svg id="svg2" xmlns="http://www.w3.org/2000/svg" xmlns:xlink="http://www.w3.org/1999/xlink" viewBox="0 0 1024 680.55"><defs><style>.cls-1,.cls-103,.cls-104,.cls-105,.cls-106,.cls-107,.cls-108,.cls-109,.cls-110,.cls-111,.cls-112{fill:red;}.cls-2,.cls-3,.cls-9{fill:#d6b5b5;}.cls-10,.cls-2,.cls-3,.cls-4,.cls-5,.cls-6,.cls-7,.cls-8{stroke:#847373;}.cls-10,.cls-100,.cls-101,.cls-116,.cls-13,.cls-14,.cls-15,.cls-16,.cls-17,.cls-18,.cls-19,.cls-2,.cls-20,.cls-21,.cls-22,.cls-23,.cls-24,.cls-25,.cls-26,.cls-27,.cls-28,.cls-29,.cls-3,.cls-30,.cls-31,.cls-32,.cls-33,.cls-34,.cls-35,.cls-36,.cls-37,.cls-38,.cls-39,.cls-4,.cls-40,.cls-41,.cls-42,.cls-43,.cls-44,.cls-45,.cls-46,.cls-47,.cls-48,.cls-49,.cls-5,.cls-50,.cls-52,.cls-53,.cls-54,.cls-55,.cls-56,.cls-57,.cls-58,.cls-59,.cls-6,.cls-60,.cls-61,.cls-62,.cls-63,.cls-64,.cls-65,.cls-66,.cls-67,.cls-68,.cls-69,.cls-7,.cls-70,.cls-71,.cls-72,.cls-73,.cls-74,.cls-75,.cls-76,.cls-77,.cls-78,.cls-79,.cls-8,.cls-80,.cls-81,.cls-82,.cls-83,.cls-84,.cls-85,.cls-86,.cls-88,.cls-89,.cls-90,.cls-91,.cls-92,.cls-93,.cls-94,.cls-95,.cls-96,.cls-98,.cls-99{stroke-miterlimit:10;}.cls-3,.cls-7{fill-rule:evenodd;}.cls-12,.cls-4,.cls-7{fill:#af9794;}.cls-10,.cls-113,.cls-5,.cls-52,.cls-6,.cls-8{fill:none;}.cls-5{stroke-width:1.43px;}.cls-8{stroke-width:1.46px;}.cls-10{stroke-width:1.63px;}.cls-11{fill:#847373;}.cls-114,.cls-116,.cls-13,.cls-14,.cls-15,.cls-16,.cls-17,.cls-18,.cls-19,.cls-20,.cls-21,.cls-22,.cls-23,.cls-24,.cls-25,.cls-26,.cls-27,.cls-28,.cls-29,.cls-30,.cls-31,.cls-32,.cls-33,.cls-34,.cls-35,.cls-36,.cls-37,.cls-38,.cls-39,.cls-40,.cls-41,.cls-42,.cls-43,.cls-44,.cls-45,.cls-46,.cls-47,.cls-48,.cls-49,.cls-50,.cls-51,.cls-52,.cls-53,.cls-54,.cls-55,.cls-56,.cls-57,.cls-58,.cls-59,.cls-60,.cls-61,.cls-62,.cls-63,.cls-64,.cls-65,.cls-66,.cls-67,.cls-68,.cls-69,.cls-70,.cls-71,.cls-72,.cls-73,.cls-74,.cls-75,.cls-76,.cls-77,.cls-78,.cls-79,.cls-80,.cls-81,.cls-82,.cls-83,.cls-84,.cls-85,.cls-86,.cls-87,.cls-88{stroke:#000;}.cls-13{fill:url(#Gradiente_sem_nome_15);}.cls-14{fill:#083065;}.cls-15{fill:#2048d6;}.cls-16{fill:#207fd6;}.cls-17{fill:url(#Gradiente_sem_nome_84);}.cls-18{fill:url(#Gradiente_sem_nome_84-2);}.cls-19{fill:url(#Gradiente_sem_nome_84-3);}.cls-20{fill:url(#Gradiente_sem_nome_84-4);}.cls-21{fill:url(#Gradiente_sem_nome_84-5);}.cls-22{fill:url(#Gradiente_sem_nome_84-6);}.cls-23{fill:url(#Gradiente_sem_nome_84-7);}.cls-24{fill:url(#Gradiente_sem_nome_84-8);}.cls-25{fill:url(#Gradiente_sem_nome_84-9);}.cls-26{fill:url(#Gradiente_sem_nome_84-10);}.cls-27{fill:url(#Gradiente_sem_nome_84-11);}.cls-28{fill:url(#Gradiente_sem_nome_84-12);}.cls-29{fill:url(#Gradiente_sem_nome_84-13);}.cls-30{fill:url(#Gradiente_sem_nome_84-14);}.cls-31{fill:url(#Gradiente_sem_nome_84-15);}.cls-32{fill:url(#Gradiente_sem_nome_17);}.cls-33{fill:url(#Gradiente_sem_nome_84-16);}.cls-34{fill:url(#Gradiente_sem_nome_84-17);}.cls-35{fill:url(#Gradiente_sem_nome_84-18);}.cls-36{fill:url(#Gradiente_sem_nome_84-19);}.cls-37{fill:url(#Gradiente_sem_nome_84-20);}.cls-38{fill:url(#Gradiente_sem_nome_84-21);}.cls-39{fill:url(#Gradiente_sem_nome_84-22);}.cls-40{fill:url(#Gradiente_sem_nome_84-23);}.cls-41{fill:url(#Gradiente_sem_nome_84-24);}.cls-42{fill:url(#Gradiente_sem_nome_84-25);}.cls-43{fill:url(#Gradiente_sem_nome_84-26);}.cls-44{fill:url(#Gradiente_sem_nome_84-27);}.cls-45{fill:url(#Gradiente_sem_nome_84-28);}.cls-46{fill:url(#Gradiente_sem_nome_84-29);}.cls-47{fill:url(#Gradiente_sem_nome_84-30);}.cls-48{fill:url(#Gradiente_sem_nome_84-31);}.cls-49{fill:url(#Gradiente_sem_nome_84-32);}.cls-50{fill:url(#Gradiente_sem_nome_84-33);}.cls-51{stroke-miterlimit:10;fill:url(#Gradiente_sem_nome_84-34);}.cls-53{fill:url(#Gradiente_sem_nome_84-35);}.cls-54{fill:url(#Gradiente_sem_nome_84-36);}.cls-55{fill:url(#Gradiente_sem_nome_84-37);}.cls-56{fill:url(#Gradiente_sem_nome_84-38);}.cls-57{fill:url(#Gradiente_sem_nome_84-39);}.cls-58{fill:url(#Gradiente_sem_nome_84-40);}.cls-59{fill:url(#Gradiente_sem_nome_84-41);}.cls-60{fill:url(#Gradiente_sem_nome_84-42);}.cls-61{fill:url(#Gradiente_sem_nome_84-43);}.cls-62{fill:url(#Gradiente_sem_nome_84-44);}.cls-63{fill:url(#Gradiente_sem_nome_84-45);}.cls-64{fill:url(#Gradiente_sem_nome_84-46);}.cls-65{fill:url(#Gradiente_sem_nome_84-47);}.cls-66{fill:url(#Gradiente_sem_nome_84-48);}.cls-67{fill:url(#Gradiente_sem_nome_84-49);}.cls-68{fill:url(#Gradiente_sem_nome_84-50);}.cls-69{fill:url(#Gradiente_sem_nome_84-51);}.cls-70{fill:url(#Gradiente_sem_nome_84-52);}.cls-71{fill:url(#Gradiente_sem_nome_84-53);}.cls-72{fill:url(#Gradiente_sem_nome_84-54);}.cls-73{fill:url(#Gradiente_sem_nome_84-55);}.cls-74{fill:url(#Gradiente_sem_nome_84-56);}.cls-75{fill:url(#Gradiente_sem_nome_84-57);}.cls-76{fill:url(#Gradiente_sem_nome_84-58);}.cls-77{fill:url(#Gradiente_sem_nome_84-59);}.cls-78{fill:url(#Gradiente_sem_nome_84-60);}.cls-79{fill:url(#Gradiente_sem_nome_84-61);}.cls-80{fill:url(#Gradiente_sem_nome_84-62);}.cls-81{fill:url(#Gradiente_sem_nome_84-63);}.cls-82{fill:url(#Gradiente_sem_nome_84-64);}.cls-83{fill:url(#Gradiente_sem_nome_84-65);}.cls-84{fill:url(#Gradiente_sem_nome_84-66);}.cls-85{fill:url(#Gradiente_sem_nome_84-67);}.cls-86{fill:url(#Gradiente_sem_nome_84-68);}.cls-87{stroke-miterlimit:9.98;stroke-width:1px;fill:url(#Gradiente_sem_nome_84-69);}.cls-88{fill:url(#Gradiente_sem_nome_84-70);}.cls-100,.cls-101,.cls-89,.cls-98,.cls-99{stroke:#c53400;}.cls-89{fill:url(#Gradiente_sem_nome_82);}.cls-90,.cls-91,.cls-92,.cls-93,.cls-94,.cls-95,.cls-96{stroke:#e5885c;}.cls-90{fill:url(#Gradiente_sem_nome_79);}.cls-91{fill:url(#Gradiente_sem_nome_79-2);}.cls-92{fill:url(#Gradiente_sem_nome_79-3);}.cls-93{fill:url(#Gradiente_sem_nome_79-4);}.cls-101,.cls-94,.cls-97{fill:#fcc90a;}.cls-95{fill:url(#Gradiente_sem_nome_79-5);}.cls-96{fill:url(#Gradiente_sem_nome_79-6);}.cls-98{fill:url(#Gradiente_sem_nome_82-2);}.cls-99{fill:url(#Gradiente_sem_nome_82-3);}.cls-100{fill:url(#Gradiente_sem_nome_82-4);}.cls-102{fill:#fc650a;}.cls-103,.cls-104,.cls-105,.cls-106,.cls-107,.cls-108,.cls-109,.cls-110,.cls-111,.cls-112{isolation:isolate;}.cls-103{font-size:37.1px;}.cls-103,.cls-104,.cls-105,.cls-106{font-family:AbyssinicaSIL, Abyssinica SIL;}.cls-104{font-size:37.26px;}.cls-105{font-size:37.37px;}.cls-106{font-size:37.32px;}.cls-107{font-size:38.29px;}.cls-107,.cls-108,.cls-109,.cls-110,.cls-111,.cls-112{font-family:Arial-BoldMT, Arial;font-weight:700;}.cls-108{font-size:38.59px;}.cls-109{font-size:38.43px;letter-spacing:-0.12em;}.cls-110{font-size:39.02px;}.cls-111{font-size:37.83px;letter-spacing:-0.12em;}.cls-112{font-size:38.43px;}.cls-114{fill:#fff;}.cls-115{fill:url(#Gradiente_sem_nome_84-71);}.cls-116{fill:url(#Gradiente_sem_nome_84-72);}</style><linearGradient id="Gradiente_sem_nome_15" x1="19690.7" y1="-19039.29" x2="19705.55" y2="-19039.29" gradientTransform="matrix(0.69, -0.72, 1.17, 1.12, 9221.64, 35870.56)" gradientUnits="userSpaceOnUse"><stop offset="0.03" stop-color="#8e2f00"/><stop offset="0.53" stop-color="#fffcf1"/><stop offset="1" stop-color="#8e2f00"/></linearGradient><linearGradient id="Gradiente_sem_nome_84" x1="292.23" y1="-14446.3" x2="321.87" y2="-14446.3" gradientTransform="translate(-1.71 14778.72)" gradientUnits="userSpaceOnUse"><stop offset="0" stop-color="#00ff2d"/><stop offset="0.33" stop-color="#00ff2d"/><stop offset="0.65" stop-color="#0bbc36"/><stop offset="1" stop-color="#00b92d"/></linearGradient><linearGradient id="Gradiente_sem_nome_84-2" x1="-469.25" y1="-13661.29" x2="-442.01" y2="-13661.29" gradientTransform="translate(-191.44 14000.77) rotate(4)" xlink:href="#Gradiente_sem_nome_84"/><linearGradient id="Gradiente_sem_nome_84-3" x1="-742.64" y1="-12041.51" x2="-716.77" y2="-12041.51" gradientTransform="matrix(1.05, 0.18, -0.18, 1.04, -1094.52, 12937.53)" xlink:href="#Gradiente_sem_nome_84"/><linearGradient id="Gradiente_sem_nome_84-4" x1="781.8" y1="-9408.67" x2="802.88" y2="-9408.67" gradientTransform="matrix(1.16, 0.13, -0.18, 1.6, -2299.22, 15213.7)" xlink:href="#Gradiente_sem_nome_84"/><linearGradient id="Gradiente_sem_nome_84-5" x1="571.92" y1="-8244.49" x2="590.35" y2="-8244.49" gradientTransform="matrix(1.21, 0.27, -0.37, 1.68, -3435.72, 13937.58)" xlink:href="#Gradiente_sem_nome_84"/><linearGradient id="Gradiente_sem_nome_84-6" x1="980.88" y1="-5810.3" x2="999.31" y2="-5810.3" gradientTransform="matrix(1.31, 0.69, -0.89, 1.7, -6139.54, 9414.73)" xlink:href="#Gradiente_sem_nome_84"/><linearGradient id="Gradiente_sem_nome_84-7" x1="982.35" y1="-5822.09" x2="998.72" y2="-5822.09" gradientTransform="matrix(1.31, 0.69, -0.89, 1.7, -6139.54, 9414.73)" xlink:href="#Gradiente_sem_nome_84"/><linearGradient id="Gradiente_sem_nome_84-8" x1="391.46" y1="-4763.81" x2="408.89" y2="-4763.81" gradientTransform="matrix(1.18, 0.85, -1.11, 1.53, -5406.54, 7134)" xlink:href="#Gradiente_sem_nome_84"/><linearGradient id="Gradiente_sem_nome_84-9" x1="162.77" y1="-3498.11" x2="180.22" y2="-3498.11" gradientTransform="matrix(1.03, 1.02, -1.33, 1.34, -4462.26, 4678.03)" xlink:href="#Gradiente_sem_nome_84"/><linearGradient id="Gradiente_sem_nome_84-10" x1="665.38" y1="-3492.2" x2="681.18" y2="-3492.2" gradientTransform="matrix(1.08, 1.07, -1.39, 1.4, -5197.76, 4320.28)" xlink:href="#Gradiente_sem_nome_84"/><linearGradient id="Gradiente_sem_nome_84-11" x1="2030.31" y1="-2443.8" x2="2042.47" y2="-2443.8" gradientTransform="matrix(1.04, 1.4, -1.87, 1.39, -6286.69, 686.2)" xlink:href="#Gradiente_sem_nome_84"/><linearGradient id="Gradiente_sem_nome_84-12" x1="3280.22" y1="-1761.51" x2="3289.97" y2="-1761.51" gradientTransform="matrix(0.97, 1.73, -2.25, 1.26, -6731.04, -3331.75)" xlink:href="#Gradiente_sem_nome_84"/><linearGradient id="Gradiente_sem_nome_84-13" x1="3012.69" y1="-1685.46" x2="3020.78" y2="-1685.46" gradientTransform="matrix(0.86, 1.69, -2.53, 1.29, -6424.52, -2802.13)" xlink:href="#Gradiente_sem_nome_84"/><linearGradient id="Gradiente_sem_nome_84-14" x1="293.94" y1="-14418.95" x2="323.56" y2="-14418.95" xlink:href="#Gradiente_sem_nome_84"/><linearGradient id="Gradiente_sem_nome_84-15" x1="1222.3" y1="-14999.41" x2="1251.93" y2="-14999.41" gradientTransform="matrix(0.98, -0.21, 0.21, 0.98, 2242.09, 15347.57)" xlink:href="#Gradiente_sem_nome_84"/><linearGradient id="Gradiente_sem_nome_17" x1="2008.97" y1="-14795.85" x2="2039.01" y2="-14795.85" gradientTransform="matrix(1, -0.36, 0.38, 1.05, 3910.7, 16682.59)" gradientUnits="userSpaceOnUse"><stop offset="0" stop-color="#00ff2d"/><stop offset="0.71" stop-color="#00ff2d"/><stop offset="1" stop-color="#0bbc36"/><stop offset="1" stop-color="#00b92d"/></linearGradient><linearGradient id="Gradiente_sem_nome_84-16" x1="2617.43" y1="-14558.43" x2="2647.77" y2="-14558.43" gradientTransform="matrix(0.94, -0.49, 0.56, 1.09, 6044.27, 17587.29)" xlink:href="#Gradiente_sem_nome_84"/><linearGradient id="Gradiente_sem_nome_84-17" x1="2616.27" y1="-14533.35" x2="2647.82" y2="-14533.35" gradientTransform="matrix(0.94, -0.49, 0.56, 1.09, 6044.27, 17587.29)" xlink:href="#Gradiente_sem_nome_84"/><linearGradient id="Gradiente_sem_nome_84-18" x1="423.49" y1="-7203.83" x2="454.13" y2="-7203.83" gradientTransform="translate(-1.71 7346.72)" xlink:href="#Gradiente_sem_nome_84"/><linearGradient id="Gradiente_sem_nome_84-19" x1="403.6" y1="-7191.53" x2="438.59" y2="-7191.53" gradientTransform="translate(-1.71 7346.72)" xlink:href="#Gradiente_sem_nome_84"/><linearGradient id="Gradiente_sem_nome_84-20" x1="385.31" y1="-7179.82" x2="420.28" y2="-7179.82" gradientTransform="translate(-1.71 7346.72)" xlink:href="#Gradiente_sem_nome_84"/><linearGradient id="Gradiente_sem_nome_84-21" x1="994.94" y1="-7621.02" x2="1029.93" y2="-7621.02" gradientTransform="matrix(0.99, -0.15, 0.15, 0.99, 499.58, 7882.84)" xlink:href="#Gradiente_sem_nome_84"/><linearGradient id="Gradiente_sem_nome_84-22" x1="2026" y1="-8037.07" x2="2060.97" y2="-8037.07" gradientTransform="matrix(1.11, -0.35, 0.3, 0.95, 511.94, 8552.25)" xlink:href="#Gradiente_sem_nome_84"/><linearGradient id="Gradiente_sem_nome_84-23" x1="2019.72" y1="-8410.2" x2="2055.05" y2="-8410.2" gradientTransform="matrix(1.11, -0.35, 0.28, 0.88, 450.85, 8335.02)" xlink:href="#Gradiente_sem_nome_84"/><linearGradient id="Gradiente_sem_nome_84-24" x1="2465.18" y1="-8630.76" x2="2500.53" y2="-8630.76" gradientTransform="matrix(1.07, -0.46, 0.37, 0.84, 885.86, 8632.73)" xlink:href="#Gradiente_sem_nome_84"/><linearGradient id="Gradiente_sem_nome_84-25" x1="2989.27" y1="-8783.37" x2="3024.63" y2="-8783.37" gradientTransform="matrix(1, -0.59, 0.47, 0.79, 1460.6, 8976.96)" xlink:href="#Gradiente_sem_nome_84"/><linearGradient id="Gradiente_sem_nome_84-26" x1="3442.08" y1="-8832.41" x2="3477.43" y2="-8832.41" gradientTransform="matrix(0.93, -0.69, 0.55, 0.74, 1971.75, 9210.83)" xlink:href="#Gradiente_sem_nome_84"/><linearGradient id="Gradiente_sem_nome_84-27" x1="4452.61" y1="-8768.63" x2="4487.97" y2="-8768.63" gradientTransform="matrix(0.75, -0.88, 0.7, 0.6, 3112.37, 9510.45)" xlink:href="#Gradiente_sem_nome_84"/><linearGradient id="Gradiente_sem_nome_84-28" x1="4886.38" y1="-8201.89" x2="4922.63" y2="-8201.89" gradientTransform="matrix(0.66, -0.96, 0.82, 0.57, 3817.5, 9722.49)" xlink:href="#Gradiente_sem_nome_84"/><linearGradient id="Gradiente_sem_nome_84-29" x1="5449.73" y1="-7958.88" x2="5485.96" y2="-7958.88" gradientTransform="matrix(0.53, -1.03, 0.89, 0.46, 4519.71, 9656.58)" xlink:href="#Gradiente_sem_nome_84"/><linearGradient id="Gradiente_sem_nome_84-30" x1="5653.44" y1="-7854.43" x2="5689.68" y2="-7854.43" gradientTransform="matrix(0.48, -1.06, 0.91, 0.41, 4767.33, 9616.92)" xlink:href="#Gradiente_sem_nome_84"/><linearGradient id="Gradiente_sem_nome_84-31" x1="6052.33" y1="-7304.48" x2="6087.82" y2="-7304.48" gradientTransform="matrix(0.3, -1.3, 0.97, 0.23, 5616.64, 9984.39)" xlink:href="#Gradiente_sem_nome_84"/><linearGradient id="Gradiente_sem_nome_84-32" x1="6659.11" y1="-6547.24" x2="6696.32" y2="-6547.24" gradientTransform="matrix(0.03, -1.34, 1, 0.02, 6713.84, 9510.14)" xlink:href="#Gradiente_sem_nome_84"/><linearGradient id="Gradiente_sem_nome_84-33" x1="6641.83" y1="-6532.55" x2="6677.95" y2="-6532.55" gradientTransform="matrix(0.03, -1.34, 1, 0.02, 6713.84, 9510.14)" xlink:href="#Gradiente_sem_nome_84"/><linearGradient id="Gradiente_sem_nome_84-34" x1="1282.01" y1="-7823.07" x2="1302.35" y2="-7823.07" gradientTransform="translate(-840.29 7951.92)" xlink:href="#Gradiente_sem_nome_84"/><linearGradient id="Gradiente_sem_nome_84-35" x1="6733.83" y1="-14445.63" x2="6763.46" y2="-14445.63" gradientTransform="matrix(-1, 0, 0, 1, 7496.21, 14778.72)" xlink:href="#Gradiente_sem_nome_84"/><linearGradient id="Gradiente_sem_nome_84-36" x1="5953.15" y1="-14155.37" x2="5980.43" y2="-14155.37" gradientTransform="matrix(-1, 0.07, 0.07, 1, 7695.2, 14012.1)" xlink:href="#Gradiente_sem_nome_84"/><linearGradient id="Gradiente_sem_nome_84-37" x1="5215.56" y1="-13072.08" x2="5241.41" y2="-13072.08" gradientTransform="matrix(-1.05, 0.18, 0.18, 1.04, 8589.02, 12937.53)" xlink:href="#Gradiente_sem_nome_84"/><linearGradient id="Gradiente_sem_nome_84-38" x1="6265.83" y1="-9853.8" x2="6286.88" y2="-9853.8" gradientTransform="matrix(-1.16, 0.13, 0.18, 1.6, 9793.72, 15213.7)" xlink:href="#Gradiente_sem_nome_84"/><linearGradient id="Gradiente_sem_nome_84-39" x1="5646.29" y1="-9059.61" x2="5664.74" y2="-9059.61" gradientTransform="matrix(-1.21, 0.27, 0.37, 1.68, 10930.22, 13937.58)" xlink:href="#Gradiente_sem_nome_84"/><linearGradient id="Gradiente_sem_nome_84-40" x1="4835.49" y1="-7374.4" x2="4853.92" y2="-7374.4" gradientTransform="matrix(-1.31, 0.69, 0.89, 1.7, 13634.04, 9414.73)" xlink:href="#Gradiente_sem_nome_84"/><linearGradient id="Gradiente_sem_nome_84-41" x1="4836.96" y1="-7386.24" x2="4853.34" y2="-7386.24" gradientTransform="matrix(-1.31, 0.69, 0.89, 1.7, 13634.04, 9414.73)" xlink:href="#Gradiente_sem_nome_84"/><linearGradient id="Gradiente_sem_nome_84-42" x1="3977.03" y1="-6755.48" x2="3994.48" y2="-6755.48" gradientTransform="matrix(-1.18, 0.85, 1.11, 1.53, 12901.04, 7134)" xlink:href="#Gradiente_sem_nome_84"/><linearGradient id="Gradiente_sem_nome_84-43" x1="3317.03" y1="-5898.61" x2="3334.51" y2="-5898.61" gradientTransform="matrix(-1.03, 1.02, 1.33, 1.34, 11956.76, 4678.03)" xlink:href="#Gradiente_sem_nome_84"/><linearGradient id="Gradiente_sem_nome_84-44" x1="3672.45" y1="-5790.02" x2="3688.22" y2="-5790.02" gradientTransform="matrix(-1.08, 1.07, 1.39, 1.4, 12692.27, 4320.28)" xlink:href="#Gradiente_sem_nome_84"/><linearGradient id="Gradiente_sem_nome_84-45" x1="4233.99" y1="-4662.92" x2="4246.18" y2="-4662.92" gradientTransform="matrix(-1.04, 1.4, 1.87, 1.39, 13781.19, 686.2)" xlink:href="#Gradiente_sem_nome_84"/><linearGradient id="Gradiente_sem_nome_84-46" x1="4867.37" y1="-3940.21" x2="4877.12" y2="-3940.21" gradientTransform="matrix(-0.97, 1.73, 2.25, 1.26, 14225.55, -3331.75)" xlink:href="#Gradiente_sem_nome_84"/><linearGradient id="Gradiente_sem_nome_84-47" x1="4556.07" y1="-3706.87" x2="4564.19" y2="-3706.87" gradientTransform="matrix(-0.86, 1.69, 2.53, 1.29, 13919.02, -2802.13)" xlink:href="#Gradiente_sem_nome_84"/><linearGradient id="Gradiente_sem_nome_84-48" x1="6735.52" y1="-14418.37" x2="6765.18" y2="-14418.37" gradientTransform="matrix(-1, 0, 0, 1, 7496.21, 14778.72)" xlink:href="#Gradiente_sem_nome_84"/><linearGradient id="Gradiente_sem_nome_84-49" x1="7514.9" y1="-13664.31" x2="7544.51" y2="-13664.31" gradientTransform="matrix(-0.98, -0.21, -0.21, 0.98, 5253.87, 15360.55)" xlink:href="#Gradiente_sem_nome_84"/><linearGradient id="Gradiente_sem_nome_84-50" x1="7706.79" y1="-12841.33" x2="7736.81" y2="-12841.33" gradientTransform="matrix(-1, -0.36, -0.38, 1.05, 3583.8, 16682.59)" xlink:href="#Gradiente_sem_nome_84"/><linearGradient id="Gradiente_sem_nome_84-51" x1="8023.84" y1="-12128.12" x2="8054.18" y2="-12128.12" gradientTransform="matrix(-0.94, -0.49, -0.56, 1.09, 1450.24, 17587.29)" xlink:href="#Gradiente_sem_nome_84"/><linearGradient id="Gradiente_sem_nome_84-52" x1="8022.68" y1="-12102.97" x2="8054.24" y2="-12102.97" gradientTransform="matrix(-0.94, -0.49, -0.56, 1.09, 1450.24, 17587.29)" xlink:href="#Gradiente_sem_nome_84"/><linearGradient id="Gradiente_sem_nome_84-53" x1="6865.06" y1="-7203.22" x2="6895.73" y2="-7203.22" gradientTransform="matrix(-1, 0, 0, 1, 7496.21, 7346.72)" xlink:href="#Gradiente_sem_nome_84"/><linearGradient id="Gradiente_sem_nome_84-54" x1="6845.2" y1="-7190.93" x2="6880.19" y2="-7190.93" gradientTransform="matrix(-1, 0, 0, 1, 7496.21, 7346.72)" xlink:href="#Gradiente_sem_nome_84"/><linearGradient id="Gradiente_sem_nome_84-55" x1="6826.91" y1="-7179.14" x2="6861.88" y2="-7179.14" gradientTransform="matrix(-1, 0, 0, 1, 7496.21, 7346.72)" xlink:href="#Gradiente_sem_nome_84"/><linearGradient id="Gradiente_sem_nome_84-56" x1="7370.93" y1="-6675.18" x2="7405.9" y2="-6675.18" gradientTransform="matrix(-0.99, -0.15, -0.15, 0.99, 6981.82, 7899.63)" xlink:href="#Gradiente_sem_nome_84"/><linearGradient id="Gradiente_sem_nome_84-57" x1="7303.61" y1="-6092.02" x2="7338.6" y2="-6092.02" gradientTransform="matrix(-1.11, -0.35, -0.3, 0.95, 6982.57, 8552.25)" xlink:href="#Gradiente_sem_nome_84"/><linearGradient id="Gradiente_sem_nome_84-58" x1="7293.37" y1="-6311.86" x2="7328.72" y2="-6311.86" gradientTransform="matrix(-1.11, -0.35, -0.28, 0.88, 7043.66, 8335.02)" xlink:href="#Gradiente_sem_nome_84"/><linearGradient id="Gradiente_sem_nome_84-59" x1="7525.09" y1="-5858.27" x2="7560.44" y2="-5858.27" gradientTransform="matrix(-1.07, -0.46, -0.37, 0.84, 6608.64, 8632.73)" xlink:href="#Gradiente_sem_nome_84"/><linearGradient id="Gradiente_sem_nome_84-60" x1="7756.38" y1="-5221.89" x2="7791.73" y2="-5221.89" gradientTransform="matrix(-1, -0.59, -0.47, 0.79, 6033.9, 8976.96)" xlink:href="#Gradiente_sem_nome_84"/><linearGradient id="Gradiente_sem_nome_84-61" x1="7907.97" y1="-4669.04" x2="7943.33" y2="-4669.04" gradientTransform="matrix(-0.93, -0.69, -0.55, 0.74, 5522.75, 9210.83)" xlink:href="#Gradiente_sem_nome_84"/><linearGradient id="Gradiente_sem_nome_84-62" x1="8080.41" y1="-3450.47" x2="8115.73" y2="-3450.47" gradientTransform="matrix(-0.75, -0.88, -0.7, 0.6, 4382.13, 9510.45)" xlink:href="#Gradiente_sem_nome_84"/><linearGradient id="Gradiente_sem_nome_84-63" x1="8043.61" y1="-2886.19" x2="8079.81" y2="-2886.19" gradientTransform="matrix(-0.66, -0.96, -0.82, 0.57, 3677.01, 9722.49)" xlink:href="#Gradiente_sem_nome_84"/><linearGradient id="Gradiente_sem_nome_84-64" x1="8003.28" y1="-2241.35" x2="8039.52" y2="-2241.35" gradientTransform="matrix(-0.53, -1.03, -0.89, 0.46, 2974.8, 9656.58)" xlink:href="#Gradiente_sem_nome_84"/><linearGradient id="Gradiente_sem_nome_84-65" x1="7925.7" y1="-1974.97" x2="7961.94" y2="-1974.97" gradientTransform="matrix(-0.48, -1.06, -0.91, 0.41, 2727.18, 9616.92)" xlink:href="#Gradiente_sem_nome_84"/><linearGradient id="Gradiente_sem_nome_84-66" x1="7168.15" y1="-1008.03" x2="7203.67" y2="-1008.03" gradientTransform="matrix(-0.3, -1.3, -0.97, 0.23, 1877.86, 9984.39)" xlink:href="#Gradiente_sem_nome_84"/><linearGradient id="Gradiente_sem_nome_84-67" x1="6753.51" y1="-108.61" x2="6790.72" y2="-108.61" gradientTransform="matrix(-0.03, -1.34, -1, 0.02, 780.66, 9510.14)" xlink:href="#Gradiente_sem_nome_84"/><linearGradient id="Gradiente_sem_nome_84-68" x1="6736.25" y1="-93.9" x2="6772.38" y2="-93.9" gradientTransform="matrix(-0.03, -1.34, -1, 0.02, 780.66, 9510.14)" xlink:href="#Gradiente_sem_nome_84"/><linearGradient id="Gradiente_sem_nome_84-69" x1="7602.3" y1="-6578.41" x2="7622.6" y2="-6578.41" gradientTransform="matrix(0, -1, -1, 0, -5967.08, 7728.71)" xlink:href="#Gradiente_sem_nome_84"/><linearGradient id="Gradiente_sem_nome_84-70" x1="355.06" y1="-7046.71" x2="355.06" y2="-7046.71" gradientTransform="translate(-1.71 7346.72)" xlink:href="#Gradiente_sem_nome_84"/><linearGradient id="Gradiente_sem_nome_82" x1="-117414.23" y1="-2524.8" x2="-117234.73" y2="-2524.8" gradientTransform="matrix(0.13, 0.14, -0.38, 0.36, 14770.56, 17742.33)" gradientUnits="userSpaceOnUse"><stop offset="0.03" stop-color="#ff3400"/><stop offset="0.53" stop-color="#fcc90a"/><stop offset="1" stop-color="#ff3400"/></linearGradient><linearGradient id="Gradiente_sem_nome_79" x1="405.03" y1="-21668.26" x2="446.17" y2="-21632.52" gradientTransform="translate(-1.71 22210.72)" gradientUnits="userSpaceOnUse"><stop offset="0.03" stop-color="#fccb14"/><stop offset="0.53" stop-color="#fffcf1"/><stop offset="0.53" stop-color="#fff"/><stop offset="0.85" stop-color="#fcc90a"/></linearGradient><linearGradient id="Gradiente_sem_nome_79-2" x1="364.31" y1="-21741.88" x2="464.99" y2="-21654.32" xlink:href="#Gradiente_sem_nome_79"/><linearGradient id="Gradiente_sem_nome_79-3" x1="35824.39" y1="-21668.26" x2="35865.36" y2="-21632.61" gradientTransform="matrix(-1, 0, 0, 1, 36475.76, 22210.72)" xlink:href="#Gradiente_sem_nome_79"/><linearGradient id="Gradiente_sem_nome_79-4" x1="35812.45" y1="-21741.97" x2="35913.22" y2="-21654.39" gradientTransform="matrix(-1, 0, 0, 1, 36504.76, 22210.72)" xlink:href="#Gradiente_sem_nome_79"/><linearGradient id="Gradiente_sem_nome_79-5" x1="401.01" y1="-21656.89" x2="414.36" y2="-21645.28" xlink:href="#Gradiente_sem_nome_79"/><linearGradient id="Gradiente_sem_nome_79-6" x1="36049.95" y1="-21656.79" x2="36063.27" y2="-21645.21" gradientTransform="matrix(-1, 0, 0, 1, 36705.33, 22210.72)" xlink:href="#Gradiente_sem_nome_79"/><linearGradient id="Gradiente_sem_nome_82-2" x1="-9055.75" y1="-2689.64" x2="-9003.11" y2="-2689.64" gradientTransform="matrix(0.64, 0.7, -0.79, 0.73, 4211.65, 8616.53)" xlink:href="#Gradiente_sem_nome_82"/><linearGradient id="Gradiente_sem_nome_82-3" x1="-7451.72" y1="-2281.21" x2="-7404.9" y2="-2281.21" gradientTransform="matrix(0.66, 0.76, -1.09, 0.95, 2962.79, 8163.27)" xlink:href="#Gradiente_sem_nome_82"/><linearGradient id="Gradiente_sem_nome_82-4" x1="-6581.58" y1="-1947.09" x2="-6513.89" y2="-1947.09" gradientTransform="matrix(0.68, 0.79, -0.79, 0.69, 3490.86, 6838.48)" xlink:href="#Gradiente_sem_nome_82"/><linearGradient id="Gradiente_sem_nome_84-71" x1="497.49" y1="486.49" x2="497.49" y2="486.49" gradientTransform="matrix(1, 0, 0, -1, -1.71, 598.72)" xlink:href="#Gradiente_sem_nome_84"/><linearGradient id="Gradiente_sem_nome_84-72" x1="497.49" y1="487.57" x2="497.49" y2="487.57" gradientTransform="matrix(1, 0, 0, -1, -1.71, 598.72)" xlink:href="#Gradiente_sem_nome_84"/></defs><rect class="cls-1" width="1024" height="680.55"/><g id="Camada_2" data-name="Camada 2"><rect class="cls-2" x="493.9" y="339.41" width="64.64" height="40.56"/><path class="cls-3" d="M540,298.77V422.52H512.32V298.77"/><rect class="cls-4" x="512.32" y="381.69" width="27.73" height="40.78"/><path class="cls-5" d="M493.56,364.15h18.79"/><rect class="cls-4" x="493.9" y="357.5" width="63.78" height="6.12"/><path class="cls-5" d="M540.47,364.15h18.78"/><path class="cls-6" d="M495.61,352.79v6.93"/><path class="cls-6" d="M501.68,352.79v6.93"/><path class="cls-6" d="M508.72,352.79v6.93"/><path class="cls-6" d="M542.91,352.79v6.93"/><path class="cls-6" d="M549,352.79v6.93"/><path class="cls-6" d="M556,352.79v6.93"/><polyline class="cls-3" points="558.5 423.19 558.5 463.77 493.87 463.77 493.87 423.19"/><path class="cls-7" d="M490.6,381.21h71v41.23h-71Z"/><path class="cls-5" d="M493.54,448h18.78"/><rect class="cls-4" x="512.29" y="381.69" width="27.73" height="40.78"/><path class="cls-5" d="M540.47,448h18.81"/><rect class="cls-4" x="494.89" y="440.5" width="63.78" height="6.12"/><path class="cls-6" d="M495.59,436.6v6.81"/><path class="cls-6" d="M501.68,436.6v6.81"/><path class="cls-6" d="M508.69,436.6v6.81"/><path class="cls-6" d="M542.88,436.6v6.81"/><path class="cls-6" d="M549,436.6v6.81"/><path class="cls-6" d="M556,436.6v6.81"/><path class="cls-6" d="M520.05,436.74v6.87"/><path class="cls-6" d="M526.15,436.74v6.87"/><path class="cls-6" d="M533.15,436.74v6.87"/><path class="cls-8" d="M540.88,465"/><path class="cls-8" d="M512.76,465"/><path class="cls-9" d="M494.59,456.49v-7.34h16.62v14.79H494.59Z"/><path class="cls-9" d="M541,456.49v-7.34h16.63v14.79H541Z"/><path class="cls-10" d="M512.76,448.37H541"/><path class="cls-9" d="M513.32,456.43v-7.28h25.57v14.68h-25.6Z"/><path class="cls-6" d="M520.08,353v6.76"/><path class="cls-6" d="M526.17,353v6.76"/><path class="cls-6" d="M533.18,353v6.76"/><path class="cls-7" d="M516.89,386.26h18v26.29h-18Z"/><path class="cls-8" d="M512.76,381.21H541"/><path class="cls-9" d="M494.62,372.68v-7.42h16.62v14.79H494.62Z"/><path class="cls-9" d="M541,372.68v-7.42h16.63v14.79H541Z"/><path class="cls-10" d="M512.76,364.51H541"/><path class="cls-9" d="M513.35,372.65v-7.39h25.57v14.63h-25.6Z"/><path class="cls-7" d="M491,214.46h71v41.22H491Z"/><path class="cls-7" d="M491,297h71v41.37H491Z"/><path class="cls-7" d="M493.9,255.68h65.3V297H493.9Z"/><path class="cls-7" d="M512.76,214.46h27.71V338.33H512.76Z"/><path class="cls-5" d="M493.9,272.61h65.3"/><path class="cls-5" d="M493.9,279.93h18.86"/><path class="cls-5" d="M540.8,279.93h18.78"/><path class="cls-6" d="M491,220.61h71"/><path class="cls-7" d="M517.25,229.5h17.9v21h-17.9Z"/><path class="cls-6" d="M491,227.51h21.74"/><path class="cls-6" d="M540.47,227.79h21.66"/><path class="cls-6" d="M545.43,237v12"/><path class="cls-6" d="M551.55,237v12"/><path class="cls-6" d="M558.53,237v12"/><path class="cls-6" d="M495.25,237v12"/><path class="cls-6" d="M501.35,237v12"/><path class="cls-6" d="M508.33,237v12"/><path class="cls-6" d="M496,268.57v6.81"/><path class="cls-6" d="M502.07,268.57v6.81"/><path class="cls-6" d="M509.11,268.57v6.81"/><path class="cls-6" d="M543.24,268.57v6.81"/><path class="cls-6" d="M549.36,268.57v6.81"/><path class="cls-6" d="M556.34,268.57v6.81"/><path class="cls-6" d="M520.41,268.71v6.81"/><path class="cls-6" d="M526.62,268.71v6.81"/><path class="cls-6" d="M533.51,268.71v6.81"/><path class="cls-6" d="M545.57,225.29v5.38"/><path class="cls-6" d="M551.72,225.29v5.38"/><path class="cls-6" d="M558.67,225.29v5.38"/><path class="cls-6" d="M495.37,225.29v5.38"/><path class="cls-6" d="M501.49,225.29v5.38"/><path class="cls-6" d="M508.47,225.29v5.38"/><path class="cls-3" d="M547.31,191.8s-11.83,3.63-11.83,20.94v1.72h11.33c3.41-21.78,13.08-22.66,13.08-22.66,0-20.59-14.88-37.38-33.25-37.38s-33.27,16.77-33.27,37.38A49,49,0,0,1,508,214.46h9.61v-2.05c0-17-11.27-20.64-11.27-20.64,0-12.72,9.17-23.05,20.5-23.05S547.31,179.05,547.31,191.8Z"/><path class="cls-3" d="M517.58,212.41v2h17.9v-1.72c0-17.31,11.83-20.94,11.83-20.94,0-12.72-9.2-23.05-20.5-23.05s-20.5,10.33-20.5,23.05C506.31,191.8,517.58,195.43,517.58,212.41Z"/><path class="cls-7" d="M517.22,302h18v26.3h-18Z"/><path class="cls-8" d="M513,297h28.28"/><path class="cls-9" d="M495,288.46v-7.4h16.62V296H495Z"/><path class="cls-9" d="M541.27,288.46v-7.4h16.62V296H541.27Z"/><path class="cls-10" d="M513.15,280.15h28.26"/><path class="cls-9" d="M513.57,288.46v-7.31h25.57v14.62H513.57Z"/><path class="cls-8" d="M512.9,255.68h28.37"/><path class="cls-9" d="M496.94,270v-1.47h-2.16V256.9h16.63v14.58H510v-3h-1.94v3h-4.9v-3H501v3h-4.05Z"/><path class="cls-9" d="M513.76,264.19v-7.26h25.57v14.55h-4.79v-2.77h-2v2.77h-4.88v-2.77h-2.16v2.77h-3.93v-2.77h-2.16v2.77h-5.55v-7.29Z"/><path class="cls-9" d="M541.47,271.37V256.93h16.62v14.55h-.33c-.31,0-.31,0-.36-1.5v-1.41h-2v3h-5v-3h-2v2.77h-4v-2.77h-2v1.41c0,1.31,0,1.45-.33,1.5a.61.61,0,0,1-.42,0Z"/><path class="cls-11" d="M516.14,184.4h2.55v2.77h-2.55Z"/><path class="cls-11" d="M525.56,184.46h2.55v2.77h-2.55Z"/><path class="cls-11" d="M525.56,194.73h2.55v2.77h-2.55Z"/><path class="cls-11" d="M525.56,175.53h2.55v2.78h-2.55Z"/><path class="cls-11" d="M534.93,184.46h2.55v2.77h-2.55Z"/><rect class="cls-6" x="513.18" y="422.44" width="26.37" height="41.31"/><rect class="cls-12" x="490.38" y="463.89" width="71.01" height="42.39"/><rect class="cls-6" x="490.38" y="465.02" width="71.01" height="41.25"/><rect class="cls-6" x="512.32" y="465.02" width="27.7" height="41.25"/><path class="cls-7" d="M517.22,470h18v26.26h-18Z"/></g><path class="cls-13" d="M656.11,464l-10.25,10.75L426.41,265a7.64,7.64,0,0,1-.25-9,7.81,7.81,0,0,1,10.47-1.72Z"/><path class="cls-14" d="M429.15,309.07l50.12-54.35a14.7,14.7,0,0,0,.69-11.59l-52.64,55.64a27.79,27.79,0,0,0,.42,4.9A27.34,27.34,0,0,0,429.15,309.07Z"/><path class="cls-15" d="M427.27,308.79a100.43,100.43,0,0,1-9.31-8.31q-3.45-3.45-6.15-6.7a18.75,18.75,0,0,1-2.5-11.64l18-.44Z"/><path class="cls-16" d="M480,243.13c-2.52,3.33-6.34,8.32-11.27,13.86s-4.66,4.85-14.8,15.65c-5.37,5.71-10.91,11.08-16.26,17A62.18,62.18,0,0,1,430.9,296c-1.53,1.19-2.77,2.1-3.72,2.77a23.11,23.11,0,0,1-4-2.17,50.07,50.07,0,0,1-6.54-6.15l-2-1.94a15.58,15.58,0,0,1-2.93-3.24,16,16,0,0,1-2.05-4.12c5.4-5.77,9.75-10.28,12.77-13.41s3.54-3.63,5.29-5.54c4.29-4.71,5.54-6.38,9.34-10.53,4.54-4.77,6.84-7.15,8.75-7.82,4.77-1.63,5.76,1.72,11.08.42,4.63-1.14,5.54-4.07,13.27-6.87,1.31-.47,2.41-.8,3.16-1a8.35,8.35,0,0,1,3.27,1.47A9,9,0,0,1,480,243.13Z"/><g id="Camada_2-2" data-name="Camada 2-2"><path d="M361.19,471.75l18.09-17.84c-16.23-23-41.89-67.07-43.52-125.78-3.08-111.32,83.33-178.53,88-179a12.23,12.23,0,0,0,5.73-2,11,11,0,0,0,2.3-2.17,169.48,169.48,0,0,1,12.69-12.74,108.43,108.43,0,0,0-58.18,16.82c-11.63,7.59-23.21,18.75-40.84,51.14-25.57,47.1-42.24,77.82-42.33,122.43,0,42.77,15.1,75.46,24.16,94.8A267,267,0,0,0,361.19,471.75Z"/><path class="cls-17" d="M319.11,349a29.67,29.67,0,0,1-21.78-8.53,22.45,22.45,0,0,1-5.54-8.73,23.24,23.24,0,0,1,.42-16,36.35,36.35,0,0,1,24,14.13,20.36,20.36,0,0,1,2.77,5.82A19.64,19.64,0,0,1,319.11,349Z"/><path class="cls-18" d="M316.86,323.42a27.56,27.56,0,0,1-12.93-3.77,27.24,27.24,0,0,1-6.52-5.54,20.42,20.42,0,0,1-3.18-22.88,34.72,34.72,0,0,1,16.1,8.31,35.17,35.17,0,0,1,5.12,6.1,19.11,19.11,0,0,1,2.3,5.54A20.5,20.5,0,0,1,316.86,323.42Z"/><path class="cls-19" d="M317.28,300.34a27.57,27.57,0,0,1-12.63-5.07,27,27,0,0,1-6-6.09,21.09,21.09,0,0,1-3.76-8.81,21.45,21.45,0,0,1,2.77-14.46,35.37,35.37,0,0,1,15.32,10,34.08,34.08,0,0,1,4.54,6.62,19.55,19.55,0,0,1,1.77,5.73A20.32,20.32,0,0,1,317.28,300.34Z"/><path class="cls-20" d="M321.43,282.92c-3.57-2.77-6.53-5.32-8.83-7.26a34.61,34.61,0,0,1-7.15-7.15,23.67,23.67,0,0,1-3.24-7.51,32.11,32.11,0,0,1,1.16-18.48A94.12,94.12,0,0,1,315.81,254a31,31,0,0,1,5.4,7.84A25.38,25.38,0,0,1,321.43,282.92Z"/><path class="cls-21" d="M326.42,263.91c-3-3-5.54-5.54-7.48-7.56A30.79,30.79,0,0,1,313,248.9a21.83,21.83,0,0,1-2.3-7.37,29.9,29.9,0,0,1,2.77-17,87.93,87.93,0,0,1,10.39,11.83,27.73,27.73,0,0,1,4.26,7.81,24,24,0,0,1-1.77,19.67Z"/><path class="cls-22" d="M331.3,244.3c-2.77-4.21-4.8-7.87-6.46-10.75a36.5,36.5,0,0,1-4.73-9.92,24.56,24.56,0,0,1-.56-8.75,31.52,31.52,0,0,1,8.06-17.57,105.57,105.57,0,0,1,8.65,16.35,32.12,32.12,0,0,1,2.77,9.83,27.92,27.92,0,0,1-.2,6.65A26.73,26.73,0,0,1,331.3,244.3Z"/><path class="cls-23" d="M342.19,222c-2.33-3.74-4.24-7-5.71-9.5a31.9,31.9,0,0,1-4.21-8.81,21.37,21.37,0,0,1-.5-7.76A28.06,28.06,0,0,1,339,180.27a100,100,0,0,1,7.51,14.41,29,29,0,0,1,2.41,8.81A22.51,22.51,0,0,1,342.3,222Z"/><path class="cls-24" d="M351.19,206.73c-1.88-4.16-3.35-7.87-4.49-10.72a36,36,0,0,1-2.94-9.78,23.09,23.09,0,0,1,.73-8.15A29.58,29.58,0,0,1,354.32,163a97.12,97.12,0,0,1,5.54,16.15,29.4,29.4,0,0,1,1.05,9.56,23.5,23.5,0,0,1-9.83,18.15Z"/><path class="cls-25" d="M362.77,187.61c-1.19-4.46-2.08-8.31-2.77-11.27a34.71,34.71,0,0,1-1.58-10.11,22.25,22.25,0,0,1,2-8,29.53,29.53,0,0,1,12-13.47,98.11,98.11,0,0,1,3.13,16.82,30.18,30.18,0,0,1-.22,9.67,26.47,26.47,0,0,1-2,5.87A24.9,24.9,0,0,1,362.77,187.61Z"/><path class="cls-26" d="M379.78,172.65c-1.13-4.21-2-7.84-2.63-10.66a32.79,32.79,0,0,1-1.41-9.59,22.17,22.17,0,0,1,1.82-7.51,28,28,0,0,1,11.36-12.74,93.55,93.55,0,0,1,3,15.93,28.22,28.22,0,0,1-.25,9A22.33,22.33,0,0,1,379.78,172.65Z"/><path class="cls-27" d="M394.77,158c-.36-3.8-.58-7-.75-9.56a29.39,29.39,0,0,1,0-8.48,19.75,19.75,0,0,1,2.77-6.26,25.41,25.41,0,0,1,11.69-9.67,64.07,64.07,0,0,1,.83,14.57,24.25,24.25,0,0,1-1.46,7.54,21.49,21.49,0,0,1-2.77,5A20,20,0,0,1,394.77,158Z"/><path class="cls-28" d="M410.53,145.48c0-3.47.23-6.4.36-8.68a27.22,27.22,0,0,1,1-7.56,17.06,17.06,0,0,1,3.05-5.29,21.82,21.82,0,0,1,11.36-7.26,56.65,56.65,0,0,1-.81,13.13,20.86,20.86,0,0,1-2.1,6.57,16.7,16.7,0,0,1-2.77,4.13A17.41,17.41,0,0,1,410.53,145.48Z"/><path class="cls-29" d="M427,136.08c.36-2.77.69-5.23,1-7.14a21.06,21.06,0,0,1,1.63-6.24,15.73,15.73,0,0,1,3.1-4.4,22.69,22.69,0,0,1,10.7-6.07,26.5,26.5,0,0,1-.25,2.94,39,39,0,0,1-.78,4.29,29.1,29.1,0,0,1-.89,3.57,20.14,20.14,0,0,1-2.41,5.55,15.87,15.87,0,0,1-2.77,3.4A17.71,17.71,0,0,1,427,136.08Z"/><path class="cls-30" d="M320.83,376.34A29.42,29.42,0,0,1,299,367.86a22.45,22.45,0,0,1-5.54-8.73,23.38,23.38,0,0,1,.42-15.95A38.29,38.29,0,0,1,312,351a35.68,35.68,0,0,1,6,6.27,22.33,22.33,0,0,1,2.77,5.81A19.73,19.73,0,0,1,320.83,376.34Z"/><path class="cls-31" d="M331.55,399.56a30.06,30.06,0,0,1-14.66,0,29.05,29.05,0,0,1-8.31-3.83,21.78,21.78,0,0,1-7.29-7.34,23.26,23.26,0,0,1-2.93-15.71,38.18,38.18,0,0,1,19.39,3.94,35.82,35.82,0,0,1,7.15,4.87,21.08,21.08,0,0,1,4,5.07A19.6,19.6,0,0,1,331.55,399.56Z"/><path class="cls-32" d="M346.78,427.76a91.7,91.7,0,0,1-17.56-1.8,37.17,37.17,0,0,1-9.59-3,25.34,25.34,0,0,1-8.89-7.09A27.4,27.4,0,0,1,305.2,399a38.42,38.42,0,0,1,29.39,6.26,22,22,0,0,1,5.1,5.13A37.55,37.55,0,0,1,346.78,427.76Z"/><path class="cls-33" d="M366.23,454.69a113.32,113.32,0,0,1-19.14-.56A37,37,0,0,1,337,452a27.82,27.82,0,0,1-10.2-6.76,33,33,0,0,1-8.64-17.6,38.07,38.07,0,0,1,21.47-.25,42.56,42.56,0,0,1,9.19,3.91,25.48,25.48,0,0,1,6,4.82A55.7,55.7,0,0,1,366.23,454.69Z"/><path class="cls-34" d="M379.78,483.58a113.67,113.67,0,0,1-19.17-.55,38.31,38.31,0,0,1-10.09-2.19,31.92,31.92,0,0,1-10.11-6.76c-7.26-7.15-9.14-18.62-9.33-19.86,4.57,0,8.31.38,11.08.58a77,77,0,0,1,10.91,1.44,36.07,36.07,0,0,1,10.25,3.21A33.93,33.93,0,0,1,370,464.3,36.91,36.91,0,0,1,379.78,483.58Z"/><path class="cls-35" d="M443.5,150.93a22.19,22.19,0,0,1-9.45-2,20.37,20.37,0,0,1-7.14-5.29l2.74-3.13A18.21,18.21,0,0,1,440.57,135a19.11,19.11,0,0,1,17.26,7.56,23.94,23.94,0,0,1-14.33,8.42Z"/><path class="cls-36" d="M426.88,164a26.37,26.37,0,0,1-10.72-2.22,23.39,23.39,0,0,1-8.31-5.9,22.83,22.83,0,0,1,15.57-9.5,21,21,0,0,1,10,2.19,33.36,33.36,0,0,1,9.64,6.12,28.85,28.85,0,0,1-7.4,6.12A29.46,29.46,0,0,1,426.88,164Z"/><path class="cls-37" d="M408.51,175.76a26,26,0,0,1-10.72-2.25,23.31,23.31,0,0,1-8.31-5.87,21.59,21.59,0,0,1,3-3.44,20.92,20.92,0,0,1,12.47-6.15,20.41,20.41,0,0,1,10,2.19,32.43,32.43,0,0,1,9.64,6.1,28,28,0,0,1-7.37,6.12A29.78,29.78,0,0,1,408.51,175.76Z"/><path class="cls-38" d="M392.22,190.05a26.24,26.24,0,0,1-11.08-.61,23.71,23.71,0,0,1-8.87-4.62,21.83,21.83,0,0,1,2.41-3.85,20.8,20.8,0,0,1,11.45-7.9,20.28,20.28,0,0,1,10.22.72,32,32,0,0,1,10.44,4.63,27.22,27.22,0,0,1-6.4,7.17A29.65,29.65,0,0,1,392.22,190.05Z"/><path class="cls-39" d="M380.58,207.48A34.57,34.57,0,0,1,368,209.17a27.38,27.38,0,0,1-10.84-2.77,22.89,22.89,0,0,1,2.22-4.32,25.47,25.47,0,0,1,12.08-10.28,26.94,26.94,0,0,1,11.77-1.47,39.7,39.7,0,0,1,12.53,2.38,31.86,31.86,0,0,1-6.32,8.31A37.36,37.36,0,0,1,380.58,207.48Z"/><path class="cls-40" d="M368.17,226.37c-3.57,1.5-6.7,1.5-12.88,1.39a82,82,0,0,1-10.14-.78,17.24,17.24,0,0,1,1.8-5.54A21.71,21.71,0,0,1,359,211.61,42.63,42.63,0,0,1,370.75,210c5.12-.33,9.34-.36,12.22-.3a32.7,32.7,0,0,1-6.26,10.22A23.06,23.06,0,0,1,368.17,226.37Z"/><path class="cls-41" d="M358.42,245.93c-3.41,1.83-6.54,2.14-12.72,2.77a81.65,81.65,0,0,1-10.14.22,17.4,17.4,0,0,1,1.17-5.7,21.41,21.41,0,0,1,11.08-11.08,41.59,41.59,0,0,1,11.53-2.77c5-.92,9.25-1.31,12.1-1.56a31.89,31.89,0,0,1-5.21,10.78A23.74,23.74,0,0,1,358.42,245.93Z"/><path class="cls-42" d="M350.11,267.43c-3.16,2.25-6.26,2.94-12.27,4.18a81.36,81.36,0,0,1-10.06,1.5,18.22,18.22,0,0,1,.47-5.84,21.64,21.64,0,0,1,9.61-12.22A41.49,41.49,0,0,1,349,250.89c4.9-1.47,9-2.44,11.83-3a31.79,31.79,0,0,1-3.86,11.39A23,23,0,0,1,350.11,267.43Z"/><path class="cls-43" d="M344.87,288c-2.77,2.58-5.9,3.58-11.77,5.54a79.41,79.41,0,0,1-9.84,2.55,19.06,19.06,0,0,1,0-5.84,21.5,21.5,0,0,1,8.31-13.19,41.54,41.54,0,0,1,10.56-5.26c4.74-2,8.73-3.36,11.44-4.24a31.61,31.61,0,0,1-2.6,11.72A23.76,23.76,0,0,1,344.87,288Z"/><path class="cls-44" d="M341,312c-2.24,3.16-4.93,4.82-10.22,8a78.75,78.75,0,0,1-9,4.68,18.34,18.34,0,0,1-1.44-5.54,21.46,21.46,0,0,1,5.1-14.79,42.41,42.41,0,0,1,9.14-7.54c4.15-3,7.76-5.21,10.22-6.7a32.39,32.39,0,0,1,0,12A22.7,22.7,0,0,1,341,312Z"/><path class="cls-45" d="M341.8,336.44a24.42,24.42,0,0,1-9.53,8.87,40,40,0,0,1-9.37,4.38,19.2,19.2,0,0,1-1.8-4.69,21.25,21.25,0,0,1,3.27-15.43,31.28,31.28,0,0,1,8.31-8.31A67.71,67.71,0,0,1,345,313.64a91.72,91.72,0,0,1-.78,12.39A29.26,29.26,0,0,1,341.8,336.44Z"/><path class="cls-46" d="M346.54,359.72a24.58,24.58,0,0,1-8.32,10,41,41,0,0,1-8.75,5.54,17.91,17.91,0,0,1-2.33-4.41,21.18,21.18,0,0,1,1.19-15.71,31.9,31.9,0,0,1,7.12-9.28,66.5,66.5,0,0,1,11.31-9.11,96.71,96.71,0,0,1,.77,12.38A28.49,28.49,0,0,1,346.54,359.72Z"/><path class="cls-47" d="M353.07,382.79a24,24,0,0,1-7.84,10.39,40.43,40.43,0,0,1-8.45,5.93,20.21,20.21,0,0,1-2.55-4.26,21.06,21.06,0,0,1,.39-15.74,31.19,31.19,0,0,1,6.82-9.73,63.77,63.77,0,0,1,10.83-9.66A98,98,0,0,1,353.66,372,29.25,29.25,0,0,1,353.07,382.79Z"/><path class="cls-48" d="M364.18,402.8a31.71,31.71,0,0,1-6.06,13.6,49.87,49.87,0,0,1-7.43,8.78,18.34,18.34,0,0,1-3.35-4.1,26.29,26.29,0,0,1-2.22-17.65A35.17,35.17,0,0,1,350.28,391a45.29,45.29,0,0,1,10.91-12.17c.22,1.53,1.58,11.09,1.72,12A65.67,65.67,0,0,1,364.18,402.8Z"/><path class="cls-49" d="M377,425.71c0,3.88-1.61,7.15-4.65,13.68a104.38,104.38,0,0,1-5.54,10.12,18,18,0,0,1-4-3.36A26.51,26.51,0,0,1,357,429.31,33.9,33.9,0,0,1,359.53,416a41,41,0,0,1,11.52-16.35,86,86,0,0,0,2.25,12.33C375.38,419.81,377,421.14,377,425.71Z"/><path class="cls-50" d="M391.11,449.37c-.25,4.18-1.72,7.37-4.68,13.71a110,110,0,0,1-5.54,10.11,18.67,18.67,0,0,1-3.88-3.38A26.43,26.43,0,0,1,371.25,453a34,34,0,0,1,2.49-13.36,40.59,40.59,0,0,1,10-14.93,82.18,82.18,0,0,1,4.46,10.81C390.28,441.89,391.36,445.07,391.11,449.37Z"/><ellipse class="cls-51" cx="451.86" cy="128.85" rx="10.17" ry="5.54" transform="matrix(0.98, -0.19, 0.19, 0.98, -16.37, 89.65)"/><polygon class="cls-52" points="442.84 132.7 460.9 125.03 460.9 125.03 442.84 132.7"/><path d="M691.76,472.39l-18.14-17.7c16.23-23,41.91-67.08,43.52-125.78,3.08-111.4-83.33-178.61-88-179.11a12.13,12.13,0,0,1-5.71-2.05,10.81,10.81,0,0,1-2.32-2.16,162.41,162.41,0,0,0-12.72-12.72,108,108,0,0,1,58.18,16.82c11.64,7.59,23.27,18.72,40.81,51.11,25.6,47.1,42.25,77.85,42.36,122.43,0,42.77-15.1,75.47-24.16,94.83A267.38,267.38,0,0,1,691.76,472.39Z"/><path class="cls-53" d="M733.79,336.44a20.57,20.57,0,0,1,2.77-5.81,36.29,36.29,0,0,1,24.05-14.13,23.29,23.29,0,0,1,.42,16,22.2,22.2,0,0,1-5.54,8.7,29.27,29.27,0,0,1-21.78,8.48A19.67,19.67,0,0,1,733.79,336.44Z"/><path class="cls-54" d="M735.21,311.87a18.81,18.81,0,0,1,2.29-5.54,33.63,33.63,0,0,1,21.23-14.49,21.8,21.8,0,0,1,1.41,14.68,20.45,20.45,0,0,1-4.6,8.31,26,26,0,0,1-6.51,5.55,27.32,27.32,0,0,1-12.94,3.76A20.36,20.36,0,0,1,735.21,311.87Z"/><path class="cls-55" d="M733.52,288.93a20.49,20.49,0,0,1,1.77-5.73,33.44,33.44,0,0,1,4.65-6.6,35.08,35.08,0,0,1,15.32-10A21.38,21.38,0,0,1,758,281a21,21,0,0,1-3.76,8.81,26.21,26.21,0,0,1-6,6.1A27.68,27.68,0,0,1,735.62,301,20.86,20.86,0,0,1,733.52,288.93Z"/><path class="cls-56" d="M731.47,283.67a25.52,25.52,0,0,1,.22-21.17,30.36,30.36,0,0,1,5.54-7.84,97.2,97.2,0,0,1,12.41-11.5,32.1,32.1,0,0,1,1.16,18.48,23.58,23.58,0,0,1-3.24,7.62,32.33,32.33,0,0,1-7.15,7.15c-2.3,1.94-5.26,4.49-8.83,7.26Z"/><path class="cls-57" d="M726.48,264.55a24.07,24.07,0,0,1-1.8-19.67,27.88,27.88,0,0,1,4.18-7.81,87.23,87.23,0,0,1,10.39-11.83,29.9,29.9,0,0,1,2.77,17,22.17,22.17,0,0,1-2.08,7.39,31,31,0,0,1-6,7.34c-1.94,2-4.46,4.6-7.51,7.57Z"/><path class="cls-58" d="M714.21,230.72a27.92,27.92,0,0,1-.2-6.65,32.12,32.12,0,0,1,2.77-9.83A106.38,106.38,0,0,1,725.37,198a31.42,31.42,0,0,1,8,17.7,24.72,24.72,0,0,1-.56,8.78,37.55,37.55,0,0,1-4.73,9.92c-1.66,2.77-3.83,6.51-6.46,10.72A26.79,26.79,0,0,1,714.21,230.72Z"/><path class="cls-59" d="M710.69,222.58a22.45,22.45,0,0,1-6.76-18.45,28.3,28.3,0,0,1,2.41-8.79A91.83,91.83,0,0,1,714,180.85a28.13,28.13,0,0,1,7.14,15.63,22.14,22.14,0,0,1-.47,7.78,33.94,33.94,0,0,1-4.24,8.81C715,215.6,713,218.84,710.69,222.58Z"/><path class="cls-60" d="M692.84,195.32a25.77,25.77,0,0,1-1.08-6.1,29.6,29.6,0,0,1,1.14-9.45,98.69,98.69,0,0,1,5.54-16.18,29.45,29.45,0,0,1,9.84,15.16,23.29,23.29,0,0,1,.72,8.14,35.55,35.55,0,0,1-3,9.76c-1.14,2.77-2.64,6.51-4.46,10.75A25.35,25.35,0,0,1,692.84,195.32Z"/><path class="cls-61" d="M679.8,177.64a26,26,0,0,1-2-5.87,31,31,0,0,1-.36-9.51,100,100,0,0,1,3.13-16.81,29.32,29.32,0,0,1,12.08,13.41,23.19,23.19,0,0,1,1.94,7.95,34.44,34.44,0,0,1-1.47,10.08c-.69,3-1.6,6.82-2.77,11.28A24.91,24.91,0,0,1,679.8,177.64Z"/><path class="cls-62" d="M673.12,173.29a22.45,22.45,0,0,1-11.83-15.51,28.28,28.28,0,0,1-.31-9,94.91,94.91,0,0,1,3-15.93,27.73,27.73,0,0,1,11.36,12.72,21.56,21.56,0,0,1,1.83,7.54,33.13,33.13,0,0,1-1.42,9.58c-.63,2.77-1.49,6.43-2.6,10.64Z"/><path class="cls-63" d="M647.69,151.93a20.84,20.84,0,0,1-2.77-5,23.92,23.92,0,0,1-1.47-7.53,64,64,0,0,1,.83-14.57A25.55,25.55,0,0,1,656,134.5a19.7,19.7,0,0,1,2.77,6.27,27.34,27.34,0,0,1,0,8.47c-.17,2.52-.39,5.77-.75,9.56A19.81,19.81,0,0,1,647.69,151.93Z"/><path class="cls-64" d="M632.39,141.26a18.47,18.47,0,0,1-2.77-4.1,21.42,21.42,0,0,1-2.1-6.59,57.77,57.77,0,0,1-.81-13.13,22.06,22.06,0,0,1,11.39,7.15,17.61,17.61,0,0,1,2.77,5.18,26.28,26.28,0,0,1,1,7.59c0,2.27.24,5.18.33,8.64A17.19,17.19,0,0,1,632.39,141.26Z"/><path class="cls-65" d="M616.66,132.54a17.28,17.28,0,0,1-2.77-3.44,19.11,19.11,0,0,1-2.41-5.54,47.34,47.34,0,0,1-1.8-10.83,23,23,0,0,1,10.69,6.07,15.81,15.81,0,0,1,3.21,4.4,22.15,22.15,0,0,1,1.53,6.26c.3,1.91.63,4.32,1,7.15A17.78,17.78,0,0,1,616.66,132.54Z"/><path class="cls-66" d="M732.07,363.71a22.91,22.91,0,0,1,2.78-5.82,36.28,36.28,0,0,1,24.07-14.13,23.29,23.29,0,0,1,.42,16,22.5,22.5,0,0,1-5.54,8.7,29.28,29.28,0,0,1-7.49,5.38,29.83,29.83,0,0,1-14.32,3.1A19.64,19.64,0,0,1,732.07,363.71Z"/><path class="cls-67" d="M724.12,387.42a21.12,21.12,0,0,1,4-5.07,35.72,35.72,0,0,1,7.17-4.88,37.76,37.76,0,0,1,19.4-3.93,23.57,23.57,0,0,1-2.94,15.71,22.48,22.48,0,0,1-7.31,7.37,29.38,29.38,0,0,1-23,3.74A19.77,19.77,0,0,1,724.12,387.42Z"/><path class="cls-68" d="M713.24,410.89a22.07,22.07,0,0,1,5.09-5.07,38.62,38.62,0,0,1,29.37-6.21,27.42,27.42,0,0,1-5.54,16.93,25.38,25.38,0,0,1-8.89,7.17,35.48,35.48,0,0,1-9.48,2.94,91.13,91.13,0,0,1-17.59,1.8A37.18,37.18,0,0,1,713.24,410.89Z"/><path class="cls-69" d="M698.05,436.74a25,25,0,0,1,6-4.91,41.3,41.3,0,0,1,9.19-3.88,37.54,37.54,0,0,1,21.47.22,32.94,32.94,0,0,1-8.64,17.6,28.12,28.12,0,0,1-10.28,6.76,38.06,38.06,0,0,1-10,2.21,119.3,119.3,0,0,1-19.18.56A55.48,55.48,0,0,1,698.05,436.74Z"/><path class="cls-70" d="M682.93,465a32.26,32.26,0,0,1,6.65-4.82,36.74,36.74,0,0,1,10.11-3.29,72.88,72.88,0,0,1,10.91-1.42c2.77-.25,6.65-.47,11.09-.61-.2,1.25-2.08,12.69-9.31,19.87a32.31,32.31,0,0,1-10.2,6.76,37.46,37.46,0,0,1-10.08,2.19,113.44,113.44,0,0,1-19.15.55A36.31,36.31,0,0,1,682.93,465Z"/><path class="cls-71" d="M609.29,151.6a21.76,21.76,0,0,0,9.42-2,21.08,21.08,0,0,0,7.17-5.35l-2.6-3.16a18.63,18.63,0,0,0-10.92-5.54,19.13,19.13,0,0,0-17.26,7.56,23.83,23.83,0,0,0,6.49,5.55A25.79,25.79,0,0,0,609.29,151.6Z"/><path class="cls-72" d="M626.08,164.65a26.18,26.18,0,0,0,10.75-2.22,23.92,23.92,0,0,0,8.14-5.9,23.67,23.67,0,0,0-3-3.44,20.73,20.73,0,0,0-12.47-6.15,21,21,0,0,0-10,2.19,33.09,33.09,0,0,0-9.64,6.1,27.78,27.78,0,0,0,7.37,6.15A30.67,30.67,0,0,0,626.08,164.65Z"/><path class="cls-73" d="M644.39,176.39a26,26,0,0,0,10.72-2.21,23.79,23.79,0,0,0,8.06-5.88,21.89,21.89,0,0,0-2.77-3.46A18.39,18.39,0,0,0,637.91,161a32.68,32.68,0,0,0-9.65,6.06,28,28,0,0,0,7.21,6.16A30.13,30.13,0,0,0,644.39,176.39Z"/><path class="cls-74" d="M660.68,190.72a25.91,25.91,0,0,0,11.08-.61,23.92,23.92,0,0,0,9-4.63,22.74,22.74,0,0,0-2.44-3.85,18.33,18.33,0,0,0-21.66-7.2,33.09,33.09,0,0,0-10.45,4.62,27.65,27.65,0,0,0,6.4,7.15A29.16,29.16,0,0,0,660.68,190.72Z"/><path class="cls-75" d="M672.23,208.12a35,35,0,0,0,12.61,1.69A27.38,27.38,0,0,0,695.67,207a24.33,24.33,0,0,0-2.24-4.33,25.61,25.61,0,0,0-11.94-10.28A27.74,27.74,0,0,0,669.71,191a39.41,39.41,0,0,0-12.52,2.38,32.1,32.1,0,0,0,6.34,8.48A36.92,36.92,0,0,0,672.23,208.12Z"/><path class="cls-76" d="M684.73,227c3.57,1.47,6.73,1.47,12.88,1.36a83.94,83.94,0,0,0,10.14-.78,17.77,17.77,0,0,0-1.77-5.54,21.73,21.73,0,0,0-12.11-9.81,42.23,42.23,0,0,0-11.72-1.61c-5.12-.36-9.34-.36-12.22-.33a32,32,0,0,0,6.29,10.25A23.79,23.79,0,0,0,684.73,227Z"/><path class="cls-77" d="M694.59,246.57c3.38,1.83,6.54,2.13,12.69,2.77a78.46,78.46,0,0,0,10.17.25,17.69,17.69,0,0,0-1.19-5.71,21.47,21.47,0,0,0-11.09-11.08A41.41,41.41,0,0,0,693.68,230a121,121,0,0,0-12.14-1.55,32.46,32.46,0,0,0,5.21,10.8A22.72,22.72,0,0,0,694.59,246.57Z"/><path class="cls-78" d="M702.85,268.07c3.13,2.24,6.26,2.94,12.27,4.21a81.29,81.29,0,0,0,10.06,1.47,17.93,17.93,0,0,0-.5-5.88A21.57,21.57,0,0,0,715,255.66a41.55,41.55,0,0,0-11.08-4.16c-4.91-1.47-9-2.44-11.83-3A31.81,31.81,0,0,0,696,259.84,23.36,23.36,0,0,0,702.85,268.07Z"/><path class="cls-79" d="M708.05,288.68c2.78,2.55,5.88,3.57,11.75,5.54a79.41,79.41,0,0,0,9.84,2.55,17.9,17.9,0,0,0,.16-5.84,21.54,21.54,0,0,0-8.31-13.19,41.53,41.53,0,0,0-10.55-5.38c-4.74-2-8.7-3.38-11.45-4.26a31.88,31.88,0,0,0,2.61,11.74A23.67,23.67,0,0,0,708.05,288.68Z"/><path class="cls-80" d="M711.88,312.62c2.24,3.16,4.93,4.79,10.22,8a81,81,0,0,0,9,4.65,17.44,17.44,0,0,0,1.44-5.54,21.42,21.42,0,0,0-5.09-14.63,40.63,40.63,0,0,0-9.12-7.56c-4.15-3-7.73-5.24-10.22-6.71a32.28,32.28,0,0,0,0,12A23.79,23.79,0,0,0,711.88,312.62Z"/><path class="cls-81" d="M711.13,337.08a24.54,24.54,0,0,0,9.53,8.89,41.28,41.28,0,0,0,9.39,4.35,18.52,18.52,0,0,0,1.8-4.65,21.17,21.17,0,0,0-3.16-15.43,29.49,29.49,0,0,0-8.31-8.31A66,66,0,0,0,708,314.28a93.11,93.11,0,0,0,.77,12.38A27.93,27.93,0,0,0,711.13,337.08Z"/><path class="cls-82" d="M706.45,360.49a24,24,0,0,0,8.31,10,40.57,40.57,0,0,0,8.73,5.54,16.32,16.32,0,0,0,2.32-4.41,21.09,21.09,0,0,0-1.19-15.71,30.73,30.73,0,0,0-7.31-9.33A66.17,66.17,0,0,0,706,337.44a97.18,97.18,0,0,0-.77,12.41A28.82,28.82,0,0,0,706.45,360.49Z"/><path class="cls-83" d="M699.83,383.43a24.61,24.61,0,0,0,7.84,10.39,41.87,41.87,0,0,0,8.45,6,17.44,17.44,0,0,0,2.55-4.3,21,21,0,0,0-.39-15.73,30.48,30.48,0,0,0-6.82-9.73,67.51,67.51,0,0,0-10.8-9.67,93.11,93.11,0,0,0-1.42,12.33A29.26,29.26,0,0,0,699.83,383.43Z"/><path class="cls-84" d="M688.77,403.43A31.59,31.59,0,0,0,694.84,417a48.52,48.52,0,0,0,7.4,8.78,17.52,17.52,0,0,0,3.27-4.1,26.67,26.67,0,0,0,2.21-17.65,35.8,35.8,0,0,0-5.15-12.58,46.3,46.3,0,0,0-10.89-12.16c-.19,1.52-1.58,11.08-1.72,12A58.16,58.16,0,0,0,688.77,403.43Z"/><path class="cls-85" d="M676,426.35c0,3.9,1.61,7.14,4.68,13.68a91.76,91.76,0,0,0,5.55,10.11,17.87,17.87,0,0,0,4-3.35A26.44,26.44,0,0,0,696,430a33.57,33.57,0,0,0-2.53-13.39A41.52,41.52,0,0,0,682,400.28a78.43,78.43,0,0,1-2.25,12.35C677.52,420.44,675.89,421.75,676,426.35Z"/><path class="cls-86" d="M661.82,450c.22,4.19,1.69,7.35,4.65,13.69A104.22,104.22,0,0,0,672,473.83a17.12,17.12,0,0,0,4-3.38,26.43,26.43,0,0,0,5.76-16.81,35.09,35.09,0,0,0-2.49-13.36,41.29,41.29,0,0,0-10-15,83.17,83.17,0,0,0-4.49,10.83C662.62,442.53,661.54,445.6,661.82,450Z"/><ellipse class="cls-87" cx="599.81" cy="129.6" rx="5.53" ry="10.15" transform="translate(358.41 693.78) rotate(-79.03)"/><polygon class="cls-52" points="610.03 133.34 591.97 125.67 591.97 125.67 610.03 133.34"/><path class="cls-52" d="M303.12,391.91a30.66,30.66,0,0,1-13.43-13.85"/><path class="cls-52" d="M313.29,225.13a35.74,35.74,0,0,1,1.41-10.23"/><path class="cls-52" d="M380.58,139.71q3-5.31,6.43-10.89c1.91-3,3.8-6,5.54-8.78"/><path class="cls-52" d="M349.31,325.45a10.45,10.45,0,0,1,0,8.45,9.26,9.26,0,0,1-2.17,2.77"/><path class="cls-88" d="M353.35,300"/><path class="cls-52" d="M352.88,301.26a38.93,38.93,0,0,1-3.16,6.37,37.7,37.7,0,0,1-4.57,6"/><path class="cls-52" d="M695,341.71"/><path class="cls-52" d="M700.55,360.91a11,11,0,0,1-2.77-4,21.55,21.55,0,0,1-1.14-6.65c-.19-2.3-.14-2.77-.36-5.38-.17-1.91-.36-3.46-.47-4.46"/><path class="cls-52" d="M706.06,337.33a53.07,53.07,0,0,1-9.56-18.78"/><path class="cls-52" d="M491.07,99.29a208.2,208.2,0,0,0-47.79,13.85"/></g><path class="cls-89" d="M409,459.2l-5.54-5.73L527.42,335.86l22.72,24.94Z"/><path class="cls-90" d="M443.5,577.56a82.49,82.49,0,0,1-13.85-9.5c-9.2-7.73-11.91-13.5-19-15.08A20,20,0,0,0,398,554.9a58.54,58.54,0,0,1,11.63-19.62,109.22,109.22,0,0,1,40.9,36Z"/><path class="cls-91" d="M450.35,571.27a233.89,233.89,0,0,0-23.78-22.91c-6.26-5.21-12.27-9.75-18-13.85-3.63-2.78-35.66-26.13-39.15-29.18l-1-.77c-1.13-1-2.77-2.77-4.93-4.85A42.58,42.58,0,0,1,355.43,489a25.91,25.91,0,0,1-2.3-9.23L382.55,459l93.7,78Q463.37,554.21,450.35,571.27Z"/><path class="cls-92" d="M611.23,577.56a83.92,83.92,0,0,0,13.85-9.5c9.2-7.73,11.88-13.5,18.95-15.08a19.94,19.94,0,0,1,12.63,1.92A57.19,57.19,0,0,0,645,535.28a106.75,106.75,0,0,0-40.65,36Z"/><path class="cls-93" d="M604.52,571.27a234.83,234.83,0,0,1,23.77-22.91c6.21-5.21,12.28-9.75,18-13.85,3.63-2.78,35.63-26.13,39.15-29.18l1-.88c1.11-1,2.78-2.77,4.94-4.85a42.58,42.58,0,0,0,8.06-10.75,26.83,26.83,0,0,0,2.33-9.23L672.18,459l-93.67,78Z"/><path class="cls-94" d="M701.74,479.9a233.14,233.14,0,0,1-73.67,51,250.86,250.86,0,0,1-93.81,19.4,258.69,258.69,0,0,1-126.77-31,249,249,0,0,1-54.36-40.15c7.7-6.87,13.69-12.69,17.73-16.62,9.75-9.72,14.91-15.85,23.52-16.62a20.67,20.67,0,0,1,6.79.44c2.94,2.11,8,5.54,14.41,9.7,22.38,14.21,50.7,31.91,87.24,36.26a149.63,149.63,0,0,0,29.7.56c35.74-2.77,88.82-18.68,120.71-42.61a23.19,23.19,0,0,1,13.24-5.18C680.38,444.24,695.23,458.1,701.74,479.9Z"/><path class="cls-95" d="M417.71,558.61c0,.75-.56.77-2.77,3.46s-1.94,2.77-3.08,4.16a10.12,10.12,0,0,1-5,3.57c-5.07,1.08-11.72-6.34-10.75-11.22a5.36,5.36,0,0,1,.55-1.44,11.09,11.09,0,0,1,10.06-5.1C412.33,552.13,417.9,556,417.71,558.61Z"/><path class="cls-96" d="M637,558.66c0,.75.55.78,2.77,3.47s1.91,2.77,3.05,4.15a10.67,10.67,0,0,0,5,3.63c5,1.05,11.72-6.37,10.72-11.25a5.36,5.36,0,0,0-.55-1.44A11.08,11.08,0,0,0,648,552.13C642.34,552.18,636.77,556.06,637,558.66Z"/><path class="cls-97" d="M510,134.78l16.93-52.11,17,52.19-44.33-32.3h54.77"/><path class="cls-98" d="M579.39,344.17c-5.87,9.87-27.26,12.36-37.43,1.36s-5.9-32.14,4.3-37.18c8.53-4.21,19.67,3.69,24.41,8.31C577.09,323,584.49,335.56,579.39,344.17Z"/><path class="cls-99" d="M552.13,364.29l-26.32-30.48a4.94,4.94,0,0,1,1.47-5.18,5,5,0,0,1,5.71-1.05l26.32,30.47a5.1,5.1,0,0,1-2,6.54A4.41,4.41,0,0,1,552.13,364.29Z"/><path class="cls-100" d="M590.34,345.86,550.8,300.1a5,5,0,0,1,7.54-6.46l39.59,45.63a5.55,5.55,0,0,1-.66,7.81h0l-.38.31A6.25,6.25,0,0,1,590.34,345.86Z"/><path class="cls-101" d="M592,332.34l-33.69-38.78a33.36,33.36,0,0,1,6.93-8.7c7.42-6.54,12.63-4.91,14.57-9,3.19-6.65-9.28-13.46-7.59-26.07a33.38,33.38,0,0,1,4.26-11.19c3.33-5.54,7.15-7.87,7.43-13.27a13,13,0,0,0-.61-4.6c-1.77-5.79-6.07-6.87-8.31-11.08-1.22-2.33-2.11-6.23.3-12.86a20.14,20.14,0,0,0,4.77,7.07c4.68,4.57,9.64,4.57,14.68,6.73a31,31,0,0,1,14.69,15.29c2.07,4.16,6.15,12.33,4.12,20.23-.52,2.08-2.16,6.76.17,10.28a7.4,7.4,0,0,0,1.3,1.49,39.17,39.17,0,0,1-22.91,74.61Z"/><path class="cls-102" d="M604.38,321.71l-15.59-10.59,18.5-29.64,13-4.91c6.73,5.38,16.12,14.24,14,21.42-1,3.46-4.18,4.93-11.38,9.81A214.36,214.36,0,0,0,604.38,321.71Z"/><path class="cls-102" d="M571.11,302.31l15-8.31a23.67,23.67,0,0,0,2.77-19.39,21.42,21.42,0,0,0-5.84-8.95h0a18,18,0,0,1-2.77,10.06,23.6,23.6,0,0,1-5.54,5c-7.32,6.34-10.5,17.95-7.46,20.72A4.28,4.28,0,0,0,571.11,302.31Z"/><path class="cls-102" d="M607,267.57c-1.22,3.24-2.44,6.46-3.68,9.7a16.79,16.79,0,0,1,.77-16.29h0A6.22,6.22,0,0,1,607,267.57Z"/><path class="cls-102" d="M581.64,260h0A36.41,36.41,0,0,1,590,225.24l-3.69,3.35a20.75,20.75,0,0,0-8.72,21.89A25.48,25.48,0,0,0,581.64,260Z"/><path class="cls-102" d="M595.88,240.59h0c0-4.66,0-9.29-.2-13.86h0a9.56,9.56,0,0,1,3.3,9.51A8.65,8.65,0,0,1,595.88,240.59Z"/><text class="cls-103" transform="translate(375.07 486.07) rotate(37.67)"></text><text class="cls-104" transform="translate(407.15 507.38) rotate(24.25)"></text><text class="cls-105" transform="translate(446.72 520.54) rotate(11.53)"></text><text class="cls-106" transform="translate(491.02 532.76)"></text><text class="cls-107" transform="translate(553.21 532.95) rotate(-10.41)">T</text><text class="cls-108" transform="translate(569.36 529.93) rotate(-12.65)">.</text><text class="cls-109" transform="translate(587.87 525.58) rotate(-17.86)">P</text><text class="cls-110" transform="matrix(0.94, -0.35, 0.35, 0.94, 604.69, 520.1)">.</text><text class="cls-111" transform="matrix(0.9, -0.43, 0.43, 0.9, 622.45, 513.34)">L</text><text class="cls-112" transform="translate(644.44 502.04) rotate(-28.29)">.</text><text class="cls-112" transform="translate(657.19 495.41) rotate(-33.26)">F</text><path class="cls-113" d="M341,182.05"/><path class="cls-52" d="M343.6,182.05c.14-4.55.44-9.42,1-14.63.47-3.91,1.05-7.62,1.69-11.08"/><path class="cls-52" d="M381.17,410a33,33,0,0,1,2.52,14.74"/><path class="cls-114" d="M492.37,105.61"/><path class="cls-52" d="M495,104.06a173.58,173.58,0,0,0-52.64,15.4"/><path class="cls-115" d="M495.78,112.23"/><path class="cls-116" d="M495.78,111.15"/><path class="cls-52" d="M495.78,112.23a265.76,265.76,0,0,0-53.58,10.53"/><path class="cls-52" d="M495.25,118.27a102.12,102.12,0,0,0-17.45,1.5,105.58,105.58,0,0,0-16.87,4.46"/><path class="cls-52" d="M496.75,126.47a81.38,81.38,0,0,0-36.63,4.4"/><path class="cls-113" d="M498.16,132.34"/><path class="cls-52" d="M497.47,132.81a147.61,147.61,0,0,0-41.39,6"/><path class="cls-52" d="M497.39,136.39a119.4,119.4,0,0,0-39.73,6.09"/><path class="cls-52" d="M680.65,255.21a60.29,60.29,0,0,1,8.57,5.85,64.45,64.45,0,0,1,10.69,11.08"/><path class="cls-52" d="M764.43,377.11a60.21,60.21,0,0,1-5.68,7.15,57.75,57.75,0,0,1-9.75,8.31"/><path class="cls-52" d="M703.54,153.93a128.39,128.39,0,0,1,9.5,26.92"/><path class="cls-52" d="M641.87,113a38.33,38.33,0,0,1,5.54,6.26,37.23,37.23,0,0,1,5.21,10.92"/><path class="cls-52" d="M659.6,119.93a16.38,16.38,0,0,1,8.31,15.79"/><path class="cls-52" d="M609.87,113.59a210.49,210.49,0,0,0-47.82-14.08"/><path class="cls-52" d="M558.17,104.42q11.64,2.56,24,5.81,14.7,3.92,28,8.32"/><path class="cls-52" d="M557.34,112.65c8.31.88,17.54,2.27,27.29,4.26s18.65,4.32,26.74,6.79"/><path class="cls-52" d="M557.89,118.68a103.69,103.69,0,0,1,34.33,5.88"/><path class="cls-52" d="M556.4,127a80.86,80.86,0,0,1,36.71,4.4"/><path class="cls-52" d="M555.65,133.31a148.79,148.79,0,0,1,41.56,6"/><path class="cls-52" d="M555.76,136.78a120,120,0,0,1,39.73,6.12"/><path class="cls-52" d="M760.47,264.22a18.57,18.57,0,0,1-.5,5,17.34,17.34,0,0,1-2,4.74"/><rect class="cls-1" x="400.57" y="494.49" width="5.98" height="5.98" transform="translate(-209.62 682.84) rotate(-67.77)"/><rect class="cls-1" x="437.48" y="509.63" width="5.98" height="5.98" transform="translate(-200.69 726.42) rotate(-67.77)"/><rect class="cls-1" x="480.37" y="523.39" width="5.98" height="5.98" transform="translate(-129.02 894.77) rotate(-78.47)"/><rect class="cls-1" x="519.25" y="527.75" width="5.98" height="5.98"/></svg>