<?xml version="1.0" encoding="UTF-8" ?>
<!DOCTYPE svg PUBLIC "-//W3C//DTD SVG 1.1//EN" "http://www.w3.org/Graphics/SVG/1.1/DTD/svg11.dtd">
<svg width="325pt" height="217pt" viewBox="0 0 325 217" version="1.1" xmlns="http://www.w3.org/2000/svg">
<g id="#007cc3ff">
<path fill="#007cc3" opacity="1.00" d=" M 0.00 0.00 L 325.00 0.00 L 325.00 217.00 L 0.00 217.00 L 0.00 0.00 M 228.11 76.15 C 223.49 78.06 220.41 83.03 220.75 88.02 C 220.79 103.36 220.72 118.69 220.78 134.02 C 220.59 138.52 223.71 142.60 227.71 144.36 C 235.83 147.76 245.58 147.78 253.26 143.20 C 255.45 141.24 256.57 144.60 257.85 145.89 C 261.43 145.91 265.01 145.89 268.60 145.90 C 268.56 133.91 268.57 121.92 268.59 109.93 C 260.44 109.79 252.28 109.92 244.13 109.86 C 244.10 113.82 244.10 117.79 244.10 121.75 C 245.53 121.72 246.96 121.69 248.40 121.67 C 248.38 126.25 248.34 130.84 248.44 135.43 C 246.70 135.95 244.89 136.00 243.09 135.83 C 242.62 118.52 242.99 101.18 242.90 83.86 C 244.71 83.82 246.51 83.81 248.33 83.81 C 248.42 89.16 248.37 94.51 248.38 99.86 C 255.11 99.88 261.84 99.88 268.57 99.86 C 268.24 93.96 269.38 87.87 267.78 82.12 C 265.14 76.21 258.34 74.00 252.36 73.45 C 244.25 72.82 235.65 72.66 228.11 76.15 M 52.13 73.74 C 52.13 93.84 52.06 113.95 52.16 134.05 C 52.22 138.96 56.51 142.52 60.77 144.12 C 67.24 146.41 74.22 147.09 81.05 146.68 C 87.55 146.18 94.55 144.99 99.52 140.41 C 101.89 138.37 102.82 135.13 102.73 132.09 C 102.72 112.65 102.72 93.22 102.73 73.79 C 95.32 73.75 87.92 73.79 80.51 73.76 C 80.49 94.33 80.56 114.91 80.47 135.48 C 78.34 136.11 76.15 136.27 74.16 135.15 C 74.33 114.69 74.18 94.23 74.23 73.77 C 66.87 73.76 59.50 73.81 52.13 73.74 M 106.74 73.77 C 106.73 97.82 106.79 121.88 106.71 145.94 C 114.11 145.93 121.50 146.13 128.90 145.88 C 128.84 134.46 128.89 123.05 128.88 111.63 C 130.99 112.01 134.66 112.10 134.67 115.05 C 134.67 123.99 133.51 133.08 135.66 141.88 C 136.11 143.52 137.26 144.83 138.16 146.23 C 145.55 146.16 152.94 146.15 160.33 146.24 C 159.32 145.00 158.05 143.86 157.63 142.27 C 155.37 134.36 155.88 126.06 156.24 117.95 C 156.32 111.19 149.19 106.87 143.07 106.83 C 149.11 106.01 156.44 101.97 156.21 95.00 C 156.00 89.88 157.49 83.62 153.25 79.70 C 148.75 75.28 142.05 74.22 136.00 73.86 C 126.25 73.65 116.49 73.84 106.74 73.77 M 162.12 73.76 C 162.10 97.86 162.08 121.97 162.13 146.08 C 168.32 145.88 174.51 145.84 180.70 146.11 C 180.59 133.73 181.02 121.32 180.46 108.95 C 184.98 121.41 189.80 133.77 194.55 146.15 C 201.96 145.61 209.39 146.12 216.81 145.93 C 217.00 121.88 216.86 97.81 216.88 73.76 C 210.73 73.78 204.58 73.78 198.43 73.76 C 198.51 84.27 198.26 94.78 198.58 105.29 C 194.87 94.69 190.93 84.16 186.78 73.73 C 178.56 73.81 170.34 73.77 162.12 73.76 Z" />
<path fill="#007cc3" opacity="1.00" d=" M 128.87 83.67 C 130.87 83.97 134.00 83.94 134.55 86.41 C 134.84 90.78 134.87 95.20 134.54 99.56 C 134.08 102.26 130.89 101.94 128.87 102.38 C 128.88 96.14 128.87 89.91 128.87 83.67 Z" />
</g>
<g id="#ffffffff">
<path fill="#ffffff" opacity="1.00" d=" M 228.11 76.15 C 235.65 72.66 244.25 72.82 252.36 73.45 C 258.34 74.00 265.14 76.21 267.78 82.12 C 269.38 87.87 268.24 93.96 268.57 99.86 C 261.84 99.88 255.11 99.88 248.38 99.86 C 248.37 94.51 248.42 89.16 248.33 83.81 C 246.51 83.81 244.71 83.82 242.90 83.86 C 242.99 101.18 242.62 118.52 243.09 135.83 C 244.89 136.00 246.70 135.95 248.44 135.43 C 248.34 130.84 248.38 126.25 248.40 121.67 C 246.96 121.69 245.53 121.72 244.10 121.75 C 244.10 117.79 244.10 113.82 244.13 109.86 C 252.28 109.92 260.44 109.79 268.59 109.93 C 268.57 121.92 268.56 133.91 268.60 145.90 C 265.01 145.89 261.43 145.91 257.85 145.89 C 256.57 144.60 255.45 141.24 253.26 143.20 C 245.58 147.78 235.83 147.76 227.71 144.36 C 223.71 142.60 220.59 138.52 220.78 134.02 C 220.72 118.69 220.79 103.36 220.75 88.02 C 220.41 83.03 223.49 78.06 228.11 76.15 Z" />
<path fill="#ffffff" opacity="1.00" d=" M 52.13 73.74 C 59.50 73.81 66.87 73.76 74.23 73.77 C 74.18 94.23 74.33 114.69 74.16 135.15 C 76.15 136.27 78.34 136.11 80.47 135.48 C 80.56 114.91 80.49 94.33 80.51 73.76 C 87.92 73.79 95.32 73.75 102.73 73.79 C 102.72 93.22 102.72 112.65 102.73 132.09 C 102.82 135.13 101.89 138.37 99.52 140.41 C 94.55 144.99 87.55 146.18 81.05 146.68 C 74.22 147.09 67.24 146.41 60.77 144.12 C 56.51 142.52 52.22 138.96 52.16 134.05 C 52.06 113.95 52.13 93.84 52.13 73.74 Z" />
<path fill="#ffffff" opacity="1.00" d=" M 106.74 73.77 C 116.49 73.84 126.25 73.65 136.00 73.86 C 142.05 74.22 148.75 75.28 153.25 79.70 C 157.49 83.62 156.00 89.88 156.21 95.00 C 156.44 101.97 149.11 106.01 143.07 106.83 C 149.19 106.87 156.32 111.19 156.24 117.95 C 155.88 126.06 155.37 134.36 157.63 142.27 C 158.05 143.86 159.32 145.00 160.33 146.24 C 152.94 146.15 145.55 146.16 138.16 146.23 C 137.26 144.83 136.11 143.52 135.66 141.88 C 133.51 133.08 134.67 123.99 134.67 115.05 C 134.66 112.10 130.99 112.01 128.88 111.63 C 128.89 123.05 128.84 134.46 128.90 145.88 C 121.50 146.13 114.11 145.93 106.71 145.94 C 106.79 121.88 106.73 97.82 106.74 73.77 M 128.87 83.67 C 128.87 89.91 128.88 96.14 128.87 102.38 C 130.89 101.94 134.08 102.26 134.54 99.56 C 134.87 95.20 134.84 90.78 134.55 86.41 C 134.00 83.94 130.87 83.97 128.87 83.67 Z" />
<path fill="#ffffff" opacity="1.00" d=" M 162.12 73.76 C 170.34 73.77 178.56 73.81 186.78 73.73 C 190.93 84.16 194.87 94.69 198.58 105.29 C 198.26 94.78 198.51 84.27 198.43 73.76 C 204.58 73.78 210.73 73.78 216.88 73.76 C 216.86 97.81 217.00 121.88 216.81 145.93 C 209.39 146.12 201.96 145.61 194.55 146.15 C 189.80 133.77 184.98 121.41 180.46 108.95 C 181.02 121.32 180.59 133.73 180.70 146.11 C 174.51 145.84 168.32 145.88 162.13 146.08 C 162.08 121.97 162.10 97.86 162.12 73.76 Z" />
</g>
</svg>
